<svg id="Layer_1" data-name="Layer 1" xmlns="http://www.w3.org/2000/svg" viewBox="0 0 300 121.57"><defs><style>.cls-1{fill:#ffedc2;}.cls-2,.cls-5{fill:#42210b;}.cls-3,.cls-5{isolation:isolate;}.cls-4{fill:#6a222a;}.cls-5{font-size:13px;font-family:LucidaConsole, Lucida Console;}</style></defs><path class="cls-1" d="M300,104.15V99.6c-2.08,0-3.77-1.42-3.77-3.17s1.69-3.17,3.77-3.17V89.41c-2.08,0-3.77-1.41-3.77-3.17s1.69-3.16,3.77-3.16V79.23c-2.08,0-3.77-1.42-3.77-3.17s1.69-3.17,3.77-3.17V69.05c-2.08,0-3.77-1.42-3.77-3.17s1.69-3.17,3.77-3.17V58.86c-2.08,0-3.77-1.42-3.77-3.16s1.69-3.17,3.77-3.17V48.68c-2.08,0-3.77-1.42-3.77-3.17s1.69-3.17,3.77-3.17V38.5c-2.08,0-3.77-1.42-3.77-3.17s1.69-3.17,3.77-3.17V28.31c-2.08,0-3.77-1.41-3.77-3.16S297.92,22,300,22V17.42h-2.34C287.23,16.44,279.13,9,279.13,0H20.87c0,9-8.11,16.45-18.54,17.43H0V22c2.08,0,3.77,1.41,3.77,3.17S2.08,28.31,0,28.31v3.85c2.08,0,3.77,1.42,3.77,3.17S2.08,38.5,0,38.5v3.84c2.08,0,3.77,1.42,3.77,3.17S2.08,48.68,0,48.68v3.85c2.08,0,3.77,1.42,3.77,3.17S2.08,58.86,0,58.86v3.85c2.08,0,3.77,1.42,3.77,3.17S2.08,69.05,0,69.05v3.84c2.08,0,3.77,1.42,3.77,3.17S2.08,79.23,0,79.23v3.85c2.08,0,3.77,1.41,3.77,3.16S2.08,89.41,0,89.41v3.85c2.08,0,3.77,1.42,3.77,3.17S2.08,99.6,0,99.6v4.55H2.33c10.43,1,18.54,8.4,18.54,17.42H279.13c0-9,8.11-16.44,18.53-17.42Z"/><polygon class="cls-2" points="235.27 45.55 236.93 50.01 242.5 49.97 237.96 52.68 239.74 57.11 235.27 54.32 230.8 57.11 232.57 52.68 228.04 49.97 233.6 50.01 235.27 45.55"/><polygon class="cls-2" points="58.78 45.55 60.45 50.01 66.01 49.97 61.48 52.68 63.25 57.11 58.78 54.32 54.32 57.11 56.09 52.68 51.56 49.97 57.12 50.01 58.78 45.55"/><g class="cls-3"><g class="cls-3"><path class="cls-2" d="M103.61,40.46a1.93,1.93,0,0,1,0,.24,2.71,2.71,0,0,0,0,.4c0,.32,0,.61,0,.9a1.62,1.62,0,0,1,0,.22,3.53,3.53,0,0,0,0,.66c0,.24,0,.44,0,.67,0,.42,0,.65,0,1.17,0,.33,0,.77,0,1.18a4.58,4.58,0,0,1,0,.64,1.84,1.84,0,0,0,0,.43c0,.28,0,.45,0,.68a4.49,4.49,0,0,0,0,.6c0,.29,0,.55,0,1s.06.74.06,1.09c0,.08,0,.18,0,.29s0,.33,0,.45,0,.38-.11.46a.85.85,0,0,1-.44.16.25.25,0,0,1-.28-.22c0-.08,0-.15,0-.26a8.15,8.15,0,0,1,.1-1.12c0-.08,0-.14,0-.24,0-.29,0-.74,0-1.09s0-.64,0-.94c0-.12,0-.21,0-.32a.47.47,0,0,1,0-.18c0-.3.13-.66.13-.94s0-.45,0-.63,0-.3,0-.45-.08-1.16-.08-1.71c0-1.09.06-1.55.06-2a3.54,3.54,0,0,0,0-.45,4.54,4.54,0,0,1-.06-.6,4.7,4.7,0,0,1,.06-.6c0-.38.13-.41.32-.44S103.61,40,103.61,40.46Zm.87-.94c.12,0,.35.14.49.14l.63,0a1.73,1.73,0,0,0,.38,0,8,8,0,0,1,1.11-.05h.43c.57,0,.51,0,1.1-.1a4.87,4.87,0,0,1,1.57.45c.63.42,1.49,1,1.51,1.92a4.84,4.84,0,0,1-.18,1.52,2.33,2.33,0,0,1-1,1.15c-.06.07-.34.2-.34.26s.12.19.32.24c1.06.48,1.35.59,1.78,1.71a2.18,2.18,0,0,1,.18,1,4.35,4.35,0,0,1,0,.64,4.12,4.12,0,0,1-.4,1.42,2.58,2.58,0,0,1-1,1.17,5.52,5.52,0,0,1-1.26.58,3.66,3.66,0,0,1-.39,0c-.32,0-.45-.05-.65-.05s-1.12.05-1.59.05-1,.11-1.61.11c-.29,0-.55,0-.92,0-.17,0-.13,0-.21,0a.38.38,0,0,0-.27-.08c-.17,0-.19-.11-.19-.32v-.41a3,3,0,0,0,.13-.84c0-.27,0-.51,0-.73a1.55,1.55,0,0,1,.07-.53c0-.48-.08-.75-.08-1.06s0-.4,0-.72,0-.51,0-.81a1.33,1.33,0,0,0,0-.39,1.93,1.93,0,0,1,0-.25c0-.23,0-.48,0-.63s.07-.43.07-.89c0-.26,0-.53,0-1s.08-1.41.08-1.71-.1-.82-.1-1.24a1.42,1.42,0,0,1,0-.3C104.09,39.55,104.09,39.52,104.48,39.52Zm4.09,6a3.24,3.24,0,0,0-.44,0c-.66,0-.85.34-.85.74a.46.46,0,0,0,.19.35s.16-.38.45-.38a.49.49,0,0,1,.49.54c0,.32-.27.56-.81.56a1.07,1.07,0,0,1-1.11-1.1,1.25,1.25,0,0,1,.39-.91.81.81,0,0,1,.54-.32c.26,0,.47-.13.72-.13l.23,0a.76.76,0,0,1,.19,0,2.8,2.8,0,0,0,1.86-1.33c.09-.31.3-.32.3-.91a3.83,3.83,0,0,0-.11-1.32,2,2,0,0,0-.84-.83,5.08,5.08,0,0,0-1.76-.27,5.47,5.47,0,0,0-.76.05h-.16l-.55,0c-.17,0-.29,0-.35.15a.94.94,0,0,0-.08.41c0,.13,0,.31,0,.56V44c0,.19-.08,1.84-.08,2a11.19,11.19,0,0,1,.06,1.5c0,.56,0,1,0,1.43s.06.77.06,1.28c0,.29,0,.48,0,.62s0,.18.08.2h.13c.27,0,.8-.13,1.23-.13a7,7,0,0,0,1.08,0,2.86,2.86,0,0,0,1.63-.44,2,2,0,0,0,.9-.92,3.5,3.5,0,0,0,.38-.89s.05-.7.05-.78a3.62,3.62,0,0,0-.16-1.06c-.18-.48-.59-.49-.82-.8s-1.18-.35-1.55-.35Z"/><path class="cls-2" d="M114.38,41.15a.82.82,0,0,1,0,.21c0,.11,0,.24,0,.38,0,.42.08.93.08,1.25,0,.06,0,.11,0,.16a2.32,2.32,0,0,0-.05.53c0,.22,0,.45,0,.67s0,.59,0,1.06c0,.28,0,.67,0,1.05a5.62,5.62,0,0,1,0,.58c0,.14,0,.25,0,.37s0,.38,0,.6,0,.13,0,.2,0,.27,0,.38,0,.48,0,.87,0,.68,0,1v.24c0,.5,0,.68-.11.82a.5.5,0,0,1-.37.14.25.25,0,0,1-.27-.2,8.66,8.66,0,0,1,.07-1.24,1.48,1.48,0,0,0,0-.22c0-.29,0-.67,0-1s.07-.57.07-.85c0-.09,0-.17,0-.28a.41.41,0,0,1,0-.16c0-.28.13-.58.13-.84,0,0,0-.06,0-.09v-.48c0-.15,0-.27,0-.4s-.08-1.06-.08-1.54c0-1,.06-1.42.06-1.82a2.23,2.23,0,0,0,0-.36,5.22,5.22,0,0,1,0-.57,2.88,2.88,0,0,1,0-.47c0-.38.12-.41.29-.44S114.38,40.94,114.38,41.15ZM119,51.52a3.49,3.49,0,0,0-.73-.05l-.91,0h-1.21c-.35,0-.56.08-.91.08s-.45-.08-.45-.4,0-.35,0-.45,0-.66,0-1.26c0-.36,0-.61,0-1.05s.07-1.28.07-1.71,0-.72,0-1.09,0-.8,0-1.31c0-.27,0-.48,0-.94v-.2c0-.4-.12-.86-.12-1.2v-.84a.35.35,0,0,1,.4-.39c.15,0,.29,0,.4,0a5.35,5.35,0,0,0,.58,0c.23,0,.45-.08.63-.08s.35.11.35.58c0,.13-.07.48-.07.83,0,.67-.2,1.12-.2,1.81s.14.83.14,1.38-.1.92-.1,1.71a6.94,6.94,0,0,1,0,1,9.25,9.25,0,0,1-.1,1.66.86.86,0,0,0,0,.23,3.26,3.26,0,0,0,.08.64.82.82,0,0,0,.6.49.77.77,0,0,0,.32.05c.24,0,.52-.06.76-.06s.63,0,.9,0a1.53,1.53,0,0,0,.93-.38.19.19,0,0,1,.16,0,.32.32,0,0,1,.29.14.38.38,0,0,1,0,.1c0,.16-.26.29-.43.49s-.37.45-.68.45A1.77,1.77,0,0,1,119,51.52Z"/></g><g class="cls-3"><path class="cls-2" d="M128.88,51.57h-.49a.51.51,0,0,1-.23,0,.38.38,0,0,1-.19-.1c-.16-.11-.16-.53-.16-.54s-.08-.31-.08-.39,0-.09,0-.14a.22.22,0,0,0-.12-.21c-.2-.21-.24-.62-.35-.8a4.16,4.16,0,0,0-.48-.87,6.18,6.18,0,0,0-1,0c-.27,0-.46-.07-.74-.07a1,1,0,0,0-.3,0,3.76,3.76,0,0,1-.5.07,5.61,5.61,0,0,1-.78-.07c-.13,0-.16.13-.29.39a4,4,0,0,1-.29.75,5.37,5.37,0,0,0-.33.79,1.37,1.37,0,0,0-.15.46s-.05.43-.06.58-.23.12-.47.12h-.56c-.09,0-.14,0-.14-.1a.43.43,0,0,1,.1-.29,6.87,6.87,0,0,1,.38-.81,4.16,4.16,0,0,0,.38-.63,5.27,5.27,0,0,0,.44-1.12,1.47,1.47,0,0,1-.12-.57c.07-.16.13-.21.4-.34s.18-.59.42-.86a8.2,8.2,0,0,0,.47-1.24,11.22,11.22,0,0,0,.52-1.17c.12-.25.32-.79.5-1.13s.34-.79.42-.79.22.26.35.8.41,1.11.49,1.45.4.86.47,1.16a17.91,17.91,0,0,0,.75,1.73c.37.72.45,1,.62,1.35s.31.57.45,1a5.82,5.82,0,0,0,.48.91c.1.21.34.35.34.61C129.06,51.57,129,51.57,128.88,51.57Zm-4.33-6.31c0,.24-.31.82-.4,1.12a2.47,2.47,0,0,0-.29.72,5.06,5.06,0,0,0-.23.72s0,0,.07,0h.41c.2,0,.4,0,.56,0h.13a.92.92,0,0,0,.37.07c.08,0,1.34,0,1.34,0a2,2,0,0,1-.17-.57c-.11-.32-.34-.61-.45-.88s-.32-.63-.4-1-.24-.56-.3-.85-.18-.48-.23-.48-.11.38-.13.42A7.28,7.28,0,0,1,124.55,45.26Zm6.06,6.26c-.22,0-.56.06-.8.06s-.32-.12-.38-.24a2.39,2.39,0,0,1-.37-.8c-.13-.51-.27-.48-.48-1s-.55-1-.66-1.29a5.35,5.35,0,0,1-.38-.9c-.13-.53-.27-.45-.39-.88s-.3-.62-.44-1-.37-1-.53-1.36a6.33,6.33,0,0,1-.4-1.05c-.18-.57-.45-.75-.45-1a2.43,2.43,0,0,1,.27-.75c.19-.37.43-.81.59-.81s.45.24.55.46a13.84,13.84,0,0,1,.85,1.55,12.16,12.16,0,0,0,.62,1.43c.16.44.59,1.29.67,1.69s.53.82.56,1.19.42.77.6,1.37a2,2,0,0,0,.3.69c.1.29.32.56.46.88s.32.68.37.82.43.51.43.83c0,.15-.11.18-.25.18l-.26,0A3.77,3.77,0,0,0,130.61,51.52Z"/></g><g class="cls-3"><path class="cls-2" d="M132.38,49.46c-.3,0-.65-1.06-.8-1.61a4,4,0,0,1-.09-1,4.79,4.79,0,0,0,0-.56,1.94,1.94,0,0,1,0-.4,2.68,2.68,0,0,1,.18-.9c.19-.57.28-1.34.44-1.34s.16.08.16.24,0,.38,0,.67,0,.67,0,.93,0,.51,0,.7,0,.4,0,.69c0,.47.08.58.08,1.06s.08.51.08.78V49C132.34,49.15,132.38,49.3,132.38,49.46Zm.6.28A4,4,0,0,0,134.23,51a4.69,4.69,0,0,0,1.39.36c.48,0,.67.28,1.13.28s.87,0,1.2,0a1.51,1.51,0,0,0,.39,0c.32-.12,1.12-.31,1.49-.45a7.56,7.56,0,0,0,1.17-.72.51.51,0,0,0,.19-.47c0-.16-.15-.78-.35-.78s-.31.16-.42.27a4.43,4.43,0,0,0-.53.63,2,2,0,0,1-.94.62,2.42,2.42,0,0,1-1.22.29,9.69,9.69,0,0,1-1.46-.21,1.93,1.93,0,0,1-1-.67,4.1,4.1,0,0,1-.4-1.4,11.58,11.58,0,0,0-.14-1.55,1.72,1.72,0,0,1,0-.33c0-.44.11-.77.13-1.14,0-.58-.11-1.11-.11-1.46s.14-.67.14-1.25.32-.8.55-1.15.49-.33.7-.48a1.74,1.74,0,0,1,1-.22h.37a2.45,2.45,0,0,1,.87.13,6,6,0,0,1,.94.34c.31.13.27.43.58.67s.24.37.4.37.49-.45.61-.67a.13.13,0,0,0,0,0c0-.23-.45-.58-.85-.79a3.53,3.53,0,0,0-.73-.36,1.39,1.39,0,0,0-.58-.1,2.51,2.51,0,0,1-.61-.05c-.24,0-.46-.06-.72-.06a7.46,7.46,0,0,0-1.12.11,7.61,7.61,0,0,0-1.77.66,11.79,11.79,0,0,0-1.14.94,2.55,2.55,0,0,0-.75,1.1,1.68,1.68,0,0,0,0,.47c0,.46.08,1,.08,1.49,0,.75-.09,1-.09,1.23s0,.29,0,.43,0,.26,0,.39a3.58,3.58,0,0,0,0,.4c.08.46.14.6.22,1.07a3.43,3.43,0,0,1,0,.53A.7.7,0,0,0,133,49.74Z"/><path class="cls-2" d="M142.88,41.08a.71.71,0,0,1,0,.21,2.69,2.69,0,0,0,0,.32c0,.47.11,1.06.11,1.41,0,.06,0,.08,0,.13a3.07,3.07,0,0,0-.05.53c0,.22,0,.45,0,.67s0,.59,0,1.06c0,.28,0,.67,0,1.05a5.62,5.62,0,0,1,0,.58c0,.14,0,.25,0,.37s0,.38,0,.6,0,.13,0,.2,0,.27,0,.38,0,.48,0,.87,0,.68,0,1v.24c0,.5,0,.68-.12.82a.5.5,0,0,1-.36.14.26.26,0,0,1-.28-.2V51.3a9.75,9.75,0,0,1,.07-1.08,1.48,1.48,0,0,0,0-.22c0-.29,0-.67,0-1s.06-.57.06-.85c0-.09,0-.17,0-.28a.41.41,0,0,1,0-.16c0-.28.13-.58.13-.84,0,0,0-.06,0-.09v-.48c0-.15,0-.27,0-.4s-.08-1.06-.08-1.54c0-1,.06-1.42.06-1.82,0-.12,0-.23,0-.36a3.82,3.82,0,0,1,0-.57,2.15,2.15,0,0,1,0-.47c0-.38.11-.41.33-.44S142.88,40.81,142.88,41.08Zm7.3.82c-.14.13-.24.06-.43.53a12.24,12.24,0,0,1-1.28,1.66,5.8,5.8,0,0,0-.82,1s0,0,0,0c0,.19.34.33.55.64a4.56,4.56,0,0,0,.83.94,4.37,4.37,0,0,1,.77,1.3c.16.32.45.57.78,1.09a5.09,5.09,0,0,0,1.06,1.07c.26.26.24.38.48.51.05,0,.56.26.56.56a.31.31,0,0,1-.11.23.64.64,0,0,1-.45.12c-.37,0-.82-.09-1-.09a5.36,5.36,0,0,0-1.05.09l-.1,0c-.24,0-.37-.26-.56-.74,0-.14-.13-.19-.4-.44s-.13-.21-.13-.28a1.1,1.1,0,0,0-.06-.24c-.15-.32-.47-.48-.66-.75s-.19-.62-.64-.88a4.13,4.13,0,0,1-1-1.3c-.16-.27-.29-.43-.42-.43s0,0-.08.05a10,10,0,0,0-.72.86c-.14.23-.19.26-.19.42s0,.19,0,.35a5.62,5.62,0,0,1,0,.58v.78a7.83,7.83,0,0,0,.16,1.36V51c0,.19,0,.51-.34.51a.65.65,0,0,0-.19,0l-.4,0-.3,0c-.23,0-.44.07-.58.07s-.24-.08-.24-.37a.94.94,0,0,1,0-.22c0-.1,0-.95.06-1.4s0-1.07,0-1.71a4.61,4.61,0,0,0,0-.54c0-.37,0-.76,0-1.35,0-.37,0-.62,0-.88a5.43,5.43,0,0,0,0-.56c0-.45,0-1.94-.08-2.22a6.61,6.61,0,0,1-.11-1.22c0-.26.14-.29.38-.29s.1,0,.63,0c.27,0,.45-.05.78-.05.18,0,.2.18.2.35s0,.24,0,.32a3.41,3.41,0,0,0-.11.69,2.2,2.2,0,0,0,.05.58v2c0,.36-.05.68-.07,1,0,.05,0,.11,0,.18,0,.24,0,.51.16.61s0,0,.09,0a.59.59,0,0,0,.34-.19c.21-.24.4-.42.72-.76a6.9,6.9,0,0,0,.91-1.09,8.52,8.52,0,0,1,1-1.21,5.78,5.78,0,0,0,.82-1.3c.56-.88.86-1.17,1.2-1.17.08,0,.14,0,.22,0,.29,0,.42.06.42.17A2.68,2.68,0,0,1,150.18,41.9Z"/><path class="cls-2" d="M153.9,42.09a.08.08,0,0,1,.08.07s0,0,0,.06a2.44,2.44,0,0,1-.13.64,2.7,2.7,0,0,0,0,.46,2.39,2.39,0,0,0,0,.41,1.41,1.41,0,0,0,.26.51,3,3,0,0,0,1.15,1,4.25,4.25,0,0,1,1,.85c.29.25.64.49.67.52a1.47,1.47,0,0,0,.4.4,2.15,2.15,0,0,1,.83.84,1.39,1.39,0,0,1,.31,1c0,.27,0,.4,0,.51a1.3,1.3,0,0,1-.16.67,1.87,1.87,0,0,1-.52.82,3.43,3.43,0,0,1-.82.61,5,5,0,0,1-.77.16l-.74,0a4.33,4.33,0,0,1-1.63-.67c-.25-.19-.81-.63-.81-1a1.1,1.1,0,0,1,.73-.75c.34,0,.27.14.4.54a3.18,3.18,0,0,0,.37.66,1.74,1.74,0,0,0,1.52.64,1,1,0,0,0,.4,0,1.39,1.39,0,0,0,1.19-.77,1.13,1.13,0,0,0,.2-.62,4.76,4.76,0,0,0,.13-.63,2.58,2.58,0,0,0-.59-1,2.84,2.84,0,0,0-1-.93,5,5,0,0,1-1-.79c-.22-.25-.65-.44-1-.8a2.19,2.19,0,0,1-.88-1,4.75,4.75,0,0,1-.19-1s0-.08,0-.12C153.46,42.64,153.73,42.09,153.9,42.09ZM159,49.44V49a3.46,3.46,0,0,0-.35-1.17,1.87,1.87,0,0,0-.72-.93l-.72-.67a3,3,0,0,0-.72-.67c-.31-.2-.46-.34-.78-.55a1.9,1.9,0,0,1-.71-.59,1.67,1.67,0,0,1-.69-1.25,2.09,2.09,0,0,1,.34-1.34,2.3,2.3,0,0,1,.81-.8,3.46,3.46,0,0,1,1.72-.45,7.29,7.29,0,0,1,1.85.16c.23.17.89.32,1,.62s.26.26.26.39,0,.06,0,.12c0,.24-.5.5-.69.5s-.34-.06-.35-.21a2.12,2.12,0,0,0-.87-.88,3.38,3.38,0,0,0-.7-.17,2.16,2.16,0,0,0-.67.24c-.26.19-.6.24-.64.8a2,2,0,0,0,.35,1.42,4.66,4.66,0,0,0,1.12.94c.35.17.91.79,1.18.92s.42.4.74.69a2.25,2.25,0,0,1,.83,1.56c0,.53-.06.55-.06,1a3.35,3.35,0,0,1-.79,1.57c-.35.26-.41.5-.68.72a2.93,2.93,0,0,1-1.09.47h-.13c-.13,0-.21,0-.21-.11s.08-.14.23-.22a2.61,2.61,0,0,0,.89-1A1.21,1.21,0,0,0,159,49.44Z"/></g><g class="cls-3"><path class="cls-2" d="M164,40.8c.2,0,.34.09.34.41s0,.64,0,1-.12.63-.12,1a1.77,1.77,0,0,0,0,.3,5.94,5.94,0,0,1,0,.72,5.62,5.62,0,0,0,0,.72c0,.13,0,.26,0,.37,0,.32-.05.63-.05,1.11,0,.25,0,.51,0,.72a.9.9,0,0,0,.08.36,1,1,0,0,1,.05.32c0,.31-.08.68-.08,1s0,1.22,0,1.66v.26a1.57,1.57,0,0,0,0,.29c0,.16,0,.25,0,.38s-.26.18-.46.18-.31,0-.31-.16c0-.29,0-1.35.1-1.83a10.64,10.64,0,0,0,0-1.42c0-.5-.05-1.23-.05-1.83,0-.17,0-.38,0-.84s0-.71,0-1.32c0-.2,0-.38,0-.59a2.06,2.06,0,0,0,0-.34c0-.22,0-.49,0-.72V42c-.07-.23,0-.5-.39-.5-.17,0-.54.15-.86.15a2.36,2.36,0,0,0-.7.11h-.5c-.08,0-.16,0-.16-.2a1.11,1.11,0,0,1,.16-.53c.1-.24.24-.35.4-.35h.06a4.8,4.8,0,0,0,.88.19,5.78,5.78,0,0,0,.58,0c.1,0,.13,0,.22,0S163.71,40.8,164,40.8Zm.77,8.69V47.65c0-.4-.05-.82-.05-1.16a.94.94,0,0,1,0-.25,4.3,4.3,0,0,1,.13-1,.66.66,0,0,0,0-.14c0-.29-.2-.61-.2-.82a1.48,1.48,0,0,0,0-.22c0-.23,0-.48,0-.77s.08-.71.13-1.22c0-.13,0-.21,0-.27a2,2,0,0,1-.05-.42c0-.46,0-.49.31-.49s1.12-.1,1.71-.1a4.33,4.33,0,0,1,1.12.08.32.32,0,0,0,.16,0c.27,0,.42-.18.91-.19s.45,0,.48.25-.21.83-.41.83-.53-.24-1-.27-.56-.06-.77-.06a.47.47,0,0,0-.26.05c-.19,0-.25.22-.25.56,0,.06,0,.16,0,.24v1.47a5.63,5.63,0,0,0,0,.61c0,.61,0,1.55,0,2.33a10.71,10.71,0,0,0,.16,2,2,2,0,0,1,.05.5c0,.3-.07.53-.07.78,0,.58.23.74.26,1a.49.49,0,0,1,0,.13c0,.22-.14.3-.32.3l-.24,0h-.08a4.06,4.06,0,0,0-.64,0,1.88,1.88,0,0,0-.38.13,3.86,3.86,0,0,1-.53.11c-.14,0-.25-.06-.27-.3C164.74,50.75,164.72,49.49,164.72,49.49Z"/></g><g class="cls-3"><path class="cls-2" d="M176,51.57h-.49a.51.51,0,0,1-.23,0,.38.38,0,0,1-.19-.1c-.16-.11-.16-.53-.16-.54s-.08-.31-.08-.39,0-.09,0-.14a.22.22,0,0,0-.12-.21c-.2-.21-.24-.62-.35-.8a4.16,4.16,0,0,0-.48-.87,6.18,6.18,0,0,0-1,0c-.27,0-.46-.07-.74-.07a1,1,0,0,0-.3,0,3.76,3.76,0,0,1-.5.07,5.61,5.61,0,0,1-.78-.07c-.13,0-.16.13-.29.39a4,4,0,0,1-.29.75,5.37,5.37,0,0,0-.33.79,1.37,1.37,0,0,0-.15.46s0,.43-.06.58-.23.12-.47.12h-.56c-.09,0-.14,0-.14-.1a.43.43,0,0,1,.1-.29,6.87,6.87,0,0,1,.38-.81,4.16,4.16,0,0,0,.38-.63,5.27,5.27,0,0,0,.44-1.12,1.47,1.47,0,0,1-.12-.57c.07-.16.13-.21.4-.34s.18-.59.42-.86a8.2,8.2,0,0,0,.47-1.24,11.22,11.22,0,0,0,.52-1.17c.11-.25.32-.79.5-1.13s.34-.79.42-.79.22.26.35.8.41,1.11.49,1.45.4.86.47,1.16a17.91,17.91,0,0,0,.75,1.73c.37.72.45,1,.63,1.35s.3.57.44,1a5.82,5.82,0,0,0,.48.91c.1.21.34.35.34.61C176.14,51.57,176.06,51.57,176,51.57Zm-4.34-6.31c0,.24-.3.82-.39,1.12a2.47,2.47,0,0,0-.29.72,5.06,5.06,0,0,0-.23.72s0,0,.07,0h.41c.19,0,.4,0,.56,0h.13a.92.92,0,0,0,.37.07c.08,0,1.34,0,1.34,0a2,2,0,0,1-.17-.57c-.11-.32-.34-.61-.45-.88s-.32-.63-.4-1-.24-.56-.3-.85-.18-.48-.23-.48-.11.38-.13.42A5.92,5.92,0,0,1,171.62,45.26Zm6.07,6.26c-.22,0-.56.06-.8.06s-.32-.12-.38-.24a2.39,2.39,0,0,1-.37-.8c-.13-.51-.27-.48-.48-1s-.55-1-.66-1.29a5.35,5.35,0,0,1-.38-.9c-.13-.53-.27-.45-.39-.88s-.3-.62-.44-1-.37-1-.53-1.36a6.33,6.33,0,0,1-.4-1.05c-.18-.57-.45-.75-.45-1a2.43,2.43,0,0,1,.27-.75c.19-.37.43-.81.59-.81s.45.24.55.46a13.84,13.84,0,0,1,.85,1.55,12.16,12.16,0,0,0,.62,1.43c.16.44.59,1.29.67,1.69s.53.82.56,1.19.42.77.6,1.37a2,2,0,0,0,.3.69c.1.29.32.56.46.88s.32.68.37.82.43.51.43.83c0,.15-.11.18-.25.18l-.26,0A3.77,3.77,0,0,0,177.69,51.52Z"/><path class="cls-2" d="M179.88,40.72c.18,0,.42.4.42.83a1,1,0,0,1,0,.24,1.64,1.64,0,0,0,0,.38c0,.29.06.58.06.8a.5.5,0,0,1,0,.18,3.08,3.08,0,0,0,0,.53c0,.22,0,.45,0,.67s0,.59,0,1.06c0,.28,0,.67,0,1.05a5.62,5.62,0,0,1,0,.58,2.51,2.51,0,0,0,0,.37c0,.24.05.38.05.6s0,.13,0,.2a2.62,2.62,0,0,0,0,.38c0,.26,0,.48,0,.87s0,.68,0,1v.24c0,.5,0,.68-.11.82a.5.5,0,0,1-.37.14.24.24,0,0,1-.27-.2,11,11,0,0,1,.06-1.24.75.75,0,0,0,0-.22c0-.29-.05-.67-.05-1s.07-.57.07-.85a1.57,1.57,0,0,0,0-.28.81.81,0,0,1,0-.16c0-.28.13-.58.13-.84,0,0,0-.06,0-.09v-.48a2.55,2.55,0,0,0,0-.4c0-.27-.08-1.06-.08-1.54,0-1,.07-1.42.07-1.82a2.23,2.23,0,0,0,0-.36c0-.27-.05-.44-.05-.57a3,3,0,0,1,.05-.47C179.64,40.78,179.7,40.75,179.88,40.72Zm9.28,10.58c0-.29-.25-.36-.44-.58s-.52-.42-.58-.77a10.7,10.7,0,0,0-.4-1.55,2.59,2.59,0,0,0-.29-.75c-.13-.2-.46-.53-.62-.74-.52-.56-.55-.58-.71-.64,0,0,.45-.29.71-.43a3.12,3.12,0,0,0,.86-.93,4.47,4.47,0,0,0,.45-1.35,4,4,0,0,0-.21-1.5c-.21-.3-.46-.83-.88-1a4.94,4.94,0,0,0-1.74-.37h-1.49a2.56,2.56,0,0,0-.37,0c-.53,0-1.07.06-1.52.06a3.1,3.1,0,0,1-.42,0c-.17,0-.29,0-.41,0a.72.72,0,0,0-.36.12,1.21,1.21,0,0,0-.14.71c0,.61.1,1.41.1,1.69a.56.56,0,0,1,0,.29c0,.29,0,.58,0,.91s0,.42,0,.65c0,.44,0,.62,0,.94s0,.93,0,1.54c0,.27,0,.6,0,1,0,.72,0,1.49,0,1.72s0,.2,0,.27-.06.4-.06.88c0,.16.43.25.86.25h.29a8.38,8.38,0,0,0,.88-.08.43.43,0,0,0,.34-.42,2.56,2.56,0,0,0-.15-.51,1.73,1.73,0,0,1,0-.5V49.5c0-.49,0-.65,0-1.23,0-.38-.11-.61-.11-.83a.42.42,0,0,1,0-.24.66.66,0,0,1,.56-.39c.34,0,.3,0,.46,0a1.51,1.51,0,0,1,.63.13,1.21,1.21,0,0,1,.73.78,4.43,4.43,0,0,1,.66,1.48c0,.21.26,1.18.35,1.44s.29.85.55.93a.77.77,0,0,0,.3,0c.29,0,.67-.06.95-.06s.43,0,.72,0h.3C189.08,51.58,189.16,51.54,189.16,51.3Zm-6.33-9.83c0-.18.6-.13,1.07-.18a7.73,7.73,0,0,1,2.38.23,1.27,1.27,0,0,1,.76.89,4.28,4.28,0,0,1,.11.83c0,.15,0,.29,0,.44a4,4,0,0,1-.47,1.29c-.27.44-1,.58-1.39.9a3.24,3.24,0,0,1-1.3.26,2.89,2.89,0,0,1-.37,0l-.54,0c-.1,0-.18,0-.18,0v-.27c0-.33,0-.89,0-1.2,0,0,0-.11,0-.22,0-.48-.11-1.35-.13-1.88a3.18,3.18,0,0,1,0-.41A3.72,3.72,0,0,1,182.83,41.47Z"/></g><g class="cls-3"><path class="cls-2" d="M96.63,60.36a.3.3,0,0,1,0,.13c0,.11,0,.26,0,.42,0,.43.08,1,.08,1.28,0,.06,0,.11,0,.16a2.32,2.32,0,0,0-.05.53c0,.22,0,.45,0,.67,0,.37,0,.59,0,1.06,0,.28,0,.67,0,1a5.62,5.62,0,0,1,0,.58,2.51,2.51,0,0,0,0,.37c0,.24,0,.38,0,.6s0,.13,0,.2a2.62,2.62,0,0,0,0,.38c0,.26,0,.48,0,.87s0,.68,0,1v.24c0,.5,0,.68-.11.82a.5.5,0,0,1-.37.14.24.24,0,0,1-.27-.2,11,11,0,0,1,.06-1.24.75.75,0,0,0,0-.22c0-.29,0-.67,0-1s.07-.57.07-.85,0-.3,0-.44.13-.58.13-.84c0,0,0-.06,0-.09v-.48a2.55,2.55,0,0,0,0-.4c0-.27-.08-1.06-.08-1.54,0-1,.07-1.42.07-1.82a2.23,2.23,0,0,0,0-.36c0-.27,0-.44,0-.57a3,3,0,0,1,0-.47c0-.38.11-.41.29-.44S96.63,60.14,96.63,60.36Zm2.72.08c-.16,0-.21.2-.3.44a3.32,3.32,0,0,0,0,.48c0,.12,0,.44,0,.62a5.07,5.07,0,0,1,0,.59,8.11,8.11,0,0,1,0,1c0,.14,0,.24,0,.35,0,.37,0,.61.19.67a.24.24,0,0,0,.16,0c.11,0,.35,0,.58,0a5.17,5.17,0,0,1,.76-.08c.23,0,.29,0,.37,0a2.27,2.27,0,0,0,.42-.05h.09c.13,0,.21.06.21.16a.25.25,0,0,1,0,.14,4.32,4.32,0,0,1-.21.56s-.06,0-.14,0-.51-.08-.74-.09-.62-.07-.91-.07h-.67s-.08.13-.08.27,0,.34,0,.53v1.39c0,.56,0,.68,0,1.22a8.38,8.38,0,0,0,.22,1.49,2,2,0,0,1,0,.3c0,.2,0,.26-.17.26s-.32,0-.48,0a3.84,3.84,0,0,0-.59.11,5.81,5.81,0,0,1-.68.1c-.19,0-.33-.06-.33-.29s0-.49,0-.86,0-1.25.09-1.73a3.76,3.76,0,0,0,0-.69c0-.86,0-1.25,0-1.57,0-.48-.06-.85-.06-1.23,0-.19,0-.42,0-.61a.62.62,0,0,1,0-.22,1.42,1.42,0,0,0,0-.35c0-.34-.08-.68-.08-1a1.39,1.39,0,0,0,0-.42c0-.35,0-.88,0-1,0-.29-.07-.55-.07-.72a.18.18,0,0,1,0-.11c0-.13.26-.13.35-.13h.42a2.45,2.45,0,0,0,.46,0,1.28,1.28,0,0,1,.29,0c.42,0,1,.11,1.43.11h1.88a.47.47,0,0,0,.26,0,1.88,1.88,0,0,1,.58,0c.22,0,.46,0,.54.08a.11.11,0,0,1,0,.07s0,.06-.13.28,0,.36-.13.47a.47.47,0,0,1-.3.11l-.23,0a4.57,4.57,0,0,1-.56-.23,2.43,2.43,0,0,0-.88-.17,2.72,2.72,0,0,0-.43.05A4.69,4.69,0,0,1,99.35,60.44Z"/><path class="cls-2" d="M104.48,59.92c.29,0,.37.22.37.44a.57.57,0,0,1,0,.13,2.39,2.39,0,0,0,0,.42c0,.43.08,1,.08,1.28,0,.06,0,.11,0,.16a3.07,3.07,0,0,0-.05.53c0,.22,0,.45,0,.67,0,.37,0,.59,0,1.06,0,.28,0,.67,0,1a5.62,5.62,0,0,1,0,.58c0,.14,0,.25,0,.37s0,.38,0,.6,0,.4,0,.58,0,.48,0,.87,0,.68,0,1v.24c0,.5,0,.68-.12.82a.5.5,0,0,1-.36.14c-.13,0-.28-.06-.28-.36a9.75,9.75,0,0,1,.07-1.08,1.48,1.48,0,0,0,0-.22c0-.29,0-.67,0-1s.06-.57.06-.85-.05-.3-.05-.44.13-.58.13-.84c0,0,0-.06,0-.09v-.48c0-.15,0-.27,0-.4s-.08-1.06-.08-1.54c0-1,.06-1.42.06-1.82,0-.12,0-.23,0-.36a3.82,3.82,0,0,1,0-.57,2.15,2.15,0,0,1,0-.47C104.24,60,104.31,60,104.48,59.92ZM107.7,70.1c0-.07-.09-.48-.09-.68,0-.4,0-.64,0-1s0-.39,0-.64c0-.61-.18-1.35-.18-2a3.32,3.32,0,0,1,.15-.91s0-.07,0-.13c0-.34-.17-1-.17-1.41s.12-.82.12-1.18c0-.16,0-.42,0-.64,0-.53.06-.9.06-1.12s-.06-.44-.37-.44c-.54,0-.88-.11-1.31-.11-.62,0-.7.16-.7.5,0,.14,0,.32,0,.51,0,.34.18,1.58.18,2.06s-.05,1.11-.05,2.36c0,.35,0,.75,0,1.2,0,.09,0,.24,0,.38s0,.59,0,.85v.83c0,.21,0,.4,0,.56s-.08.53-.09.69,0,.32,0,.45c0,.29.06.51.37.51s.72-.09,1-.09a3.55,3.55,0,0,1,.56.06S107.7,70.72,107.7,70.1Z"/><path class="cls-2" d="M109.83,60.35a.82.82,0,0,1,0,.21c0,.11,0,.24,0,.38,0,.42.08.93.08,1.25,0,.06,0,.11,0,.16a3.08,3.08,0,0,0,0,.53c0,.22,0,.45,0,.67,0,.37,0,.59,0,1.06,0,.28,0,.67,0,1a5.62,5.62,0,0,1,0,.58,2.51,2.51,0,0,0,0,.37c0,.24,0,.38,0,.6s0,.13,0,.2a2.62,2.62,0,0,0,0,.38c0,.26,0,.48,0,.87s0,.68,0,1v.24c0,.5,0,.68-.11.82a.5.5,0,0,1-.37.14.24.24,0,0,1-.27-.2,11,11,0,0,1,.06-1.24.75.75,0,0,0,0-.22c0-.29,0-.67,0-1s.07-.57.07-.85a1.57,1.57,0,0,0,0-.28.81.81,0,0,1,0-.16c0-.28.13-.58.13-.84,0,0,0-.06,0-.09v-.48a2.55,2.55,0,0,0,0-.4c0-.27-.08-1.06-.08-1.54,0-1,.07-1.42.07-1.82a2.23,2.23,0,0,0,0-.36c0-.27,0-.44,0-.57a3,3,0,0,1,0-.47c0-.38.11-.41.29-.44S109.83,60.14,109.83,60.35Zm4.59,10.37a3.49,3.49,0,0,0-.73,0l-.92,0h-1.2c-.35,0-.56.08-.91.08s-.45-.08-.45-.4,0-.35,0-.45,0-.66,0-1.26c0-.36,0-.61,0-1s.07-1.28.07-1.71,0-.72,0-1.09,0-.8,0-1.31c0-.27,0-.48,0-.94v-.2c0-.4-.11-.86-.11-1.2v-.84c0-.32.19-.39.4-.39s.29,0,.4,0a5.35,5.35,0,0,0,.58,0c.22,0,.45-.08.62-.08s.36.11.36.58c0,.13-.07.48-.07.83,0,.67-.21,1.12-.21,1.81s.15.83.15,1.38-.1.92-.1,1.71a9.24,9.24,0,0,1,0,1,9.59,9.59,0,0,1-.09,1.66.86.86,0,0,0,0,.23,3.26,3.26,0,0,0,.08.64,1,1,0,0,0,.91.54c.24,0,.53-.06.77-.06s.63,0,.9,0a1.56,1.56,0,0,0,.93-.38.19.19,0,0,1,.16,0,.29.29,0,0,1,.28.14.21.21,0,0,1,0,.1c0,.16-.26.29-.43.49s-.37.45-.68.45A1.77,1.77,0,0,1,114.42,70.72Z"/><path class="cls-2" d="M117.57,59.92c.15,0,.32.11.32.43a1.62,1.62,0,0,1,0,.21,2.11,2.11,0,0,0,0,.38c0,.42.08.93.08,1.25,0,.06,0,.11,0,.16a3.07,3.07,0,0,0,0,.53c0,.22,0,.45,0,.67,0,.37,0,.59,0,1.06,0,.28,0,.67,0,1a5.62,5.62,0,0,1,0,.58c0,.14,0,.25,0,.37s0,.38,0,.6,0,.13,0,.2,0,.27,0,.38,0,.48,0,.87,0,.68,0,1v.24c0,.5,0,.68-.12.82a.5.5,0,0,1-.36.14.26.26,0,0,1-.28-.2V70.5a9.75,9.75,0,0,1,.07-1.08,1.48,1.48,0,0,0,0-.22c0-.29,0-.67,0-1s.06-.57.06-.85c0-.09,0-.17,0-.28a.41.41,0,0,1,0-.16c0-.28.13-.58.13-.84,0,0,0-.06,0-.09v-.48c0-.15,0-.27,0-.4s-.08-1.06-.08-1.54c0-1,.06-1.42.06-1.82,0-.12,0-.23,0-.36a3.82,3.82,0,0,1,0-.57,2.15,2.15,0,0,1,0-.47C117.28,60,117.35,60,117.57,59.92Zm12,.65a.88.88,0,0,0,.06-.29c0-.25-.22-.27-.51-.27s-.76-.09-1.08-.09h-.3c-.35,0-.64.21-.78.79a8.06,8.06,0,0,1-.44,1.44,5.32,5.32,0,0,0-.4,1.07,8.07,8.07,0,0,1-.56,1.46c-.28.54-.19.49-.62,1.36s-.4,1-.61,1.37c-.08.18-.16.23-.22.23s-.16-.08-.24-.21c0-.35-.45-.63-.45-1a2.63,2.63,0,0,0-.51-1.15,7.53,7.53,0,0,1-.48-.93c-.28-.45-.4-1-.63-1.28s-.41-.63-.59-1-.74-1-.88-1.4S120.2,60,120,60s-.08,0-.19,0h-1.32c-.16,0-.19,0-.19.14v.47a5.25,5.25,0,0,1,0,.8,5.86,5.86,0,0,1,.08,1c0,.43.07,1.09.07,1.43s-.07.72-.07,1.05v.88c0,.34,0,.72,0,1.25,0,.72,0,1.2,0,1.56s-.1.86-.1,1.16v.61a2.31,2.31,0,0,0-.06.32c0,.13.08.15.37.16l.56,0a.21.21,0,0,0,.22-.24.59.59,0,0,0,0-.21,1.55,1.55,0,0,1-.16-.62c0-.31-.08-.9-.08-1.49,0-.42.07-1.23.07-1.78a1.4,1.4,0,0,0,0-.45s0-.06,0-.08a.58.58,0,0,1,0-.19c0-.32.1-.69.1-1s0-.53,0-.94c0-.18,0-.36,0-.48s0-.2.07-.21.33.48.51.91a8.19,8.19,0,0,0,.61,1.49,11.68,11.68,0,0,0,.62,1.09c.34.45.29.78.51,1.1a7.45,7.45,0,0,1,.48,1.09,4,4,0,0,0,.45.91c.14.34.35,1,.53,1.08h.17a1.77,1.77,0,0,0,.85-.17,2.16,2.16,0,0,0,.45-1c0-.13.34-1,.39-1.27s.38-1.06.52-1.41a13.4,13.4,0,0,1,.5-1.31,4.25,4.25,0,0,0,.42-1c.09-.34.33-.83.49-1.3s.13-.56.35-.86.08-.27.23-.27.13.06.13.2-.08.63-.08.92,0,.41,0,.84a3.09,3.09,0,0,0,0,.63,10,10,0,0,1,.09,1.07c0,.39,0,.51,0,.9a2.8,2.8,0,0,1,0,.48,2.34,2.34,0,0,0-.07.45,6.54,6.54,0,0,0,.13,1c0,.16-.13.7-.13.83a4.32,4.32,0,0,1-.12.9.45.45,0,0,0,0,.08c0,.29.34.33.67.33h.53c.43,0,.72,0,.95,0s.43,0,.46-.21c0-.33-.31-1.49-.34-2.13s-.2-1.77-.2-2.51a1.13,1.13,0,0,1,0-.34c0-.2,0-.43,0-.65,0-.47,0-.95,0-1.36s0-1,0-1.48c0-.25,0-.43,0-.54a3.14,3.14,0,0,1,0-.51C129.37,60.91,129.53,60.72,129.55,60.57Z"/><path class="cls-2" d="M136.42,60.36a.3.3,0,0,1,0,.13c0,.11,0,.26,0,.42,0,.43.08,1,.08,1.28,0,.06,0,.11,0,.16a2.32,2.32,0,0,0-.05.53c0,.22,0,.45,0,.67,0,.37,0,.59,0,1.06,0,.28,0,.67,0,1a5.62,5.62,0,0,1,0,.58c0,.14,0,.25,0,.37s0,.38,0,.6,0,.13,0,.2,0,.27,0,.38,0,.48,0,.87,0,.68,0,1v.24c0,.5,0,.68-.11.82a.5.5,0,0,1-.37.14.25.25,0,0,1-.27-.2,8.66,8.66,0,0,1,.07-1.24,1.48,1.48,0,0,0,0-.22c0-.29,0-.67,0-1s.07-.57.07-.85-.05-.3-.05-.44.13-.58.13-.84c0,0,0-.06,0-.09v-.48c0-.15,0-.27,0-.4s-.08-1.06-.08-1.54c0-1,.06-1.42.06-1.82a2.23,2.23,0,0,0,0-.36,5.22,5.22,0,0,1,0-.57,2.88,2.88,0,0,1,0-.47c.05-.38.12-.41.29-.44S136.42,60.14,136.42,60.36Zm2.72.08c-.16,0-.21.2-.3.44a3.32,3.32,0,0,0,0,.48c0,.12,0,.44,0,.62a5.07,5.07,0,0,1,0,.59,8.11,8.11,0,0,1,0,1c0,.14,0,.24,0,.35,0,.37.05.61.19.67a.24.24,0,0,0,.16,0c.11,0,.35,0,.58,0a5.16,5.16,0,0,1,.77-.08c.22,0,.28,0,.36,0a2.27,2.27,0,0,0,.42-.05h.1c.12,0,.2.06.2.16a.25.25,0,0,1,0,.14,3.21,3.21,0,0,1-.21.56s-.06,0-.14,0-.51-.08-.74-.09-.62-.07-.91-.07h-.67c-.05,0-.08.13-.08.27s0,.34.05.53v1.39c0,.56,0,.68,0,1.22a8.38,8.38,0,0,0,.22,1.49,2,2,0,0,1,0,.3c0,.2,0,.26-.17.26s-.32,0-.48,0a3.84,3.84,0,0,0-.59.11,5.81,5.81,0,0,1-.68.1c-.19,0-.33-.06-.33-.29s-.05-.49-.05-.86,0-1.25.1-1.73a4.68,4.68,0,0,0,0-.69c0-.86,0-1.25,0-1.57,0-.48-.06-.85-.06-1.23,0-.19,0-.42,0-.61a.65.65,0,0,1,0-.22,1.42,1.42,0,0,0,0-.35c0-.34-.08-.68-.08-1a1.39,1.39,0,0,0,.05-.42c0-.35-.05-.88-.05-1,0-.29-.06-.55-.06-.72a.34.34,0,0,1,0-.11c0-.13.26-.13.35-.13h.42a2.45,2.45,0,0,0,.46,0,1.28,1.28,0,0,1,.29,0c.42,0,1,.11,1.43.11h1.89a.45.45,0,0,0,.25,0,1.88,1.88,0,0,1,.58,0c.22,0,.46,0,.54.08a.11.11,0,0,1,0,.07s-.05.06-.13.28,0,.36-.13.47a.47.47,0,0,1-.3.11l-.23,0a4.57,4.57,0,0,1-.56-.23,2.43,2.43,0,0,0-.88-.17,2.91,2.91,0,0,0-.43.05A4.69,4.69,0,0,1,139.14,60.44Z"/><path class="cls-2" d="M144.28,59.92a.32.32,0,0,1,.33.36.92.92,0,0,1,0,.18,3,3,0,0,0,0,.45c0,.4.05.88.05,1.21a1.55,1.55,0,0,1,0,.23,2.82,2.82,0,0,0,0,.59c0,.23,0,.4,0,.61,0,.37,0,.59,0,1.06,0,.28,0,.68,0,1a5.63,5.63,0,0,1,0,.58,2,2,0,0,0,0,.38c0,.26,0,.42,0,.61a4.87,4.87,0,0,0,0,.54c0,.28,0,.5,0,.89s.05.67.05,1c0,.06,0,.14,0,.25s0,.31,0,.4,0,.36-.1.42a.63.63,0,0,1-.38.14c-.13,0-.24,0-.26-.2s0-.13,0-.23a7,7,0,0,1,.08-1c0-.06,0-.13,0-.21,0-.27,0-.67,0-1s0-.57,0-.85,0-.32,0-.44c0-.28.11-.6.11-.85v-.56c0-.15,0-.27,0-.4s-.08-1.06-.08-1.54c0-1,.06-1.41.06-1.78a2.89,2.89,0,0,0,0-.4,3.61,3.61,0,0,1-.06-.54,2,2,0,0,1,.06-.45c.05-.43.12-.46.29-.49Zm3.23,5.26c-.08,0-.16,0-.19,0s0,.11,0,.22.06.4.06.6a6.87,6.87,0,0,1,0,.81c0,.23-.06.5-.06.77v1c0,.22,0,.41,0,.55,0,.73.09.77.21.82a.86.86,0,0,0,.25,0h.77l.53,0a8.39,8.39,0,0,1,1.33-.16,3.3,3.3,0,0,0,.86-.24c.1,0,.18-.06.23-.06s.12.05.12.3-.32.85-.57.9h-.26a3,3,0,0,1-.48,0,3.58,3.58,0,0,0-.69-.07h-.81c-.1,0-.35-.06-.5-.06-.49,0-1.2.06-1.57.08s-.67.13-1,.13-.69-.08-.69-.45,0-.61,0-.91c0-.12.08-.25.08-.36v-.56a5.82,5.82,0,0,1,.07-.88c0-.11,0-.24,0-.35a.51.51,0,0,0-.07-.26,1.72,1.72,0,0,1,0-.28c0-.24,0-.61,0-.9a5,5,0,0,1-.09-.72,4.28,4.28,0,0,1,.09-.72v-.74a1.14,1.14,0,0,0,0-.27c0-.42,0-1.06,0-1.46s-.08-1.08-.08-1.53c0-.18,0-.31,0-.32a.71.71,0,0,1,.37-.1h.53c.37,0,.3,0,.51,0l.5,0c.27,0,.59,0,1.63,0,.42,0,.75,0,1.07,0s1.09-.08,1.27-.08.56,0,.62.24a1.29,1.29,0,0,1-.37.68c-.08,0,0,.12-.19.12h-.14c-.32-.05-.51-.16-.69-.16s-.38-.11-.58-.11c-1,0-1.6,0-2.08-.08-.2,0-.2.08-.2.2s-.07.39-.07.53a8.68,8.68,0,0,0,.07,1c0,.26,0,.43,0,.59l0,.58a.92.92,0,0,0-.05.38,3.18,3.18,0,0,0,.07.68c0,.09.09.11.22.11l.35,0c.27,0,.55,0,.72-.08a.86.86,0,0,1,.29,0,1,1,0,0,1,.3,0c.21,0,.36-.08.48-.08s.18.09.18.19a.65.65,0,0,1-.1.32.55.55,0,0,1-.49.35h-.13a5,5,0,0,0-.64-.08c-.14,0-.3,0-.43,0Z"/><path class="cls-2" d="M152.9,61.29s.06,0,.08.07,0,0,0,.06a3,3,0,0,1-.13.64,2,2,0,0,0,0,.46,1.33,1.33,0,0,0,0,.4,1.29,1.29,0,0,0,.25.52,3.13,3.13,0,0,0,1.16,1,4.39,4.39,0,0,1,1,.85c.29.25.64.49.68.52a1.31,1.31,0,0,0,.4.4,2.3,2.3,0,0,1,.83.84,1.38,1.38,0,0,1,.3,1c0,.27,0,.4,0,.51a1.3,1.3,0,0,1-.16.67,2,2,0,0,1-.53.82,3.24,3.24,0,0,1-.82.61,4.82,4.82,0,0,1-.76.16l-.74,0a4.33,4.33,0,0,1-1.63-.67c-.26-.19-.82-.63-.82-1a1.11,1.11,0,0,1,.74-.75c.33,0,.27.14.4.54a2.78,2.78,0,0,0,.37.66,1.74,1.74,0,0,0,1.52.64,1,1,0,0,0,.4,0,1.38,1.38,0,0,0,1.18-.77,1.15,1.15,0,0,0,.21-.62,4.76,4.76,0,0,0,.13-.63,2.6,2.6,0,0,0-.6-1,2.69,2.69,0,0,0-1-.93,4.93,4.93,0,0,1-.94-.79c-.22-.25-.66-.44-1.06-.8a2.19,2.19,0,0,1-.88-1,5.54,5.54,0,0,1-.19-1c0-.05,0-.08,0-.12C152.45,61.84,152.72,61.29,152.9,61.29ZM158,68.64v-.43a3.71,3.71,0,0,0-.35-1.17,1.88,1.88,0,0,0-.73-.93c-.16-.14-.44-.42-.72-.67a2.82,2.82,0,0,0-.72-.67c-.3-.2-.46-.34-.78-.55a2,2,0,0,1-.7-.59,1.64,1.64,0,0,1-.69-1.25A2.08,2.08,0,0,1,153.6,61a2.24,2.24,0,0,1,.82-.8,3.42,3.42,0,0,1,1.71-.45A7.37,7.37,0,0,1,158,60c.22.17.88.32,1,.62s.26.26.26.39a.54.54,0,0,1,0,.12c0,.24-.49.5-.68.5s-.34-.06-.36-.21a2.15,2.15,0,0,0-.86-.88,3.46,3.46,0,0,0-.71-.17,2.16,2.16,0,0,0-.67.24c-.25.19-.59.24-.64.8a2.07,2.07,0,0,0,.35,1.42,5.08,5.08,0,0,0,1.12.94c.36.16.92.79,1.19.92s.42.4.74.69a2.29,2.29,0,0,1,.83,1.56c0,.53-.07.55-.07,1a3.33,3.33,0,0,1-.78,1.57c-.35.26-.42.5-.69.72a2.93,2.93,0,0,1-1.09.47h-.13c-.12,0-.2,0-.2-.11s.08-.14.22-.22a2.54,2.54,0,0,0,.9-1A1.29,1.29,0,0,0,158,68.64Z"/><path class="cls-2" d="M163,60c.19,0,.33.09.33.41s0,.64,0,1-.11.63-.11,1a1.69,1.69,0,0,0,0,.3,5.94,5.94,0,0,1,0,.72,5.62,5.62,0,0,0,0,.72c0,.13,0,.26,0,.37,0,.32-.05.63-.05,1.11,0,.25-.05.51-.05.72a1.11,1.11,0,0,0,.08.36.77.77,0,0,1,.05.32c0,.31-.08.68-.08,1s0,1.21,0,1.66V70c0,.11,0,.21,0,.29s0,.25,0,.38-.25.18-.46.18-.3,0-.3-.16c0-.29,0-1.35.09-1.83a10.64,10.64,0,0,0,0-1.42c0-.5,0-1.23,0-1.83,0-.17,0-.38,0-.84s0-.71,0-1.32c0-.2,0-.38,0-.59a2.06,2.06,0,0,0,0-.34c0-.22,0-.49,0-.72v-.57c-.06-.23,0-.5-.38-.5-.18,0-.54.15-.86.15a2.45,2.45,0,0,0-.71.11h-.49c-.08,0-.16,0-.16-.2a1.11,1.11,0,0,1,.16-.53c.09-.24.23-.35.39-.35h.07a4.61,4.61,0,0,0,.88.19l.58,0c.09,0,.12-.05.22-.05S162.71,60,163,60Zm.77,8.69V66.85c0-.4-.05-.82-.05-1.16a1.85,1.85,0,0,1,0-.25,5.81,5.81,0,0,1,.13-1,.34.34,0,0,0,0-.14c0-.29-.21-.61-.21-.82a.75.75,0,0,0,0-.22c0-.23,0-.48,0-.77s.08-.71.13-1.22a2,2,0,0,0,0-.27,2.42,2.42,0,0,1,0-.42c0-.46,0-.49.3-.49s1.12-.1,1.71-.1a4.29,4.29,0,0,1,1.12.08.34.34,0,0,0,.16,0c.28,0,.42-.18.92-.19s.44,0,.48.25-.21.83-.42.83-.53-.24-1-.27-.56-.06-.76-.06a.45.45,0,0,0-.26,0c-.19,0-.26.22-.26.56,0,.06,0,.16,0,.24V63c0,.22,0,.45,0,.61,0,.61.05,1.55.05,2.33a11.67,11.67,0,0,0,.16,2,1.91,1.91,0,0,1,.05.5c0,.3-.06.53-.06.78,0,.58.22.74.25,1a.25.25,0,0,1,0,.13.28.28,0,0,1-.32.3l-.24,0h-.08a4.06,4.06,0,0,0-.64,0,2,2,0,0,0-.39.13,3.46,3.46,0,0,1-.52.11c-.15,0-.26-.06-.28-.3C163.73,70,163.72,68.69,163.72,68.69Z"/><path class="cls-2" d="M169.68,59.92c.29,0,.37.22.37.44a.57.57,0,0,1,0,.13,2.39,2.39,0,0,0,0,.42c0,.43.08,1,.08,1.28,0,.06,0,.11,0,.16a3.07,3.07,0,0,0,0,.53c0,.22,0,.45,0,.67,0,.37,0,.59,0,1.06,0,.28,0,.67,0,1a5.62,5.62,0,0,1,0,.58c0,.14,0,.25,0,.37s.05.38.05.6,0,.4,0,.58,0,.48,0,.87,0,.68,0,1v.24c0,.5,0,.68-.12.82a.5.5,0,0,1-.37.14c-.12,0-.27-.06-.27-.36a9.75,9.75,0,0,1,.07-1.08,1.48,1.48,0,0,0,0-.22c0-.29,0-.67,0-1s.06-.57.06-.85,0-.3,0-.44.13-.58.13-.84c0,0,0-.06,0-.09v-.48c0-.15,0-.27,0-.4s-.08-1.06-.08-1.54c0-1,.06-1.42.06-1.82,0-.12,0-.23,0-.36a3.82,3.82,0,0,1-.05-.57,2.15,2.15,0,0,1,.05-.47C169.44,60,169.51,60,169.68,59.92ZM172.9,70.1c0-.07-.1-.48-.1-.68a8.63,8.63,0,0,0,0-1c0-.18,0-.39,0-.64,0-.61-.18-1.35-.18-2a3.86,3.86,0,0,1,.14-.91,1.23,1.23,0,0,0,0-.13c0-.34-.18-1-.18-1.41s.13-.82.13-1.18c0-.16,0-.42,0-.64,0-.53.06-.9.06-1.12s-.06-.44-.37-.44c-.54,0-.88-.11-1.31-.11-.62,0-.7.16-.7.5,0,.14,0,.32,0,.51,0,.34.18,1.58.18,2.06s0,1.11,0,2.36c0,.35,0,.75,0,1.2,0,.09,0,.24,0,.38s0,.59,0,.85v.83c0,.21,0,.4,0,.56s-.08.53-.09.69,0,.32,0,.45c0,.29.06.51.37.51s.72-.09,1-.09a3.55,3.55,0,0,1,.56.06S172.9,70.72,172.9,70.1Z"/></g><g class="cls-3"><path class="cls-2" d="M175,61.44c.11.49.48.88.54,1.24a6.57,6.57,0,0,0,.45,1.09c.16.35.23.58.4,1a11.79,11.79,0,0,1,.67,1.52c.17.56.33.64.47,1s.26.59.5,1.16a9.34,9.34,0,0,1,.52,1.13c.15.42.5.85.5,1.06,0,0,0,0,0,.06s-.09.1-.19.1a.59.59,0,0,1-.51-.27,7.4,7.4,0,0,1-.54-1.16c-.08-.25-.37-.73-.53-1.07a7,7,0,0,0-.4-1.06,8.21,8.21,0,0,1-.47-1.05c-.16-.27-.25-.58-.4-.77s-.35-1-.54-1.39c-.53-1.2-.56-1.49-.85-2a7.35,7.35,0,0,1-.78-1.61.93.93,0,0,1,0-.23c0-.17.06-.25.29-.25A3.23,3.23,0,0,1,175,61.44Zm3,.7c.19.45.46,1,.65,1.55s.48.88.64,1.35.44.57.61.91a4.55,4.55,0,0,0,.71,1.14c.09,0,.12-.69.41-1.25a5.12,5.12,0,0,0,.39-1.46,3.78,3.78,0,0,1,.46-1.36c.24-.56.27-1.23.42-1.58a1.65,1.65,0,0,0,0-.36c0-.35-.15-.62-.15-.84s0-.26.28-.26l.52,0h.59c.19,0,.25.08.25.18,0,.27-.46.8-.59,1.12s-.33,1-.48,1.5-.43.66-.49,1.15a7.94,7.94,0,0,1-.45,1.59c-.32.78-.68,1.65-.85,2.21a13.12,13.12,0,0,0-.46,1.55c-.08.48-.41.9-.45,1.2a.37.37,0,0,1-.32.26.16.16,0,0,1-.13-.08c-.16-.29-.56-.8-.56-1a2.78,2.78,0,0,0-.37-1,8.31,8.31,0,0,1-.5-1.14c0-.35-.44-.8-.48-1.18a8.74,8.74,0,0,0-.64-1.25,14.7,14.7,0,0,1-.8-2.08,9.33,9.33,0,0,0-.75-1.52c-.08-.21,0-.48-.18-.59a2.42,2.42,0,0,1-.38-.79c0-.2.26-.22.53-.22h.22l.43,0h.42c.72,0,.59,0,.88,0S177.49,61.05,178,62.14Z"/></g><g class="cls-3"><path class="cls-2" d="M189.83,70.77h-.49a.51.51,0,0,1-.23,0,.38.38,0,0,1-.19-.1c-.16-.11-.16-.53-.16-.54s-.08-.31-.08-.39,0-.09,0-.14a.22.22,0,0,0-.12-.21c-.2-.21-.24-.62-.35-.8a4.16,4.16,0,0,0-.48-.87,6.18,6.18,0,0,0-1,0c-.27,0-.46-.07-.74-.07a1,1,0,0,0-.3,0,3.76,3.76,0,0,1-.5.07,5.61,5.61,0,0,1-.78-.07c-.13,0-.16.13-.29.39a4.35,4.35,0,0,1-.29.75,5.37,5.37,0,0,0-.33.79,1.37,1.37,0,0,0-.15.46s0,.43-.06.58-.23.12-.47.12h-.56c-.09,0-.14,0-.14-.1a.43.43,0,0,1,.1-.29,6.87,6.87,0,0,1,.38-.81,4.73,4.73,0,0,0,.38-.63,5.27,5.27,0,0,0,.44-1.12,1.47,1.47,0,0,1-.12-.57c.07-.16.13-.21.4-.34s.18-.59.42-.86a8.2,8.2,0,0,0,.47-1.24,12.24,12.24,0,0,0,.52-1.17c.11-.25.32-.8.5-1.13s.34-.79.42-.79.22.26.35.8.41,1.11.49,1.44.4.87.47,1.17a17.91,17.91,0,0,0,.75,1.73c.37.72.45,1,.63,1.35s.3.57.44,1a5.82,5.82,0,0,0,.48.91c.1.21.34.35.34.61C190,70.77,189.93,70.77,189.83,70.77Zm-4.33-6.31c-.05.24-.31.82-.4,1.12a2.47,2.47,0,0,0-.29.72,5.06,5.06,0,0,0-.23.72s0,0,.07,0h.41c.19,0,.4,0,.56,0h.13a.92.92,0,0,0,.37.07c.08,0,1.34,0,1.34,0a2,2,0,0,1-.17-.57c-.11-.32-.34-.61-.45-.88s-.32-.63-.4-1-.24-.56-.3-.85-.18-.48-.23-.48-.11.38-.13.42A7.28,7.28,0,0,1,185.5,64.46Zm6.06,6.26c-.22,0-.56.06-.8.06s-.32-.12-.38-.24a2.39,2.39,0,0,1-.37-.8c-.13-.51-.27-.48-.48-1s-.55-1-.66-1.29a5.35,5.35,0,0,1-.38-.9c-.13-.53-.27-.45-.39-.88s-.3-.63-.44-1-.37-1-.53-1.36a6.33,6.33,0,0,1-.4-1c-.18-.57-.45-.75-.45-1a2.43,2.43,0,0,1,.27-.75c.19-.37.43-.81.59-.81s.45.24.55.46a13.84,13.84,0,0,1,.85,1.55,12.16,12.16,0,0,0,.62,1.43c.16.44.59,1.29.67,1.69s.53.82.56,1.19.42.77.6,1.37a2,2,0,0,0,.3.69c.1.29.32.56.46.88s.32.68.37.82.43.51.43.83c0,.15-.11.18-.25.18l-.26,0A3.77,3.77,0,0,0,191.56,70.72Z"/><path class="cls-2" d="M194.12,60.35a.82.82,0,0,1,0,.21c0,.11,0,.24,0,.38,0,.42.08.93.08,1.25,0,.06,0,.11,0,.16a3.08,3.08,0,0,0,0,.53c0,.22,0,.45,0,.67,0,.37,0,.59,0,1.06,0,.28,0,.67,0,1a5.62,5.62,0,0,1,0,.58,2.51,2.51,0,0,0,0,.37c0,.24.05.38.05.6s0,.13,0,.2a2.62,2.62,0,0,0,0,.38c0,.26,0,.48,0,.87s0,.68,0,1v.24c0,.5,0,.68-.11.82a.5.5,0,0,1-.37.14.24.24,0,0,1-.27-.2,11,11,0,0,1,.06-1.24.75.75,0,0,0,0-.22c0-.29-.05-.67-.05-1s.07-.57.07-.85a1.57,1.57,0,0,0,0-.28.81.81,0,0,1,0-.16c0-.28.13-.58.13-.84,0,0,0-.06,0-.09v-.48a2.55,2.55,0,0,0,0-.4c0-.27-.08-1.06-.08-1.54,0-1,.07-1.42.07-1.82a2.23,2.23,0,0,0,0-.36c0-.27-.05-.44-.05-.57a3,3,0,0,1,.05-.47c0-.38.11-.41.29-.44S194.12,60.14,194.12,60.35Zm4.59,10.37a3.49,3.49,0,0,0-.73,0l-.92,0h-1.2c-.35,0-.56.08-.91.08s-.45-.08-.45-.4,0-.35,0-.45,0-.66,0-1.26c0-.36,0-.61,0-1s.07-1.28.07-1.71,0-.72,0-1.09,0-.8,0-1.31c0-.27,0-.48,0-.94v-.2c0-.4-.11-.86-.11-1.2v-.84c0-.32.19-.39.4-.39s.29,0,.4,0a5.35,5.35,0,0,0,.58,0c.22,0,.45-.08.62-.08s.36.11.36.58c0,.13-.07.48-.07.83,0,.67-.21,1.12-.21,1.81s.15.83.15,1.38-.1.92-.1,1.71a9.24,9.24,0,0,1,0,1,9.59,9.59,0,0,1-.09,1.66.86.86,0,0,0,0,.23,3.26,3.26,0,0,0,.08.64,1,1,0,0,0,.91.54c.24,0,.53-.06.77-.06s.63,0,.9,0a1.56,1.56,0,0,0,.93-.38.19.19,0,0,1,.16,0,.29.29,0,0,1,.28.14.21.21,0,0,1,0,.1c0,.16-.26.29-.44.49s-.36.45-.67.45A1.77,1.77,0,0,1,198.71,70.72Z"/></g></g><polygon class="cls-2" points="148.45 19.37 144.9 24.91 150.69 24.91 154.24 19.37 148.45 19.37"/><polygon class="cls-2" points="126.12 19.37 126.12 24.91 127.54 24.91 131.09 19.37 126.12 19.37"/><polygon class="cls-2" points="136.88 19.37 133.33 24.91 139.12 24.91 142.67 19.37 136.88 19.37"/><polygon class="cls-2" points="173.21 19.37 171.6 19.37 168.05 24.91 173.84 24.91 173.21 24.91 173.21 19.37"/><polygon class="cls-2" points="160.03 19.37 156.48 24.91 162.26 24.91 165.81 19.37 160.03 19.37"/><polygon class="cls-2" points="147.55 13.72 142.21 9.27 147.76 8 153.11 12.45 147.55 13.72"/><polygon class="cls-2" points="170.04 2.98 170 2.94 170.03 2.93 170.04 2.98"/><polygon class="cls-2" points="126.02 18.62 124.08 13.39 125.53 13.06 130.88 17.51 126.02 18.62"/><polygon class="cls-2" points="136.44 16.25 131.09 11.79 136.65 10.53 141.99 14.98 136.44 16.25"/><polygon class="cls-2" points="171.96 8.16 169.78 8.66 164.44 4.21 170 2.94 170.04 2.98 171.96 8.16"/><polygon class="cls-2" points="158.67 11.19 153.32 6.74 158.88 5.47 164.22 9.92 158.67 11.19"/><path class="cls-2" d="M278.9,80.11l8.75-2.6v.94l-1.88.55a.09.09,0,0,0-.08.09v2.66a.09.09,0,0,0,.08.1h0l1.88.56v.92l-8.75-2.58Zm5.65,1.39h0s.06,0,.06,0V79.39s0-.07-.06-.07h0l-3.71,1.07h0Z"/><path class="cls-2" d="M284.9,73.51h-3.23a2.43,2.43,0,1,1,0-4.78h3.23a2.43,2.43,0,0,1,.88,4.78A2.6,2.6,0,0,1,284.9,73.51Zm-3.21-.87h3.19a1.73,1.73,0,0,0,1.8-1.53,1.69,1.69,0,0,0-1.8-1.5h-3.19a1.69,1.69,0,0,0-1.8,1.5A1.72,1.72,0,0,0,281.69,72.64Z"/><path class="cls-2" d="M287.65,64.89H280c-.1,0-.15,0-.15.1v1h-.94V64h8.75Z"/><path class="cls-2" d="M287.65,56.62V61l-.9.06-2.85-2.38a3.78,3.78,0,0,0-2.59-1.22,1.32,1.32,0,0,0-1.42,1.21v0a1.78,1.78,0,0,0,1,1.49l-.8.45a2.28,2.28,0,0,1-1.27-1.94,2.21,2.21,0,0,1,2.3-2.1h.11c1,0,2,.3,3.91,2l1.24,1,.16.13v-3.2Z"/><path class="cls-2" d="M284.9,55.12h-3.23a2.69,2.69,0,0,1-2.84-2.39,2.67,2.67,0,0,1,2.84-2.39h3.23a2.69,2.69,0,0,1,2.85,2.39A2.68,2.68,0,0,1,284.9,55.12Zm-3.21-.86h3.19a1.73,1.73,0,0,0,1.8-1.53,1.68,1.68,0,0,0-1.8-1.5h-3.19a1.69,1.69,0,0,0-1.8,1.5A1.73,1.73,0,0,0,281.69,54.26Z"/><path class="cls-2" d="M279.74,48.39a2.36,2.36,0,0,1-.93-1.8,2,2,0,0,1,2-2H281a2.12,2.12,0,0,1,1.67.79h.11a2.52,2.52,0,0,1,2.23-1.2,2.49,2.49,0,0,1,2.72,2.23.49.49,0,0,1,0,.12,2.58,2.58,0,0,1-1,2l-.91-.42a2,2,0,0,0,.84-1.5A1.6,1.6,0,0,0,285,45.08a1.65,1.65,0,0,0-1.72,1.58v.63h-.88v-.53a1.28,1.28,0,0,0-1.3-1.26H281a1.06,1.06,0,0,0-1.12,1v.15a2,2,0,0,0,.85,1.38Z"/><path class="cls-2" d="M281.84,43a2.75,2.75,0,0,1-3-2.49,2.74,2.74,0,0,1,2.9-2.55h.1a3.57,3.57,0,0,1,1.51.33l4.41,2.35-.55.77-2.4-1.28a2,2,0,0,1,0,.35A2.72,2.72,0,0,1,281.92,43Zm0-4.15a1.66,1.66,0,1,0-.57,3.27,2.43,2.43,0,0,0,2.57-1.58v0A1.77,1.77,0,0,0,282,38.83h-.13Z"/><polygon class="cls-2" points="278.52 25.87 281.06 25.2 281.04 22.96 282.58 24.79 285.11 24.07 283.52 25.87 285.11 27.67 282.58 26.96 281.04 28.79 281.06 26.54 278.52 25.87"/><polygon class="cls-2" points="278.52 97.02 281.06 96.35 281.04 94.11 282.58 95.94 285.11 95.22 283.52 97.02 285.11 98.82 282.58 98.11 281.04 99.94 281.06 97.69 278.52 97.02"/><path class="cls-2" d="M19.79,42.79,11,45.39v-.94l1.88-.55a.09.09,0,0,0,.08-.08h0V41.14c0-.06,0-.09-.08-.1L11,40.48v-.92l8.75,2.58ZM14.14,41.4h-.06v2.1s0,.07.06.07h0l3.71-1.07h0Z"/><path class="cls-2" d="M13.79,49.39H17a2.69,2.69,0,0,1,2.84,2.39A2.67,2.67,0,0,1,17,54.16H13.79a2.69,2.69,0,0,1-2.85-2.38A2.68,2.68,0,0,1,13.79,49.39Zm3.21.86H13.82A1.74,1.74,0,0,0,12,51.78a1.7,1.7,0,0,0,1.81,1.5H17a1.69,1.69,0,0,0,1.8-1.5A1.73,1.73,0,0,0,17,50.25Z"/><path class="cls-2" d="M11,58h7.7c.1,0,.16,0,.16-.11v-1h.93v2H11Z"/><path class="cls-2" d="M11,66.27V61.85l.9-.06,2.85,2.39a3.79,3.79,0,0,0,2.6,1.21,1.31,1.31,0,0,0,1.41-1.22,1.78,1.78,0,0,0-1-1.49l.8-.46a2.33,2.33,0,0,1,1.28,2,2.21,2.21,0,0,1-2.32,2.1h-.1c-1.05,0-2-.31-3.91-2l-1.23-1c-.07,0-.14-.12-.17-.12s0,.07,0,.19v3Z"/><path class="cls-2" d="M13.79,67.78H17a2.42,2.42,0,1,1,.82,4.77,2.26,2.26,0,0,1-.82,0H13.79A2.42,2.42,0,1,1,13,67.78,2.26,2.26,0,0,1,13.79,67.78Zm3.21.86H13.82A1.73,1.73,0,0,0,12,70.17a1.7,1.7,0,0,0,1.81,1.5H17a1.69,1.69,0,0,0,1.8-1.5A1.72,1.72,0,0,0,17,68.64Z"/><path class="cls-2" d="M19,74.5a2.35,2.35,0,0,1,.93,1.81,2,2,0,0,1-2,2h-.18a2.09,2.09,0,0,1-1.67-.8h0l-.06,0a2.5,2.5,0,0,1-2.23,1.21A2.49,2.49,0,0,1,11,76.61a1.94,1.94,0,0,1,0-.24,2.58,2.58,0,0,1,1-2l.91.43a2,2,0,0,0-.84,1.5,1.6,1.6,0,0,0,1.7,1.49h0a1.65,1.65,0,0,0,1.72-1.58v-.64h.88v.53a1.28,1.28,0,0,0,1.3,1.26h.09a1.06,1.06,0,0,0,1.12-1v-.13A2,2,0,0,0,18,74.88Z"/><path class="cls-2" d="M16.85,79.91a2.55,2.55,0,0,1,1,5,2.41,2.41,0,0,1-1,0,3.44,3.44,0,0,1-1.51-.34l-4.41-2.35.55-.77,2.41,1.29a1,1,0,0,1,0-.35C13.85,81.12,15,79.91,16.85,79.91Zm0,4.14a1.65,1.65,0,1,0,.51-3.26,1.46,1.46,0,0,0-.51,0,1.81,1.81,0,0,0-2,1.58v0a1.75,1.75,0,0,0,1.87,1.64Z"/><polygon class="cls-2" points="20.17 97.02 17.63 97.69 17.66 99.94 16.11 98.11 13.58 98.82 15.17 97.02 13.58 95.22 16.11 95.94 17.66 94.11 17.63 96.35 20.17 97.02"/><polygon class="cls-2" points="20.17 25.87 17.63 26.54 17.66 28.79 16.11 26.96 13.58 27.67 15.17 25.87 13.58 24.07 16.11 24.79 17.66 22.96 17.63 25.2 20.17 25.87"/><path class="cls-4" d="M260.66,101.72H45.23V82.52H260.66ZM47,100.83H258.86V83.41H47Z"/><text class="cls-5" transform="translate(67.77 97.05)">20th-26th August 2020</text></svg>