<?xml version="1.0" encoding="utf-8"?>
<!-- Generator: Adobe Illustrator 24.3.0, SVG Export Plug-In . SVG Version: 6.00 Build 0)  -->
<svg version="1.1" id="Layer_1" xmlns="http://www.w3.org/2000/svg" xmlns:xlink="http://www.w3.org/1999/xlink" x="0px" y="0px"
	 viewBox="0 0 240 160" style="enable-background:new 0 0 240 160;" xml:space="preserve">
<style type="text/css">
	.st0{fill:#FF4947;}
</style>
<g>
	<g>
		<path class="st0" d="M235.7,138.7v14.9H229c-0.8,0-2.5-0.2-3.1,0v6.2H240v-21.1h-2.8C236.6,138.7,236.1,138.7,235.7,138.7
			 M4.1,153.6v-10.2c0-1.2,0.2-3.7,0-4.7H0V160h14.1v-4.2c0-0.7,0-1.5,0-2h-10V153.6z M14.1,124.6h76.4v-5.7H14.1V124.6z M225.9,133
			H217v-26.7h-4.1v32.4H226V133H225.9z M204.2,128.3h-5.9c1-4.2,2-8.7,3-12.9c0.3,0.5,0.5,2.2,0.7,3c0.5,2.2,1,4.5,1.5,6.4
			C203.7,126.1,203.9,127.6,204.2,128.3L204.2,128.3z M205.8,116.9c-0.7-2.2-1-4.7-1.6-7.2c-0.2-1-0.8-2.5-0.8-3.5h-3.6
			c-0.2,1.2-0.5,2.2-0.8,3.5c-0.5,2-0.8,4-1.3,5.7c-0.2,0.7-0.3,1.5-0.5,2.5c-1,3.2-1.6,6.9-2.5,10.2c-0.3,1-0.5,2.2-0.7,3.2
			c-0.5,1.7-0.8,3.5-1.3,5.2c-0.2,0.7-0.5,1.5-0.5,2.5h4.1c0.3-1.7,0.8-3.5,1.1-5.4h8.2c0.3,1.7,0.8,3.5,1.1,5.4h4.3
			c-1.6-5.7-2.6-11.9-4.3-17.6C206.3,119.9,206.2,118.4,205.8,116.9 M195.2,108.7c0.2-0.7,0.3-1.7,0.5-2.5V106h-4.3
			c-0.5,2-0.8,4-1.3,5.9c-1,4-1.8,7.9-2.6,11.9c-0.3,1.2-0.5,2.5-0.8,3.5c-0.2,0.5-0.2,1.2-0.3,1.7l0,0c-0.3-0.2-0.3-1.2-0.5-1.7
			c-0.3-1.2-0.7-2.7-1-4.2c-0.7-2.7-1.3-5.7-2-8.4c-0.3-1.2-0.5-2.5-0.8-3.5c-0.3-1.2-0.5-2.5-0.8-3.7c-0.2-0.5-0.3-1-0.3-1.7l0,0
			h-4.4c0.2,1.2,0.7,2.7,1,4c0.5,2,0.8,4,1.5,5.9c0.2,0.7,0.3,1.5,0.5,2.5c0.8,3,1.5,6.2,2.3,9.2c0.2,0.7,0.3,1.5,0.5,2.5
			c0.5,2,0.8,4,1.5,5.9c0.2,0.7,0.5,1.7,0.7,2.5l0,0h2.6c0.3,0,0.8,0.2,1.1,0c0.3-0.5,0.3-1.2,0.5-2c0.5-1.7,0.7-3.5,1.1-5
			c1.6-5.9,2.8-12.1,4.3-18.1C194.3,112.2,194.7,110.5,195.2,108.7 M169.9,138.7h3.9v-32.4h-3.9V138.7z M150.1,112h6.6v26.7h4.1V112
			h6.1v-5.7h-16.8V112z M116.5,138.7h13.6V133h-9.4v-8.4h8.7v-5.4h-8.7v-7.4h9.4V106h-13.6V138.7z M100.2,138.7h4.1v-12.9h8.5v-5.2
			h-8.5v-8.9h9.5V106h-13.6V138.7z M141.1,118.6c-1.1-0.7-3.3-1.2-3.8-3c-0.2-0.7,0-2,0.2-2.5c0.2-0.5,0.3-0.7,0.5-1
			c0.7-0.7,2.1-1.2,3.4-0.7c1.5,0.5,2.6,2.2,3,4.5c1.3-0.5,2.6-1,4.1-1.5c0-1.5-0.5-2.7-1-3.7c-1-2.2-2.1-3.7-3.9-4.5
			c-0.5-0.2-0.8-0.2-1.3-0.2c-0.5-0.2-2.1-0.5-2.8-0.2c-0.5,0.2-1.1,0.2-1.6,0.5c-2,1-3.4,2.7-4.3,5.2c-0.2,0.7-0.3,1.5-0.5,2.2
			c-0.3,1.7,0.2,3.5,0.5,4.7c1.1,4.2,4.3,5.2,7.1,6.7c1.8,1,3.8,1.2,4.1,4.7c0.2,0.7-0.2,1.5-0.3,2c-0.2,0.5-0.3,0.7-0.5,1
			c-0.8,1-2.8,1.7-4.3,1c-1.6-0.7-2.1-2.5-2.6-5c-0.2-0.7-0.3-1.2-0.3-2.2c-1.5,0.2-3,1.2-4.4,1.2l0,0c0.7,5.2,1.8,8.7,4.8,10.7
			c0.7,0.5,1.3,0.5,2.1,0.7c0.7,0.2,2.1,0.2,3,0c0.7-0.2,1.1,0,1.6-0.2c2.1-1,3.8-2.7,4.8-5.7c0.2-0.7,0.3-1.7,0.5-2.7v-1
			c0-1.5-0.2-2.7-0.5-3.7C147.5,121.4,144.1,120.4,141.1,118.6 M218.8,95.9V82.2c0.2-0.2,0.3-0.7,0.5-1c0.3-1,0.7-1.7,1-2.7
			c1-2.5,2-5.2,3-7.9c0.7-1.5,1.1-3.2,1.8-4.7c0.3-0.7,0.5-1.5,0.8-2v-0.2h-4.4c-1.5,4.5-3.1,8.7-4.6,13.1l0,0
			c-1.5-4.5-3.1-8.7-4.6-13.1h-4.4c0,0.5,0.3,0.7,0.5,1.2c0.5,1,0.8,2,1.1,3c1.3,3.2,2.5,6.7,3.8,9.9c0.3,1,0.8,2,1.1,3
			c0.2,0.2,0.5,0.7,0.5,1.2v13.4h3.9V95.9z M202.2,77.8c-1.5,1.7-4.3,1.2-6.9,1.2v-9.9c3.3,0,6.2-0.7,7.4,2.5
			c0.2,0.5,0.5,1.7,0.3,2.5C202.9,75.8,202.7,77,202.2,77.8 M204.5,82c1-1,1.8-2.5,2.3-4c0.3-1,0.7-3,0.5-4.5c-0.2-0.7,0-1.2-0.2-2
			c-0.3-2-1-4.2-2-5.2c-1-1-2-1.7-3.3-2.5c-1.1-0.5-2.6-0.2-4.1-0.2h-7.1v32h4.4V84.2h3.3c1.5,4,3,7.7,4.3,11.6h4.4
			c-0.3-1-0.8-2.2-1.1-3.2c-0.7-1.7-1.1-3.5-2-5.2c-0.5-1.2-0.8-3-1.5-4C202.9,83,204.2,82.5,204.5,82 M182,85.7h-5.9
			c0.7-2.7,1.1-5.4,1.8-7.9c0.2-0.7,0.3-1.7,0.5-2.5c0.2-0.5,0.5-1.2,0.5-2c0,0,0,0,0.2,0c0.3,0.5,0.3,2,0.7,2.7
			c0.7,2.2,1.1,4.5,1.6,6.7C181.5,83.5,181.7,85,182,85.7L182,85.7z M183.5,92.6c0.3,1,0.7,2,0.8,3h4.3c-2.6-10.7-5.3-21.3-7.7-32
			h-3.4c-0.2,0-0.3,1.7-0.5,2c-0.5,1.7-0.8,3.7-1.3,5.4c-1.1,4.2-2.1,8.7-3.3,12.9c-0.3,1.2-0.5,2.2-0.8,3.5
			c-0.5,1.7-0.8,3.7-1.3,5.4c-0.2,0.7-0.7,1.7-0.7,2.7h4.1c0.2-1.5,1-3,1.1-4.5h8.2C183.3,91.4,183.5,92.4,183.5,92.6 M164.9,95.9
			V69.6h6.6v-5.7h-16.8v5.7h6.2v26.3H164.9z M139.5,63.9h-3c-0.5,0-1,0-1.5,0v32h4.4V75h0.2c0.2,0.7,0.7,1.5,0.8,2.2
			c0.5,1.2,1,2.5,1.5,3.7c1.3,3,2.3,6.2,3.4,9.4c0.5,1.2,1,2.5,1.5,3.7c0.2,0.5,0.5,1.2,0.7,1.7h4.3v-32h-4.1v21.8l0,0
			c-0.2-0.7-0.5-1.5-0.8-2c-0.5-1.2-0.8-2.2-1.3-3.5c-1.1-2.7-2-5.4-3.1-8.2c-0.2-0.5-0.3-1.2-0.5-1.7c-0.7-1.5-1.1-3-1.6-4.7
			C140,65.1,139.6,64.4,139.5,63.9 M117.6,95.9h13.6v-5.4h-9.5v-7.9h8.7V77h-6.1c-0.8,0-2.1,0.2-2.6,0v-7.4h9.5v-5.7h-13.6
			C117.6,63.9,117.6,95.9,117.6,95.9z M103.5,84.7L103.5,84.7c-0.3-0.2-0.3-1-0.5-1.5c-0.3-1.2-0.8-2.5-1.1-3.7
			c-1-3.5-2.1-6.9-3.1-10.4c-0.3-1.2-0.8-2.5-1.1-3.7c-0.2-0.5-0.3-0.7-0.5-1.2h-4.4v32h4.4V76.8l0,0c2,6.4,3.9,12.6,5.9,19.1h0.7
			c0.2,0,0.3-1,0.3-1.2c0.3-1,0.7-2.2,1-3.2c0.8-2.5,1.6-5,2.3-7.4c0.3-1,0.7-2,1-3s0.7-2,1-3c0.2-0.5,0.2-0.7,0.3-1v-0.2l0,0v19.1
			h4.1v-32h-4.3C107.8,70.8,105.6,77.8,103.5,84.7 M85.6,63.9v16.3c0,2.2,0.2,5.9-0.2,7.7c-0.2,0.7-0.7,1.7-1.1,2.2
			c-1.1,1.2-3.8,1.5-4.9,0c-0.5-0.5-0.8-1.2-1.1-2c-0.2-0.5-0.2-1.2-0.3-1.7V66.1c0-0.7,0-1.7,0-2.2h-3.9v17.3c0,4.5,0,8.2,1,10.9
			c1,2.5,2.6,3.7,4.6,4.5c0.7,0.2,1.3,0,2,0.2c0.2,0,0.5,0,0.7,0c1.5,0,2.8-0.5,3.8-1.2c1.6-1.2,2.6-3,3.3-5.9
			c0.5-2.2,0.3-5.9,0.3-8.9V63.9C89.5,63.9,85.6,63.9,85.6,63.9z M24.8,88.4c-1.1,2.2-3.8,2.2-6.4,2V69.6c2.3,0,4.3-0.2,5.7,1.2
			C26.6,73.6,26.8,84.2,24.8,88.4 M26,65.4c-2.5-2.2-7.7-1.7-11.7-1.7v32H20c1.1,0,2.3,0.2,3.3-0.2c1.8-0.7,2.8-1.2,4.1-2.7
			c0.3-0.2,0.7-0.5,0.8-1c1-2,1.5-3.5,2.1-6.2c0.2-1.2,0.2-2.2,0.3-3.5c0.2-1.5,0.2-4,0-5.2c-0.2-1.2-0.2-2.2-0.3-3.2
			C29.2,69.8,27.9,67.4,26,65.4 M53.6,80.5c0,2,0.2,3.7,0.5,5.2c1,5.4,2.3,8.2,5.7,10.2c1,0.5,3,1,4.4,0.7c0.7-0.2,1.5-0.5,2.1-0.7
			c2.1-1.2,3.6-3.7,4.4-6.9c0.3-1,0.3-2,0.5-3c0-0.5,0-1,0.2-1.2c-0.2-0.2-0.7-0.2-1-0.2c-0.7-0.2-1.6-0.5-2.3-0.7
			c-0.3-0.2-0.7,0-0.8-0.2c-0.2,0-0.2,0-0.2,0C67,84.2,67,85,66.9,85.9c-0.3,1.7-0.8,3.5-1.6,4.2c-0.3,0.5-0.8,0.7-1.3,1
			c-0.8,0.2-2,0-2.5-0.2c-2-1.2-2.6-3.2-3.3-6.4c-0.2-1-0.2-2-0.3-3c-0.2-0.7,0-3.2,0.2-4c0.2-0.7,0-1.2,0.2-2
			c0.5-2.7,1.5-5,3.1-5.9c3.3-2.2,5.6,2,5.9,6.2c1.5,0,2.8-0.7,4.1-1c0-1.5-0.3-2.7-0.7-3.7c-1-3.7-2.6-5.9-5.3-7.2
			c-1.1-0.5-2.8-0.7-4.1-0.2c-0.7,0.2-1.3,0.5-2,1c-2.6,1.7-4.3,5.2-5.3,9.4c-0.3,1.2-0.3,2.7-0.5,4c0,0.5,0,1,0,1.5
			C53.6,79.3,53.6,80,53.6,80.5 M37.1,78.5v-1c0.2-1,0.2-2,0.3-2.7c0.5-2.2,1.3-4.5,2.8-5.4c0.3-0.2,0.8-0.5,1.3-0.5
			c0.2,0,0.5,0,0.5,0c3,0.5,4.1,2.7,4.8,6.4C47,76,47,76.8,47,77.8c0.2,1.2,0.2,4,0,5.2c-0.2,1.5-0.3,2.7-0.7,4
			c-0.5,2-1.5,3.5-3,4.2c-0.3,0.2-0.8,0.2-1.1,0.2c-1,0.2-2.3-0.7-2.8-1.2c-1.3-1.2-1.8-3.5-2.3-5.9c-0.2-0.7,0-1.2-0.2-2
			C37,81,37,79.5,37.1,78.5 M33.3,86.7c0.8,4,2.3,6.7,4.6,8.7c0.7,0.5,1.5,1,2.3,1.2c0.3,0,0.7,0,1.1,0.2c0.3,0,1.1,0.2,1.6,0
			c1-0.2,1.8-0.5,2.6-0.7c2.6-1.5,4.1-4.5,5.3-8.4c0.3-1.2,0.3-2.7,0.7-4c0-0.5,0-0.7,0-1.2c0.3-2.5,0-6.4-0.5-8.4
			c-0.2-1-0.3-2-0.7-2.7c-1.3-4.5-4.3-8.2-8.7-7.9c-0.2,0.2-0.7,0-0.8,0.2c-0.7,0.2-1.3,0.5-2,0.7c-2.8,1.7-4.4,5-5.4,9.4
			c-0.2,1-0.3,2.2-0.5,3.5c0,0.7,0,1.2,0,2c-0.2,1.2,0,3.7,0.2,4.7C33.2,84.5,33.2,85.7,33.3,86.7 M225.7,35.4h-59v5.7h59V35.4z
			 M147.7,34.4c0.5,1.2,1,2.7,1.5,4c0.2,0.2,0.3,0.7,0.5,1.2v13.1h4.1V39.6c0.2-0.5,0.3-0.7,0.5-1.2c0.3-1,0.8-2,1.1-3
			c0.8-2.2,1.6-4.7,2.5-6.7c0.7-1.7,1.1-3.5,1.8-5c0.3-0.7,0.5-1.5,0.8-2.2l0,0h-4.4c0.2-0.2,0,0.5,0,0.7c-0.3,0.7-0.5,1.5-0.8,2.5
			c-0.8,2.2-1.6,4.5-2.3,6.9c-0.3,0.7-0.8,2-1,3c-0.2-0.2-0.3-0.7-0.5-1c-0.3-0.7-0.5-1.7-0.8-2.5c-0.7-1.7-1.3-3.7-2-5.7
			c-0.2-0.5-0.3-1.2-0.5-1.7c-0.3-0.7-0.7-1.5-0.8-2.2h-4.4c0.8,2.5,1.6,4.7,2.6,6.9C146.4,30.2,146.9,32.4,147.7,34.4 M130.9,52.8
			h3.9v-26h6.1v-5.4h-16.4V27h6.2v25.8H130.9z M121.7,21.3h-3.9V53h3.9V21.3z M74.6,32.2L74.6,32.2c0.2,0.7,0.5,1.2,0.7,1.7
			c0.5,1.2,1,2.7,1.5,4c1.1,3,2.1,6.2,3.4,9.2c0.5,1.2,1,2.5,1.5,4c0.3,0.5,0.5,1.2,0.8,2h4.3V21.3h-4.1v20.8l0,0
			c-0.2-0.7-0.5-1.2-0.7-2c-0.5-1.2-1-2.5-1.5-3.7c-1.3-3.2-2.5-6.9-3.8-10.2c-0.5-1.2-1-2.5-1.5-3.7c-0.2-0.5-0.5-0.7-0.5-1.2h-3.9
			V53h3.9V32.2H74.6z M67.4,47.3h-9.5v-7.7h8.4v-5.9h-8.4v-6.9h9.5v-5.4H53.7V53h13.6V47.3z M39.4,26.7c1.6,0,4.8-0.2,5.9,0.5
			c0.8,0.5,1.1,1.5,1.5,3c0.2,0.5,0.2,1.5,0,2c-0.2,0.7-0.3,1.2-0.5,1.7c-0.3,0.7-1,1.2-1.5,1.5c-0.2,0-0.5,0-0.8,0.2h-3
			c-0.5,0-1.1,0-1.5,0v-8.9H39.4z M39.4,41.4c2.1,0,5.1,0.5,6.7-0.2c2.3-1,3.6-2.7,4.4-5.7c0.3-1.5,0.7-4,0.3-5.9
			c-0.2-1.2-0.5-2.5-0.8-3.5c-0.8-2.5-2.3-3.7-4.3-4.7c-1-0.5-2.5-0.2-3.8-0.2h-6.7v31.7h4.1V41.4z M110.9,40.4h-0.2
			c-0.5,3.5-0.8,6.2-2.6,7.2c-0.5,0.2-0.8,0.2-1.3,0.2c-0.3,0-1,0-1.5-0.2c-0.5-0.2-1-0.7-1.3-1c-1.1-1.2-1.6-3.7-2.1-5.9
			c-0.2-0.7-0.2-1.7-0.2-2.5c-0.2-0.7,0-3.2,0.2-4s0-1.5,0.2-2.2c0.5-2.5,1.5-4.7,3.1-5.7c3.1-2,5.6,2.2,5.7,6.2
			c1.5,0,2.8-0.7,4.1-1c-0.3-1.2-0.3-2.5-0.5-3.7c-0.8-3.2-2.3-5.4-4.4-6.7c-0.5-0.2-1.1-0.5-1.8-0.7c-1.5-0.5-3.4,0.2-4.4,0.7
			c-3,2-4.4,4.7-5.6,9.7c-0.2,0.7-0.3,2-0.5,3c0,0.5,0,1.2,0,1.7c0,0.5-0.2,1.5,0,2.2c0.3,1.7,0.2,3.7,0.5,5.4c0.8,4,2,6.9,4.1,8.9
			c0.7,0.7,1.6,1,2.5,1.2c1.5,0.5,3.6,0.2,4.8-0.2c3-1.5,4.4-4.2,5.3-8.4c0.2-0.7,0.3-1.7,0.5-3c-1-0.2-2-0.5-2.8-1
			C111.7,40.6,111.2,40.9,110.9,40.4 M18.6,33.2c0.5-2.5,1.1-4.7,2.5-5.9c0.3-0.2,0.8-0.5,1.3-0.7c0.2,0,0.5,0,0.7-0.2
			c3.3,0,4.4,3.2,5.1,7.2c0.2,1.2,0.5,3.7,0.2,5.2v1c-0.2,1-0.2,2.2-0.5,3.2c-0.7,3-1.8,4.7-3.9,5.4c-1.1,0.5-2.5-0.5-3-1
			c-1.8-2-2.5-5.4-2.5-10.2C18.4,35.7,18.4,34.4,18.6,33.2 M14.3,41.1c0.2,1,0.2,2,0.3,3c0.8,4.2,2.5,7.2,4.9,8.7c1,0.7,2.1,1,3.6,1
			H24c0.8-0.2,1.6-0.2,2.5-0.7c2.6-1.5,4.1-4.5,5.3-8.4c0.3-1.2,0.3-2.7,0.5-4.2c0.3-1.7,0.3-5.4,0-7.2c-0.3-2-0.5-3.7-1.1-5.2
			c-1.3-3.2-3-5.7-5.6-6.9c-0.5-0.2-1-0.2-1.5-0.5c-0.3,0-0.7,0-1,0c-0.3,0.2-1,0-1.3,0.2c-0.5,0.2-1.1,0.2-1.6,0.7
			c-2.8,1.7-4.3,4.5-5.4,8.7c-0.3,1.2-0.3,2.7-0.5,4.2C14,36.2,14,39.4,14.3,41.1 M225.7,0v4.2c0,0.7,0,1.5,0,2h9.9v10.2
			c0,1.2-0.2,3.7,0,4.7h4.1V0H225.7z M4.1,21.1V6.2h6.7c0.8,0,2.5,0.2,3.1,0V0H0v21.3h2.8C3.3,21.3,3.8,21.3,4.1,21.1"/>
	</g>
</g>
</svg>
