<svg id="Layer_1" data-name="Layer 1" xmlns="http://www.w3.org/2000/svg" viewBox="0 0 300 121.57"><defs><style>.cls-1{fill:#ffedc2;}.cls-2,.cls-3,.cls-9{fill:#42210b;}.cls-3{font-size:16px;font-family:CharcuterieDeco, Charcuterie Deco;}.cls-4{letter-spacing:-0.06em;}.cls-5{letter-spacing:-0.06em;}.cls-6{letter-spacing:-0.16em;}.cls-7{letter-spacing:0em;}.cls-8{fill:#6a222a;}.cls-9{font-size:13px;font-family:LucidaConsole, Lucida Console;}</style></defs><path class="cls-1" d="M300,104.15V99.6c-2.08,0-3.77-1.42-3.77-3.17s1.69-3.17,3.77-3.17V89.41c-2.08,0-3.77-1.41-3.77-3.17s1.69-3.16,3.77-3.16V79.23c-2.08,0-3.77-1.42-3.77-3.17s1.69-3.17,3.77-3.17V69.05c-2.08,0-3.77-1.42-3.77-3.17s1.69-3.17,3.77-3.17V58.86c-2.08,0-3.77-1.42-3.77-3.16s1.69-3.17,3.77-3.17V48.68c-2.08,0-3.77-1.42-3.77-3.17s1.69-3.17,3.77-3.17V38.5c-2.08,0-3.77-1.42-3.77-3.17s1.69-3.17,3.77-3.17V28.31c-2.08,0-3.77-1.41-3.77-3.16S297.92,22,300,22V17.42h-2.34C287.23,16.44,279.13,9,279.13,0H20.87c0,9-8.11,16.45-18.54,17.43H0V22c2.08,0,3.77,1.41,3.77,3.17S2.08,28.31,0,28.31v3.85c2.08,0,3.77,1.42,3.77,3.17S2.08,38.5,0,38.5v3.84c2.08,0,3.77,1.42,3.77,3.17S2.08,48.68,0,48.68v3.85c2.08,0,3.77,1.42,3.77,3.17S2.08,58.86,0,58.86v3.85c2.08,0,3.77,1.42,3.77,3.17S2.08,69.05,0,69.05v3.84c2.08,0,3.77,1.42,3.77,3.17S2.08,79.23,0,79.23v3.85c2.08,0,3.77,1.41,3.77,3.16S2.08,89.41,0,89.41v3.85c2.08,0,3.77,1.42,3.77,3.17S2.08,99.6,0,99.6v4.55H2.33c10.43,1,18.54,8.4,18.54,17.42H279.13c0-9,8.11-16.44,18.53-17.42Z"/><polygon class="cls-2" points="235.27 45.55 236.93 50.01 242.5 49.97 237.96 52.68 239.74 57.11 235.27 54.32 230.8 57.11 232.57 52.68 228.04 49.97 233.6 50.01 235.27 45.55"/><polygon class="cls-2" points="58.78 45.55 60.45 50.01 66.01 49.97 61.48 52.68 63.25 57.11 58.78 54.32 54.32 57.11 56.09 52.68 51.56 49.97 57.12 50.01 58.78 45.55"/><text class="cls-3" transform="translate(80.41 51.52)">a<tspan class="cls-4" x="10.72" y="0">d</tspan><tspan x="20.74" y="0">ventures </tspan><tspan class="cls-5" x="101.58" y="0">f</tspan><tspan x="108.72" y="0">or </tspan><tspan x="-30.78" y="19.2">the bold and the br</tspan><tspan class="cls-6" x="138.88" y="19.2">a</tspan><tspan class="cls-7" x="146.99" y="19.2">ve</tspan></text><polygon class="cls-2" points="148.45 19.37 144.9 24.91 150.69 24.91 154.24 19.37 148.45 19.37"/><polygon class="cls-2" points="126.12 19.37 126.12 24.91 127.54 24.91 131.09 19.37 126.12 19.37"/><polygon class="cls-2" points="136.88 19.37 133.33 24.91 139.12 24.91 142.67 19.37 136.88 19.37"/><polygon class="cls-2" points="173.21 19.37 171.6 19.37 168.05 24.91 173.84 24.91 173.21 24.91 173.21 19.37"/><polygon class="cls-2" points="160.03 19.37 156.48 24.91 162.26 24.91 165.81 19.37 160.03 19.37"/><polygon class="cls-2" points="147.55 13.72 142.21 9.27 147.76 8 153.11 12.45 147.55 13.72"/><polygon class="cls-2" points="170.04 2.98 170 2.94 170.03 2.93 170.04 2.98"/><polygon class="cls-2" points="126.02 18.62 124.08 13.39 125.53 13.06 130.88 17.51 126.02 18.62"/><polygon class="cls-2" points="136.44 16.25 131.09 11.79 136.65 10.53 141.99 14.98 136.44 16.25"/><polygon class="cls-2" points="171.96 8.16 169.78 8.66 164.44 4.21 170 2.94 170.04 2.98 171.96 8.16"/><polygon class="cls-2" points="158.67 11.19 153.32 6.74 158.88 5.47 164.22 9.92 158.67 11.19"/><path class="cls-2" d="M278.9,80.11l8.75-2.6v.94l-1.88.55a.09.09,0,0,0-.08.09v2.66a.09.09,0,0,0,.08.1l1.88.56v.92l-8.75-2.58Zm5.65,1.39h0s.06,0,.06-.05V79.39s0-.07-.06-.07h0l-3.71,1.07s0,0,0,0,0,0,0,0Z"/><path class="cls-2" d="M284.9,73.51h-3.23a2.69,2.69,0,0,1-2.84-2.4,2.66,2.66,0,0,1,2.84-2.38h3.23a2.43,2.43,0,1,1,0,4.78Zm-3.21-.87h3.19a1.73,1.73,0,0,0,1.8-1.53,1.69,1.69,0,0,0-1.8-1.5h-3.19a1.69,1.69,0,0,0-1.8,1.5A1.72,1.72,0,0,0,281.69,72.64Z"/><path class="cls-2" d="M287.65,64.89H280c-.1,0-.15,0-.15.1v1h-.94V64h8.75Z"/><path class="cls-2" d="M287.65,56.62V61l-.9.06-2.85-2.38a3.81,3.81,0,0,0-2.59-1.22,1.32,1.32,0,0,0-1.42,1.23,1.77,1.77,0,0,0,1,1.49l-.8.45a2.28,2.28,0,0,1-1.27-1.94,2.2,2.2,0,0,1,2.41-2.09c1.05,0,2,.3,3.91,2l1.24,1.05a.87.87,0,0,0,.16.13s0-.07,0-.2v-3Z"/><path class="cls-2" d="M284.9,55.12h-3.23a2.69,2.69,0,0,1-2.84-2.39,2.67,2.67,0,0,1,2.84-2.39h3.23a2.69,2.69,0,0,1,2.85,2.39A2.68,2.68,0,0,1,284.9,55.12Zm-3.21-.86h3.19a1.73,1.73,0,0,0,1.8-1.53,1.68,1.68,0,0,0-1.8-1.5h-3.19a1.69,1.69,0,0,0-1.8,1.5A1.73,1.73,0,0,0,281.69,54.26Z"/><path class="cls-2" d="M279.74,48.39a2.36,2.36,0,0,1-.93-1.8,2,2,0,0,1,2.17-2,2.12,2.12,0,0,1,1.67.79s0,0,.06,0,0,0,.05,0a2.52,2.52,0,0,1,2.23-1.2,2.49,2.49,0,0,1,2.73,2.35,2.59,2.59,0,0,1-1,2l-.91-.42a2,2,0,0,0,.84-1.5A1.6,1.6,0,0,0,285,45.08a1.65,1.65,0,0,0-1.72,1.62l0,.59h-.88l0-.53a1.28,1.28,0,0,0-1.39-1.26,1.06,1.06,0,0,0-1.12,1.14,2,2,0,0,0,.85,1.38Z"/><path class="cls-2" d="M281.84,43a2.76,2.76,0,0,1-3-2.49,2.73,2.73,0,0,1,3-2.54,3.57,3.57,0,0,1,1.51.33l4.41,2.35-.55.77-2.4-1.28a1.83,1.83,0,0,1,0,.35A2.71,2.71,0,0,1,281.84,43Zm0-4.15a1.66,1.66,0,1,0,0,3.27,1.8,1.8,0,0,0,2-1.63A1.77,1.77,0,0,0,281.84,38.84Z"/><polygon class="cls-2" points="278.52 25.87 281.06 25.2 281.04 22.96 282.58 24.79 285.11 24.07 283.52 25.87 285.11 27.67 282.58 26.96 281.04 28.79 281.06 26.54 278.52 25.87"/><polygon class="cls-2" points="278.52 97.02 281.06 96.35 281.04 94.11 282.58 95.94 285.11 95.22 283.52 97.02 285.11 98.82 282.58 98.11 281.04 99.94 281.06 97.69 278.52 97.02"/><path class="cls-2" d="M19.79,42.79,11,45.39v-.94l1.88-.55a.08.08,0,0,0,.08-.09V41.14c0-.06,0-.09-.08-.1L11,40.48v-.92l8.75,2.58ZM14.14,41.4h0s-.06,0-.06,0V43.5s0,.07.06.07h0l3.71-1.07h0l0,0Z"/><path class="cls-2" d="M13.79,49.39H17a2.69,2.69,0,0,1,2.84,2.39A2.66,2.66,0,0,1,17,54.16H13.79a2.69,2.69,0,0,1-2.85-2.38A2.68,2.68,0,0,1,13.79,49.39Zm3.21.86H13.82A1.74,1.74,0,0,0,12,51.78a1.7,1.7,0,0,0,1.81,1.5H17a1.69,1.69,0,0,0,1.8-1.5A1.73,1.73,0,0,0,17,50.25Z"/><path class="cls-2" d="M11,58H18.7c.1,0,.16,0,.16-.11v-1h.93v2H11Z"/><path class="cls-2" d="M11,66.27V61.85l.9-.06,2.85,2.39a3.79,3.79,0,0,0,2.6,1.21,1.32,1.32,0,0,0,1.41-1.22,1.77,1.77,0,0,0-1-1.49l.8-.46a2.31,2.31,0,0,1,1.28,2,2.21,2.21,0,0,1-2.42,2.09c-1.05,0-2-.31-3.91-2l-1.23-1c-.07,0-.14-.12-.17-.12s0,.07,0,.19v3Z"/><path class="cls-2" d="M13.79,67.78H17a2.42,2.42,0,1,1,0,4.77H13.79a2.42,2.42,0,1,1,0-4.77Zm3.21.86H13.82A1.73,1.73,0,0,0,12,70.17a1.7,1.7,0,0,0,1.81,1.5H17a1.69,1.69,0,0,0,1.8-1.5A1.72,1.72,0,0,0,17,68.64Z"/><path class="cls-2" d="M19,74.5a2.36,2.36,0,0,1,.93,1.81,2,2,0,0,1-2.17,2,2.1,2.1,0,0,1-1.67-.8s0,0,0,0,0,0-.06.05a2.51,2.51,0,0,1-2.23,1.21A2.49,2.49,0,0,1,11,76.37a2.59,2.59,0,0,1,1-2l.91.43a2,2,0,0,0-.84,1.5,1.6,1.6,0,0,0,1.71,1.49,1.65,1.65,0,0,0,1.72-1.62l0-.6h.88l0,.53a1.28,1.28,0,0,0,1.39,1.26,1.06,1.06,0,0,0,1.12-1.13A2,2,0,0,0,18,74.88Z"/><path class="cls-2" d="M16.85,79.91a2.55,2.55,0,1,1,0,5,3.44,3.44,0,0,1-1.51-.34l-4.41-2.35.55-.77,2.41,1.29a1.34,1.34,0,0,1,0-.35C13.85,81.12,15,79.91,16.85,79.91Zm0,4.14a1.65,1.65,0,1,0,0-3.26,1.8,1.8,0,0,0-2,1.63A1.76,1.76,0,0,0,16.85,84.05Z"/><polygon class="cls-2" points="20.17 97.02 17.63 97.69 17.66 99.94 16.11 98.11 13.58 98.82 15.17 97.02 13.58 95.22 16.11 95.94 17.66 94.11 17.63 96.35 20.17 97.02"/><polygon class="cls-2" points="20.17 25.87 17.63 26.54 17.66 28.79 16.11 26.96 13.58 27.67 15.17 25.87 13.58 24.07 16.11 24.79 17.66 22.96 17.63 25.2 20.17 25.87"/><path class="cls-8" d="M260.66,101.72H45.23V82.52H260.66ZM47,100.83H258.86V83.41H47Z"/><text class="cls-9" transform="translate(79.51 97.05)">5th Spetember 2020</text></svg>