<?xml version="1.0" encoding="utf-8"?>
<!-- Generator: Adobe Illustrator 24.3.0, SVG Export Plug-In . SVG Version: 6.00 Build 0)  -->
<svg version="1.1" id="Layer_1" xmlns="http://www.w3.org/2000/svg" xmlns:xlink="http://www.w3.org/1999/xlink" x="0px" y="0px"
	 viewBox="0 0 300 121.6" style="enable-background:new 0 0 300 121.6;" xml:space="preserve">
<style type="text/css">
	.st0{fill:#FFEDC2;}
	.st1{fill:#42210B;}
	.st2{enable-background:new    ;}
	.st3{fill:#6A222A;}
	.st4{font-family:'LucidaConsole';}
	.st5{font-size:13px;}
</style>
<path class="st0" d="M300,104.2v-4.6c-2.1,0-3.8-1.4-3.8-3.2s1.7-3.2,3.8-3.2v-3.8c-2.1,0-3.8-1.4-3.8-3.2s1.7-3.2,3.8-3.2v-3.8
	c-2.1,0-3.8-1.4-3.8-3.2s1.7-3.2,3.8-3.2v-3.8c-2.1,0-3.8-1.4-3.8-3.2s1.7-3.2,3.8-3.2v-3.9c-2.1,0-3.8-1.4-3.8-3.2s1.7-3.2,3.8-3.2
	v-3.8c-2.1,0-3.8-1.4-3.8-3.2s1.7-3.2,3.8-3.2v-3.8c-2.1,0-3.8-1.4-3.8-3.2s1.7-3.2,3.8-3.2v-3.9c-2.1,0-3.8-1.4-3.8-3.2
	s1.7-3.1,3.8-3.1v-4.6h-2.3c-10.4-1-18.5-8.4-18.5-17.4H20.9c0,9-8.1,16.5-18.5,17.4H0V22c2.1,0,3.8,1.4,3.8,3.2S2.1,28.3,0,28.3
	v3.9c2.1,0,3.8,1.4,3.8,3.2S2.1,38.5,0,38.5v3.8c2.1,0,3.8,1.4,3.8,3.2S2.1,48.7,0,48.7v3.8c2.1,0,3.8,1.4,3.8,3.2S2.1,58.9,0,58.9
	v3.8c2.1,0,3.8,1.4,3.8,3.2S2.1,69.1,0,69.1v3.8c2.1,0,3.8,1.4,3.8,3.2S2.1,79.2,0,79.2v3.8c2.1,0,3.8,1.4,3.8,3.2S2.1,89.4,0,89.4
	v3.8c2.1,0,3.8,1.4,3.8,3.2S2.1,99.6,0,99.6v4.6h2.3c10.4,1,18.5,8.4,18.5,17.4h258.3c0-9,8.1-16.4,18.5-17.4H300z"/>
<polygon class="st1" points="235.3,45.5 236.9,50 242.5,50 238,52.7 239.7,57.1 235.3,54.3 230.8,57.1 232.6,52.7 228,50 233.6,50 
	"/>
<polygon class="st1" points="58.8,45.5 60.5,50 66,50 61.5,52.7 63.2,57.1 58.8,54.3 54.3,57.1 56.1,52.7 51.6,50 57.1,50 "/>
<g class="st2">
	<path class="st1" d="M88.3,51.6c-0.3,0-0.4,0-0.5,0c-0.1,0-0.1,0-0.2,0c0,0-0.2-0.1-0.2-0.1c-0.2-0.1-0.2-0.5-0.2-0.5
		c0-0.1-0.1-0.3-0.1-0.4c0,0,0-0.1,0-0.1c0-0.1,0-0.1-0.1-0.2c-0.2-0.2-0.2-0.6-0.4-0.8c-0.1-0.2-0.4-0.9-0.5-0.9c-0.1,0-0.6,0-1,0
		c-0.3,0-0.5-0.1-0.7-0.1c-0.1,0-0.2,0-0.3,0c-0.1,0-0.4,0.1-0.5,0.1c-0.4,0-0.7-0.1-0.8-0.1c-0.1,0-0.2,0.1-0.3,0.4
		c-0.1,0.3-0.2,0.6-0.3,0.8c-0.1,0.2-0.2,0.5-0.3,0.8c-0.1,0.1-0.1,0.4-0.1,0.5c0,0,0,0.4-0.1,0.6c0,0.1-0.2,0.1-0.5,0.1
		c-0.1,0-0.1,0-0.2,0h-0.4c-0.1,0-0.1,0-0.1-0.1c0-0.1,0-0.2,0.1-0.3c0-0.2,0.4-0.7,0.4-0.8c0.1-0.2,0.2-0.4,0.4-0.6
		c0.2-0.3,0.4-1,0.4-1.1c0-0.1-0.1-0.3-0.1-0.6c0.1-0.2,0.1-0.2,0.4-0.3c0.3-0.1,0.2-0.6,0.4-0.9c0.2-0.3,0.3-0.9,0.5-1.2
		c0.2-0.3,0.4-0.8,0.5-1.2c0.1-0.3,0.3-0.8,0.5-1.1c0.2-0.4,0.3-0.8,0.4-0.8c0.1,0,0.2,0.3,0.4,0.8c0.1,0.5,0.4,1.1,0.5,1.4
		c0.1,0.3,0.4,0.9,0.5,1.2c0.1,0.3,0.4,1,0.8,1.7c0.4,0.7,0.4,1,0.6,1.3c0.1,0.4,0.3,0.6,0.4,1c0.1,0.4,0.4,0.7,0.5,0.9
		s0.3,0.4,0.3,0.6C88.4,51.6,88.3,51.6,88.3,51.6z M83.9,45.3c0,0.2-0.3,0.8-0.4,1.1c-0.2,0.2-0.2,0.5-0.3,0.7
		c0,0.1-0.2,0.6-0.2,0.7c0,0,0,0,0.1,0c0.1,0,0.2,0,0.4,0c0.2,0,0.4,0,0.6,0c0,0,0.1,0,0.1,0c0,0,0.2,0.1,0.4,0.1c0.1,0,1.3,0,1.3,0
		c0,0-0.1-0.3-0.2-0.6c-0.1-0.3-0.3-0.6-0.4-0.9c-0.1-0.4-0.3-0.6-0.4-1c-0.1-0.4-0.2-0.6-0.3-0.8c0-0.1-0.2-0.5-0.2-0.5
		c0,0-0.1,0.4-0.1,0.4C84.2,44.6,84,45,83.9,45.3z M90,51.5c-0.2,0-0.6,0.1-0.8,0.1c-0.3,0-0.3-0.1-0.4-0.2
		c-0.2-0.3-0.3-0.3-0.4-0.8c-0.1-0.5-0.3-0.5-0.5-1c-0.2-0.5-0.5-1-0.7-1.3c-0.1-0.3-0.2-0.4-0.4-0.9c-0.1-0.5-0.3-0.4-0.4-0.9
		c-0.1-0.4-0.3-0.6-0.4-1c-0.2-0.4-0.4-1-0.5-1.4c-0.2-0.3-0.2-0.5-0.4-1c-0.2-0.6-0.4-0.8-0.4-1c0-0.1,0.1-0.4,0.3-0.8
		c0.2-0.4,0.4-0.8,0.6-0.8c0.2,0,0.4,0.2,0.5,0.5c0.1,0.2,0.8,1.2,0.8,1.6c0.1,0.3,0.4,1,0.6,1.4c0.2,0.4,0.6,1.3,0.7,1.7
		c0.1,0.4,0.5,0.8,0.6,1.2c0.1,0.4,0.4,0.8,0.6,1.4c0.2,0.6,0.2,0.4,0.3,0.7c0.1,0.3,0.3,0.6,0.5,0.9c0.1,0.3,0.3,0.7,0.4,0.8
		c0,0.2,0.4,0.5,0.4,0.8c0,0.1-0.1,0.2-0.3,0.2c-0.1,0-0.2,0-0.3,0C90.4,51.5,90,51.5,90,51.5z"/>
</g>
<g class="st2">
	<path class="st1" d="M92.2,40.7c0.2,0,0.4,0.4,0.4,0.8c0,0.1,0,0.1,0,0.2c0,0.1,0,0.2,0,0.4c0,0.3,0,0.5,0,0.8c0,0,0,0.1,0,0.2
		c0,0.2,0,0.4,0,0.6c0,0.2,0,0.4,0,0.6c0,0.4,0,0.6,0,1.1c0,0.3,0,0.7,0,1.1c0,0.2,0,0.4,0,0.6c0,0.2,0,0.3,0,0.4c0,0.3,0,0.4,0,0.8
		c0,0.1,0,0.3,0,0.4c0,0.3,0,0.5,0,0.9c0,0.5,0,0.7,0,1c0,0.1,0,0.1,0,0.3c0,0.2,0,0.3,0,0.4c0,0.2,0,0.4-0.1,0.4
		c0,0.1-0.2,0.1-0.4,0.1c-0.1,0-0.2,0-0.3-0.2c0-0.1,0-0.1,0-0.2c0-0.3,0-0.8,0.1-1c0-0.1,0-0.1,0-0.2c0-0.3,0-0.7,0-1
		c0-0.3,0-0.6,0-0.8c0-0.2,0-0.3,0-0.4c0-0.3,0.1-0.6,0.1-0.8c0-0.2,0-0.4,0-0.6c0-0.1,0-0.3,0-0.4c0-0.3-0.1-1.1-0.1-1.5
		c0-1,0.1-1.4,0.1-1.8c0-0.1,0-0.3,0-0.4c0-0.3-0.1-0.4-0.1-0.5c0-0.1,0-0.3,0.1-0.4C91.9,40.8,92,40.7,92.2,40.7z M93,40.8
		c0,0.1,0,0.1,0,0.3c0,0.3,0,0.8,0,1c0.1,0.6,0.1,1.2,0.1,2.3c0,0.3,0,0.7,0,1c0,0.3-0.1,0.5-0.1,0.8c0,0.3,0.1,0.7,0.1,1.4
		c0,0.3,0,0.5,0,0.7c0,0.1,0,0.3-0.1,0.4c0,0.2,0,0.5,0,0.8c0,0.4,0,0.7,0,1c0,0.3,0,0.6,0,0.8c0,0.5,0.2,0.4,0.6,0.5
		c0.1,0,0.2,0,0.4,0c0.4,0,0.8-0.1,1.1-0.1c0.4,0,1-0.1,1.4-0.1c0.7,0,1.1,0,1.4,0c0.4-0.1,1.1-0.3,1.5-0.5c0.3-0.2,0.8-0.5,1.1-0.8
		c0.3-0.3,0.8-1.2,1-1.9c0.1-0.4,0.3-1.1,0.3-1.6c0-0.1,0-0.2,0-0.4c0-0.2,0.1-0.4,0.1-0.6c0-0.6-0.1-1-0.3-1.5
		c-0.2-0.5-0.5-1-0.7-1.3c-0.3-0.8-1.4-1.5-2.1-1.7c-0.8-0.3-1.6-0.5-2.2-0.5c-0.4,0-1.4,0-1.9,0.1c-0.3,0-0.4,0-0.6,0
		c-0.1,0-0.1,0-0.3,0c-0.2,0-0.3,0-0.4,0C93.1,40.7,93.1,40.7,93,40.8C93,40.7,93,40.7,93,40.8z M95.3,41.5c0-0.1,0-0.2,0.1-0.2
		c0.1,0,0.3,0,0.5,0c0.1,0,0.1,0,0.2,0c0.1,0,0.2,0,0.3,0c0.4,0,0.6,0.1,1,0.2c0.2,0.1,1.1,0,1.2,0.2c0.2,0.2,0.6,0.3,0.7,0.6
		c0.1,0.2,0.4,0.4,0.6,0.7c0.2,0.4,0.7,0.6,0.7,1.6c0,0.2,0.2,0.5,0.2,1v0.6c0,0.2-0.1,0.2-0.1,0.4c0,0.3,0.1,0.4,0.1,0.6v0.6
		c0,0.2-0.4,1.1-0.6,1.5c-0.2,0.3-0.9,0.8-1.1,0.9c-0.4,0.3-0.8,0.5-1.2,0.6c-0.1,0-0.2,0-0.3,0c-0.1,0-0.2,0-0.4,0c0,0-0.1,0-0.2,0
		c-0.1,0-0.5,0-0.6,0c-0.2,0-0.5,0.1-0.7,0.1c-0.2,0-0.3,0-0.4-0.1c-0.1-0.1-0.1-0.2-0.1-0.4c0-0.1,0-0.3,0-0.5c0-0.4,0-0.7-0.1-1.2
		c0-0.2,0-0.4,0-0.5c0-0.3,0-0.6,0-1.1c0-0.5,0-1.1,0-1.6c0-0.2,0-0.3,0-0.4c0-0.2,0-0.4,0-0.6c0-0.1,0.1-0.3,0.1-2
		C95.2,42.1,95.3,41.8,95.3,41.5z"/>
</g>
<g class="st2">
	<path class="st1" d="M102.5,42.2c0.1,0.5,0.5,0.9,0.5,1.2c0.1,0.4,0.3,0.8,0.4,1.1c0.2,0.4,0.2,0.6,0.4,1c0.2,0.4,0.5,0.9,0.7,1.5
		c0.2,0.6,0.3,0.6,0.5,1.1c0.1,0.4,0.3,0.6,0.5,1.2c0.2,0.5,0.4,0.6,0.5,1.1c0.1,0.4,0.5,0.8,0.5,1.1c0,0,0,0,0,0.1
		c0,0.1-0.1,0.1-0.2,0.1c-0.2,0-0.4-0.1-0.5-0.3c-0.2-0.3-0.5-0.9-0.5-1.2c-0.1-0.3-0.4-0.7-0.5-1.1c-0.1-0.4-0.2-0.8-0.4-1.1
		c-0.2-0.3-0.3-0.8-0.5-1.1c-0.2-0.3-0.3-0.6-0.4-0.8c-0.1-0.2-0.4-1-0.5-1.4c-0.5-1.2-0.6-1.5-0.8-2c-0.3-0.5-0.7-1.2-0.8-1.6
		c0-0.1,0-0.2,0-0.2c0-0.2,0.1-0.3,0.3-0.3C101.8,40.7,102.4,41.7,102.5,42.2z M105.5,42.9c0.2,0.4,0.5,1,0.7,1.6
		c0.2,0.5,0.5,0.9,0.6,1.3c0.2,0.5,0.4,0.6,0.6,0.9c0.2,0.4,0.6,1.1,0.7,1.1c0.1,0,0.1-0.7,0.4-1.2c0.2-0.5,0.3-0.9,0.4-1.5
		c0.1-0.6,0.2-0.8,0.5-1.4c0.2-0.6,0.3-1.2,0.4-1.6c0-0.1,0-0.2,0-0.4c0-0.4-0.2-0.6-0.2-0.8c0-0.1,0-0.3,0.3-0.3c0.2,0,0.4,0,0.5,0
		c0.2,0,0.4,0,0.6,0c0.2,0,0.3,0.1,0.3,0.2c0,0.3-0.5,0.8-0.6,1.1c-0.2,0.5-0.3,1-0.5,1.5c-0.1,0.5-0.4,0.7-0.5,1.2
		c-0.1,0.5-0.1,0.8-0.4,1.6c-0.3,0.8-0.7,1.6-0.8,2.2c-0.2,0.6-0.4,1.1-0.5,1.6c-0.1,0.5-0.4,0.9-0.4,1.2c0,0.1-0.2,0.3-0.3,0.3
		c0,0-0.1,0-0.1-0.1c-0.2-0.3-0.6-0.8-0.6-1c0-0.2-0.2-0.6-0.4-0.9c-0.2-0.4-0.4-0.8-0.5-1.1c0-0.4-0.4-0.8-0.5-1.2
		c-0.1-0.4-0.4-0.8-0.6-1.2c-0.2-0.4-0.7-1.6-0.8-2.1c-0.1-0.5-0.6-1.3-0.8-1.5c-0.1-0.2,0-0.5-0.2-0.6c0-0.1-0.4-0.6-0.4-0.8
		c0-0.2,0.3-0.2,0.5-0.2h0.2c0.3,0,0.4,0,0.4,0c0,0,0.1,0,0.4,0c0.7,0,0.6,0,0.9,0C105.3,40.8,105,41.9,105.5,42.9z"/>
	<path class="st1" d="M112.6,40.7c0.1,0,0.3,0.1,0.3,0.4c0,0.1,0,0.1,0,0.2c0,0.1,0,0.3,0,0.4c0,0.4,0,0.9,0,1.2c0,0.1,0,0.2,0,0.2
		c0,0.2,0,0.4,0,0.6c0,0.2,0,0.4,0,0.6c0,0.4,0,0.6,0,1.1c0,0.3,0,0.7,0,1.1c0,0.2,0,0.4,0,0.6c0,0.2,0,0.3,0,0.4c0,0.3,0,0.4,0,0.6
		c0,0.3,0,0.4,0,0.5c0,0.3,0,0.5,0,0.9c0,0.5,0,0.7,0,1c0,0.1,0,0.1,0,0.3c0,0.2,0,0.3,0,0.4c0,0.2,0,0.4-0.1,0.4
		c0,0.1-0.2,0.1-0.4,0.1c-0.1,0-0.2,0-0.3-0.2c0-0.1,0-0.1,0-0.2c0-0.3,0-0.8,0.1-1c0-0.1,0-0.1,0-0.2c0-0.3,0-0.7,0-1
		c0-0.3,0-0.6,0-0.8c0-0.2,0-0.3,0-0.4c0-0.3,0.1-0.6,0.1-0.8c0-0.2,0-0.4,0-0.6c0-0.1,0-0.3,0-0.4c0-0.3-0.1-1.1-0.1-1.5
		c0-1,0.1-1.4,0.1-1.8c0-0.1,0-0.3,0-0.4c0-0.3-0.1-0.4-0.1-0.5c0-0.1,0-0.3,0.1-0.4C112.3,40.8,112.4,40.7,112.6,40.7L112.6,40.7z
		 M115.8,46c-0.1,0-0.2,0-0.2,0c0,0.1,0,0.1,0,0.2c0,0.2,0.1,0.4,0.1,0.6c0,0.3,0,0.5,0,0.8c0,0.2-0.1,0.5-0.1,0.8v1
		c0,0.2,0,0.4,0,0.6c0,0.7,0.1,0.8,0.2,0.8c0.1,0,0.1,0,0.3,0h0.8c0.2,0,0.4,0,0.5,0c0.7-0.1,1.2-0.2,1.3-0.2c0.3,0,0.6-0.2,0.9-0.2
		c0.1,0,0.2-0.1,0.2-0.1c0.1,0,0.1,0,0.1,0.3c0,0.2-0.3,0.8-0.6,0.9c-0.1,0-0.2,0-0.3,0c-0.2,0-0.4,0-0.5,0c-0.1,0-0.5-0.1-0.7-0.1
		h-0.8c-0.1,0-0.4-0.1-0.5-0.1c-0.5,0-1.2,0.1-1.6,0.1c-0.4,0-0.7,0.1-1,0.1c-0.4,0-0.7-0.1-0.7-0.4c0-0.3,0-0.6,0-0.9
		c0-0.1,0.1-0.2,0.1-0.4v-0.6c0-0.3,0-0.6,0.1-0.9c0-0.1,0-0.2,0-0.4c0-0.1,0-0.2-0.1-0.3c0,0,0-0.1,0-0.3c0-0.2,0-0.6,0-0.9
		c0-0.3-0.1-0.5-0.1-0.7c0-0.3,0.1-0.7,0.1-0.7c0-0.1,0-0.2,0-0.3c0-0.2,0-0.3,0-0.4c0-0.1,0-0.2,0-0.3c0-0.4,0-1.1,0-1.5
		c0-0.4-0.1-1.1-0.1-1.5c0-0.2,0-0.3,0-0.3c0.1-0.1,0.2-0.1,0.4-0.1c0.3,0,0.4,0,0.5,0c0.4,0,0.3,0,0.5,0c0.1,0,0.3,0,0.5,0
		c0.3,0,0.6,0,1.6,0c0.4,0,0.8,0,1.1,0c0.4,0,1.1-0.1,1.3-0.1c0.2,0,0.6,0,0.6,0.2c0,0.3-0.3,0.6-0.4,0.7c-0.1,0,0,0.1-0.2,0.1
		c0,0-0.1,0-0.1,0c-0.3,0-0.5-0.2-0.7-0.2c-0.3,0-0.4-0.1-0.6-0.1c-1,0-1.6,0-2.1-0.1c-0.2,0-0.2,0.1-0.2,0.2c0,0.2-0.1,0.4-0.1,0.5
		c0,0.3,0,0.6,0.1,1c0,0.3,0,0.4,0,0.6l0,0.6c0,0.1,0,0.2,0,0.4c0,0.4,0,0.6,0.1,0.7c0,0.1,0.1,0.1,0.2,0.1c0.1,0,0.2,0,0.4,0
		c0.3,0,0.5,0,0.7-0.1c0.1,0,0.2,0,0.3,0c0.1,0,0.2,0,0.3,0c0.2,0,0.4-0.1,0.5-0.1c0.1,0,0.2,0.1,0.2,0.2c0,0.1,0,0.2-0.1,0.3
		c-0.1,0.2-0.3,0.4-0.5,0.4c0,0-0.1,0-0.1,0c-0.2,0-0.5-0.1-0.6-0.1s-0.3,0-0.4,0C116.2,46,116,46,115.8,46z"/>
	<path class="st1" d="M121.5,41.1c0,0.1,0,0.1,0,0.2c0,0.1,0,0.2,0,0.4c0,0.4,0.1,0.9,0.1,1.2c0,0.1,0,0.1,0,0.2c0,0.2,0,0.4,0,0.5
		c0,0.2,0,0.4,0,0.7c0,0.4,0,0.6,0,1.1c0,0.3,0,0.7,0,1.1c0,0.2,0,0.4,0,0.6c0,0.1,0,0.3,0,0.4c0,0.2,0,0.4,0,0.6c0,0.1,0,0.1,0,0.2
		c0,0.1,0,0.3,0,0.4c0,0.3,0,0.5,0,0.9c0,0.5,0,0.7,0,1.2c0,0.5,0,0.7-0.1,0.8c-0.1,0.1-0.2,0.1-0.4,0.1c-0.1,0-0.3-0.1-0.3-0.2
		c0-0.5,0-1,0.1-1.2c0-0.1,0-0.1,0-0.2c0-0.3,0-0.7,0-1c0-0.3,0.1-0.6,0.1-0.8c0-0.1,0-0.2,0-0.3c0,0,0-0.1,0-0.2
		c0-0.3,0.1-0.6,0.1-0.8c0,0,0-0.1,0-0.1c0-0.2,0-0.3,0-0.5c0-0.1,0-0.3,0-0.4c0-0.3-0.1-1.1-0.1-1.5c0-1,0.1-1.4,0.1-1.8
		c0-0.1,0-0.2,0-0.4c0-0.3,0-0.4,0-0.6c0-0.2,0-0.3,0-0.5c0-0.4,0.1-0.4,0.3-0.4C121.4,40.7,121.5,40.8,121.5,41.1z M130.3,41.2
		c0,0.3-0.1,1-0.1,1.7c0,0.4-0.1,0.9-0.1,1.4c0,0.3,0,0.6,0,1c0,0.4,0,0.8,0,1.1c0,0.7,0,1.3,0,2c0,0.3,0.1,0.9,0.1,1.2
		c0,0.3,0,0.6,0,0.9c0,0.1,0,0.3,0,0.5c0,0.3,0,0.5-0.1,0.6c-0.1,0.1-0.3,0.2-0.6,0.2c-0.1,0-0.1,0-0.2,0c-0.3-0.1-0.6-0.9-0.9-1.1
		c-0.3-0.2-0.6-0.6-0.9-0.9c-0.3-0.3-0.7-0.9-1.1-1.3c-0.5-0.4-0.7-0.5-1-0.9c-0.4-0.4-0.4-0.7-0.8-1c-0.3-0.4-0.8-0.8-1-1.1
		c-0.2-0.2-0.3-0.6-0.6-0.9c-0.2-0.2-0.4-0.5-0.5-0.5c0,0,0,0.1,0,0.2v0.1c0,0,0,0.1,0,0.1c0,0.1,0,0.2,0,0.3c0,0.3,0.1,0.6,0.1,0.9
		c0,0.5,0,0.7,0,1c0,0.1,0,0.2,0,0.5s0.1,0.6,0.1,1.1c0,0.4,0.1,0.8,0.1,1.2c0,0.1,0,0.5,0,0.7c0.1,0.5,0.2,0.8,0.2,1.1
		c0,0.4-0.1,0.4-0.3,0.4h-0.4c-0.1,0-0.3,0-0.3-0.2c0-0.2,0-0.3,0-0.5v-2.2c0-0.3,0-0.5,0-0.6c0-0.5,0-1,0-1.3c0-0.4,0-0.6,0-1.1
		v-0.2c0-0.4,0-1,0-1.4v-0.9c0-0.4,0-0.7,0-0.8c0-0.2,0-0.8,0-1.1c0-0.3,0-0.4,0.2-0.4h0.1c0,0,0.1,0,0.2,0c0.3,0,0.5,0,0.7,0.1
		c0,0,0,0,0,0c0.3,0,0.4,0.3,0.6,0.7c0.3,0.4,0.6,0.6,0.9,1.1c0.4,0.5,0.7,1.1,1,1.3s0.7,0.7,0.9,1c0.3,0.3,0.9,1,1.2,1.4
		c0.4,0.4,0.6,0.7,0.9,1c0.3,0.3,0.7,0.9,0.7,0.9s0-0.3,0.1-0.8c0-0.1,0-0.2,0-0.3c0-0.3,0-0.5,0-0.8c0-0.6-0.1-0.7-0.1-1.2
		c0-0.4,0-0.8,0-1.3c0-0.9-0.1-1.5-0.1-1.8c0-0.4-0.3-0.8-0.3-1.1c0-0.2,0.1-0.3,0.3-0.3c0.1,0,0.4,0,0.6,0
		C130.4,40.7,130.3,40.9,130.3,41.2C130.3,41.1,130.3,41.1,130.3,41.2z"/>
	<path class="st1" d="M134.1,40.8c0.2,0,0.3,0.1,0.3,0.4c0,0.3,0,0.6,0,1c0,0.3-0.1,0.6-0.1,1c0,0.1,0,0.2,0,0.3c0,0.3,0,0.5,0,0.7
		c0,0.3,0,0.5,0,0.7c0,0.1,0,0.3,0,0.4c0,0.3,0,0.6,0,1.1c0,0.3,0,0.5,0,0.7c0,0.1,0,0.3,0.1,0.4c0,0.1,0,0.2,0,0.3
		c0,0.3-0.1,0.7-0.1,1c0,0.4,0,1.2,0,1.7c0,0.1,0,0.2,0,0.3c0,0.1,0,0.2,0,0.3c0,0.2,0,0.3,0,0.4c0,0.1-0.3,0.2-0.5,0.2
		c-0.2,0-0.3,0-0.3-0.2c0-0.3,0-1.3,0.1-1.8c0-0.2,0-0.4,0-1.4c0-0.5,0-1.2,0-1.8c0-0.2,0-0.4,0-0.8c0-0.4,0-0.7,0-1.3
		c0-0.2,0-0.4,0-0.6c0-0.1,0-0.2,0-0.3c0-0.2,0-0.5,0-0.7c0-0.3,0-0.5,0-0.6c-0.1-0.2,0-0.5-0.4-0.5c-0.2,0-0.5,0.1-0.9,0.1
		c-0.3,0-0.6,0.1-0.7,0.1c0,0-0.1,0-0.2,0h-0.3c-0.1,0-0.2,0-0.2-0.2c0-0.1,0-0.3,0.2-0.5c0.1-0.2,0.2-0.4,0.4-0.4c0,0,0,0,0.1,0
		c0.1,0,0.6,0.2,0.9,0.2c0.2,0,0.4,0,0.6,0c0.1,0,0.1,0,0.2,0C133.6,40.8,133.9,40.8,134.1,40.8z M134.9,49.5v-1.8
		c0-0.4,0-0.8,0-1.2c0-0.1,0-0.2,0-0.3c0-0.4,0-0.6,0.1-1c0,0,0-0.1,0-0.1c0-0.3-0.2-0.6-0.2-0.8c0-0.1,0-0.1,0-0.2
		c0-0.2,0-0.5,0-0.8c0-0.4,0.1-0.7,0.1-1.2c0-0.1,0-0.2,0-0.3c0-0.1,0-0.1,0-0.4c0-0.5,0-0.5,0.3-0.5c0.4,0,1.1-0.1,1.7-0.1
		c0.6,0,0.8,0,1.1,0.1c0,0,0.1,0,0.2,0c0.3,0,0.4-0.2,0.9-0.2c0.4,0,0.4,0,0.5,0.3c0,0.3-0.2,0.8-0.4,0.8c-0.3,0-0.5-0.2-1-0.3
		c-0.3,0-0.6-0.1-0.8-0.1c-0.1,0-0.2,0-0.3,0c-0.2,0-0.3,0.2-0.3,0.6c0,0.1,0,0.2,0,0.2v1.5c0,0.2,0,0.4,0,0.6c0,0.6,0,1.6,0,2.3
		s0.1,1.4,0.2,2c0,0.2,0,0.4,0,0.5c0,0.3-0.1,0.5-0.1,0.8c0,0.6,0.2,0.7,0.3,1c0,0,0,0.1,0,0.1c0,0.2-0.1,0.3-0.3,0.3
		c-0.1,0-0.2,0-0.2,0h-0.1c-0.2,0-0.4,0-0.6,0c-0.1,0-0.3,0.1-0.4,0.1c-0.2,0-0.4,0.1-0.5,0.1c-0.1,0-0.3-0.1-0.3-0.3
		C134.9,50.8,134.9,49.5,134.9,49.5z"/>
	<path class="st1" d="M141.2,50c0,0.1,0,0.1-0.1,0.1c-0.4,0-0.6-0.7-0.6-1.1c0-0.4,0-0.7-0.1-1.1c0-0.1,0-0.2,0-0.2
		c0-0.3,0.1-0.5,0.1-0.8c0-0.3,0-0.4,0-0.6c0-0.1,0-0.3,0-0.4c0-0.3-0.1-1.1-0.1-1.5c0-1,0.1-1.4,0.1-1.8c0-0.1,0-0.2,0-0.4
		c0-0.3,0-0.4,0-0.6c0-0.2,0-0.3,0-0.5c0-0.3,0.2-0.4,0.3-0.4c0.2,0,0.4,0.4,0.4,0.9c0,0,0,0.1,0,0.2c0,0.1,0,0.3,0,0.4
		c0,0.3,0,0.6,0,0.8c0,0.1,0,0.1,0,0.2c0,0.2,0,0.4,0,0.6s0,0.4,0,0.6c0,0.4,0,0.6,0,1.1c0,0.3,0,0.7,0,1.1c0,0.2,0,0.4,0,0.6
		c0,0.1,0,0.1,0,0.2c0,0.4,0.1,0.5,0.1,0.9c0,0.2,0,0.4,0,1.1C141.1,49.5,141.2,49.8,141.2,50z M149.4,41.8
		c-0.1,0.2-0.1,0.7-0.1,1.3c0,0.5,0,1.1,0,1.8c0,0.6,0,1.2,0,1.8c0,0.3,0,0.6-0.1,0.8c-0.2,0.8-0.3,1.5-0.5,2
		c-0.3,0.6-0.6,0.8-0.9,1.2c-0.3,0.4-0.8,0.6-1.1,0.7c-0.1,0.1-0.4,0.1-1,0.1c-0.3,0-0.7,0.1-1.2,0.1c-0.2,0-0.5,0-0.8-0.1
		c-0.9-0.1-1.4-0.5-1.8-1c-0.2-0.3-0.3-0.7-0.3-1c0-0.2,0-0.4,0-0.5c0-0.3,0-0.5,0-0.7c0-0.7,0-0.9-0.1-1.1c0-0.1,0-0.3,0-0.4
		c0-0.4,0.1-0.8,0.1-1.5c0-0.7-0.1-1.3-0.1-1.8c0-0.1,0-0.2,0-0.3c0-0.2,0-0.5,0-0.8c0-0.4,0-1,0-1.5c0-0.1,0.1-0.3,0.5-0.3
		c0.5,0,0.3,0,0.7,0c0.1,0,0.2,0,0.4,0c0,0,0.1,0,0.1,0c0.1,0,0.2,0,0.3,0c0.2,0,0.3,0,0.3,0.2c0,0.4-0.3,0.8-0.3,1
		c0,0.1,0,0.3,0,0.4c0,0.1,0,0.2-0.1,0.3c0,0.1,0,0.2,0,0.4c0,0.4,0.1,0.9,0.2,1.5c0,0.3,0,0.5,0,0.7c0,0.2,0,0.4,0,0.6
		c0,0.9,0,1.3,0,2.1c0,0.8,0.2,1.6,0.2,1.8c0.1,0.2,0.3,0.4,0.4,0.5c0.2,0.2,0.6,0.3,0.9,0.3c0.3,0,0.4,0,0.8,0.1
		c0.3,0,0.8-0.2,1.1-0.3c0.4-0.2,0.6-0.6,0.9-1c0.3-0.4,0.4-1,0.5-1.7c0-0.6,0.1-1,0.1-1.6c0-0.5,0-2-0.1-2.5c0-0.5,0-1,0-1.3
		c0-0.2-0.3-1-0.3-1.5c0-0.1,0.1-0.2,0.2-0.2c0.1,0,0.4,0.1,0.5,0.1c0.1,0,0.3,0,0.4,0s0.2,0,0.2,0.2
		C149.5,41,149.4,41.8,149.4,41.8z"/>
	<path class="st1" d="M151.1,40.7c0.2,0,0.4,0.4,0.4,0.8c0,0.1,0,0.2,0,0.2c0,0.1,0,0.3,0,0.4c0,0.3,0.1,0.6,0.1,0.8
		c0,0.1,0,0.1,0,0.2c0,0.2,0,0.4,0,0.5c0,0.2,0,0.4,0,0.7c0,0.4,0,0.6,0,1.1c0,0.3,0,0.7,0,1.1c0,0.2,0,0.4,0,0.6c0,0.1,0,0.3,0,0.4
		c0,0.2,0,0.4,0,0.6c0,0.1,0,0.1,0,0.2c0,0.1,0,0.3,0,0.4c0,0.3,0,0.5,0,0.9c0,0.5,0,0.7,0,1v0.2c0,0.5,0,0.7-0.1,0.8
		c-0.1,0.1-0.2,0.1-0.4,0.1c-0.1,0-0.3-0.1-0.3-0.2c0-0.5,0-1,0.1-1.2c0-0.1,0-0.1,0-0.2c0-0.3,0-0.7,0-1c0-0.3,0.1-0.6,0.1-0.8
		c0-0.1,0-0.2,0-0.3c0,0,0-0.1,0-0.2c0-0.3,0.1-0.6,0.1-0.8c0,0,0-0.1,0-0.1c0-0.2,0-0.3,0-0.5c0-0.1,0-0.3,0-0.4
		c0-0.3-0.1-1.1-0.1-1.5c0-1,0.1-1.4,0.1-1.8c0-0.1,0-0.2,0-0.4c0-0.3,0-0.4,0-0.6c0-0.2,0-0.3,0-0.5
		C150.9,40.8,151,40.7,151.1,40.7z M160.4,51.3c0-0.3-0.3-0.4-0.4-0.6c-0.3-0.3-0.5-0.4-0.6-0.8c0-0.3-0.3-1.2-0.4-1.6
		c-0.1-0.4-0.1-0.6-0.3-0.8c-0.1-0.2-0.5-0.5-0.6-0.7c-0.5-0.6-0.5-0.6-0.7-0.6c0,0,0.4-0.3,0.7-0.4c0.3-0.1,0.6-0.6,0.9-0.9
		c0.2-0.4,0.4-1,0.4-1.3c0-0.4,0-1.2-0.2-1.5c-0.2-0.3-0.5-0.8-0.9-1c-0.4-0.1-1-0.4-1.7-0.4h-1.5c-0.1,0-0.2,0-0.4,0
		c-0.5,0-1.1,0.1-1.5,0.1c-0.1,0-0.3,0-0.4,0c-0.2,0-0.3,0-0.4,0c-0.1,0-0.2,0-0.4,0.1c-0.1,0.1-0.1,0.4-0.1,0.7
		c0,0.6,0.1,1.4,0.1,1.7c0,0.1,0,0.2,0,0.3c0,0.3,0,0.6,0,0.9c0,0.2,0,0.4,0,0.6c0,0.4,0,0.6,0,0.9c0,0.4,0,0.9,0,1.5
		c0,0.3,0,0.6,0,1c0,0.7,0,1.5,0,1.7c0,0.2,0,0.2,0,0.3c0,0.2-0.1,0.4-0.1,0.9c0,0.2,0.4,0.3,0.9,0.3c0.1,0,0.2,0,0.3,0
		c0.3,0,0.7,0,0.9-0.1c0.2,0,0.3-0.2,0.3-0.4c0-0.2,0-0.3-0.1-0.5c0-0.1,0-0.3,0-0.5v-0.6c0-0.5,0-0.7,0-1.2c0-0.4-0.1-0.6-0.1-0.8
		c0-0.1,0-0.2,0-0.2c0.2-0.3,0.4-0.4,0.6-0.4c0.3,0,0.3,0,0.5,0c0.1,0,0.5,0,0.6,0.1c0.4,0.2,0.5,0.3,0.7,0.8
		c0.2,0.4,0.5,0.6,0.7,1.5c0,0.2,0.3,1.2,0.4,1.4c0,0.3,0.3,0.8,0.5,0.9c0.1,0,0.2,0,0.3,0c0.3,0,0.7-0.1,0.9-0.1c0.3,0,0.4,0,0.7,0
		c0.1,0,0.2,0,0.3,0C160.4,51.6,160.4,51.5,160.4,51.3z M154.1,41.5c0-0.2,0.6-0.1,1.1-0.2c0.6,0,2,0,2.4,0.2
		c0.4,0.2,0.6,0.4,0.8,0.9c0,0.2,0.1,0.5,0.1,0.8c0,0.1,0,0.3,0,0.4c0,0.3-0.2,0.9-0.5,1.3c-0.3,0.4-1,0.6-1.4,0.9
		c-0.3,0.2-1,0.2-1.3,0.3c-0.1,0-0.2,0-0.4,0c-0.2,0-0.4,0-0.5,0c-0.1,0-0.2,0-0.2,0v-0.3c0-0.3,0-0.9,0-1.2c0,0,0-0.1,0-0.2
		c0-0.5-0.1-1.3-0.1-1.9c0-0.2,0-0.3,0-0.4C154.1,41.8,154.1,41.6,154.1,41.5z"/>
	<path class="st1" d="M161.7,40.7c0.1,0,0.3,0.1,0.3,0.4c0,0.1,0,0.1,0,0.2c0,0.1,0,0.3,0,0.4c0,0.4,0,0.9,0,1.2c0,0.1,0,0.2,0,0.2
		c0,0.2,0,0.4,0,0.6c0,0.2,0,0.4,0,0.6c0,0.4,0,0.6,0,1.1c0,0.3,0,0.7,0,1.1c0,0.2,0,0.4,0,0.6c0,0.2,0,0.3,0,0.4c0,0.3,0,0.4,0,0.6
		c0,0.3,0,0.4,0,0.5c0,0.3,0,0.5,0,0.9c0,0.5,0,0.7,0,1c0,0.1,0,0.1,0,0.3c0,0.2,0,0.3,0,0.4c0,0.2,0,0.4-0.1,0.4
		c0,0.1-0.2,0.1-0.4,0.1c-0.1,0-0.2,0-0.3-0.2c0-0.1,0-0.1,0-0.2c0-0.3,0-0.8,0.1-1c0-0.1,0-0.1,0-0.2c0-0.3,0-0.7,0-1
		c0-0.3,0-0.6,0-0.8c0-0.2,0-0.3,0-0.4c0-0.3,0.1-0.6,0.1-0.8c0-0.2,0-0.4,0-0.6c0-0.1,0-0.3,0-0.4c0-0.3-0.1-1.1-0.1-1.5
		c0-1,0.1-1.4,0.1-1.8c0-0.1,0-0.3,0-0.4c0-0.3-0.1-0.4-0.1-0.5c0-0.1,0-0.3,0.1-0.4C161.4,40.8,161.5,40.7,161.7,40.7L161.7,40.7z
		 M164.9,46c-0.1,0-0.2,0-0.2,0c0,0.1,0,0.1,0,0.2c0,0.2,0.1,0.4,0.1,0.6c0,0.3,0,0.5,0,0.8c0,0.2-0.1,0.5-0.1,0.8v1
		c0,0.2,0,0.4,0,0.6c0,0.7,0.1,0.8,0.2,0.8c0.1,0,0.1,0,0.3,0h0.8c0.2,0,0.4,0,0.5,0c0.7-0.1,1.2-0.2,1.3-0.2c0.3,0,0.6-0.2,0.9-0.2
		c0.1,0,0.2-0.1,0.2-0.1c0.1,0,0.1,0,0.1,0.3c0,0.2-0.3,0.8-0.6,0.9c-0.1,0-0.2,0-0.3,0c-0.2,0-0.4,0-0.5,0c-0.1,0-0.5-0.1-0.7-0.1
		h-0.8c-0.1,0-0.4-0.1-0.5-0.1c-0.5,0-1.2,0.1-1.6,0.1c-0.4,0-0.7,0.1-1,0.1c-0.4,0-0.7-0.1-0.7-0.4c0-0.3,0-0.6,0-0.9
		c0-0.1,0.1-0.2,0.1-0.4v-0.6c0-0.3,0-0.6,0.1-0.9c0-0.1,0-0.2,0-0.4c0-0.1,0-0.2-0.1-0.3c0,0,0-0.1,0-0.3c0-0.2,0-0.6,0-0.9
		c0-0.3-0.1-0.5-0.1-0.7c0-0.3,0.1-0.7,0.1-0.7c0-0.1,0-0.2,0-0.3c0-0.2,0-0.3,0-0.4c0-0.1,0-0.2,0-0.3c0-0.4,0-1.1,0-1.5
		c0-0.4-0.1-1.1-0.1-1.5c0-0.2,0-0.3,0-0.3c0.1-0.1,0.2-0.1,0.4-0.1c0.3,0,0.4,0,0.5,0c0.4,0,0.3,0,0.5,0c0.1,0,0.3,0,0.5,0
		c0.3,0,0.6,0,1.6,0c0.4,0,0.8,0,1.1,0c0.4,0,1.1-0.1,1.3-0.1c0.2,0,0.6,0,0.6,0.2c0,0.3-0.3,0.6-0.4,0.7c-0.1,0,0,0.1-0.2,0.1
		c0,0-0.1,0-0.1,0c-0.3,0-0.5-0.2-0.7-0.2c-0.3,0-0.4-0.1-0.6-0.1c-1,0-1.6,0-2.1-0.1c-0.2,0-0.2,0.1-0.2,0.2c0,0.2-0.1,0.4-0.1,0.5
		c0,0.3,0,0.6,0.1,1c0,0.3,0,0.4,0,0.6l0,0.6c0,0.1,0,0.2,0,0.4c0,0.4,0,0.6,0.1,0.7c0,0.1,0.1,0.1,0.2,0.1c0.1,0,0.2,0,0.4,0
		c0.3,0,0.5,0,0.7-0.1c0.1,0,0.2,0,0.3,0s0.2,0,0.3,0c0.2,0,0.4-0.1,0.5-0.1c0.1,0,0.2,0.1,0.2,0.2c0,0.1,0,0.2-0.1,0.3
		c-0.1,0.2-0.3,0.4-0.5,0.4c0,0-0.1,0-0.1,0c-0.2,0-0.5-0.1-0.6-0.1c-0.1,0-0.3,0-0.4,0C165.3,46,165.1,46,164.9,46z"/>
	<path class="st1" d="M170.3,42.1C170.4,42.1,170.4,42.1,170.3,42.1c0.1,0.1,0.1,0.1,0.1,0.1c0,0.1,0,0.3-0.1,0.6c0,0.2,0,0.3,0,0.5
		c0,0.2,0,0.4,0,0.4c0,0.1,0,0.1,0.3,0.5c0.3,0.4,0.6,0.6,1.2,1c0.5,0.3,0.7,0.6,1,0.8c0.3,0.3,0.6,0.5,0.7,0.5c0,0,0.1,0.2,0.4,0.4
		c0.3,0.2,0.6,0.4,0.8,0.8c0.3,0.4,0.3,0.5,0.3,1c0,0.3,0,0.4,0,0.5c0,0.3,0,0.4-0.2,0.7c-0.2,0.4-0.3,0.6-0.5,0.8
		c-0.4,0.4-0.7,0.6-0.8,0.6c-0.2,0-0.5,0.2-0.8,0.2c-0.3,0-0.6,0-0.7,0c-0.2,0-1.2-0.3-1.6-0.7c-0.3-0.2-0.8-0.6-0.8-1
		c0-0.3,0.5-0.8,0.7-0.8c0.3,0,0.3,0.1,0.4,0.5c0,0.1,0.3,0.5,0.4,0.7c0.3,0.4,0.7,0.6,1.5,0.6c0.1,0,0.3,0,0.4,0
		c0.5,0,1-0.3,1.2-0.8c0.1-0.3,0.2-0.4,0.2-0.6c0-0.1,0.1-0.4,0.1-0.6c-0.1-0.5-0.3-0.6-0.6-1.1c-0.3-0.5-0.6-0.7-1-0.9
		c-0.5-0.3-0.7-0.5-0.9-0.8c-0.2-0.3-0.7-0.4-1.1-0.8c-0.4-0.2-0.8-0.7-0.9-1c-0.1-0.3-0.2-0.7-0.2-1c0,0,0-0.1,0-0.1
		C169.9,42.6,170.2,42.1,170.3,42.1z M175.4,49.4V49c0-0.5-0.2-0.8-0.4-1.2c-0.1-0.5-0.5-0.8-0.7-0.9c-0.2-0.1-0.4-0.4-0.7-0.7
		c-0.3-0.3-0.4-0.5-0.7-0.7c-0.3-0.2-0.5-0.3-0.8-0.5s-0.3-0.1-0.7-0.6c-0.4-0.4-0.7-0.7-0.7-1.2c0-0.5,0-0.8,0.3-1.3
		c0.2-0.3,0.4-0.6,0.8-0.8c0.4-0.2,1-0.4,1.7-0.4c0.3,0,1.6,0,1.9,0.2c0.2,0.2,0.9,0.3,1,0.6c0.1,0.2,0.3,0.3,0.3,0.4
		c0,0,0,0.1,0,0.1c0,0.2-0.5,0.5-0.7,0.5c-0.2,0-0.3-0.1-0.4-0.2c0-0.1-0.5-0.8-0.9-0.9c-0.2-0.1-0.5-0.2-0.7-0.2
		c-0.1,0-0.6,0.2-0.7,0.2c-0.3,0.2-0.6,0.2-0.6,0.8c0,0.6,0,1.1,0.4,1.4c0.2,0.3,0.8,0.8,1.1,0.9c0.4,0.2,0.9,0.8,1.2,0.9
		c0.2,0.1,0.4,0.4,0.7,0.7c0.4,0.4,0.8,1,0.8,1.6c0,0.5-0.1,0.5-0.1,1c0,0.3-0.5,1.4-0.8,1.6c-0.4,0.3-0.4,0.5-0.7,0.7
		c-0.2,0.2-0.7,0.4-1.1,0.5c0,0-0.1,0-0.1,0c-0.1,0-0.2,0-0.2-0.1c0-0.1,0.1-0.1,0.2-0.2c0.3-0.2,0.6-0.5,0.9-1
		C175.4,49.8,175.4,49.6,175.4,49.4z"/>
</g>
<g class="st2">
	<path class="st1" d="M183.4,41.2c0,0,0,0.1,0,0.1c0,0.1,0,0.3,0,0.4c0,0.4,0.1,1,0.1,1.3c0,0.1,0,0.1,0,0.2c0,0.2,0,0.4,0,0.5
		c0,0.2,0,0.4,0,0.7c0,0.4,0,0.6,0,1.1c0,0.3,0,0.7,0,1.1c0,0.2,0,0.4,0,0.6c0,0.1,0,0.3,0,0.4c0,0.2,0,0.4,0,0.6c0,0.1,0,0.1,0,0.2
		c0,0.1,0,0.3,0,0.4c0,0.3,0,0.5,0,0.9c0,0.5,0,0.7,0,1v0.2c0,0.5,0,0.7-0.1,0.8c-0.1,0.1-0.2,0.1-0.4,0.1c-0.1,0-0.3-0.1-0.3-0.2
		c0-0.5,0-1,0.1-1.2c0-0.1,0-0.1,0-0.2c0-0.3,0-0.7,0-1c0-0.3,0.1-0.6,0.1-0.8c0-0.2,0-0.3,0-0.4c0-0.3,0.1-0.6,0.1-0.8
		c0,0,0-0.1,0-0.1c0-0.2,0-0.3,0-0.5c0-0.1,0-0.3,0-0.4c0-0.3-0.1-1.1-0.1-1.5c0-1,0.1-1.4,0.1-1.8c0-0.1,0-0.2,0-0.4
		c0-0.3,0-0.4,0-0.6c0-0.2,0-0.3,0-0.5c0-0.4,0.1-0.4,0.3-0.4C183.3,40.7,183.4,40.9,183.4,41.2z M186.1,41.2
		c-0.2,0-0.2,0.2-0.3,0.4c0,0.1,0,0.3,0,0.5c0,0.1,0,0.4,0,0.6c0,0.2,0,0.4,0,0.6c0,0.3,0,0.7,0,1c0,0.1,0,0.2,0,0.4
		c0,0.4,0,0.6,0.2,0.7c0,0,0.1,0,0.2,0c0.1,0,0.4,0,0.6,0c0.3,0,0.5-0.1,0.8-0.1c0.2,0,0.3,0,0.4,0c0.1,0,0.2,0,0.4,0
		c0,0,0.1,0,0.1,0c0.1,0,0.2,0.1,0.2,0.2c0,0,0,0.1,0,0.1c-0.1,0.3-0.1,0.4-0.2,0.6c0,0-0.1,0-0.1,0c-0.2,0-0.5-0.1-0.7-0.1
		c-0.3,0-0.6-0.1-0.9-0.1h-0.1c-0.2,0-0.5,0-0.6,0c0,0-0.1,0.1-0.1,0.3c0,0.1,0,0.3,0,0.5c0,0.4,0,0.8,0,1.4c0,0.6,0,0.7,0,1.2
		s0.2,1.2,0.2,1.5c0,0.1,0,0.2,0,0.3c0,0.2,0,0.3-0.2,0.3c-0.2,0-0.3,0-0.5,0c-0.3,0-0.3,0.1-0.6,0.1c-0.2,0-0.4,0.1-0.7,0.1
		c-0.2,0-0.3-0.1-0.3-0.3c0-0.3,0-0.5,0-0.9c0-0.4,0-1.2,0.1-1.7c0-0.3,0-0.5,0-0.7c0-0.9,0-1.2,0-1.6c0-0.5-0.1-0.8-0.1-1.2
		c0-0.2,0-0.4,0-0.6c0-0.1,0-0.2,0-0.2c0-0.1,0-0.2,0-0.4c0-0.3-0.1-0.7-0.1-0.9c0-0.2,0-0.3,0-0.4c0-0.4,0-0.9,0-1
		c0-0.3-0.1-0.5-0.1-0.7c0,0,0-0.1,0-0.1c0-0.1,0.3-0.1,0.4-0.1c0.2,0,0.3,0,0.4,0c0.2,0,0.2,0,0.5,0c0.1,0,0.2,0,0.3,0
		c0.4,0,1,0.1,1.4,0.1c0.4,0,1.2,0,1.6,0c0.1,0,0.2,0,0.3,0c0.1,0,0.2,0,0.3,0c0,0,0.2,0,0.6,0c0.2,0,0.5,0,0.5,0.1c0,0,0,0,0,0.1
		c0,0,0,0.1-0.1,0.3c-0.1,0.3,0,0.4-0.1,0.5c-0.1,0.1-0.2,0.1-0.3,0.1c-0.1,0-0.1,0-0.2,0c-0.3-0.1-0.4-0.2-0.6-0.2
		c-0.4-0.1-0.7-0.2-0.9-0.2c-0.2,0-0.4,0-0.4,0C187.2,41.4,186.4,41.4,186.1,41.2z"/>
</g>
<g class="st2">
	<path class="st1" d="M189.8,48c0-0.5-0.1-0.8-0.1-1.1c0-0.2,0-0.4,0-0.6c0-0.1,0-0.3,0-0.4c0-0.3,0-0.5,0.2-0.9
		c0.2-0.6,0.3-1.3,0.4-1.3c0.1,0,0.1,0,0.1,0.1c0,0.2-0.1,0.4-0.1,0.8c0,0.4,0,0.7,0,0.9c0,0.1,0,0.2,0,0.4c0,0.1,0,0.3,0,0.4
		c0,0.2,0,0.4,0,0.7c0,0.5,0,0.6,0,1.1c0,0.4,0.1,0.5,0.1,0.8c0,0.2,0,0.2,0,0.3c0,0.2,0,0.3,0,0.4C190.5,49.5,189.8,48.5,189.8,48z
		 M195,40.6c-0.3,0-0.8,0-1.2,0.2c-0.4,0.2-0.7,0.3-0.9,0.3c-0.1,0-0.7,0.4-1,0.8c-0.4,0.4-0.7,0.8-1,1.5c-0.1,0.3-0.1,0.6-0.1,1
		c0,0.5,0.1,1,0.1,1.4c0,0.1,0,1,0,1.3c0.1,0.7,0,2,0.3,2.5c0.3,0.5,0.4,0.6,0.6,0.8c0.2,0,1.1,0.8,1.3,0.9c0.5,0.2,1.1,0.4,2.1,0.4
		c0.8,0,1.3-0.3,1.6-0.3c0.3,0,0.8-0.3,1.1-0.6c0.3-0.3,0.6-0.6,0.8-0.8c0.2-0.2,0.4-0.6,0.5-1c0.1-0.3,0.4-0.4,0.5-1.4
		c0.1-0.6,0.2-1.4,0.2-2c0-0.3-0.1-0.8-0.1-1c0-0.4-0.3-1.7-0.7-1.9c-0.4-0.3-0.6-1.1-1.1-1.3c-0.5-0.2-1-0.5-1.4-0.6
		c-0.3-0.1-1-0.2-1.3-0.2C195.1,40.6,195,40.6,195,40.6z M194.6,41.3c0.1-0.1,0.4-0.2,0.7-0.2c0.3,0,0.9,0.1,1.1,0.2
		c0.3,0.1,0.7,0.2,1,0.4c0.2,0.2,0.4,0.4,0.4,0.5c0.1,0.1,0.3,0.4,0.5,0.6c0.2,0.3,0.5,0.8,0.6,1.1c0,0.1,0,0.2,0,0.4
		c0,0.3,0,0.7,0,0.8c0,0.4,0.2,0.4,0.2,0.9c0,0.7-0.3,1.6-0.4,2.4c-0.1,0.8-0.6,1.1-0.8,1.6c-0.2,0.5-1.2,0.6-1.5,0.7
		c-0.1,0.1-0.4,0.1-0.7,0.1c-0.7,0-1.6,0-1.9-0.4c-0.3-0.3-0.2-0.9-0.4-1.4c-0.2-0.5-0.3-0.8-0.3-1.5c0-0.3,0-0.6,0-0.9
		c0-0.5,0-1.1,0.1-1.6c0.1-0.8,0-1.4,0.1-1.8c0.2-0.4,0.3-1,0.4-1.3C193.5,41.6,194.4,41.5,194.6,41.3z"/>
	<path class="st1" d="M201.4,40.7c0.2,0,0.4,0.4,0.4,0.8c0,0.1,0,0.2,0,0.2c0,0.1,0,0.3,0,0.4c0,0.3,0.1,0.6,0.1,0.8
		c0,0.1,0,0.1,0,0.2c0,0.2,0,0.4,0,0.5c0,0.2,0,0.4,0,0.7c0,0.4,0,0.6,0,1.1c0,0.3,0,0.7,0,1.1c0,0.2,0,0.4,0,0.6c0,0.1,0,0.3,0,0.4
		c0,0.2,0,0.4,0,0.6c0,0.1,0,0.1,0,0.2c0,0.1,0,0.3,0,0.4c0,0.3,0,0.5,0,0.9c0,0.5,0,0.7,0,1v0.2c0,0.5,0,0.7-0.1,0.8
		c-0.1,0.1-0.2,0.1-0.4,0.1c-0.1,0-0.3-0.1-0.3-0.2c0-0.5,0-1,0.1-1.2c0-0.1,0-0.1,0-0.2c0-0.3,0-0.7,0-1c0-0.3,0.1-0.6,0.1-0.8
		c0-0.1,0-0.2,0-0.3c0,0,0-0.1,0-0.2c0-0.3,0.1-0.6,0.1-0.8c0,0,0-0.1,0-0.1c0-0.2,0-0.3,0-0.5c0-0.1,0-0.3,0-0.4
		c0-0.3-0.1-1.1-0.1-1.5c0-1,0.1-1.4,0.1-1.8c0-0.1,0-0.2,0-0.4c0-0.3,0-0.4,0-0.6c0-0.2,0-0.3,0-0.5
		C201.1,40.8,201.2,40.7,201.4,40.7z M210.7,51.3c0-0.3-0.3-0.4-0.4-0.6c-0.3-0.3-0.5-0.4-0.6-0.8c0-0.3-0.3-1.2-0.4-1.6
		c-0.1-0.4-0.1-0.6-0.3-0.8c-0.1-0.2-0.5-0.5-0.6-0.7c-0.5-0.6-0.5-0.6-0.7-0.6c0,0,0.4-0.3,0.7-0.4c0.3-0.1,0.6-0.6,0.9-0.9
		c0.2-0.4,0.4-1,0.4-1.3c0-0.4,0-1.2-0.2-1.5c-0.2-0.3-0.5-0.8-0.9-1c-0.4-0.1-1-0.4-1.7-0.4h-1.5c-0.1,0-0.2,0-0.4,0
		c-0.5,0-1.1,0.1-1.5,0.1c-0.1,0-0.3,0-0.4,0c-0.2,0-0.3,0-0.4,0c-0.1,0-0.2,0-0.4,0.1c-0.1,0.1-0.1,0.4-0.1,0.7
		c0,0.6,0.1,1.4,0.1,1.7c0,0.1,0,0.2,0,0.3c0,0.3,0,0.6,0,0.9c0,0.2,0,0.4,0,0.6c0,0.4,0,0.6,0,0.9c0,0.4,0,0.9,0,1.5
		c0,0.3,0,0.6,0,1c0,0.7,0,1.5,0,1.7c0,0.2,0,0.2,0,0.3c0,0.2-0.1,0.4-0.1,0.9c0,0.2,0.4,0.3,0.9,0.3c0.1,0,0.2,0,0.3,0
		c0.3,0,0.7,0,0.9-0.1c0.2,0,0.3-0.2,0.3-0.4c0-0.2,0-0.3-0.1-0.5c0-0.1,0-0.3,0-0.5v-0.6c0-0.5,0-0.7,0-1.2c0-0.4-0.1-0.6-0.1-0.8
		c0-0.1,0-0.2,0-0.2c0.2-0.3,0.4-0.4,0.6-0.4c0.3,0,0.3,0,0.5,0c0.1,0,0.5,0,0.6,0.1c0.4,0.2,0.5,0.3,0.7,0.8
		c0.2,0.4,0.5,0.6,0.7,1.5c0,0.2,0.3,1.2,0.4,1.4c0,0.3,0.3,0.8,0.5,0.9c0.1,0,0.2,0,0.3,0c0.3,0,0.7-0.1,0.9-0.1c0.3,0,0.4,0,0.7,0
		c0.1,0,0.2,0,0.3,0C210.6,51.6,210.7,51.5,210.7,51.3z M204.3,41.5c0-0.2,0.6-0.1,1.1-0.2c0.6,0,2,0,2.4,0.2
		c0.4,0.2,0.6,0.4,0.8,0.9c0,0.2,0.1,0.5,0.1,0.8c0,0.1,0,0.3,0,0.4c0,0.3-0.2,0.9-0.5,1.3c-0.3,0.4-1,0.6-1.4,0.9
		c-0.3,0.2-1,0.2-1.3,0.3c-0.1,0-0.2,0-0.4,0c-0.2,0-0.4,0-0.5,0c-0.1,0-0.2,0-0.2,0v-0.3c0-0.3,0-0.9,0-1.2c0,0,0-0.1,0-0.2
		c0-0.5-0.1-1.3-0.1-1.9c0-0.2,0-0.3,0-0.4C204.3,41.8,204.3,41.6,204.3,41.5z"/>
</g>
<g class="st2">
	<path class="st1" d="M52.8,60c0.2,0,0.3,0.1,0.3,0.4c0,0.3,0,0.6,0,1c0,0.3-0.1,0.6-0.1,1c0,0.1,0,0.2,0,0.3c0,0.3,0,0.5,0,0.7
		c0,0.3,0,0.5,0,0.7c0,0.1,0,0.3,0,0.4c0,0.3,0,0.6,0,1.1c0,0.3,0,0.5,0,0.7c0,0.1,0,0.3,0.1,0.4c0,0.1,0,0.2,0,0.3
		c0,0.3-0.1,0.7-0.1,1c0,0.4,0,1.2,0,1.7c0,0.1,0,0.2,0,0.3c0,0.1,0,0.2,0,0.3c0,0.2,0,0.3,0,0.4c0,0.1-0.3,0.2-0.5,0.2
		c-0.2,0-0.3,0-0.3-0.2c0-0.3,0-1.3,0.1-1.8c0-0.2,0-0.4,0-1.4c0-0.5,0-1.2,0-1.8c0-0.2,0-0.4,0-0.8c0-0.4,0-0.7,0-1.3
		c0-0.2,0-0.4,0-0.6c0-0.1,0-0.2,0-0.3c0-0.2,0-0.5,0-0.7c0-0.3,0-0.5,0-0.6c-0.1-0.2,0-0.5-0.4-0.5c-0.2,0-0.5,0.1-0.9,0.1
		c-0.3,0-0.6,0.1-0.7,0.1c0,0-0.1,0-0.2,0H50c-0.1,0-0.2,0-0.2-0.2c0-0.1,0-0.3,0.2-0.5c0.1-0.2,0.2-0.4,0.4-0.4c0,0,0,0,0.1,0
		c0.1,0,0.6,0.2,0.9,0.2c0.2,0,0.4,0,0.6,0c0.1,0,0.1,0,0.2,0C52.3,60,52.5,60,52.8,60z M53.6,68.7v-1.8c0-0.4,0-0.8,0-1.2
		c0-0.1,0-0.2,0-0.3c0-0.4,0-0.6,0.1-1c0,0,0-0.1,0-0.1c0-0.3-0.2-0.6-0.2-0.8c0-0.1,0-0.1,0-0.2c0-0.2,0-0.5,0-0.8
		c0-0.4,0.1-0.7,0.1-1.2c0-0.1,0-0.2,0-0.3c0-0.1,0-0.1,0-0.4c0-0.5,0-0.5,0.3-0.5c0.4,0,1.1-0.1,1.7-0.1c0.6,0,0.8,0,1.1,0.1
		c0,0,0.1,0,0.2,0c0.3,0,0.4-0.2,0.9-0.2c0.4,0,0.4,0,0.5,0.3c0,0.3-0.2,0.8-0.4,0.8c-0.3,0-0.5-0.2-1-0.3c-0.3,0-0.6-0.1-0.8-0.1
		c-0.1,0-0.2,0-0.3,0c-0.2,0-0.3,0.2-0.3,0.6c0,0.1,0,0.2,0,0.2V63c0,0.2,0,0.4,0,0.6c0,0.6,0,1.6,0,2.3s0.1,1.4,0.2,2
		c0,0.2,0,0.4,0,0.5c0,0.3-0.1,0.5-0.1,0.8c0,0.6,0.2,0.7,0.3,1c0,0,0,0.1,0,0.1c0,0.2-0.1,0.3-0.3,0.3c-0.1,0-0.2,0-0.2,0h-0.1
		c-0.2,0-0.4,0-0.6,0c-0.1,0-0.3,0.1-0.4,0.1c-0.2,0-0.4,0.1-0.5,0.1c-0.1,0-0.3-0.1-0.3-0.3C53.6,70,53.6,68.7,53.6,68.7z"/>
	<path class="st1" d="M59.4,59.9c0.2,0,0.4,0.4,0.4,0.8c0,0.1,0,0.2,0,0.2c0,0.1,0,0.3,0,0.4c0,0.3,0.1,0.6,0.1,0.8
		c0,0.1,0,0.1,0,0.2c0,0.2,0,0.4,0,0.5c0,0.2,0,0.4,0,0.7c0,0.4,0,0.6,0,1.1c0,0.3,0,0.7,0,1.1c0,0.2,0,0.4,0,0.6c0,0.1,0,0.3,0,0.4
		c0,0.2,0,0.4,0,0.6c0,0.1,0,0.1,0,0.2c0,0.1,0,0.3,0,0.4c0,0.3,0,0.5,0,0.9c0,0.5,0,0.7,0,1v0.2c0,0.5,0,0.7-0.1,0.8
		c-0.1,0.1-0.2,0.1-0.4,0.1c-0.1,0-0.3-0.1-0.3-0.2v-0.2c0-0.4,0-0.9,0.1-1.1c0-0.1,0-0.1,0-0.2c0-0.3,0-0.7,0-1
		c0-0.3,0.1-0.6,0.1-0.8c0-0.1,0-0.2,0-0.3c0,0,0-0.1,0-0.2c0-0.3,0.1-0.6,0.1-0.8c0-0.2,0-0.4,0-0.6c0-0.1,0-0.3,0-0.4
		c0-0.3-0.1-1.1-0.1-1.5c0-1,0.1-1.4,0.1-1.8c0-0.1,0-0.2,0-0.4c0-0.3,0-0.4,0-0.6c0-0.2,0-0.3,0-0.5C59.2,60,59.3,59.9,59.4,59.9z
		 M69,60.3c0-0.3,0-0.4-0.6-0.4s-0.7,0.1-0.7,0.4s0.1,0.4,0.1,0.6c0,0.2,0.1,0.5,0.1,0.9c0,0.2,0,0.4,0,0.5c0,0.1,0,0.3,0,0.4
		c0,0.2,0,0.4,0,0.7c0,0.4,0,0.6,0,0.9c0,0.1,0,0.2,0,0.2c0,0.4,0,0.5-0.1,0.6c-0.2,0-0.7,0-1,0c-0.3,0-0.9,0.1-1.3,0.1
		c-0.1,0-0.2,0-0.3,0c-0.2,0-1-0.1-1.4-0.1c-0.3,0-0.3,0-0.4,0c0,0-0.2,0-0.2,0c-0.2,0.1-0.4,0.1-0.6,0.1c-0.1,0-0.2,0-0.2-0.1
		c0-0.1-0.1-0.2-0.1-0.4c0-0.2,0-0.4,0-0.7c0-0.4-0.1-0.5-0.1-1.2c0-0.8,0.1-1.1,0.2-1.4c0-0.4,0.3-0.8,0.3-1.2
		c0-0.2-0.3-0.2-0.5-0.2H62c-0.3,0-0.5,0-0.8,0c-0.3,0-0.6-0.1-0.9-0.1c-0.2,0-0.2,0.1-0.2,0.2c0,0.2,0.1,0.5,0.1,0.9
		c0,0.4,0.1,0.7,0.1,1c0,0.1,0.1,0.2,0.1,0.2c0,0,0,0,0,0.1c0,0.1,0,0.2,0,0.2c0,0.4,0,0.8,0,1.1c0,0.2,0,0.6,0,1
		c0,0.5-0.1,0.5-0.1,0.9c0,0.2,0,0.5,0,0.7c0,0.3,0,1.3,0,2.1c0,0.4,0,0.6,0,0.8s0.1,0.4,0.1,0.6c0,0.1,0,0.1,0,0.2c0,0,0,0.1,0,0.3
		v0.3c0,0.1,0,0.2,0,0.3c0,0.1,0,0.2,0.2,0.2c0.6,0,0.6,0,0.7,0c0.3,0,0.4,0,0.7,0c0,0,0.1,0,0.1,0c0.2,0,0.4,0.1,0.5,0.1
		s0.2-0.1,0.2-0.3c0-0.3,0-0.5,0-0.7c0-0.2-0.1-0.5-0.1-0.8c0-0.4-0.1-0.6-0.1-1c0-0.7,0-0.8,0-1.7c0-0.2,0-0.3,0.1-0.4
		c0.2-0.2,0.5-0.1,0.9-0.1c0.4,0,1.3,0,1.7-0.1c0,0,0.1,0,0.2,0c0.2,0,0.5,0,0.8,0c0.1,0,0.4,0,0.5,0c0,0,0,0,0.1,0
		c0.2,0,0.4,0,0.4,0c0.4,0,0.5,0,0.7,0.1c0.1,0.1,0,1.1,0.1,1.4c0,0,0.1,0.2,0.1,0.3c0,0.2-0.1,0.4-0.1,0.5c0,0.4,0,0.8,0,1
		c0,0.1,0,0.2,0,0.3c0,0.3-0.1,0.6-0.2,1c0,0.1,0,0.2,0,0.3c0,0.1,0,0.2,0.1,0.2c0.1,0,0.2,0,0.4,0c0.3,0,0.7,0,0.8-0.2
		c0,0,0,0,0-0.1c0-0.1-0.1-0.4-0.2-0.7c0-0.2,0-1.6-0.1-2.3c-0.1-0.4-0.1-0.6-0.1-1v-0.7c0-0.6,0-0.8,0-1c0-0.1,0-0.3,0-0.5
		c0-0.1,0-0.2,0-0.4c0-0.4,0.1-0.6,0.1-1c0-0.4,0-0.8,0-1.1c0-0.2,0-0.6,0-0.7C68.8,61,69,60.6,69,60.3z"/>
	<path class="st1" d="M70.9,59.9c0.1,0,0.3,0.1,0.3,0.4c0,0.1,0,0.1,0,0.2c0,0.1,0,0.3,0,0.4c0,0.4,0,0.9,0,1.2c0,0.1,0,0.2,0,0.2
		c0,0.2,0,0.4,0,0.6c0,0.2,0,0.4,0,0.6c0,0.4,0,0.6,0,1.1c0,0.3,0,0.7,0,1.1c0,0.2,0,0.4,0,0.6c0,0.2,0,0.3,0,0.4c0,0.3,0,0.4,0,0.6
		c0,0.3,0,0.4,0,0.5c0,0.3,0,0.5,0,0.9c0,0.5,0,0.7,0,1c0,0.1,0,0.1,0,0.3c0,0.2,0,0.3,0,0.4c0,0.2,0,0.4-0.1,0.4
		c0,0.1-0.2,0.1-0.4,0.1c-0.1,0-0.2,0-0.3-0.2c0-0.1,0-0.1,0-0.2c0-0.3,0-0.8,0.1-1c0-0.1,0-0.1,0-0.2c0-0.3,0-0.7,0-1
		c0-0.3,0-0.6,0-0.8c0-0.2,0-0.3,0-0.4c0-0.3,0.1-0.6,0.1-0.8c0-0.2,0-0.4,0-0.6c0-0.1,0-0.3,0-0.4c0-0.3-0.1-1.1-0.1-1.5
		c0-1,0.1-1.4,0.1-1.8c0-0.1,0-0.3,0-0.4c0-0.3-0.1-0.4-0.1-0.5c0-0.1,0-0.3,0.1-0.4C70.6,60,70.7,59.9,70.9,59.9L70.9,59.9z
		 M74.2,65.2c-0.1,0-0.2,0-0.2,0c0,0.1,0,0.1,0,0.2c0,0.2,0.1,0.4,0.1,0.6c0,0.3,0,0.5,0,0.8c0,0.2-0.1,0.5-0.1,0.8v1
		c0,0.2,0,0.4,0,0.6c0,0.7,0.1,0.8,0.2,0.8c0.1,0,0.1,0,0.3,0h0.8c0.2,0,0.4,0,0.5,0c0.7-0.1,1.2-0.2,1.3-0.2c0.3,0,0.6-0.2,0.9-0.2
		c0.1,0,0.2-0.1,0.2-0.1c0.1,0,0.1,0,0.1,0.3c0,0.2-0.3,0.8-0.6,0.9c-0.1,0-0.2,0-0.3,0c-0.2,0-0.4,0-0.5,0c-0.1,0-0.5-0.1-0.7-0.1
		h-0.8c-0.1,0-0.4-0.1-0.5-0.1c-0.5,0-1.2,0.1-1.6,0.1c-0.4,0-0.7,0.1-1,0.1c-0.4,0-0.7-0.1-0.7-0.4c0-0.3,0-0.6,0-0.9
		c0-0.1,0.1-0.2,0.1-0.4v-0.6c0-0.3,0-0.6,0.1-0.9c0-0.1,0-0.2,0-0.4c0-0.1,0-0.2-0.1-0.3c0,0,0-0.1,0-0.3c0-0.2,0-0.6,0-0.9
		c0-0.3-0.1-0.5-0.1-0.7c0-0.3,0.1-0.7,0.1-0.7c0-0.1,0-0.2,0-0.3c0-0.2,0-0.3,0-0.4c0-0.1,0-0.2,0-0.3c0-0.4,0-1.1,0-1.5
		c0-0.4-0.1-1.1-0.1-1.5c0-0.2,0-0.3,0-0.3c0.1-0.1,0.2-0.1,0.4-0.1c0.3,0,0.4,0,0.5,0c0.4,0,0.3,0,0.5,0c0.1,0,0.3,0,0.5,0
		c0.3,0,0.6,0,1.6,0c0.4,0,0.8,0,1.1,0c0.4,0,1.1-0.1,1.3-0.1c0.2,0,0.6,0,0.6,0.2c0,0.3-0.3,0.6-0.4,0.7c-0.1,0,0,0.1-0.2,0.1
		c0,0-0.1,0-0.1,0c-0.3,0-0.5-0.2-0.7-0.2c-0.3,0-0.4-0.1-0.6-0.1c-1,0-1.6,0-2.1-0.1c-0.2,0-0.2,0.1-0.2,0.2c0,0.2-0.1,0.4-0.1,0.5
		c0,0.3,0,0.6,0.1,1c0,0.3,0,0.4,0,0.6l0,0.6c0,0.1,0,0.2,0,0.4c0,0.4,0,0.6,0.1,0.7c0,0.1,0.1,0.1,0.2,0.1c0.1,0,0.2,0,0.4,0
		c0.3,0,0.5,0,0.7-0.1c0.1,0,0.2,0,0.3,0c0.1,0,0.2,0,0.3,0c0.2,0,0.4-0.1,0.5-0.1c0.1,0,0.2,0.1,0.2,0.2c0,0.1,0,0.2-0.1,0.3
		c-0.1,0.2-0.3,0.4-0.5,0.4c0,0-0.1,0-0.1,0c-0.2,0-0.5-0.1-0.6-0.1s-0.3,0-0.4,0C74.5,65.2,74.3,65.2,74.2,65.2z"/>
	<path class="st1" d="M84.3,59.9c0.2,0,0.4,0.4,0.4,0.8c0,0.1,0,0.1,0,0.2c0,0.1,0,0.2,0,0.4c0,0.3,0,0.5,0,0.8c0,0,0,0.1,0,0.2
		c0,0.2,0,0.4,0,0.6c0,0.2,0,0.4,0,0.6c0,0.4,0,0.6,0,1.1c0,0.3,0,0.7,0,1.1c0,0.2,0,0.4,0,0.6c0,0.2,0,0.3,0,0.4c0,0.3,0,0.4,0,0.6
		c0,0.3,0,0.4,0,0.5c0,0.3,0,0.5,0,0.9c0,0.5,0,0.7,0,1c0,0.1,0,0.1,0,0.3c0,0.2,0,0.3,0,0.4c0,0.2,0,0.4-0.1,0.4
		c0,0.1-0.2,0.1-0.4,0.1c-0.1,0-0.2,0-0.3-0.2c0-0.1,0-0.1,0-0.2c0-0.3,0-0.8,0.1-1c0-0.1,0-0.1,0-0.2c0-0.3,0-0.7,0-1
		c0-0.3,0-0.6,0-0.8c0-0.1,0-0.2,0-0.3c0,0,0-0.1,0-0.2c0-0.3,0.1-0.6,0.1-0.8c0-0.2,0-0.4,0-0.6c0-0.1,0-0.3,0-0.4
		c0-0.3-0.1-1.1-0.1-1.5c0-1,0.1-1.4,0.1-1.8c0-0.1,0-0.3,0-0.4c0-0.3-0.1-0.4-0.1-0.5c0-0.1,0-0.3,0.1-0.5
		C84.1,60,84.1,59.9,84.3,59.9z M85.1,60.1c0,0.1,0,0.2,0,0.3c0,0.4,0.1,0.9,0.1,1.1c0,0.3-0.1,1-0.1,1.5c0,0.4,0,0.7,0,0.9
		c0,0.4-0.1,0.6-0.1,0.8c0,0.1,0,0.4,0,0.6c0,0.1,0,0.2,0,0.2c0,0.1,0,0.2,0,0.4c0,0.3,0,0.5,0,0.7c0,0.3,0,0.5,0,0.6
		c0,0.3,0.1,0.5,0.1,1c-0.1,0.2-0.1,0.3-0.1,0.5c0,0.2,0,0.4,0,0.7c0,0.4-0.1,0.7-0.1,0.7v0.4c0,0.2,0,0.3,0.2,0.3
		c0.1,0,0.2,0,0.2,0.1c0.1,0,0,0,0.2,0c0.3,0,0.6,0,0.8,0c0.5,0,1.1-0.1,1.5-0.1c0.4,0,1.2,0,1.4,0c0.2,0,0.3,0,0.6,0
		c0.1,0,0.3,0,0.3,0c0.4-0.1,0.7-0.3,1.1-0.5c0.4-0.3,0.7-0.6,0.9-1.1c0.2-0.4,0.3-0.7,0.4-1.3c0-0.3,0-0.4,0-0.6
		c0-0.3,0-0.6-0.2-0.8c-0.4-1-0.7-1.1-1.6-1.5c-0.2,0-0.3-0.1-0.3-0.2c0,0,0.2-0.2,0.3-0.2c0.3-0.2,0.7-0.5,0.9-1s0.2-1,0.2-1.4
		c0-0.8-0.8-1.3-1.4-1.7c-0.2-0.1-0.9-0.4-1.4-0.4c-0.5,0-0.5,0.1-1,0.1h-0.4c-0.4,0-0.7,0-1,0c-0.1,0-0.2,0-0.3,0
		c-0.1,0-0.4,0-0.6,0c-0.1,0-0.3-0.1-0.4-0.1C85.1,59.9,85.1,59.9,85.1,60.1z M86.8,65.7c0-0.2,0.3-0.2,0.6-0.3
		c0.2-0.1,0.3-0.1,0.5-0.1c0.7,0,0.8,0,0.9,0c0.1,0,0.2,0,0.4-0.1l0.5,0c0.3,0,1.2,0,1.4,0.3c0.2,0.3,0.6,0.3,0.7,0.7
		c0.2,0.4,0.1,0.5,0.1,0.9c0,0.1,0,0.7,0,0.7c0,0.2-0.2,0.5-0.3,0.8c-0.1,0.3-0.5,0.6-0.8,0.8c-0.6,0.4-1.1,0.4-1.5,0.4
		c-0.1,0,0,0-1,0c-0.4,0-0.9,0.1-1.1,0.1c0,0-0.1,0-0.1,0c-0.1,0-0.1-0.1-0.1-0.2c0-0.1,0-0.3,0-0.6c0-0.5,0-0.8-0.1-1.2
		c0-0.4-0.1-0.8-0.1-1.3C86.9,66.5,86.9,66.1,86.8,65.7z M87,60.7c0.1-0.1,0.2-0.1,0.3-0.1s0.3,0,0.5,0c0.1,0,0.1,0,0.1,0
		c0.2,0,0.4,0,0.7,0c0.7,0,1.3,0.1,1.6,0.2c0.3,0.2,0.6,0.5,0.7,0.8c0.1,0.2,0.1,0.4,0.1,1.2c0,0.5-0.2,0.5-0.3,0.8
		c-0.1,0.2-0.6,0.8-0.8,0.8c-0.1,0-0.4,0.3-0.9,0.4c-0.1,0-0.3,0-0.4,0c-0.3,0-0.6,0-0.7,0c-0.2,0-0.4,0-0.5,0c-0.2,0-0.4,0-0.5-0.1
		c0,0,0-0.1,0-0.2c0-0.1,0-0.3,0-0.5v-0.2c0-0.4,0-0.9,0-2.2c0-0.2,0-0.4,0-0.5C86.9,60.9,87,60.8,87,60.7z"/>
	<path class="st1" d="M93.7,67.2c0-0.5-0.1-0.8-0.1-1.1c0-0.2,0-0.4,0-0.6c0-0.1,0-0.3,0-0.4c0-0.3,0-0.5,0.2-0.9
		c0.2-0.6,0.3-1.3,0.4-1.3c0.1,0,0.1,0,0.1,0.1c0,0.2-0.1,0.4-0.1,0.8c0,0.4,0,0.7,0,0.9c0,0.1,0,0.2,0,0.4c0,0.1,0,0.3,0,0.4
		c0,0.2,0,0.4,0,0.7c0,0.5,0,0.6,0,1.1c0,0.4,0.1,0.5,0.1,0.8c0,0.2,0,0.2,0,0.3c0,0.2,0,0.3,0,0.4C94.3,68.7,93.7,67.7,93.7,67.2z
		 M98.8,59.8c-0.3,0-0.8,0-1.2,0.2c-0.4,0.2-0.7,0.3-0.9,0.3c-0.1,0-0.7,0.4-1,0.8c-0.4,0.4-0.7,0.8-1,1.5c-0.1,0.3-0.1,0.6-0.1,1
		c0,0.5,0.1,1,0.1,1.4c0,0.1,0,1,0,1.3c0.1,0.7,0,2,0.3,2.5c0.3,0.5,0.4,0.6,0.6,0.8c0.2,0,1.1,0.8,1.3,0.9c0.5,0.2,1.1,0.4,2.1,0.4
		c0.8,0,1.3-0.3,1.6-0.3c0.3,0,0.8-0.3,1.1-0.6c0.3-0.3,0.6-0.6,0.8-0.8c0.2-0.2,0.4-0.6,0.5-1c0.1-0.3,0.4-0.4,0.5-1.4
		c0.1-0.6,0.2-1.4,0.2-2c0-0.3-0.1-0.8-0.1-1c0-0.4-0.3-1.7-0.7-1.9c-0.4-0.3-0.6-1.1-1.1-1.3c-0.5-0.2-1-0.5-1.4-0.6
		c-0.3-0.1-1-0.2-1.3-0.2C99,59.8,98.9,59.8,98.8,59.8z M98.5,60.5c0.1-0.1,0.4-0.2,0.7-0.2c0.3,0,0.9,0.1,1.1,0.2
		c0.3,0.1,0.7,0.2,1,0.4c0.2,0.2,0.4,0.4,0.4,0.5c0.1,0.1,0.3,0.4,0.5,0.6c0.2,0.3,0.5,0.8,0.6,1.1c0,0.1,0,0.2,0,0.4
		c0,0.3,0,0.7,0,0.8c0,0.4,0.2,0.4,0.2,0.9c0,0.7-0.3,1.6-0.4,2.4c-0.1,0.8-0.6,1.1-0.8,1.6c-0.2,0.5-1.2,0.6-1.5,0.7
		c-0.1,0.1-0.4,0.1-0.7,0.1c-0.7,0-1.6,0-1.9-0.4c-0.3-0.3-0.2-0.9-0.4-1.4c-0.2-0.5-0.3-0.8-0.3-1.5c0-0.3,0-0.6,0-0.9
		c0-0.5,0-1.1,0.1-1.6c0.1-0.8,0-1.4,0.1-1.8c0.2-0.4,0.3-1,0.4-1.3C97.4,60.8,98.3,60.7,98.5,60.5z"/>
	<path class="st1" d="M105.6,60.3c0,0.1,0,0.1,0,0.2c0,0.1,0,0.2,0,0.4c0,0.4,0.1,0.9,0.1,1.2c0,0.1,0,0.1,0,0.2c0,0.2,0,0.4,0,0.5
		c0,0.2,0,0.4,0,0.7c0,0.4,0,0.6,0,1.1c0,0.3,0,0.7,0,1.1c0,0.2,0,0.4,0,0.6c0,0.1,0,0.3,0,0.4c0,0.2,0,0.4,0,0.6c0,0.1,0,0.1,0,0.2
		c0,0.1,0,0.3,0,0.4c0,0.3,0,0.5,0,0.9c0,0.5,0,0.7,0,1v0.2c0,0.5,0,0.7-0.1,0.8c-0.1,0.1-0.2,0.1-0.4,0.1c-0.1,0-0.3-0.1-0.3-0.2
		c0-0.5,0-1,0.1-1.2c0-0.1,0-0.1,0-0.2c0-0.3,0-0.7,0-1c0-0.3,0.1-0.6,0.1-0.8c0-0.1,0-0.2,0-0.3c0,0,0-0.1,0-0.2
		c0-0.3,0.1-0.6,0.1-0.8c0,0,0-0.1,0-0.1c0-0.2,0-0.3,0-0.5c0-0.1,0-0.3,0-0.4c0-0.3-0.1-1.1-0.1-1.5c0-1,0.1-1.4,0.1-1.8
		c0-0.1,0-0.2,0-0.4c0-0.3,0-0.4,0-0.6c0-0.2,0-0.3,0-0.5c0-0.4,0.1-0.4,0.3-0.4C105.5,59.9,105.6,60.1,105.6,60.3z M110.2,70.7
		c-0.1,0-0.4,0-0.7,0c-0.3,0-0.6,0-0.9,0c-0.4,0-0.5,0-0.7,0c-0.1,0-0.2,0-0.5,0c-0.4,0-0.6,0.1-0.9,0.1c-0.3,0-0.4-0.1-0.4-0.4
		c0-0.3,0-0.4,0-0.4c0-0.2,0-0.7,0-1.3c0-0.4,0-0.6,0-1c0-0.5,0.1-1.3,0.1-1.7c0-0.4,0-0.7,0-1.1c0-0.3,0-0.8,0-1.3
		c0-0.3,0-0.5,0-0.9v-0.2c0-0.4-0.1-0.9-0.1-1.2v-0.8c0-0.3,0.2-0.4,0.4-0.4c0.1,0,0.3,0,0.4,0c0.1,0,0.2,0,0.6,0
		c0.2,0,0.4-0.1,0.6-0.1c0.2,0,0.4,0.1,0.4,0.6c0,0.1-0.1,0.5-0.1,0.8c0,0.7-0.2,1.1-0.2,1.8s0.1,0.8,0.1,1.4c0,0.6-0.1,0.9-0.1,1.7
		c0,0.3,0,0.6,0,1c0,0.7,0,1.5-0.1,1.7c0,0.1,0,0.1,0,0.2c0,0.3,0,0.5,0.1,0.6c0,0.2,0.3,0.4,0.6,0.5c0.1,0,0.2,0,0.3,0
		c0.2,0,0.5-0.1,0.8-0.1c0.3,0,0.6,0,0.9,0s0.5-0.1,0.9-0.4c0,0,0.1,0,0.2,0c0.1,0,0.2,0,0.3,0.1c0,0,0,0.1,0,0.1
		c0,0.2-0.3,0.3-0.4,0.5c-0.2,0.3-0.4,0.4-0.7,0.4C110.7,70.8,110.4,70.8,110.2,70.7z"/>
	<path class="st1" d="M113.4,59.9c0.2,0,0.4,0.4,0.4,0.8c0,0.1,0,0.1,0,0.2c0,0.1,0,0.2,0,0.4c0,0.3,0,0.5,0,0.8c0,0,0,0.1,0,0.2
		c0,0.2,0,0.4,0,0.6c0,0.2,0,0.4,0,0.6c0,0.4,0,0.6,0,1.1c0,0.3,0,0.7,0,1.1c0,0.2,0,0.4,0,0.6c0,0.2,0,0.3,0,0.4c0,0.3,0,0.4,0,0.8
		c0,0.1,0,0.3,0,0.4c0,0.3,0,0.5,0,0.9c0,0.5,0,0.7,0,1c0,0.1,0,0.1,0,0.3c0,0.2,0,0.3,0,0.4c0,0.2,0,0.4-0.1,0.4
		c0,0.1-0.2,0.1-0.4,0.1c-0.1,0-0.2,0-0.3-0.2c0-0.1,0-0.1,0-0.2c0-0.3,0-0.8,0.1-1c0-0.1,0-0.1,0-0.2c0-0.3,0-0.7,0-1
		c0-0.3,0-0.6,0-0.8c0-0.2,0-0.3,0-0.4c0-0.3,0.1-0.6,0.1-0.8c0-0.2,0-0.4,0-0.6c0-0.1,0-0.3,0-0.4c0-0.3-0.1-1.1-0.1-1.5
		c0-1,0.1-1.4,0.1-1.8c0-0.1,0-0.3,0-0.4c0-0.3-0.1-0.4-0.1-0.5c0-0.1,0-0.3,0.1-0.4C113.1,60,113.2,59.9,113.4,59.9z M114.1,60
		c0,0.1,0,0.1,0,0.3c0,0.3,0,0.8,0,1c0.1,0.6,0.1,1.2,0.1,2.3c0,0.3,0,0.7,0,1c0,0.3-0.1,0.5-0.1,0.8c0,0.3,0.1,0.7,0.1,1.4
		c0,0.3,0,0.5,0,0.7c0,0.1,0,0.3-0.1,0.4c0,0.2,0,0.5,0,0.8c0,0.4,0,0.7,0,1c0,0.3,0,0.6,0,0.8c0,0.5,0.2,0.4,0.6,0.5
		c0.1,0,0.2,0,0.4,0c0.4,0,0.8-0.1,1.1-0.1c0.4,0,1-0.1,1.4-0.1c0.7,0,1.1,0,1.4,0c0.4-0.1,1.1-0.3,1.5-0.5c0.3-0.2,0.8-0.5,1.1-0.8
		c0.3-0.3,0.8-1.2,1-1.9c0.1-0.4,0.3-1.1,0.3-1.6c0-0.1,0-0.2,0-0.4c0-0.2,0.1-0.4,0.1-0.6c0-0.6-0.1-1-0.3-1.5
		c-0.2-0.5-0.5-1-0.7-1.3c-0.3-0.8-1.4-1.5-2.1-1.7c-0.8-0.3-1.6-0.5-2.2-0.5c-0.4,0-1.4,0-1.9,0.1c-0.3,0-0.4,0-0.6,0
		c-0.1,0-0.1,0-0.3,0c-0.2,0-0.3,0-0.4,0C114.3,59.9,114.2,59.9,114.1,60C114.2,59.9,114.1,59.9,114.1,60z M116.4,60.7
		c0-0.1,0-0.2,0.1-0.2c0.1,0,0.3,0,0.5,0c0.1,0,0.1,0,0.2,0c0.1,0,0.2,0,0.3,0c0.4,0,0.6,0.1,1,0.2c0.2,0.1,1.1,0,1.2,0.2
		c0.2,0.2,0.6,0.3,0.7,0.6c0.1,0.2,0.4,0.4,0.6,0.7c0.2,0.4,0.7,0.6,0.7,1.6c0,0.2,0.2,0.5,0.2,1v0.6c0,0.2-0.1,0.2-0.1,0.4
		c0,0.3,0.1,0.4,0.1,0.6V67c0,0.2-0.4,1.1-0.6,1.5c-0.2,0.3-0.9,0.8-1.1,0.9c-0.4,0.3-0.8,0.5-1.2,0.6c-0.1,0-0.2,0-0.3,0
		c-0.1,0-0.2,0-0.4,0c0,0-0.1,0-0.2,0c-0.1,0-0.5,0-0.6,0c-0.2,0-0.5,0.1-0.7,0.1c-0.2,0-0.3,0-0.4-0.1c-0.1-0.1-0.1-0.2-0.1-0.4
		c0-0.1,0-0.3,0-0.5c0-0.4,0-0.7-0.1-1.2c0-0.2,0-0.4,0-0.5c0-0.3,0-0.6,0-1.1c0-0.5,0-1.1,0-1.6c0-0.2,0-0.3,0-0.4
		c0-0.2,0-0.4,0-0.6c0-0.1,0.1-0.3,0.1-2C116.4,61.3,116.4,61,116.4,60.7z"/>
	<path class="st1" d="M135.9,70.8c-0.3,0-0.4,0-0.5,0c-0.1,0-0.1,0-0.2,0c0,0-0.2-0.1-0.2-0.1c-0.2-0.1-0.2-0.5-0.2-0.5
		c0-0.1-0.1-0.3-0.1-0.4c0,0,0-0.1,0-0.1c0-0.1,0-0.1-0.1-0.2c-0.2-0.2-0.2-0.6-0.4-0.8c-0.1-0.2-0.4-0.9-0.5-0.9c-0.1,0-0.6,0-1,0
		c-0.3,0-0.5-0.1-0.7-0.1c-0.1,0-0.2,0-0.3,0c-0.1,0-0.4,0.1-0.5,0.1c-0.4,0-0.7-0.1-0.8-0.1c-0.1,0-0.2,0.1-0.3,0.4
		c-0.1,0.3-0.2,0.6-0.3,0.8c-0.1,0.2-0.2,0.5-0.3,0.8c-0.1,0.1-0.1,0.4-0.1,0.5c0,0,0,0.4-0.1,0.6c0,0.1-0.2,0.1-0.5,0.1
		c-0.1,0-0.1,0-0.2,0h-0.4c-0.1,0-0.1,0-0.1-0.1c0-0.1,0-0.2,0.1-0.3c0-0.2,0.4-0.7,0.4-0.8c0.1-0.2,0.2-0.4,0.4-0.6
		c0.2-0.3,0.4-1,0.4-1.1c0-0.1-0.1-0.3-0.1-0.6c0.1-0.2,0.1-0.2,0.4-0.3c0.3-0.1,0.2-0.6,0.4-0.9c0.2-0.3,0.3-0.9,0.5-1.2
		c0.2-0.3,0.4-0.8,0.5-1.2c0.1-0.3,0.3-0.8,0.5-1.1c0.2-0.4,0.3-0.8,0.4-0.8c0.1,0,0.2,0.3,0.4,0.8c0.1,0.5,0.4,1.1,0.5,1.4
		c0.1,0.3,0.4,0.9,0.5,1.2c0.1,0.3,0.4,1,0.8,1.7c0.4,0.7,0.4,1,0.6,1.3c0.1,0.4,0.3,0.6,0.4,1c0.1,0.4,0.4,0.7,0.5,0.9
		s0.3,0.4,0.3,0.6C136.1,70.8,136,70.8,135.9,70.8z M131.6,64.5c0,0.2-0.3,0.8-0.4,1.1c-0.2,0.2-0.2,0.5-0.3,0.7
		c0,0.1-0.2,0.6-0.2,0.7c0,0,0,0,0.1,0c0.1,0,0.2,0,0.4,0c0.2,0,0.4,0,0.6,0c0,0,0.1,0,0.1,0c0,0,0.2,0.1,0.4,0.1c0.1,0,1.3,0,1.3,0
		c0,0-0.1-0.3-0.2-0.6c-0.1-0.3-0.3-0.6-0.4-0.9c-0.1-0.4-0.3-0.6-0.4-1c-0.1-0.4-0.2-0.6-0.3-0.8c0-0.1-0.2-0.5-0.2-0.5
		c0,0-0.1,0.4-0.1,0.4C131.9,63.8,131.7,64.2,131.6,64.5z M137.6,70.7c-0.2,0-0.6,0.1-0.8,0.1c-0.3,0-0.3-0.1-0.4-0.2
		c-0.2-0.3-0.3-0.3-0.4-0.8c-0.1-0.5-0.3-0.5-0.5-1c-0.2-0.5-0.5-1-0.7-1.3c-0.1-0.3-0.2-0.4-0.4-0.9c-0.1-0.5-0.3-0.4-0.4-0.9
		c-0.1-0.4-0.3-0.6-0.4-1c-0.2-0.4-0.4-1-0.5-1.4c-0.2-0.3-0.2-0.5-0.4-1c-0.2-0.6-0.4-0.8-0.4-1c0-0.1,0.1-0.4,0.3-0.8
		c0.2-0.4,0.4-0.8,0.6-0.8c0.2,0,0.4,0.2,0.5,0.5c0.1,0.2,0.8,1.2,0.8,1.6c0.1,0.3,0.4,1,0.6,1.4c0.2,0.4,0.6,1.3,0.7,1.7
		c0.1,0.4,0.5,0.8,0.6,1.2c0.1,0.4,0.4,0.8,0.6,1.4c0.2,0.6,0.2,0.4,0.3,0.7c0.1,0.3,0.3,0.6,0.5,0.9c0.1,0.3,0.3,0.7,0.4,0.8
		c0,0.2,0.4,0.5,0.4,0.8c0,0.1-0.1,0.2-0.3,0.2c-0.1,0-0.2,0-0.3,0C138.1,70.7,137.7,70.7,137.6,70.7z"/>
	<path class="st1" d="M140.2,60.3c0,0.1,0,0.1,0,0.2c0,0.1,0,0.2,0,0.4c0,0.4,0.1,0.9,0.1,1.2c0,0.1,0,0.1,0,0.2c0,0.2,0,0.4,0,0.5
		c0,0.2,0,0.4,0,0.7c0,0.4,0,0.6,0,1.1c0,0.3,0,0.7,0,1.1c0,0.2,0,0.4,0,0.6c0,0.1,0,0.3,0,0.4c0,0.2,0,0.4,0,0.6c0,0.1,0,0.1,0,0.2
		c0,0.1,0,0.3,0,0.4c0,0.3,0,0.5,0,0.9c0,0.5,0,0.7,0,1.2c0,0.5,0,0.7-0.1,0.8c-0.1,0.1-0.2,0.1-0.4,0.1c-0.1,0-0.3-0.1-0.3-0.2
		c0-0.5,0-1,0.1-1.2c0-0.1,0-0.1,0-0.2c0-0.3,0-0.7,0-1c0-0.3,0.1-0.6,0.1-0.8c0-0.1,0-0.2,0-0.3c0,0,0-0.1,0-0.2
		c0-0.3,0.1-0.6,0.1-0.8c0,0,0-0.1,0-0.1c0-0.2,0-0.3,0-0.5c0-0.1,0-0.3,0-0.4c0-0.3-0.1-1.1-0.1-1.5c0-1,0.1-1.4,0.1-1.8
		c0-0.1,0-0.2,0-0.4c0-0.3,0-0.4,0-0.6c0-0.2,0-0.3,0-0.5c0-0.4,0.1-0.4,0.3-0.4C140,59.9,140.2,60,140.2,60.3z M149,60.4
		c0,0.3-0.1,1-0.1,1.7c0,0.4-0.1,0.9-0.1,1.4c0,0.3,0,0.6,0,1c0,0.4,0,0.8,0,1.1c0,0.7,0,1.3,0,2c0,0.3,0.1,0.9,0.1,1.2
		c0,0.3,0,0.6,0,0.9c0,0.1,0,0.3,0,0.5c0,0.3,0,0.5-0.1,0.6c-0.1,0.1-0.3,0.2-0.6,0.2c-0.1,0-0.1,0-0.2,0c-0.3-0.1-0.6-0.9-0.9-1.1
		c-0.3-0.2-0.6-0.6-0.9-0.9c-0.3-0.3-0.7-0.9-1.1-1.3c-0.5-0.4-0.7-0.5-1-0.9c-0.4-0.4-0.4-0.7-0.8-1c-0.3-0.4-0.8-0.8-1-1.1
		c-0.2-0.2-0.3-0.6-0.6-0.9c-0.2-0.2-0.4-0.5-0.5-0.5c0,0,0,0.1,0,0.2v0.1c0,0,0,0.1,0,0.1c0,0.1,0,0.2,0,0.3c0,0.3,0.1,0.6,0.1,0.9
		c0,0.5,0,0.7,0,1c0,0.1,0,0.2,0,0.5s0.1,0.6,0.1,1.1c0,0.4,0.1,0.8,0.1,1.2c0,0.1,0,0.5,0,0.7c0.1,0.5,0.2,0.8,0.2,1.1
		c0,0.4-0.1,0.4-0.3,0.4h-0.4c-0.1,0-0.3,0-0.3-0.2c0-0.2,0-0.3,0-0.5v-2.2c0-0.3,0-0.5,0-0.6c0-0.5,0-1,0-1.3c0-0.4,0-0.6,0-1.1
		v-0.2c0-0.4,0-1,0-1.4v-0.9c0-0.4,0-0.7,0-0.8c0-0.2,0-0.8,0-1.1c0-0.3,0-0.4,0.2-0.4h0.1c0,0,0.1,0,0.2,0c0.3,0,0.5,0,0.7,0.1
		c0,0,0,0,0,0c0.3,0,0.4,0.3,0.6,0.7c0.3,0.4,0.6,0.6,0.9,1.1c0.4,0.5,0.7,1.1,1,1.3s0.7,0.7,0.9,1c0.3,0.3,0.9,1,1.2,1.4
		c0.4,0.4,0.6,0.7,0.9,1c0.3,0.3,0.7,0.9,0.7,0.9s0-0.3,0.1-0.8c0-0.1,0-0.2,0-0.3c0-0.3,0-0.5,0-0.8c0-0.6-0.1-0.7-0.1-1.2
		c0-0.4,0-0.8,0-1.3c0-0.9-0.1-1.5-0.1-1.8c0-0.4-0.3-0.8-0.3-1.1c0-0.2,0.1-0.3,0.3-0.3c0.1,0,0.4,0,0.6,0
		C149.1,59.9,149,60.1,149,60.4C149,60.3,149,60.3,149,60.4z"/>
	<path class="st1" d="M150.7,59.9c0.2,0,0.4,0.4,0.4,0.8c0,0.1,0,0.1,0,0.2c0,0.1,0,0.2,0,0.4c0,0.3,0,0.5,0,0.8c0,0,0,0.1,0,0.2
		c0,0.2,0,0.4,0,0.6c0,0.2,0,0.4,0,0.6c0,0.4,0,0.6,0,1.1c0,0.3,0,0.7,0,1.1c0,0.2,0,0.4,0,0.6c0,0.2,0,0.3,0,0.4c0,0.3,0,0.4,0,0.8
		c0,0.1,0,0.3,0,0.4c0,0.3,0,0.5,0,0.9c0,0.5,0,0.7,0,1c0,0.1,0,0.1,0,0.3c0,0.2,0,0.3,0,0.4c0,0.2,0,0.4-0.1,0.4
		c0,0.1-0.2,0.1-0.4,0.1c-0.1,0-0.2,0-0.3-0.2c0-0.1,0-0.1,0-0.2c0-0.3,0-0.8,0.1-1c0-0.1,0-0.1,0-0.2c0-0.3,0-0.7,0-1
		c0-0.3,0-0.6,0-0.8c0-0.2,0-0.3,0-0.4c0-0.3,0.1-0.6,0.1-0.8c0-0.2,0-0.4,0-0.6c0-0.1,0-0.3,0-0.4c0-0.3-0.1-1.1-0.1-1.5
		c0-1,0.1-1.4,0.1-1.8c0-0.1,0-0.3,0-0.4c0-0.3-0.1-0.4-0.1-0.5c0-0.1,0-0.3,0.1-0.4C150.5,60,150.5,59.9,150.7,59.9z M151.5,60
		c0,0.1,0,0.1,0,0.3c0,0.3,0,0.8,0,1c0.1,0.6,0.1,1.2,0.1,2.3c0,0.3,0,0.7,0,1c0,0.3-0.1,0.5-0.1,0.8c0,0.3,0.1,0.7,0.1,1.4
		c0,0.3,0,0.5,0,0.7c0,0.1,0,0.3-0.1,0.4c0,0.2,0,0.5,0,0.8c0,0.4,0,0.7,0,1c0,0.3,0,0.6,0,0.8c0,0.5,0.2,0.4,0.6,0.5
		c0.1,0,0.2,0,0.4,0c0.4,0,0.8-0.1,1.1-0.1c0.4,0,1-0.1,1.4-0.1c0.7,0,1.1,0,1.4,0c0.4-0.1,1.1-0.3,1.5-0.5c0.3-0.2,0.8-0.5,1.1-0.8
		c0.3-0.3,0.8-1.2,1-1.9c0.1-0.4,0.3-1.1,0.3-1.6c0-0.1,0-0.2,0-0.4c0-0.2,0.1-0.4,0.1-0.6c0-0.6-0.1-1-0.3-1.5
		c-0.2-0.5-0.5-1-0.7-1.3c-0.3-0.8-1.4-1.5-2.1-1.7c-0.8-0.3-1.6-0.5-2.2-0.5c-0.4,0-1.4,0-1.9,0.1c-0.3,0-0.4,0-0.6,0
		c-0.1,0-0.1,0-0.3,0c-0.2,0-0.3,0-0.4,0C151.6,59.9,151.6,59.9,151.5,60C151.5,59.9,151.5,59.9,151.5,60z M153.8,60.7
		c0-0.1,0-0.2,0.1-0.2c0.1,0,0.3,0,0.5,0c0.1,0,0.1,0,0.2,0c0.1,0,0.2,0,0.3,0c0.4,0,0.6,0.1,1,0.2c0.2,0.1,1.1,0,1.2,0.2
		c0.2,0.2,0.6,0.3,0.7,0.6c0.1,0.2,0.4,0.4,0.6,0.7c0.2,0.4,0.7,0.6,0.7,1.6c0,0.2,0.2,0.5,0.2,1v0.6c0,0.2-0.1,0.2-0.1,0.4
		c0,0.3,0.1,0.4,0.1,0.6V67c0,0.2-0.4,1.1-0.6,1.5c-0.2,0.3-0.9,0.8-1.1,0.9c-0.4,0.3-0.8,0.5-1.2,0.6c-0.1,0-0.2,0-0.3,0
		c-0.1,0-0.2,0-0.4,0c0,0-0.1,0-0.2,0c-0.1,0-0.5,0-0.6,0c-0.2,0-0.5,0.1-0.7,0.1c-0.2,0-0.3,0-0.4-0.1c-0.1-0.1-0.1-0.2-0.1-0.4
		c0-0.1,0-0.3,0-0.5c0-0.4,0-0.7-0.1-1.2c0-0.2,0-0.4,0-0.5c0-0.3,0-0.6,0-1.1c0-0.5,0-1.1,0-1.6c0-0.2,0-0.3,0-0.4
		c0-0.2,0-0.4,0-0.6c0-0.1,0.1-0.3,0.1-2C153.7,61.3,153.8,61,153.8,60.7z"/>
	<path class="st1" d="M168.6,60c0.2,0,0.3,0.1,0.3,0.4c0,0.3,0,0.6,0,1c0,0.3-0.1,0.6-0.1,1c0,0.1,0,0.2,0,0.3c0,0.3,0,0.5,0,0.7
		c0,0.3,0,0.5,0,0.7c0,0.1,0,0.3,0,0.4c0,0.3,0,0.6,0,1.1c0,0.3,0,0.5,0,0.7c0,0.1,0,0.3,0.1,0.4c0,0.1,0,0.2,0,0.3
		c0,0.3-0.1,0.7-0.1,1c0,0.4,0,1.2,0,1.7c0,0.1,0,0.2,0,0.3c0,0.1,0,0.2,0,0.3c0,0.2,0,0.3,0,0.4c0,0.1-0.3,0.2-0.5,0.2
		c-0.2,0-0.3,0-0.3-0.2c0-0.3,0-1.3,0.1-1.8c0-0.2,0-0.4,0-1.4c0-0.5,0-1.2,0-1.8c0-0.2,0-0.4,0-0.8c0-0.4,0-0.7,0-1.3
		c0-0.2,0-0.4,0-0.6c0-0.1,0-0.2,0-0.3c0-0.2,0-0.5,0-0.7c0-0.3,0-0.5,0-0.6c-0.1-0.2,0-0.5-0.4-0.5c-0.2,0-0.5,0.1-0.9,0.1
		s-0.6,0.1-0.7,0.1c0,0-0.1,0-0.2,0h-0.3c-0.1,0-0.2,0-0.2-0.2c0-0.1,0-0.3,0.2-0.5c0.1-0.2,0.2-0.4,0.4-0.4c0,0,0,0,0.1,0
		c0.1,0,0.6,0.2,0.9,0.2c0.2,0,0.4,0,0.6,0c0.1,0,0.1,0,0.2,0C168.1,60,168.3,60,168.6,60z M169.3,68.7v-1.8c0-0.4,0-0.8,0-1.2
		c0-0.1,0-0.2,0-0.3c0-0.4,0-0.6,0.1-1c0,0,0-0.1,0-0.1c0-0.3-0.2-0.6-0.2-0.8c0-0.1,0-0.1,0-0.2c0-0.2,0-0.5,0-0.8
		c0-0.4,0.1-0.7,0.1-1.2c0-0.1,0-0.2,0-0.3c0-0.1,0-0.1,0-0.4c0-0.5,0-0.5,0.3-0.5c0.4,0,1.1-0.1,1.7-0.1c0.6,0,0.8,0,1.1,0.1
		c0,0,0.1,0,0.2,0c0.3,0,0.4-0.2,0.9-0.2c0.4,0,0.4,0,0.5,0.3c0,0.3-0.2,0.8-0.4,0.8c-0.3,0-0.5-0.2-1-0.3c-0.3,0-0.6-0.1-0.8-0.1
		c-0.1,0-0.2,0-0.3,0c-0.2,0-0.3,0.2-0.3,0.6c0,0.1,0,0.2,0,0.2V63c0,0.2,0,0.4,0,0.6c0,0.6,0,1.6,0,2.3s0.1,1.4,0.2,2
		c0,0.2,0,0.4,0,0.5c0,0.3-0.1,0.5-0.1,0.8c0,0.6,0.2,0.7,0.3,1c0,0,0,0.1,0,0.1c0,0.2-0.1,0.3-0.3,0.3c-0.1,0-0.2,0-0.2,0h-0.1
		c-0.2,0-0.4,0-0.6,0c-0.1,0-0.3,0.1-0.4,0.1c-0.2,0-0.4,0.1-0.5,0.1c-0.1,0-0.3-0.1-0.3-0.3C169.4,70,169.3,68.7,169.3,68.7z"/>
	<path class="st1" d="M175.2,59.9c0.2,0,0.4,0.4,0.4,0.8c0,0.1,0,0.2,0,0.2c0,0.1,0,0.3,0,0.4c0,0.3,0.1,0.6,0.1,0.8
		c0,0.1,0,0.1,0,0.2c0,0.2,0,0.4,0,0.5c0,0.2,0,0.4,0,0.7c0,0.4,0,0.6,0,1.1c0,0.3,0,0.7,0,1.1c0,0.2,0,0.4,0,0.6c0,0.1,0,0.3,0,0.4
		c0,0.2,0,0.4,0,0.6c0,0.1,0,0.1,0,0.2c0,0.1,0,0.3,0,0.4c0,0.3,0,0.5,0,0.9c0,0.5,0,0.7,0,1v0.2c0,0.5,0,0.7-0.1,0.8
		c-0.1,0.1-0.2,0.1-0.4,0.1c-0.1,0-0.3-0.1-0.3-0.2v-0.2c0-0.4,0-0.9,0.1-1.1c0-0.1,0-0.1,0-0.2c0-0.3,0-0.7,0-1
		c0-0.3,0.1-0.6,0.1-0.8c0-0.1,0-0.2,0-0.3c0,0,0-0.1,0-0.2c0-0.3,0.1-0.6,0.1-0.8c0-0.2,0-0.4,0-0.6c0-0.1,0-0.3,0-0.4
		c0-0.3-0.1-1.1-0.1-1.5c0-1,0.1-1.4,0.1-1.8c0-0.1,0-0.2,0-0.4c0-0.3,0-0.4,0-0.6c0-0.2,0-0.3,0-0.5C175,60,175.1,59.9,175.2,59.9z
		 M184.8,60.3c0-0.3,0-0.4-0.6-0.4c-0.6,0-0.7,0.1-0.7,0.4s0.1,0.4,0.1,0.6c0,0.2,0.1,0.5,0.1,0.9c0,0.2,0,0.4,0,0.5
		c0,0.1,0,0.3,0,0.4c0,0.2,0,0.4,0,0.7c0,0.4,0,0.6,0,0.9c0,0.1,0,0.2,0,0.2c0,0.4,0,0.5-0.1,0.6c-0.2,0-0.7,0-1,0
		c-0.3,0-0.9,0.1-1.3,0.1c-0.1,0-0.2,0-0.3,0c-0.2,0-1-0.1-1.4-0.1c-0.3,0-0.3,0-0.4,0c0,0-0.2,0-0.2,0c-0.2,0.1-0.4,0.1-0.6,0.1
		c-0.1,0-0.2,0-0.2-0.1c0-0.1-0.1-0.2-0.1-0.4c0-0.2,0-0.4,0-0.7c0-0.4-0.1-0.5-0.1-1.2c0-0.8,0.1-1.1,0.2-1.4
		c0-0.4,0.3-0.8,0.3-1.2c0-0.2-0.3-0.2-0.5-0.2h-0.3c-0.3,0-0.5,0-0.8,0c-0.3,0-0.6-0.1-0.9-0.1c-0.2,0-0.2,0.1-0.2,0.2
		c0,0.2,0.1,0.5,0.1,0.9c0,0.4,0.1,0.7,0.1,1c0,0.1,0.1,0.2,0.1,0.2c0,0,0,0,0,0.1c0,0.1,0,0.2,0,0.2c0,0.4,0,0.8,0,1.1
		c0,0.2,0,0.6,0,1c0,0.5-0.1,0.5-0.1,0.9c0,0.2,0,0.5,0,0.7c0,0.3,0,1.3,0,2.1c0,0.4,0,0.6,0,0.8s0.1,0.4,0.1,0.6c0,0.1,0,0.1,0,0.2
		c0,0,0,0.1,0,0.3v0.3c0,0.1,0,0.2,0,0.3c0,0.1,0,0.2,0.2,0.2c0.6,0,0.6,0,0.7,0c0.3,0,0.4,0,0.7,0c0,0,0.1,0,0.1,0
		c0.2,0,0.4,0.1,0.5,0.1s0.2-0.1,0.2-0.3c0-0.3,0-0.5,0-0.7c0-0.2-0.1-0.5-0.1-0.8c0-0.4-0.1-0.6-0.1-1c0-0.7,0-0.8,0-1.7
		c0-0.2,0-0.3,0.1-0.4c0.2-0.2,0.5-0.1,0.9-0.1c0.4,0,1.3,0,1.7-0.1c0,0,0.1,0,0.2,0c0.2,0,0.5,0,0.8,0c0.1,0,0.4,0,0.5,0
		c0,0,0,0,0.1,0c0.2,0,0.4,0,0.4,0c0.4,0,0.5,0,0.7,0.1c0.1,0.1,0,1.1,0.1,1.4c0,0,0.1,0.2,0.1,0.3c0,0.2-0.1,0.4-0.1,0.5
		c0,0.4,0,0.8,0,1c0,0.1,0,0.2,0,0.3c0,0.3-0.1,0.6-0.2,1c0,0.1,0,0.2,0,0.3c0,0.1,0,0.2,0.1,0.2c0.1,0,0.2,0,0.4,0
		c0.3,0,0.7,0,0.8-0.2c0,0,0,0,0-0.1c0-0.1-0.1-0.4-0.2-0.7c0-0.2,0-1.6-0.1-2.3c-0.1-0.4-0.1-0.6-0.1-1v-0.7c0-0.6,0-0.8,0-1
		c0-0.1,0-0.3,0-0.5c0-0.1,0-0.2,0-0.4c0-0.4,0.1-0.6,0.1-1c0-0.4,0-0.8,0-1.1c0-0.2,0-0.6,0-0.7C184.6,61,184.8,60.6,184.8,60.3z"
		/>
	<path class="st1" d="M186.7,59.9c0.1,0,0.3,0.1,0.3,0.4c0,0.1,0,0.1,0,0.2c0,0.1,0,0.3,0,0.4c0,0.4,0,0.9,0,1.2c0,0.1,0,0.2,0,0.2
		c0,0.2,0,0.4,0,0.6c0,0.2,0,0.4,0,0.6c0,0.4,0,0.6,0,1.1c0,0.3,0,0.7,0,1.1c0,0.2,0,0.4,0,0.6c0,0.2,0,0.3,0,0.4c0,0.3,0,0.4,0,0.6
		c0,0.3,0,0.4,0,0.5c0,0.3,0,0.5,0,0.9c0,0.5,0,0.7,0,1c0,0.1,0,0.1,0,0.3c0,0.2,0,0.3,0,0.4c0,0.2,0,0.4-0.1,0.4
		c0,0.1-0.2,0.1-0.4,0.1c-0.1,0-0.2,0-0.3-0.2c0-0.1,0-0.1,0-0.2c0-0.3,0-0.8,0.1-1c0-0.1,0-0.1,0-0.2c0-0.3,0-0.7,0-1
		c0-0.3,0-0.6,0-0.8c0-0.2,0-0.3,0-0.4c0-0.3,0.1-0.6,0.1-0.8c0-0.2,0-0.4,0-0.6c0-0.1,0-0.3,0-0.4c0-0.3-0.1-1.1-0.1-1.5
		c0-1,0.1-1.4,0.1-1.8c0-0.1,0-0.3,0-0.4c0-0.3-0.1-0.4-0.1-0.5c0-0.1,0-0.3,0.1-0.4C186.4,60,186.5,59.9,186.7,59.9L186.7,59.9z
		 M190,65.2c-0.1,0-0.2,0-0.2,0c0,0.1,0,0.1,0,0.2c0,0.2,0.1,0.4,0.1,0.6c0,0.3,0,0.5,0,0.8c0,0.2-0.1,0.5-0.1,0.8v1
		c0,0.2,0,0.4,0,0.6c0,0.7,0.1,0.8,0.2,0.8c0.1,0,0.1,0,0.3,0h0.8c0.2,0,0.4,0,0.5,0c0.7-0.1,1.2-0.2,1.3-0.2c0.3,0,0.6-0.2,0.9-0.2
		c0.1,0,0.2-0.1,0.2-0.1c0.1,0,0.1,0,0.1,0.3c0,0.2-0.3,0.8-0.6,0.9c-0.1,0-0.2,0-0.3,0c-0.2,0-0.4,0-0.5,0c-0.1,0-0.5-0.1-0.7-0.1
		h-0.8c-0.1,0-0.4-0.1-0.5-0.1c-0.5,0-1.2,0.1-1.6,0.1c-0.4,0-0.7,0.1-1,0.1c-0.4,0-0.7-0.1-0.7-0.4c0-0.3,0-0.6,0-0.9
		c0-0.1,0.1-0.2,0.1-0.4v-0.6c0-0.3,0-0.6,0.1-0.9c0-0.1,0-0.2,0-0.4c0-0.1,0-0.2-0.1-0.3c0,0,0-0.1,0-0.3c0-0.2,0-0.6,0-0.9
		c0-0.3-0.1-0.5-0.1-0.7c0-0.3,0.1-0.7,0.1-0.7c0-0.1,0-0.2,0-0.3c0-0.2,0-0.3,0-0.4c0-0.1,0-0.2,0-0.3c0-0.4,0-1.1,0-1.5
		c0-0.4-0.1-1.1-0.1-1.5c0-0.2,0-0.3,0-0.3c0.1-0.1,0.2-0.1,0.4-0.1c0.3,0,0.4,0,0.5,0c0.4,0,0.3,0,0.5,0c0.1,0,0.3,0,0.5,0
		c0.3,0,0.6,0,1.6,0c0.4,0,0.8,0,1.1,0c0.4,0,1.1-0.1,1.3-0.1c0.2,0,0.6,0,0.6,0.2c0,0.3-0.3,0.6-0.4,0.7c-0.1,0,0,0.1-0.2,0.1
		c0,0-0.1,0-0.1,0c-0.3,0-0.5-0.2-0.7-0.2c-0.3,0-0.4-0.1-0.6-0.1c-1,0-1.6,0-2.1-0.1c-0.2,0-0.2,0.1-0.2,0.2c0,0.2-0.1,0.4-0.1,0.5
		c0,0.3,0,0.6,0.1,1c0,0.3,0,0.4,0,0.6l0,0.6c0,0.1,0,0.2,0,0.4c0,0.4,0,0.6,0.1,0.7c0,0.1,0.1,0.1,0.2,0.1c0.1,0,0.2,0,0.4,0
		c0.3,0,0.5,0,0.7-0.1c0.1,0,0.2,0,0.3,0c0.1,0,0.2,0,0.3,0c0.2,0,0.4-0.1,0.5-0.1c0.1,0,0.2,0.1,0.2,0.2c0,0.1,0,0.2-0.1,0.3
		c-0.1,0.2-0.3,0.4-0.5,0.4c0,0-0.1,0-0.1,0c-0.2,0-0.5-0.1-0.6-0.1c-0.1,0-0.3,0-0.4,0C190.3,65.2,190.1,65.2,190,65.2z"/>
	<path class="st1" d="M200.1,59.9c0.2,0,0.4,0.4,0.4,0.8c0,0.1,0,0.1,0,0.2c0,0.1,0,0.2,0,0.4c0,0.3,0,0.5,0,0.8c0,0,0,0.1,0,0.2
		c0,0.2,0,0.4,0,0.6c0,0.2,0,0.4,0,0.6c0,0.4,0,0.6,0,1.1c0,0.3,0,0.7,0,1.1c0,0.2,0,0.4,0,0.6c0,0.2,0,0.3,0,0.4c0,0.3,0,0.4,0,0.6
		c0,0.3,0,0.4,0,0.5c0,0.3,0,0.5,0,0.9c0,0.5,0,0.7,0,1c0,0.1,0,0.1,0,0.3c0,0.2,0,0.3,0,0.4c0,0.2,0,0.4-0.1,0.4
		c0,0.1-0.2,0.1-0.4,0.1c-0.1,0-0.2,0-0.3-0.2c0-0.1,0-0.1,0-0.2c0-0.3,0-0.8,0.1-1c0-0.1,0-0.1,0-0.2c0-0.3,0-0.7,0-1
		c0-0.3,0-0.6,0-0.8c0-0.1,0-0.2,0-0.3c0,0,0-0.1,0-0.2c0-0.3,0.1-0.6,0.1-0.8c0-0.2,0-0.4,0-0.6c0-0.1,0-0.3,0-0.4
		c0-0.3-0.1-1.1-0.1-1.5c0-1,0.1-1.4,0.1-1.8c0-0.1,0-0.3,0-0.4c0-0.3-0.1-0.4-0.1-0.5c0-0.1,0-0.3,0.1-0.5
		C199.9,60,199.9,59.9,200.1,59.9z M200.9,60.1c0,0.1,0,0.2,0,0.3c0,0.4,0.1,0.9,0.1,1.1c0,0.3-0.1,1-0.1,1.5c0,0.4,0,0.7,0,0.9
		c0,0.4-0.1,0.6-0.1,0.8c0,0.1,0,0.4,0,0.6c0,0.1,0,0.2,0,0.2c0,0.1,0,0.2,0,0.4c0,0.3,0,0.5,0,0.7c0,0.3,0,0.5,0,0.6
		c0,0.3,0.1,0.5,0.1,1c-0.1,0.2-0.1,0.3-0.1,0.5c0,0.2,0,0.4,0,0.7c0,0.4-0.1,0.7-0.1,0.7v0.4c0,0.2,0,0.3,0.2,0.3
		c0.1,0,0.2,0,0.2,0.1c0.1,0,0,0,0.2,0c0.3,0,0.6,0,0.8,0c0.5,0,1.1-0.1,1.5-0.1c0.4,0,1.2,0,1.4,0c0.2,0,0.3,0,0.6,0
		c0.1,0,0.3,0,0.3,0c0.4-0.1,0.7-0.3,1.1-0.5c0.4-0.3,0.7-0.6,0.9-1.1c0.2-0.4,0.3-0.7,0.4-1.3c0-0.3,0-0.4,0-0.6
		c0-0.3,0-0.6-0.2-0.8c-0.4-1-0.7-1.1-1.6-1.5c-0.2,0-0.3-0.1-0.3-0.2c0,0,0.2-0.2,0.3-0.2c0.3-0.2,0.7-0.5,0.9-1s0.2-1,0.2-1.4
		c0-0.8-0.8-1.3-1.4-1.7c-0.2-0.1-0.9-0.4-1.4-0.4c-0.5,0-0.5,0.1-1,0.1h-0.4c-0.4,0-0.7,0-1,0c-0.1,0-0.2,0-0.3,0
		c-0.1,0-0.4,0-0.6,0c-0.1,0-0.3-0.1-0.4-0.1C200.9,59.9,200.9,59.9,200.9,60.1z M202.6,65.7c0-0.2,0.3-0.2,0.6-0.3
		c0.2-0.1,0.3-0.1,0.5-0.1c0.7,0,0.8,0,0.9,0c0.1,0,0.2,0,0.4-0.1l0.5,0c0.3,0,1.2,0,1.4,0.3c0.2,0.3,0.6,0.3,0.7,0.7
		c0.2,0.4,0.1,0.5,0.1,0.9c0,0.1,0,0.7,0,0.7c0,0.2-0.2,0.5-0.3,0.8c-0.1,0.3-0.5,0.6-0.8,0.8c-0.6,0.4-1.1,0.4-1.5,0.4
		c-0.1,0,0,0-1,0c-0.4,0-0.9,0.1-1.1,0.1c0,0-0.1,0-0.1,0c-0.1,0-0.1-0.1-0.1-0.2c0-0.1,0-0.3,0-0.6c0-0.5,0-0.8-0.1-1.2
		c0-0.4-0.1-0.8-0.1-1.3C202.7,66.5,202.7,66.1,202.6,65.7z M202.8,60.7c0.1-0.1,0.2-0.1,0.3-0.1s0.3,0,0.5,0c0.1,0,0.1,0,0.1,0
		c0.2,0,0.4,0,0.7,0c0.7,0,1.3,0.1,1.6,0.2c0.3,0.2,0.6,0.5,0.7,0.8c0.1,0.2,0.1,0.4,0.1,1.2c0,0.5-0.2,0.5-0.3,0.8
		c-0.1,0.2-0.6,0.8-0.8,0.8c-0.1,0-0.4,0.3-0.9,0.4c-0.1,0-0.3,0-0.4,0c-0.3,0-0.6,0-0.7,0c-0.2,0-0.4,0-0.5,0c-0.2,0-0.4,0-0.5-0.1
		c0,0,0-0.1,0-0.2c0-0.1,0-0.3,0-0.5v-0.2c0-0.4,0-0.9,0-2.2c0-0.2,0-0.4,0-0.5C202.7,60.9,202.7,60.8,202.8,60.7z"/>
	<path class="st1" d="M209.9,59.9c0.2,0,0.4,0.4,0.4,0.8c0,0.1,0,0.2,0,0.2c0,0.1,0,0.3,0,0.4c0,0.3,0.1,0.6,0.1,0.8
		c0,0.1,0,0.1,0,0.2c0,0.2,0,0.4,0,0.5c0,0.2,0,0.4,0,0.7c0,0.4,0,0.6,0,1.1c0,0.3,0,0.7,0,1.1c0,0.2,0,0.4,0,0.6c0,0.1,0,0.3,0,0.4
		c0,0.2,0,0.4,0,0.6c0,0.1,0,0.1,0,0.2c0,0.1,0,0.3,0,0.4c0,0.3,0,0.5,0,0.9c0,0.5,0,0.7,0,1v0.2c0,0.5,0,0.7-0.1,0.8
		c-0.1,0.1-0.2,0.1-0.4,0.1c-0.1,0-0.3-0.1-0.3-0.2c0-0.5,0-1,0.1-1.2c0-0.1,0-0.1,0-0.2c0-0.3,0-0.7,0-1c0-0.3,0.1-0.6,0.1-0.8
		c0-0.1,0-0.2,0-0.3c0,0,0-0.1,0-0.2c0-0.3,0.1-0.6,0.1-0.8c0,0,0-0.1,0-0.1c0-0.2,0-0.3,0-0.5c0-0.1,0-0.3,0-0.4
		c0-0.3-0.1-1.1-0.1-1.5c0-1,0.1-1.4,0.1-1.8c0-0.1,0-0.2,0-0.4c0-0.3,0-0.4,0-0.6c0-0.2,0-0.3,0-0.5
		C209.6,60,209.7,59.9,209.9,59.9z M219.1,70.5c0-0.3-0.3-0.4-0.4-0.6c-0.3-0.3-0.5-0.4-0.6-0.8c0-0.3-0.3-1.2-0.4-1.6
		c-0.1-0.4-0.1-0.6-0.3-0.8c-0.1-0.2-0.5-0.5-0.6-0.7c-0.5-0.6-0.5-0.6-0.7-0.6c0,0,0.4-0.3,0.7-0.4c0.3-0.1,0.6-0.6,0.9-0.9
		c0.2-0.4,0.4-1,0.4-1.3c0-0.4,0-1.2-0.2-1.5c-0.2-0.3-0.5-0.8-0.9-1c-0.4-0.1-1-0.4-1.7-0.4h-1.5c-0.1,0-0.2,0-0.4,0
		c-0.5,0-1.1,0.1-1.5,0.1c-0.1,0-0.3,0-0.4,0c-0.2,0-0.3,0-0.4,0c-0.1,0-0.2,0-0.4,0.1c-0.1,0.1-0.1,0.4-0.1,0.7
		c0,0.6,0.1,1.4,0.1,1.7c0,0.1,0,0.2,0,0.3c0,0.3,0,0.6,0,0.9c0,0.2,0,0.4,0,0.6c0,0.4,0,0.6,0,0.9c0,0.4,0,0.9,0,1.5
		c0,0.3,0,0.6,0,1c0,0.7,0,1.5,0,1.7c0,0.2,0,0.2,0,0.3c0,0.2-0.1,0.4-0.1,0.9c0,0.2,0.4,0.3,0.9,0.3c0.1,0,0.2,0,0.3,0
		c0.3,0,0.7,0,0.9-0.1c0.2,0,0.3-0.2,0.3-0.4c0-0.2,0-0.3-0.1-0.5c0-0.1,0-0.3,0-0.5v-0.6c0-0.5,0-0.7,0-1.2c0-0.4-0.1-0.6-0.1-0.8
		c0-0.1,0-0.2,0-0.2c0.2-0.3,0.4-0.4,0.6-0.4c0.3,0,0.3,0,0.5,0c0.1,0,0.5,0,0.6,0.1c0.4,0.2,0.5,0.3,0.7,0.8
		c0.2,0.4,0.5,0.6,0.7,1.5c0,0.2,0.3,1.2,0.4,1.4c0,0.3,0.3,0.8,0.5,0.9c0.1,0,0.2,0,0.3,0c0.3,0,0.7-0.1,0.9-0.1c0.3,0,0.4,0,0.7,0
		c0.1,0,0.2,0,0.3,0C219.1,70.8,219.1,70.7,219.1,70.5z M212.8,60.7c0-0.2,0.6-0.1,1.1-0.2c0.6,0,2,0,2.4,0.2
		c0.4,0.2,0.6,0.4,0.8,0.9c0,0.2,0.1,0.5,0.1,0.8c0,0.1,0,0.3,0,0.4c0,0.3-0.2,0.9-0.5,1.3c-0.3,0.4-1,0.6-1.4,0.9
		c-0.3,0.2-1,0.2-1.3,0.3c-0.1,0-0.2,0-0.4,0c-0.2,0-0.4,0-0.5,0c-0.1,0-0.2,0-0.2,0V65c0-0.3,0-0.9,0-1.2c0,0,0-0.1,0-0.2
		c0-0.5-0.1-1.3-0.1-1.9c0-0.2,0-0.3,0-0.4C212.8,61,212.8,60.8,212.8,60.7z"/>
</g>
<g class="st2">
	<path class="st1" d="M227.1,70.8c-0.3,0-0.4,0-0.5,0c-0.1,0-0.1,0-0.2,0c0,0-0.2-0.1-0.2-0.1c-0.2-0.1-0.2-0.5-0.2-0.5
		c0-0.1-0.1-0.3-0.1-0.4c0,0,0-0.1,0-0.1c0-0.1,0-0.1-0.1-0.2c-0.2-0.2-0.2-0.6-0.4-0.8c-0.1-0.2-0.4-0.9-0.5-0.9c-0.1,0-0.6,0-1,0
		c-0.3,0-0.5-0.1-0.7-0.1c-0.1,0-0.2,0-0.3,0c-0.1,0-0.4,0.1-0.5,0.1c-0.4,0-0.7-0.1-0.8-0.1c-0.1,0-0.2,0.1-0.3,0.4
		c-0.1,0.3-0.2,0.6-0.3,0.8c-0.1,0.2-0.2,0.5-0.3,0.8c-0.1,0.1-0.1,0.4-0.1,0.5c0,0,0,0.4-0.1,0.6c0,0.1-0.2,0.1-0.5,0.1
		c-0.1,0-0.1,0-0.2,0h-0.4c-0.1,0-0.1,0-0.1-0.1c0-0.1,0-0.2,0.1-0.3c0-0.2,0.4-0.7,0.4-0.8c0.1-0.2,0.2-0.4,0.4-0.6
		c0.2-0.3,0.4-1,0.4-1.1c0-0.1-0.1-0.3-0.1-0.6c0.1-0.2,0.1-0.2,0.4-0.3c0.3-0.1,0.2-0.6,0.4-0.9c0.2-0.3,0.3-0.9,0.5-1.2
		c0.2-0.3,0.4-0.8,0.5-1.2c0.1-0.3,0.3-0.8,0.5-1.1c0.2-0.4,0.3-0.8,0.4-0.8c0.1,0,0.2,0.3,0.4,0.8c0.1,0.5,0.4,1.1,0.5,1.4
		c0.1,0.3,0.4,0.9,0.5,1.2c0.1,0.3,0.4,1,0.8,1.7c0.4,0.7,0.4,1,0.6,1.3c0.1,0.4,0.3,0.6,0.4,1c0.1,0.4,0.4,0.7,0.5,0.9
		c0.1,0.2,0.3,0.4,0.3,0.6C227.3,70.8,227.2,70.8,227.1,70.8z M222.8,64.5c0,0.2-0.3,0.8-0.4,1.1c-0.2,0.2-0.2,0.5-0.3,0.7
		c0,0.1-0.2,0.6-0.2,0.7c0,0,0,0,0.1,0c0.1,0,0.2,0,0.4,0c0.2,0,0.4,0,0.6,0c0,0,0.1,0,0.1,0c0,0,0.2,0.1,0.4,0.1c0.1,0,1.3,0,1.3,0
		c0,0-0.1-0.3-0.2-0.6c-0.1-0.3-0.3-0.6-0.4-0.9c-0.1-0.4-0.3-0.6-0.4-1c-0.1-0.4-0.2-0.6-0.3-0.8c0-0.1-0.2-0.5-0.2-0.5
		c0,0-0.1,0.4-0.1,0.4C223.1,63.8,222.9,64.2,222.8,64.5z M228.9,70.7c-0.2,0-0.6,0.1-0.8,0.1c-0.3,0-0.3-0.1-0.4-0.2
		c-0.2-0.3-0.3-0.3-0.4-0.8c-0.1-0.5-0.3-0.5-0.5-1c-0.2-0.5-0.5-1-0.7-1.3c-0.1-0.3-0.2-0.4-0.4-0.9c-0.1-0.5-0.3-0.4-0.4-0.9
		c-0.1-0.4-0.3-0.6-0.4-1c-0.2-0.4-0.4-1-0.5-1.4c-0.2-0.3-0.2-0.5-0.4-1c-0.2-0.6-0.4-0.8-0.4-1c0-0.1,0.1-0.4,0.3-0.8
		c0.2-0.4,0.4-0.8,0.6-0.8c0.2,0,0.4,0.2,0.5,0.5c0.1,0.2,0.8,1.2,0.8,1.6c0.1,0.3,0.4,1,0.6,1.4c0.2,0.4,0.6,1.3,0.7,1.7
		c0.1,0.4,0.5,0.8,0.6,1.2c0.1,0.4,0.4,0.8,0.6,1.4c0.2,0.6,0.2,0.4,0.3,0.7c0.1,0.3,0.3,0.6,0.5,0.9c0.1,0.3,0.3,0.7,0.4,0.8
		c0,0.2,0.4,0.5,0.4,0.8c0,0.1-0.1,0.2-0.3,0.2c-0.1,0-0.2,0-0.3,0C229.3,70.7,228.9,70.7,228.9,70.7z"/>
</g>
<g class="st2">
	<path class="st1" d="M228.8,61.4c0.1,0.5,0.5,0.9,0.5,1.2c0.1,0.4,0.3,0.8,0.4,1.1c0.2,0.4,0.2,0.6,0.4,1s0.5,0.9,0.7,1.5
		c0.2,0.6,0.3,0.6,0.5,1.1c0.1,0.4,0.3,0.6,0.5,1.2c0.2,0.5,0.4,0.6,0.5,1.1c0.1,0.4,0.5,0.8,0.5,1.1c0,0,0,0,0,0.1
		c0,0.1-0.1,0.1-0.2,0.1c-0.2,0-0.4-0.1-0.5-0.3c-0.2-0.3-0.5-0.9-0.5-1.2c-0.1-0.3-0.4-0.7-0.5-1.1c-0.1-0.4-0.2-0.8-0.4-1.1
		c-0.2-0.3-0.3-0.8-0.5-1.1c-0.2-0.3-0.3-0.6-0.4-0.8c-0.1-0.2-0.4-1-0.5-1.4c-0.5-1.2-0.6-1.5-0.8-2c-0.3-0.5-0.7-1.2-0.8-1.6
		c0-0.1,0-0.2,0-0.2c0-0.2,0.1-0.3,0.3-0.3C228,59.9,228.6,60.9,228.8,61.4z M231.7,62.1c0.2,0.4,0.5,1,0.7,1.6
		c0.2,0.5,0.5,0.9,0.6,1.3c0.2,0.5,0.4,0.6,0.6,0.9c0.2,0.4,0.6,1.1,0.7,1.1c0.1,0,0.1-0.7,0.4-1.2c0.2-0.5,0.3-0.9,0.4-1.5
		c0.1-0.6,0.2-0.8,0.5-1.4c0.2-0.6,0.3-1.2,0.4-1.6c0-0.1,0-0.2,0-0.4c0-0.4-0.2-0.6-0.2-0.8c0-0.1,0-0.3,0.3-0.3c0.2,0,0.4,0,0.5,0
		c0.2,0,0.4,0,0.6,0c0.2,0,0.3,0.1,0.3,0.2c0,0.3-0.5,0.8-0.6,1.1c-0.2,0.5-0.3,1-0.5,1.5c-0.1,0.5-0.4,0.7-0.5,1.2
		c-0.1,0.5-0.1,0.8-0.4,1.6c-0.3,0.8-0.7,1.6-0.8,2.2c-0.2,0.6-0.4,1.1-0.5,1.6c-0.1,0.5-0.4,0.9-0.4,1.2c0,0.1-0.2,0.3-0.3,0.3
		c0,0-0.1,0-0.1-0.1c-0.2-0.3-0.6-0.8-0.6-1c0-0.2-0.2-0.6-0.4-0.9c-0.2-0.4-0.4-0.8-0.5-1.1c0-0.4-0.4-0.8-0.5-1.2
		c-0.1-0.4-0.4-0.8-0.6-1.2c-0.2-0.4-0.7-1.6-0.8-2.1c-0.1-0.5-0.6-1.3-0.8-1.5c-0.1-0.2,0-0.5-0.2-0.6c0-0.1-0.4-0.6-0.4-0.8
		c0-0.2,0.3-0.2,0.5-0.2h0.2c0.3,0,0.4,0,0.4,0c0,0,0.1,0,0.4,0c0.7,0,0.6,0,0.9,0C231.6,60,231.3,61.1,231.7,62.1z"/>
	<path class="st1" d="M238.8,59.9c0.1,0,0.3,0.1,0.3,0.4c0,0.1,0,0.1,0,0.2c0,0.1,0,0.3,0,0.4c0,0.4,0,0.9,0,1.2c0,0.1,0,0.2,0,0.2
		c0,0.2,0,0.4,0,0.6c0,0.2,0,0.4,0,0.6c0,0.4,0,0.6,0,1.1c0,0.3,0,0.7,0,1.1c0,0.2,0,0.4,0,0.6c0,0.2,0,0.3,0,0.4c0,0.3,0,0.4,0,0.6
		c0,0.3,0,0.4,0,0.5c0,0.3,0,0.5,0,0.9c0,0.5,0,0.7,0,1c0,0.1,0,0.1,0,0.3c0,0.2,0,0.3,0,0.4c0,0.2,0,0.4-0.1,0.4
		c0,0.1-0.2,0.1-0.4,0.1c-0.1,0-0.2,0-0.3-0.2c0-0.1,0-0.1,0-0.2c0-0.3,0-0.8,0.1-1c0-0.1,0-0.1,0-0.2c0-0.3,0-0.7,0-1
		c0-0.3,0-0.6,0-0.8c0-0.2,0-0.3,0-0.4c0-0.3,0.1-0.6,0.1-0.8c0-0.2,0-0.4,0-0.6c0-0.1,0-0.3,0-0.4c0-0.3-0.1-1.1-0.1-1.5
		c0-1,0.1-1.4,0.1-1.8c0-0.1,0-0.3,0-0.4c0-0.3-0.1-0.4-0.1-0.5c0-0.1,0-0.3,0.1-0.4C238.5,60,238.6,59.9,238.8,59.9L238.8,59.9z
		 M242.1,65.2c-0.1,0-0.2,0-0.2,0c0,0.1,0,0.1,0,0.2c0,0.2,0.1,0.4,0.1,0.6c0,0.3,0,0.5,0,0.8c0,0.2-0.1,0.5-0.1,0.8v1
		c0,0.2,0,0.4,0,0.6c0,0.7,0.1,0.8,0.2,0.8c0.1,0,0.1,0,0.3,0h0.8c0.2,0,0.4,0,0.5,0c0.7-0.1,1.2-0.2,1.3-0.2c0.3,0,0.6-0.2,0.9-0.2
		c0.1,0,0.2-0.1,0.2-0.1c0.1,0,0.1,0,0.1,0.3c0,0.2-0.3,0.8-0.6,0.9c-0.1,0-0.2,0-0.3,0c-0.2,0-0.4,0-0.5,0c-0.1,0-0.5-0.1-0.7-0.1
		h-0.8c-0.1,0-0.4-0.1-0.5-0.1c-0.5,0-1.2,0.1-1.6,0.1c-0.4,0-0.7,0.1-1,0.1c-0.4,0-0.7-0.1-0.7-0.4c0-0.3,0-0.6,0-0.9
		c0-0.1,0.1-0.2,0.1-0.4v-0.6c0-0.3,0-0.6,0.1-0.9c0-0.1,0-0.2,0-0.4c0-0.1,0-0.2-0.1-0.3c0,0,0-0.1,0-0.3c0-0.2,0-0.6,0-0.9
		c0-0.3-0.1-0.5-0.1-0.7c0-0.3,0.1-0.7,0.1-0.7c0-0.1,0-0.2,0-0.3c0-0.2,0-0.3,0-0.4c0-0.1,0-0.2,0-0.3c0-0.4,0-1.1,0-1.5
		c0-0.4-0.1-1.1-0.1-1.5c0-0.2,0-0.3,0-0.3c0.1-0.1,0.2-0.1,0.4-0.1c0.3,0,0.4,0,0.5,0c0.4,0,0.3,0,0.5,0c0.1,0,0.3,0,0.5,0
		c0.3,0,0.6,0,1.6,0c0.4,0,0.8,0,1.1,0c0.4,0,1.1-0.1,1.3-0.1c0.2,0,0.6,0,0.6,0.2c0,0.3-0.3,0.6-0.4,0.7c-0.1,0,0,0.1-0.2,0.1
		c0,0-0.1,0-0.1,0c-0.3,0-0.5-0.2-0.7-0.2c-0.3,0-0.4-0.1-0.6-0.1c-1,0-1.6,0-2.1-0.1c-0.2,0-0.2,0.1-0.2,0.2c0,0.2-0.1,0.4-0.1,0.5
		c0,0.3,0,0.6,0.1,1c0,0.3,0,0.4,0,0.6l0,0.6c0,0.1,0,0.2,0,0.4c0,0.4,0,0.6,0.1,0.7c0,0.1,0.1,0.1,0.2,0.1c0.1,0,0.2,0,0.4,0
		c0.3,0,0.5,0,0.7-0.1c0.1,0,0.2,0,0.3,0c0.1,0,0.2,0,0.3,0c0.2,0,0.4-0.1,0.5-0.1c0.1,0,0.2,0.1,0.2,0.2c0,0.1,0,0.2-0.1,0.3
		c-0.1,0.2-0.3,0.4-0.5,0.4c0,0-0.1,0-0.1,0c-0.2,0-0.5-0.1-0.6-0.1c-0.1,0-0.3,0-0.4,0C242.4,65.2,242.2,65.2,242.1,65.2z"/>
</g>
<polygon class="st1" points="148.4,19.4 144.9,24.9 150.7,24.9 154.2,19.4 "/>
<polygon class="st1" points="126.1,19.4 126.1,24.9 127.5,24.9 131.1,19.4 "/>
<polygon class="st1" points="136.9,19.4 133.3,24.9 139.1,24.9 142.7,19.4 "/>
<polygon class="st1" points="173.2,19.4 171.6,19.4 168.1,24.9 173.8,24.9 173.2,24.9 "/>
<polygon class="st1" points="160,19.4 156.5,24.9 162.3,24.9 165.8,19.4 "/>
<polygon class="st1" points="147.6,13.7 142.2,9.3 147.8,8 153.1,12.4 "/>
<polygon class="st1" points="170,3 170,2.9 170,2.9 "/>
<polygon class="st1" points="126,18.6 124.1,13.4 125.5,13.1 130.9,17.5 "/>
<polygon class="st1" points="136.4,16.2 131.1,11.8 136.6,10.5 142,15 "/>
<polygon class="st1" points="172,8.2 169.8,8.7 164.4,4.2 170,2.9 170,3 "/>
<polygon class="st1" points="158.7,11.2 153.3,6.7 158.9,5.5 164.2,9.9 "/>
<path class="st1" d="M278.9,80.1l8.8-2.6v0.9l-1.9,0.6c0,0-0.1,0-0.1,0.1v2.7c0,0,0,0.1,0.1,0.1c0,0,0,0,0,0l1.9,0.6v0.9l-8.8-2.6
	V80.1z M284.5,81.5L284.5,81.5C284.5,81.5,284.6,81.5,284.5,81.5l0.1-2.1c0,0,0-0.1-0.1-0.1l0,0l-3.7,1.1l0,0l0,0L284.5,81.5z"/>
<path class="st1" d="M284.9,73.5h-3.2c-1.4,0.1-2.7-1-2.8-2.4c0.1-1.4,1.4-2.5,2.8-2.4h3.2c1.3-0.2,2.6,0.6,2.8,2
	c0.2,1.3-0.6,2.6-2,2.8C285.5,73.6,285.2,73.6,284.9,73.5z M281.7,72.6h3.2c0.9,0,1.7-0.6,1.8-1.5c-0.1-0.9-0.9-1.6-1.8-1.5h-3.2
	c-0.9-0.1-1.7,0.6-1.8,1.5C280,72,280.8,72.7,281.7,72.6z"/>
<path class="st1" d="M287.6,64.9H280c-0.1,0-0.1,0-0.1,0.1v1h-0.9v-2h8.8L287.6,64.9z"/>
<path class="st1" d="M287.6,56.6V61l-0.9,0.1l-2.9-2.4c-0.7-0.7-1.6-1.2-2.6-1.2c-0.7-0.1-1.4,0.5-1.4,1.2c0,0,0,0,0,0
	c0,0.6,0.4,1.2,1,1.5l-0.8,0.5c-0.7-0.4-1.2-1.1-1.3-1.9c0.1-1.2,1.1-2.2,2.3-2.1c0,0,0.1,0,0.1,0c1,0,2,0.3,3.9,2l1.2,1
	c0,0,0.1,0.1,0.2,0.1c0,0,0-0.1,0-0.2v-3L287.6,56.6z"/>
<path class="st1" d="M284.9,55.1h-3.2c-1.4,0.1-2.7-1-2.8-2.4c0.1-1.4,1.4-2.5,2.8-2.4h3.2c1.4-0.1,2.7,1,2.9,2.4
	C287.6,54.2,286.3,55.2,284.9,55.1z M281.7,54.3h3.2c0.9,0,1.7-0.6,1.8-1.5c-0.1-0.9-0.9-1.6-1.8-1.5h-3.2c-0.9-0.1-1.7,0.6-1.8,1.5
	C280,53.6,280.8,54.3,281.7,54.3z"/>
<path class="st1" d="M279.7,48.4c-0.6-0.4-0.9-1.1-0.9-1.8c0-1.1,0.9-2,2-2c0.1,0,0.1,0,0.2,0c0.6,0,1.3,0.3,1.7,0.8c0,0,0,0,0.1,0
	s0,0,0,0c0.5-0.8,1.3-1.2,2.2-1.2c1.4-0.1,2.6,0.9,2.7,2.2c0,0,0,0.1,0,0.1c0,0.8-0.4,1.5-1,2l-0.9-0.4c0.5-0.3,0.8-0.9,0.8-1.5
	c0-0.9-0.8-1.6-1.7-1.5c-0.9,0-1.7,0.7-1.7,1.6c0,0,0,0,0,0v0.6h-0.9v-0.5c0-0.7-0.6-1.3-1.3-1.3c0,0-0.1,0-0.1,0
	c-0.6,0-1.1,0.4-1.1,1c0,0,0,0.1,0,0.1c0.1,0.6,0.4,1.1,0.9,1.4L279.7,48.4z"/>
<path class="st1" d="M281.8,43c-1.5,0.1-2.9-1-3-2.5c0.1-1.5,1.4-2.6,2.9-2.5c0,0,0.1,0,0.1,0c0.5,0,1,0.1,1.5,0.3l4.4,2.3l-0.5,0.8
	l-2.4-1.3c0,0.1,0,0.2,0,0.3C284.7,42,283.4,43.1,281.8,43C281.9,43,281.9,43,281.8,43z M281.8,38.8c-0.9-0.2-1.8,0.4-1.9,1.3
	s0.4,1.8,1.3,1.9c0.2,0,0.4,0,0.6,0c1,0.1,1.9-0.6,2-1.6c0,0,0,0,0,0c-0.1-1-0.9-1.7-1.9-1.7C281.9,38.8,281.9,38.8,281.8,38.8
	L281.8,38.8z"/>
<polygon class="st1" points="278.5,25.9 281.1,25.2 281,23 282.6,24.8 285.1,24.1 283.5,25.9 285.1,27.7 282.6,27 281,28.8 
	281.1,26.5 "/>
<polygon class="st1" points="278.5,97 281.1,96.3 281,94.1 282.6,95.9 285.1,95.2 283.5,97 285.1,98.8 282.6,98.1 281,99.9 
	281.1,97.7 "/>
<path class="st1" d="M19.8,42.8L11,45.4v-0.9l1.9-0.5c0,0,0.1,0,0.1-0.1c0,0,0,0,0,0v-2.7c0-0.1,0-0.1-0.1-0.1L11,40.5v-0.9l8.8,2.6
	L19.8,42.8z M14.1,41.4L14.1,41.4L14.1,41.4l-0.1,2.1c0,0,0,0.1,0.1,0.1l0,0l3.7-1.1l0,0l0,0L14.1,41.4z"/>
<path class="st1" d="M13.8,49.4H17c1.4-0.1,2.7,1,2.8,2.4c-0.1,1.4-1.4,2.5-2.8,2.4h-3.2c-1.4,0.1-2.7-1-2.8-2.4
	C11.1,50.3,12.4,49.3,13.8,49.4z M17,50.2h-3.2c-0.9,0-1.7,0.6-1.8,1.5c0.1,0.9,0.9,1.6,1.8,1.5H17c0.9,0.1,1.7-0.6,1.8-1.5
	C18.7,50.9,17.9,50.2,17,50.2z"/>
<path class="st1" d="M11,58h7.7c0.1,0,0.2,0,0.2-0.1v-1h0.9v2H11V58z"/>
<path class="st1" d="M11,66.3v-4.4l0.9-0.1l2.9,2.4c0.7,0.7,1.6,1.2,2.6,1.2c0.7,0.1,1.4-0.5,1.4-1.2c0-0.6-0.4-1.2-1-1.5l0.8-0.5
	c0.8,0.4,1.3,1.1,1.3,2c-0.1,1.2-1.1,2.2-2.3,2.1c0,0-0.1,0-0.1,0c-1,0-2-0.3-3.9-2l-1.2-1c-0.1,0-0.1-0.1-0.2-0.1s0,0.1,0,0.2v3
	L11,66.3z"/>
<path class="st1" d="M13.8,67.8H17c1.3-0.2,2.6,0.7,2.8,2c0.2,1.3-0.7,2.6-2,2.8c-0.3,0-0.5,0-0.8,0h-3.2c-1.3,0.2-2.6-0.7-2.8-2
	c-0.2-1.3,0.7-2.6,2-2.8C13.2,67.7,13.5,67.7,13.8,67.8z M17,68.6h-3.2c-0.9-0.1-1.7,0.6-1.8,1.5c0.1,0.9,0.9,1.6,1.8,1.5H17
	c0.9,0.1,1.7-0.6,1.8-1.5C18.7,69.3,17.9,68.6,17,68.6z"/>
<path class="st1" d="M19,74.5c0.6,0.4,0.9,1.1,0.9,1.8c0,1.1-0.9,2-2,2c-0.1,0-0.1,0-0.2,0c-0.7,0-1.3-0.3-1.7-0.8l0,0
	c0,0,0,0-0.1,0.1c-0.5,0.8-1.3,1.2-2.2,1.2c-1.4,0.2-2.6-0.8-2.8-2.2c0-0.1,0-0.2,0-0.2c0-0.8,0.4-1.5,1-2l0.9,0.4
	c-0.5,0.3-0.8,0.9-0.8,1.5c0.1,0.9,0.8,1.5,1.7,1.5c0,0,0,0,0,0c0.9,0,1.7-0.7,1.7-1.6c0,0,0,0,0,0v-0.6h0.9v0.5
	c0,0.7,0.6,1.3,1.3,1.3c0,0,0.1,0,0.1,0c0.6,0,1.1-0.4,1.1-1c0,0,0-0.1,0-0.1c-0.1-0.6-0.4-1-0.9-1.4L19,74.5z"/>
<path class="st1" d="M16.9,79.9c1.4-0.3,2.7,0.6,3,2c0.3,1.4-0.6,2.7-2,3c-0.3,0.1-0.7,0.1-1,0c-0.5,0-1-0.1-1.5-0.3l-4.4-2.3
	l0.6-0.8l2.4,1.3c0-0.1,0-0.2,0-0.3C13.9,81.1,15,79.9,16.9,79.9z M16.9,84.1c0.9,0.1,1.7-0.5,1.9-1.4c0.1-0.9-0.5-1.7-1.4-1.9
	c-0.2,0-0.3,0-0.5,0c-1-0.1-1.9,0.6-2,1.6c0,0,0,0,0,0c0.1,1,0.9,1.7,1.9,1.6C16.8,84.1,16.8,84.1,16.9,84.1z"/>
<polygon class="st1" points="20.2,97 17.6,97.7 17.7,99.9 16.1,98.1 13.6,98.8 15.2,97 13.6,95.2 16.1,95.9 17.7,94.1 17.6,96.3 "/>
<polygon class="st1" points="20.2,25.9 17.6,26.5 17.7,28.8 16.1,27 13.6,27.7 15.2,25.9 13.6,24.1 16.1,24.8 17.7,23 17.6,25.2 "/>
<path class="st3" d="M260.7,101.7H45.2V82.5h215.4V101.7z M47,100.8h211.9V83.4H47V100.8z"/>
<text transform="matrix(1 0 0 1 79.51 97.05)" class="st1 st4 st5">5th Spetember 2020</text>
</svg>
