<?xml version="1.0" encoding="utf-8"?>
<!-- Generator: Adobe Illustrator 24.3.0, SVG Export Plug-In . SVG Version: 6.00 Build 0)  -->
<svg version="1.1" id="Layer_1" xmlns="http://www.w3.org/2000/svg" xmlns:xlink="http://www.w3.org/1999/xlink" x="0px" y="0px"
	 viewBox="0 0 300 121.6" style="enable-background:new 0 0 300 121.6;" xml:space="preserve">
<style type="text/css">
	.st0{fill:#FFEDC2;}
	.st1{fill:#42210B;}
	.st2{enable-background:new    ;}
	.st3{fill:#6A222A;}
	.st4{font-family:'LucidaConsole';}
	.st5{font-size:13px;}
</style>
<path class="st0" d="M300,104.2v-4.6c-2.1,0-3.8-1.4-3.8-3.2s1.7-3.2,3.8-3.2v-3.8c-2.1,0-3.8-1.4-3.8-3.2s1.7-3.2,3.8-3.2v-3.8
	c-2.1,0-3.8-1.4-3.8-3.2s1.7-3.2,3.8-3.2v-3.8c-2.1,0-3.8-1.4-3.8-3.2s1.7-3.2,3.8-3.2v-3.9c-2.1,0-3.8-1.4-3.8-3.2s1.7-3.2,3.8-3.2
	v-3.8c-2.1,0-3.8-1.4-3.8-3.2s1.7-3.2,3.8-3.2v-3.8c-2.1,0-3.8-1.4-3.8-3.2s1.7-3.2,3.8-3.2v-3.9c-2.1,0-3.8-1.4-3.8-3.2
	s1.7-3.1,3.8-3.1v-4.6h-2.3c-10.4-1-18.5-8.4-18.5-17.4H20.9c0,9-8.1,16.5-18.5,17.4H0V22c2.1,0,3.8,1.4,3.8,3.2S2.1,28.3,0,28.3
	v3.9c2.1,0,3.8,1.4,3.8,3.2S2.1,38.5,0,38.5v3.8c2.1,0,3.8,1.4,3.8,3.2S2.1,48.7,0,48.7v3.8c2.1,0,3.8,1.4,3.8,3.2S2.1,58.9,0,58.9
	v3.8c2.1,0,3.8,1.4,3.8,3.2S2.1,69.1,0,69.1v3.8c2.1,0,3.8,1.4,3.8,3.2S2.1,79.2,0,79.2v3.8c2.1,0,3.8,1.4,3.8,3.2S2.1,89.4,0,89.4
	v3.8c2.1,0,3.8,1.4,3.8,3.2S2.1,99.6,0,99.6v4.6h2.3c10.4,1,18.5,8.4,18.5,17.4h258.3c0-9,8.1-16.4,18.5-17.4H300z"/>
<polygon class="st1" points="235.3,45.5 236.9,50 242.5,50 238,52.7 239.7,57.1 235.3,54.3 230.8,57.1 232.6,52.7 228,50 233.6,50 
	"/>
<polygon class="st1" points="58.8,45.5 60.5,50 66,50 61.5,52.7 63.2,57.1 58.8,54.3 54.3,57.1 56.1,52.7 51.6,50 57.1,50 "/>
<g class="st2">
	<path class="st1" d="M103.6,40.5c0,0.1,0,0.2,0,0.2c0,0.1,0,0.3,0,0.4c0,0.3,0,0.6,0,0.9c0,0.1,0,0.2,0,0.2c0,0.2,0,0.4,0,0.7
		c0,0.2,0,0.4,0,0.7c0,0.4,0,0.7,0,1.2c0,0.3,0,0.8,0,1.2c0,0.2,0,0.4,0,0.6c0,0.2,0,0.3,0,0.4c0,0.3,0,0.4,0,0.7c0,0.4,0,0.5,0,0.6
		c0,0.3,0,0.5,0,1c0,0.5,0.1,0.7,0.1,1.1c0,0.1,0,0.2,0,0.3c0,0.2,0,0.3,0,0.4c0,0.2,0,0.4-0.1,0.5c-0.1,0.1-0.3,0.2-0.4,0.2
		c-0.1,0-0.3,0-0.3-0.2c0-0.1,0-0.1,0-0.3c0-0.4,0.1-0.9,0.1-1.1c0-0.1,0-0.1,0-0.2c0-0.3,0-0.7,0-1.1c0-0.3,0-0.6,0-0.9
		c0-0.1,0-0.2,0-0.3c0,0,0-0.1,0-0.2c0-0.3,0.1-0.7,0.1-0.9c0-0.3,0-0.4,0-0.6c0-0.2,0-0.3,0-0.4c0-0.3-0.1-1.2-0.1-1.7
		c0-1.1,0.1-1.6,0.1-2c0-0.1,0-0.3,0-0.4c0-0.3-0.1-0.5-0.1-0.6c0-0.2,0-0.3,0.1-0.6c0-0.4,0.1-0.4,0.3-0.4
		C103.3,39.5,103.6,40,103.6,40.5z M104.5,39.5c0.1,0,0.4,0.1,0.5,0.1c0.2,0,0.5,0,0.6,0c0.1,0,0.2,0,0.4,0c0.4,0,0.7,0,1.1,0h0.4
		c0.6,0,0.5,0,1.1-0.1c0.6,0,1.3,0.4,1.6,0.4c0.6,0.4,1.5,1,1.5,1.9c0,0.4,0,1-0.2,1.5c-0.2,0.6-0.6,0.9-1,1.2
		c-0.1,0.1-0.3,0.2-0.3,0.3c0,0.1,0.1,0.2,0.3,0.2c1.1,0.5,1.3,0.6,1.8,1.7c0.1,0.3,0.2,0.6,0.2,0.9c0,0.2,0,0.3,0,0.6
		c-0.1,0.7-0.2,0.9-0.4,1.4c-0.2,0.5-0.5,0.8-1,1.2c-0.4,0.3-0.9,0.5-1.3,0.6c-0.1,0-0.2,0-0.4,0c-0.3,0-0.4,0-0.7,0
		c-0.3,0-1.1,0-1.6,0c-0.4,0-1,0.1-1.6,0.1c-0.3,0-0.5,0-0.9,0c-0.2,0-0.1,0-0.2,0c-0.1-0.1-0.2-0.1-0.3-0.1c-0.2,0-0.2-0.1-0.2-0.3
		v-0.4c0-0.1,0.1-0.3,0.1-0.8c0-0.3,0-0.5,0-0.7c0-0.1,0-0.3,0.1-0.5c0-0.5-0.1-0.8-0.1-1.1c0-0.2,0-0.4,0-0.7c0-0.2,0-0.5,0-0.8
		c0-0.1,0-0.3,0-0.4c0-0.1,0-0.2,0-0.3c0-0.2,0-0.5,0-0.6c0-0.2,0.1-0.4,0.1-0.9c0-0.3,0-0.5,0-1c0-0.6,0.1-1.4,0.1-1.7
		c0-0.3-0.1-0.8-0.1-1.2c0-0.1,0-0.2,0-0.3C104.1,39.5,104.1,39.5,104.5,39.5z M108.6,45.5c-0.1,0-0.3,0-0.4,0
		c-0.7,0-0.8,0.3-0.8,0.7c0,0.2,0.2,0.4,0.2,0.4s0.2-0.4,0.4-0.4s0.5,0.2,0.5,0.5c0,0.3-0.3,0.6-0.8,0.6c-0.5,0-1.1-0.4-1.1-1.1
		c0-0.4,0.1-0.7,0.4-0.9c0.1-0.1,0.3-0.3,0.5-0.3c0.3,0,0.5-0.1,0.7-0.1c0.1,0,0.1,0,0.2,0c0,0,0.1,0,0.2,0c0.5,0,0.8-0.4,1-0.4
		c0.3-0.1,0.8-0.7,0.9-0.9c0.1-0.3,0.3-0.3,0.3-0.9c0-0.8,0-1.1-0.1-1.3c-0.1-0.3-0.4-0.7-0.8-0.8c-0.3-0.1-1-0.3-1.8-0.3
		c-0.3,0-0.5,0-0.8,0c0,0-0.1,0-0.2,0c-0.2,0-0.4,0-0.5,0c-0.2,0-0.3,0-0.4,0.1c-0.1,0.1-0.1,0.3-0.1,0.4c0,0.1,0,0.3,0,0.6V44
		c0,0.2-0.1,1.8-0.1,2c0.1,0.4,0.1,0.9,0.1,1.5c0,0.6,0,1,0,1.4c0,0.4,0.1,0.8,0.1,1.3c0,0.3,0,0.5,0,0.6c0,0.1,0,0.2,0.1,0.2
		c0,0,0.1,0,0.1,0c0.3,0,0.8-0.1,1.2-0.1c1,0,1,0,1.1,0c0.4,0,0.9,0,1.6-0.4c0.4-0.2,0.8-0.6,0.9-0.9c0.1-0.3,0.4-0.6,0.4-0.9
		c0,0,0-0.7,0-0.8c-0.1-0.5,0-0.6-0.2-1.1c-0.2-0.5-0.6-0.5-0.8-0.8c-0.2-0.3-1.2-0.4-1.6-0.4L108.6,45.5z"/>
	<path class="st1" d="M114.4,41.1c0,0.1,0,0.1,0,0.2c0,0.1,0,0.2,0,0.4c0,0.4,0.1,0.9,0.1,1.2c0,0.1,0,0.1,0,0.2c0,0.2,0,0.4,0,0.5
		c0,0.2,0,0.4,0,0.7c0,0.4,0,0.6,0,1.1c0,0.3,0,0.7,0,1.1c0,0.2,0,0.4,0,0.6c0,0.1,0,0.3,0,0.4c0,0.2,0,0.4,0,0.6c0,0.1,0,0.1,0,0.2
		c0,0.1,0,0.3,0,0.4c0,0.3,0,0.5,0,0.9c0,0.5,0,0.7,0,1v0.2c0,0.5,0,0.7-0.1,0.8c-0.1,0.1-0.2,0.1-0.4,0.1c-0.1,0-0.3-0.1-0.3-0.2
		c0-0.5,0-1,0.1-1.2c0-0.1,0-0.1,0-0.2c0-0.3,0-0.7,0-1c0-0.3,0.1-0.6,0.1-0.8c0-0.1,0-0.2,0-0.3c0,0,0-0.1,0-0.2
		c0-0.3,0.1-0.6,0.1-0.8c0,0,0-0.1,0-0.1c0-0.2,0-0.3,0-0.5c0-0.1,0-0.3,0-0.4c0-0.3-0.1-1.1-0.1-1.5c0-1,0.1-1.4,0.1-1.8
		c0-0.1,0-0.2,0-0.4c0-0.3,0-0.4,0-0.6c0-0.2,0-0.3,0-0.5c0-0.4,0.1-0.4,0.3-0.4C114.3,40.7,114.4,40.9,114.4,41.1z M119,51.5
		c-0.1,0-0.4,0-0.7,0c-0.3,0-0.6,0-0.9,0c-0.4,0-0.5,0-0.7,0c-0.1,0-0.2,0-0.5,0c-0.4,0-0.6,0.1-0.9,0.1c-0.3,0-0.4-0.1-0.4-0.4
		c0-0.3,0-0.4,0-0.4c0-0.2,0-0.7,0-1.3c0-0.4,0-0.6,0-1c0-0.5,0.1-1.3,0.1-1.7c0-0.4,0-0.7,0-1.1c0-0.3,0-0.8,0-1.3
		c0-0.3,0-0.5,0-0.9v-0.2c0-0.4-0.1-0.9-0.1-1.2v-0.8c0-0.3,0.2-0.4,0.4-0.4c0.1,0,0.3,0,0.4,0c0.1,0,0.2,0,0.6,0
		c0.2,0,0.4-0.1,0.6-0.1c0.2,0,0.4,0.1,0.4,0.6c0,0.1-0.1,0.5-0.1,0.8c0,0.7-0.2,1.1-0.2,1.8s0.1,0.8,0.1,1.4c0,0.6-0.1,0.9-0.1,1.7
		c0,0.3,0,0.6,0,1c0,0.7,0,1.5-0.1,1.7c0,0.1,0,0.1,0,0.2c0,0.3,0,0.5,0.1,0.6c0,0.2,0.3,0.4,0.6,0.5c0.1,0,0.2,0,0.3,0
		c0.2,0,0.5-0.1,0.8-0.1c0.3,0,0.6,0,0.9,0s0.5-0.1,0.9-0.4c0,0,0.1,0,0.2,0c0.1,0,0.2,0,0.3,0.1c0,0,0,0.1,0,0.1
		c0,0.2-0.3,0.3-0.4,0.5c-0.2,0.3-0.4,0.4-0.7,0.4C119.4,51.6,119.2,51.6,119,51.5z"/>
</g>
<g class="st2">
	<path class="st1" d="M128.9,51.6c-0.3,0-0.4,0-0.5,0c-0.1,0-0.1,0-0.2,0c0,0-0.2-0.1-0.2-0.1c-0.2-0.1-0.2-0.5-0.2-0.5
		c0-0.1-0.1-0.3-0.1-0.4c0,0,0-0.1,0-0.1c0-0.1,0-0.1-0.1-0.2c-0.2-0.2-0.2-0.6-0.4-0.8c-0.1-0.2-0.4-0.9-0.5-0.9c-0.1,0-0.6,0-1,0
		c-0.3,0-0.5-0.1-0.7-0.1c-0.1,0-0.2,0-0.3,0c-0.1,0-0.4,0.1-0.5,0.1c-0.4,0-0.7-0.1-0.8-0.1c-0.1,0-0.2,0.1-0.3,0.4
		c-0.1,0.3-0.2,0.6-0.3,0.8c-0.1,0.2-0.2,0.5-0.3,0.8c-0.1,0.1-0.1,0.4-0.1,0.5c0,0,0,0.4-0.1,0.6c0,0.1-0.2,0.1-0.5,0.1
		c-0.1,0-0.1,0-0.2,0h-0.4c-0.1,0-0.1,0-0.1-0.1c0-0.1,0-0.2,0.1-0.3c0-0.2,0.4-0.7,0.4-0.8c0.1-0.2,0.2-0.4,0.4-0.6
		c0.2-0.3,0.4-1,0.4-1.1c0-0.1-0.1-0.3-0.1-0.6c0.1-0.2,0.1-0.2,0.4-0.3c0.3-0.1,0.2-0.6,0.4-0.9c0.2-0.3,0.3-0.9,0.5-1.2
		c0.2-0.3,0.4-0.8,0.5-1.2c0.1-0.3,0.3-0.8,0.5-1.1c0.2-0.4,0.3-0.8,0.4-0.8c0.1,0,0.2,0.3,0.4,0.8c0.1,0.5,0.4,1.1,0.5,1.4
		c0.1,0.3,0.4,0.9,0.5,1.2c0.1,0.3,0.4,1,0.8,1.7c0.4,0.7,0.4,1,0.6,1.3c0.1,0.4,0.3,0.6,0.4,1c0.1,0.4,0.4,0.7,0.5,0.9
		s0.3,0.4,0.3,0.6C129.1,51.6,129,51.6,128.9,51.6z M124.5,45.3c0,0.2-0.3,0.8-0.4,1.1c-0.2,0.2-0.2,0.5-0.3,0.7
		c0,0.1-0.2,0.6-0.2,0.7c0,0,0,0,0.1,0c0.1,0,0.2,0,0.4,0c0.2,0,0.4,0,0.6,0c0,0,0.1,0,0.1,0c0,0,0.2,0.1,0.4,0.1c0.1,0,1.3,0,1.3,0
		c0,0-0.1-0.3-0.2-0.6c-0.1-0.3-0.3-0.6-0.4-0.9c-0.1-0.4-0.3-0.6-0.4-1c-0.1-0.4-0.2-0.6-0.3-0.8c0-0.1-0.2-0.5-0.2-0.5
		c0,0-0.1,0.4-0.1,0.4C124.8,44.6,124.6,45,124.5,45.3z M130.6,51.5c-0.2,0-0.6,0.1-0.8,0.1c-0.3,0-0.3-0.1-0.4-0.2
		c-0.2-0.3-0.3-0.3-0.4-0.8c-0.1-0.5-0.3-0.5-0.5-1c-0.2-0.5-0.5-1-0.7-1.3c-0.1-0.3-0.2-0.4-0.4-0.9c-0.1-0.5-0.3-0.4-0.4-0.9
		c-0.1-0.4-0.3-0.6-0.4-1c-0.2-0.4-0.4-1-0.5-1.4c-0.2-0.3-0.2-0.5-0.4-1c-0.2-0.6-0.4-0.8-0.4-1c0-0.1,0.1-0.4,0.3-0.8
		c0.2-0.4,0.4-0.8,0.6-0.8c0.2,0,0.4,0.2,0.5,0.5c0.1,0.2,0.8,1.2,0.8,1.6c0.1,0.3,0.4,1,0.6,1.4c0.2,0.4,0.6,1.3,0.7,1.7
		c0.1,0.4,0.5,0.8,0.6,1.2c0.1,0.4,0.4,0.8,0.6,1.4c0.2,0.6,0.2,0.4,0.3,0.7c0.1,0.3,0.3,0.6,0.5,0.9c0.1,0.3,0.3,0.7,0.4,0.8
		c0,0.2,0.4,0.5,0.4,0.8c0,0.1-0.1,0.2-0.3,0.2c-0.1,0-0.2,0-0.3,0C131,51.5,130.7,51.5,130.6,51.5z"/>
</g>
<g class="st2">
	<path class="st1" d="M132.4,49.5c-0.3,0-0.7-1.1-0.8-1.6c-0.1-0.4-0.1-0.7-0.1-1c0-0.2,0-0.4,0-0.6c0-0.1,0-0.3,0-0.4
		c0-0.3,0-0.5,0.2-0.9c0.2-0.6,0.3-1.3,0.4-1.3c0.1,0,0.2,0.1,0.2,0.2s0,0.4,0,0.7c0,0.4,0,0.7,0,0.9c0,0.3,0,0.5,0,0.7
		c0,0.2,0,0.4,0,0.7c0,0.5,0.1,0.6,0.1,1.1c0,0.4,0.1,0.5,0.1,0.8V49C132.3,49.2,132.4,49.3,132.4,49.5z M133,49.7
		c0.1,0.3,0.9,1,1.2,1.2c0.5,0.2,0.9,0.3,1.4,0.4c0.5,0,0.7,0.3,1.1,0.3c0.4,0,0.9,0,1.2,0c0.2,0,0.3,0,0.4,0
		c0.3-0.1,1.1-0.3,1.5-0.4c0.4-0.2,0.9-0.5,1.2-0.7c0.1-0.1,0.2-0.2,0.2-0.5c0-0.2-0.1-0.8-0.4-0.8c-0.1,0-0.3,0.2-0.4,0.3
		c-0.2,0.3-0.4,0.4-0.5,0.6c-0.2,0.3-0.5,0.4-0.9,0.6c-0.4,0.2-0.7,0.3-1.2,0.3c-0.4,0-1-0.1-1.5-0.2c-0.4-0.1-0.8-0.4-1-0.7
		c-0.1-0.3-0.4-0.7-0.4-1.4c0-0.7,0-1-0.1-1.6c0-0.1,0-0.2,0-0.3c0-0.4,0.1-0.8,0.1-1.1c0-0.6-0.1-1.1-0.1-1.5
		c0-0.4,0.1-0.7,0.1-1.2c0-0.6,0.3-0.8,0.5-1.2c0.2-0.3,0.5-0.3,0.7-0.5c0.2-0.2,0.7-0.2,1-0.2c0.2,0,0.3,0,0.4,0
		c0.3,0,0.5,0,0.9,0.1c0.5,0.2,0.5,0.1,0.9,0.3c0.3,0.1,0.3,0.4,0.6,0.7c0.3,0.3,0.2,0.4,0.4,0.4c0.2,0,0.5-0.4,0.6-0.7c0,0,0,0,0,0
		c0-0.2-0.4-0.6-0.8-0.8c-0.3-0.2-0.4-0.2-0.7-0.4c-0.2-0.1-0.4-0.1-0.6-0.1s-0.4,0-0.6,0c-0.2,0-0.5-0.1-0.7-0.1
		c-0.4,0-0.8,0.1-1.1,0.1c-0.5,0.1-1.3,0.4-1.8,0.7c-0.4,0.3-0.7,0.6-1.1,0.9c-0.4,0.4-0.7,0.8-0.8,1.1c0,0.1,0,0.3,0,0.5
		c0,0.5,0.1,1,0.1,1.5c0,0.8-0.1,1-0.1,1.2c0,0.2,0,0.3,0,0.4c0,0.1,0,0.3,0,0.4c0,0.1,0,0.2,0,0.4c0.1,0.5,0.1,0.6,0.2,1.1
		c0,0.1,0,0.2,0,0.5C132.9,49.5,132.9,49.6,133,49.7z"/>
	<path class="st1" d="M142.9,41.1c0,0.1,0,0.1,0,0.2c0,0.1,0,0.2,0,0.3c0,0.5,0.1,1.1,0.1,1.4c0,0.1,0,0.1,0,0.1c0,0.2,0,0.4,0,0.5
		c0,0.2,0,0.4,0,0.7c0,0.4,0,0.6,0,1.1c0,0.3,0,0.7,0,1.1c0,0.2,0,0.4,0,0.6c0,0.1,0,0.3,0,0.4c0,0.2,0,0.4,0,0.6c0,0.1,0,0.1,0,0.2
		c0,0.1,0,0.3,0,0.4c0,0.3,0,0.5,0,0.9c0,0.5,0,0.7,0,1v0.2c0,0.5,0,0.7-0.1,0.8c-0.1,0.1-0.2,0.1-0.4,0.1c-0.1,0-0.3-0.1-0.3-0.2
		v-0.2c0-0.4,0-0.9,0.1-1.1c0-0.1,0-0.1,0-0.2c0-0.3,0-0.7,0-1c0-0.3,0.1-0.6,0.1-0.8c0-0.1,0-0.2,0-0.3c0,0,0-0.1,0-0.2
		c0-0.3,0.1-0.6,0.1-0.8c0,0,0-0.1,0-0.1c0-0.2,0-0.3,0-0.5c0-0.1,0-0.3,0-0.4c0-0.3-0.1-1.1-0.1-1.5c0-1,0.1-1.4,0.1-1.8
		c0-0.1,0-0.2,0-0.4c0-0.3,0-0.4,0-0.6c0-0.2,0-0.3,0-0.5c0-0.4,0.1-0.4,0.3-0.4C142.7,40.7,142.9,40.8,142.9,41.1z M150.2,41.9
		c-0.1,0.1-0.2,0.1-0.4,0.5c-0.2,0.4-1.1,1.4-1.3,1.7c-0.3,0.3-0.7,0.8-0.8,1c0,0,0,0,0,0c0,0.2,0.3,0.3,0.5,0.6
		c0.2,0.3,0.5,0.7,0.8,0.9c0.3,0.3,0.7,0.9,0.8,1.3c0.2,0.3,0.4,0.6,0.8,1.1c0.4,0.5,0.8,0.8,1.1,1.1c0.3,0.3,0.2,0.4,0.5,0.5
		c0,0,0.6,0.3,0.6,0.6c0,0.1,0,0.1-0.1,0.2c-0.1,0.1-0.3,0.1-0.4,0.1c-0.4,0-0.8-0.1-1-0.1c-0.4,0-0.5,0-1.1,0.1c0,0-0.1,0-0.1,0
		c-0.2,0-0.4-0.3-0.6-0.7c0-0.1-0.1-0.2-0.4-0.4c-0.1-0.2-0.1-0.2-0.1-0.3c0,0,0-0.1-0.1-0.2c-0.1-0.3-0.5-0.5-0.7-0.8
		c-0.2-0.3-0.2-0.6-0.6-0.9c-0.4-0.3-0.8-1-1-1.3c-0.2-0.3-0.3-0.4-0.4-0.4c0,0,0,0-0.1,0c-0.1,0.2-0.5,0.5-0.7,0.9
		c-0.1,0.2-0.2,0.3-0.2,0.4c0,0.1,0,0.2,0,0.4c0,0.2,0,0.4,0,0.6v0.8c0,0.8,0.1,1,0.2,1.4V51c0,0.2,0,0.5-0.3,0.5
		c-0.1,0-0.1,0-0.2,0c-0.1,0-0.2,0-0.4,0c-0.1,0-0.2,0-0.3,0c-0.2,0-0.4,0.1-0.6,0.1c-0.2,0-0.2-0.1-0.2-0.4c0,0,0-0.1,0-0.2
		c0-0.1,0-0.9,0.1-1.4c0-0.5,0-1.1,0-1.7c0-0.2,0-0.4,0-0.5c0-0.4,0-0.8,0-1.3c0-0.4,0-0.6,0-0.9c0-0.2,0-0.4,0-0.6
		c0-0.4,0-1.9-0.1-2.2c-0.1-0.3-0.1-0.8-0.1-1.2c0-0.3,0.1-0.3,0.4-0.3c0.2,0,0.1,0,0.6,0c0.3,0,0.4,0,0.8,0c0.2,0,0.2,0.2,0.2,0.4
		c0,0.1,0,0.2,0,0.3c0,0.1-0.1,0.6-0.1,0.7c0,0.3,0,0.3,0,0.6v2c0,0.4,0,0.7-0.1,1c0,0,0,0.1,0,0.2c0,0.2,0,0.5,0.2,0.6
		c0,0,0,0,0.1,0c0.1,0,0.2-0.1,0.3-0.2c0.2-0.2,0.4-0.4,0.7-0.8c0.3-0.4,0.6-0.6,0.9-1.1c0.3-0.4,0.7-0.9,1-1.2
		c0.4-0.5,0.7-1,0.8-1.3c0.6-0.9,0.9-1.2,1.2-1.2c0.1,0,0.1,0,0.2,0c0.3,0,0.4,0.1,0.4,0.2C150.9,41.1,150.4,41.8,150.2,41.9z"/>
	<path class="st1" d="M153.9,42.1C153.9,42.1,154,42.1,153.9,42.1c0.1,0.1,0.1,0.1,0.1,0.1c0,0.1,0,0.3-0.1,0.6c0,0.2,0,0.3,0,0.5
		c0,0.2,0,0.4,0,0.4c0,0.1,0,0.1,0.3,0.5c0.3,0.4,0.6,0.6,1.2,1c0.5,0.3,0.7,0.6,1,0.8c0.3,0.3,0.6,0.5,0.7,0.5c0,0,0.1,0.2,0.4,0.4
		c0.3,0.2,0.6,0.4,0.8,0.8c0.3,0.4,0.3,0.5,0.3,1c0,0.3,0,0.4,0,0.5c0,0.3,0,0.4-0.2,0.7c-0.2,0.4-0.3,0.6-0.5,0.8
		c-0.4,0.4-0.7,0.6-0.8,0.6c-0.2,0-0.5,0.2-0.8,0.2c-0.3,0-0.6,0-0.7,0c-0.2,0-1.2-0.3-1.6-0.7c-0.3-0.2-0.8-0.6-0.8-1
		c0-0.3,0.5-0.8,0.7-0.8c0.3,0,0.3,0.1,0.4,0.5c0,0.1,0.3,0.5,0.4,0.7c0.3,0.4,0.7,0.6,1.5,0.6c0.1,0,0.3,0,0.4,0
		c0.5,0,1-0.3,1.2-0.8c0.1-0.3,0.2-0.4,0.2-0.6c0-0.1,0.1-0.4,0.1-0.6c-0.1-0.5-0.3-0.6-0.6-1.1c-0.3-0.5-0.6-0.7-1-0.9
		c-0.5-0.3-0.7-0.5-0.9-0.8c-0.2-0.3-0.7-0.4-1.1-0.8c-0.4-0.2-0.8-0.7-0.9-1c-0.1-0.3-0.2-0.7-0.2-1c0,0,0-0.1,0-0.1
		C153.5,42.6,153.7,42.1,153.9,42.1z M159,49.4V49c0-0.5-0.2-0.8-0.4-1.2c-0.1-0.5-0.5-0.8-0.7-0.9c-0.2-0.1-0.4-0.4-0.7-0.7
		c-0.3-0.3-0.4-0.5-0.7-0.7c-0.3-0.2-0.5-0.3-0.8-0.5s-0.3-0.1-0.7-0.6c-0.4-0.4-0.7-0.7-0.7-1.2c0-0.5,0-0.8,0.3-1.3
		c0.2-0.3,0.4-0.6,0.8-0.8c0.4-0.2,1-0.4,1.7-0.4c0.3,0,1.6,0,1.9,0.2c0.2,0.2,0.9,0.3,1,0.6c0.1,0.2,0.3,0.3,0.3,0.4
		c0,0,0,0.1,0,0.1c0,0.2-0.5,0.5-0.7,0.5c-0.2,0-0.3-0.1-0.4-0.2c0-0.1-0.5-0.8-0.9-0.9c-0.2-0.1-0.5-0.2-0.7-0.2
		c-0.1,0-0.6,0.2-0.7,0.2c-0.3,0.2-0.6,0.2-0.6,0.8c0,0.6,0,1.1,0.4,1.4c0.2,0.3,0.8,0.8,1.1,0.9c0.4,0.2,0.9,0.8,1.2,0.9
		c0.2,0.1,0.4,0.4,0.7,0.7c0.4,0.4,0.8,1,0.8,1.6c0,0.5-0.1,0.5-0.1,1c0,0.3-0.5,1.4-0.8,1.6c-0.4,0.3-0.4,0.5-0.7,0.7
		c-0.2,0.2-0.7,0.4-1.1,0.5c0,0-0.1,0-0.1,0c-0.1,0-0.2,0-0.2-0.1c0-0.1,0.1-0.1,0.2-0.2c0.3-0.2,0.6-0.5,0.9-1
		C158.9,49.8,159,49.6,159,49.4z"/>
</g>
<g class="st2">
	<path class="st1" d="M164,40.8c0.2,0,0.3,0.1,0.3,0.4c0,0.3,0,0.6,0,1c0,0.3-0.1,0.6-0.1,1c0,0.1,0,0.2,0,0.3c0,0.3,0,0.5,0,0.7
		c0,0.3,0,0.5,0,0.7c0,0.1,0,0.3,0,0.4c0,0.3,0,0.6,0,1.1c0,0.3,0,0.5,0,0.7c0,0.1,0,0.3,0.1,0.4c0,0.1,0,0.2,0,0.3
		c0,0.3-0.1,0.7-0.1,1c0,0.4,0,1.2,0,1.7c0,0.1,0,0.2,0,0.3c0,0.1,0,0.2,0,0.3c0,0.2,0,0.3,0,0.4c0,0.1-0.3,0.2-0.5,0.2
		c-0.2,0-0.3,0-0.3-0.2c0-0.3,0-1.3,0.1-1.8c0-0.2,0-0.4,0-1.4c0-0.5,0-1.2,0-1.8c0-0.2,0-0.4,0-0.8c0-0.4,0-0.7,0-1.3
		c0-0.2,0-0.4,0-0.6c0-0.1,0-0.2,0-0.3c0-0.2,0-0.5,0-0.7c0-0.3,0-0.5,0-0.6c-0.1-0.2,0-0.5-0.4-0.5c-0.2,0-0.5,0.1-0.9,0.1
		c-0.3,0-0.6,0.1-0.7,0.1c0,0-0.1,0-0.2,0h-0.3c-0.1,0-0.2,0-0.2-0.2c0-0.1,0-0.3,0.2-0.5c0.1-0.2,0.2-0.4,0.4-0.4c0,0,0,0,0.1,0
		c0.1,0,0.6,0.2,0.9,0.2c0.2,0,0.4,0,0.6,0c0.1,0,0.1,0,0.2,0C163.5,40.8,163.7,40.8,164,40.8z M164.7,49.5v-1.8c0-0.4,0-0.8,0-1.2
		c0-0.1,0-0.2,0-0.3c0-0.4,0-0.6,0.1-1c0,0,0-0.1,0-0.1c0-0.3-0.2-0.6-0.2-0.8c0-0.1,0-0.1,0-0.2c0-0.2,0-0.5,0-0.8
		c0-0.4,0.1-0.7,0.1-1.2c0-0.1,0-0.2,0-0.3c0-0.1,0-0.1,0-0.4c0-0.5,0-0.5,0.3-0.5c0.4,0,1.1-0.1,1.7-0.1c0.6,0,0.8,0,1.1,0.1
		c0,0,0.1,0,0.2,0c0.3,0,0.4-0.2,0.9-0.2c0.4,0,0.4,0,0.5,0.3c0,0.3-0.2,0.8-0.4,0.8c-0.3,0-0.5-0.2-1-0.3c-0.3,0-0.6-0.1-0.8-0.1
		c-0.1,0-0.2,0-0.3,0c-0.2,0-0.3,0.2-0.3,0.6c0,0.1,0,0.2,0,0.2v1.5c0,0.2,0,0.4,0,0.6c0,0.6,0,1.6,0,2.3s0.1,1.4,0.2,2
		c0,0.2,0,0.4,0,0.5c0,0.3-0.1,0.5-0.1,0.8c0,0.6,0.2,0.7,0.3,1c0,0,0,0.1,0,0.1c0,0.2-0.1,0.3-0.3,0.3c-0.1,0-0.2,0-0.2,0h-0.1
		c-0.2,0-0.4,0-0.6,0c-0.1,0-0.3,0.1-0.4,0.1c-0.2,0-0.4,0.1-0.5,0.1c-0.1,0-0.3-0.1-0.3-0.3C164.7,50.8,164.7,49.5,164.7,49.5z"/>
</g>
<g class="st2">
	<path class="st1" d="M176,51.6c-0.3,0-0.4,0-0.5,0c-0.1,0-0.1,0-0.2,0c0,0-0.2-0.1-0.2-0.1c-0.2-0.1-0.2-0.5-0.2-0.5
		c0-0.1-0.1-0.3-0.1-0.4c0,0,0-0.1,0-0.1c0-0.1,0-0.1-0.1-0.2c-0.2-0.2-0.2-0.6-0.4-0.8c-0.1-0.2-0.4-0.9-0.5-0.9c-0.1,0-0.6,0-1,0
		c-0.3,0-0.5-0.1-0.7-0.1c-0.1,0-0.2,0-0.3,0c-0.1,0-0.4,0.1-0.5,0.1c-0.4,0-0.7-0.1-0.8-0.1c-0.1,0-0.2,0.1-0.3,0.4
		c-0.1,0.3-0.2,0.6-0.3,0.8c-0.1,0.2-0.2,0.5-0.3,0.8c-0.1,0.1-0.1,0.4-0.1,0.5c0,0,0,0.4-0.1,0.6c0,0.1-0.2,0.1-0.5,0.1
		c-0.1,0-0.1,0-0.2,0h-0.4c-0.1,0-0.1,0-0.1-0.1c0-0.1,0-0.2,0.1-0.3c0-0.2,0.4-0.7,0.4-0.8c0.1-0.2,0.2-0.4,0.4-0.6
		c0.2-0.3,0.4-1,0.4-1.1c0-0.1-0.1-0.3-0.1-0.6c0.1-0.2,0.1-0.2,0.4-0.3c0.3-0.1,0.2-0.6,0.4-0.9c0.2-0.3,0.3-0.9,0.5-1.2
		c0.2-0.3,0.4-0.8,0.5-1.2c0.1-0.3,0.3-0.8,0.5-1.1c0.2-0.4,0.3-0.8,0.4-0.8c0.1,0,0.2,0.3,0.4,0.8c0.1,0.5,0.4,1.1,0.5,1.4
		c0.1,0.3,0.4,0.9,0.5,1.2c0.1,0.3,0.4,1,0.8,1.7c0.4,0.7,0.4,1,0.6,1.3c0.1,0.4,0.3,0.6,0.4,1c0.1,0.4,0.4,0.7,0.5,0.9
		c0.1,0.2,0.3,0.4,0.3,0.6C176.1,51.6,176.1,51.6,176,51.6z M171.6,45.3c0,0.2-0.3,0.8-0.4,1.1c-0.2,0.2-0.2,0.5-0.3,0.7
		c0,0.1-0.2,0.6-0.2,0.7c0,0,0,0,0.1,0c0.1,0,0.2,0,0.4,0c0.2,0,0.4,0,0.6,0c0,0,0.1,0,0.1,0c0,0,0.2,0.1,0.4,0.1c0.1,0,1.3,0,1.3,0
		c0,0-0.1-0.3-0.2-0.6c-0.1-0.3-0.3-0.6-0.4-0.9c-0.1-0.4-0.3-0.6-0.4-1c-0.1-0.4-0.2-0.6-0.3-0.8c0-0.1-0.2-0.5-0.2-0.5
		c0,0-0.1,0.4-0.1,0.4C171.9,44.6,171.7,45,171.6,45.3z M177.7,51.5c-0.2,0-0.6,0.1-0.8,0.1c-0.3,0-0.3-0.1-0.4-0.2
		c-0.2-0.3-0.3-0.3-0.4-0.8c-0.1-0.5-0.3-0.5-0.5-1c-0.2-0.5-0.5-1-0.7-1.3c-0.1-0.3-0.2-0.4-0.4-0.9c-0.1-0.5-0.3-0.4-0.4-0.9
		c-0.1-0.4-0.3-0.6-0.4-1c-0.2-0.4-0.4-1-0.5-1.4c-0.2-0.3-0.2-0.5-0.4-1c-0.2-0.6-0.4-0.8-0.4-1c0-0.1,0.1-0.4,0.3-0.8
		c0.2-0.4,0.4-0.8,0.6-0.8c0.2,0,0.4,0.2,0.5,0.5c0.1,0.2,0.8,1.2,0.8,1.6c0.1,0.3,0.4,1,0.6,1.4c0.2,0.4,0.6,1.3,0.7,1.7
		c0.1,0.4,0.5,0.8,0.6,1.2c0.1,0.4,0.4,0.8,0.6,1.4c0.2,0.6,0.2,0.4,0.3,0.7c0.1,0.3,0.3,0.6,0.5,0.9c0.1,0.3,0.3,0.7,0.4,0.8
		c0,0.2,0.4,0.5,0.4,0.8c0,0.1-0.1,0.2-0.3,0.2c-0.1,0-0.2,0-0.3,0C178.1,51.5,177.8,51.5,177.7,51.5z"/>
	<path class="st1" d="M179.9,40.7c0.2,0,0.4,0.4,0.4,0.8c0,0.1,0,0.2,0,0.2c0,0.1,0,0.3,0,0.4c0,0.3,0.1,0.6,0.1,0.8
		c0,0.1,0,0.1,0,0.2c0,0.2,0,0.4,0,0.5c0,0.2,0,0.4,0,0.7c0,0.4,0,0.6,0,1.1c0,0.3,0,0.7,0,1.1c0,0.2,0,0.4,0,0.6c0,0.1,0,0.3,0,0.4
		c0,0.2,0,0.4,0,0.6c0,0.1,0,0.1,0,0.2c0,0.1,0,0.3,0,0.4c0,0.3,0,0.5,0,0.9c0,0.5,0,0.7,0,1v0.2c0,0.5,0,0.7-0.1,0.8
		c-0.1,0.1-0.2,0.1-0.4,0.1c-0.1,0-0.3-0.1-0.3-0.2c0-0.5,0-1,0.1-1.2c0-0.1,0-0.1,0-0.2c0-0.3,0-0.7,0-1c0-0.3,0.1-0.6,0.1-0.8
		c0-0.1,0-0.2,0-0.3c0,0,0-0.1,0-0.2c0-0.3,0.1-0.6,0.1-0.8c0,0,0-0.1,0-0.1c0-0.2,0-0.3,0-0.5c0-0.1,0-0.3,0-0.4
		c0-0.3-0.1-1.1-0.1-1.5c0-1,0.1-1.4,0.1-1.8c0-0.1,0-0.2,0-0.4c0-0.3,0-0.4,0-0.6c0-0.2,0-0.3,0-0.5
		C179.6,40.8,179.7,40.7,179.9,40.7z M189.2,51.3c0-0.3-0.3-0.4-0.4-0.6c-0.3-0.3-0.5-0.4-0.6-0.8c0-0.3-0.3-1.2-0.4-1.6
		c-0.1-0.4-0.1-0.6-0.3-0.8c-0.1-0.2-0.5-0.5-0.6-0.7c-0.5-0.6-0.5-0.6-0.7-0.6c0,0,0.4-0.3,0.7-0.4c0.3-0.1,0.6-0.6,0.9-0.9
		c0.2-0.4,0.4-1,0.4-1.3c0-0.4,0-1.2-0.2-1.5c-0.2-0.3-0.5-0.8-0.9-1c-0.4-0.1-1-0.4-1.7-0.4h-1.5c-0.1,0-0.2,0-0.4,0
		c-0.5,0-1.1,0.1-1.5,0.1c-0.1,0-0.3,0-0.4,0c-0.2,0-0.3,0-0.4,0c-0.1,0-0.2,0-0.4,0.1c-0.1,0.1-0.1,0.4-0.1,0.7
		c0,0.6,0.1,1.4,0.1,1.7c0,0.1,0,0.2,0,0.3c0,0.3,0,0.6,0,0.9c0,0.2,0,0.4,0,0.6c0,0.4,0,0.6,0,0.9c0,0.4,0,0.9,0,1.5
		c0,0.3,0,0.6,0,1c0,0.7,0,1.5,0,1.7c0,0.2,0,0.2,0,0.3c0,0.2-0.1,0.4-0.1,0.9c0,0.2,0.4,0.3,0.9,0.3c0.1,0,0.2,0,0.3,0
		c0.3,0,0.7,0,0.9-0.1c0.2,0,0.3-0.2,0.3-0.4c0-0.2,0-0.3-0.1-0.5c0-0.1,0-0.3,0-0.5v-0.6c0-0.5,0-0.7,0-1.2c0-0.4-0.1-0.6-0.1-0.8
		c0-0.1,0-0.2,0-0.2c0.2-0.3,0.4-0.4,0.6-0.4c0.3,0,0.3,0,0.5,0c0.1,0,0.5,0,0.6,0.1c0.4,0.2,0.5,0.3,0.7,0.8
		c0.2,0.4,0.5,0.6,0.7,1.5c0,0.2,0.3,1.2,0.4,1.4c0,0.3,0.3,0.8,0.5,0.9c0.1,0,0.2,0,0.3,0c0.3,0,0.7-0.1,0.9-0.1c0.3,0,0.4,0,0.7,0
		c0.1,0,0.2,0,0.3,0C189.1,51.6,189.2,51.5,189.2,51.3z M182.8,41.5c0-0.2,0.6-0.1,1.1-0.2c0.6,0,2,0,2.4,0.2
		c0.4,0.2,0.6,0.4,0.8,0.9c0,0.2,0.1,0.5,0.1,0.8c0,0.1,0,0.3,0,0.4c0,0.3-0.2,0.9-0.5,1.3c-0.3,0.4-1,0.6-1.4,0.9
		c-0.3,0.2-1,0.2-1.3,0.3c-0.1,0-0.2,0-0.4,0c-0.2,0-0.4,0-0.5,0c-0.1,0-0.2,0-0.2,0v-0.3c0-0.3,0-0.9,0-1.2c0,0,0-0.1,0-0.2
		c0-0.5-0.1-1.3-0.1-1.9c0-0.2,0-0.3,0-0.4C182.8,41.8,182.8,41.6,182.8,41.5z"/>
</g>
<g class="st2">
	<path class="st1" d="M96.6,60.4c0,0,0,0.1,0,0.1c0,0.1,0,0.3,0,0.4c0,0.4,0.1,1,0.1,1.3c0,0.1,0,0.1,0,0.2c0,0.2,0,0.4,0,0.5
		c0,0.2,0,0.4,0,0.7c0,0.4,0,0.6,0,1.1c0,0.3,0,0.7,0,1.1c0,0.2,0,0.4,0,0.6c0,0.1,0,0.3,0,0.4c0,0.2,0,0.4,0,0.6c0,0.1,0,0.1,0,0.2
		c0,0.1,0,0.3,0,0.4c0,0.3,0,0.5,0,0.9c0,0.5,0,0.7,0,1v0.2c0,0.5,0,0.7-0.1,0.8c-0.1,0.1-0.2,0.1-0.4,0.1c-0.1,0-0.3-0.1-0.3-0.2
		c0-0.5,0-1,0.1-1.2c0-0.1,0-0.1,0-0.2c0-0.3,0-0.7,0-1c0-0.3,0.1-0.6,0.1-0.8c0-0.2,0-0.3,0-0.4c0-0.3,0.1-0.6,0.1-0.8
		c0,0,0-0.1,0-0.1c0-0.2,0-0.3,0-0.5c0-0.1,0-0.3,0-0.4c0-0.3-0.1-1.1-0.1-1.5c0-1,0.1-1.4,0.1-1.8c0-0.1,0-0.2,0-0.4
		c0-0.3,0-0.4,0-0.6c0-0.2,0-0.3,0-0.5c0-0.4,0.1-0.4,0.3-0.4C96.5,59.9,96.6,60.1,96.6,60.4z M99.4,60.4c-0.2,0-0.2,0.2-0.3,0.4
		c0,0.1,0,0.3,0,0.5c0,0.1,0,0.4,0,0.6c0,0.2,0,0.4,0,0.6c0,0.3,0,0.7,0,1c0,0.1,0,0.2,0,0.4c0,0.4,0,0.6,0.2,0.7c0,0,0.1,0,0.2,0
		c0.1,0,0.4,0,0.6,0c0.3,0,0.5-0.1,0.8-0.1c0.2,0,0.3,0,0.4,0c0.1,0,0.2,0,0.4,0c0,0,0.1,0,0.1,0c0.1,0,0.2,0.1,0.2,0.2
		c0,0,0,0.1,0,0.1c-0.1,0.3-0.1,0.4-0.2,0.6c0,0-0.1,0-0.1,0c-0.2,0-0.5-0.1-0.7-0.1c-0.3,0-0.6-0.1-0.9-0.1h-0.1
		c-0.2,0-0.5,0-0.6,0c0,0-0.1,0.1-0.1,0.3c0,0.1,0,0.3,0,0.5c0,0.4,0,0.8,0,1.4c0,0.6,0,0.7,0,1.2s0.2,1.2,0.2,1.5
		c0,0.1,0,0.2,0,0.3c0,0.2,0,0.3-0.2,0.3c-0.2,0-0.3,0-0.5,0c-0.3,0-0.3,0.1-0.6,0.1c-0.2,0-0.4,0.1-0.7,0.1c-0.2,0-0.3-0.1-0.3-0.3
		c0-0.3,0-0.5,0-0.9c0-0.4,0-1.2,0.1-1.7c0-0.3,0-0.5,0-0.7c0-0.9,0-1.2,0-1.6c0-0.5-0.1-0.8-0.1-1.2c0-0.2,0-0.4,0-0.6
		c0-0.1,0-0.2,0-0.2c0-0.1,0-0.2,0-0.4c0-0.3-0.1-0.7-0.1-0.9c0-0.2,0-0.3,0-0.4c0-0.4,0-0.9,0-1c0-0.3-0.1-0.5-0.1-0.7
		c0,0,0-0.1,0-0.1c0-0.1,0.3-0.1,0.4-0.1c0.2,0,0.3,0,0.4,0c0.2,0,0.2,0,0.5,0c0.1,0,0.2,0,0.3,0c0.4,0,1,0.1,1.4,0.1
		c0.4,0,1.2,0,1.6,0c0.1,0,0.2,0,0.3,0c0.1,0,0.2,0,0.3,0c0,0,0.2,0,0.6,0c0.2,0,0.5,0,0.5,0.1c0,0,0,0,0,0.1c0,0,0,0.1-0.1,0.3
		c-0.1,0.3,0,0.4-0.1,0.5c-0.1,0.1-0.2,0.1-0.3,0.1c-0.1,0-0.1,0-0.2,0c-0.3-0.1-0.4-0.2-0.6-0.2c-0.4-0.1-0.7-0.2-0.9-0.2
		c-0.2,0-0.4,0-0.4,0C100.4,60.6,99.7,60.6,99.4,60.4z"/>
	<path class="st1" d="M104.5,59.9c0.3,0,0.4,0.2,0.4,0.4c0,0,0,0.1,0,0.1c0,0.1,0,0.3,0,0.4c0,0.4,0.1,1,0.1,1.3c0,0.1,0,0.1,0,0.2
		c0,0.2,0,0.4,0,0.5c0,0.2,0,0.4,0,0.7c0,0.4,0,0.6,0,1.1c0,0.3,0,0.7,0,1.1c0,0.2,0,0.4,0,0.6c0,0.1,0,0.3,0,0.4c0,0.2,0,0.4,0,0.6
		c0,0.2,0,0.4,0,0.6c0,0.3,0,0.5,0,0.9c0,0.5,0,0.7,0,1v0.2c0,0.5,0,0.7-0.1,0.8c-0.1,0.1-0.2,0.1-0.4,0.1c-0.1,0-0.3-0.1-0.3-0.4
		c0-0.4,0-0.9,0.1-1.1c0-0.1,0-0.1,0-0.2c0-0.3,0-0.7,0-1c0-0.3,0.1-0.6,0.1-0.8c0-0.2,0-0.3,0-0.4c0-0.3,0.1-0.6,0.1-0.8
		c0,0,0-0.1,0-0.1c0-0.2,0-0.3,0-0.5c0-0.1,0-0.3,0-0.4c0-0.3-0.1-1.1-0.1-1.5c0-1,0.1-1.4,0.1-1.8c0-0.1,0-0.2,0-0.4
		c0-0.3,0-0.4,0-0.6c0-0.2,0-0.3,0-0.5C104.2,60,104.3,59.9,104.5,59.9z M107.7,70.1c0-0.1-0.1-0.5-0.1-0.7c0-0.4,0-0.6,0-1
		c0-0.2,0-0.4,0-0.6c0-0.6-0.2-1.3-0.2-2c0-0.5,0.1-0.6,0.1-0.9c0,0,0-0.1,0-0.1c0-0.3-0.2-1-0.2-1.4c0-0.3,0.1-0.8,0.1-1.2
		c0-0.2,0-0.4,0-0.6c0-0.5,0.1-0.9,0.1-1.1c0-0.3-0.1-0.4-0.4-0.4c-0.5,0-0.9-0.1-1.3-0.1c-0.6,0-0.7,0.2-0.7,0.5c0,0.1,0,0.3,0,0.5
		c0,0.3,0.2,1.6,0.2,2.1c0,0.4,0,1.1,0,2.4c0,0.4,0,0.8,0,1.2c0,0.1,0,0.2,0,0.4c0,0.3,0,0.6,0,0.8v0.8c0,0.2,0,0.4,0,0.6
		c0,0.2-0.1,0.5-0.1,0.7c0,0.2,0,0.3,0,0.4c0,0.3,0.1,0.5,0.4,0.5c0.4,0,0.7-0.1,1-0.1c0.1,0,0.4,0,0.6,0.1
		C107.3,70.7,107.7,70.7,107.7,70.1z"/>
	<path class="st1" d="M109.8,60.3c0,0.1,0,0.1,0,0.2c0,0.1,0,0.2,0,0.4c0,0.4,0.1,0.9,0.1,1.2c0,0.1,0,0.1,0,0.2c0,0.2,0,0.4,0,0.5
		c0,0.2,0,0.4,0,0.7c0,0.4,0,0.6,0,1.1c0,0.3,0,0.7,0,1.1c0,0.2,0,0.4,0,0.6c0,0.1,0,0.3,0,0.4c0,0.2,0,0.4,0,0.6c0,0.1,0,0.1,0,0.2
		c0,0.1,0,0.3,0,0.4c0,0.3,0,0.5,0,0.9c0,0.5,0,0.7,0,1v0.2c0,0.5,0,0.7-0.1,0.8c-0.1,0.1-0.2,0.1-0.4,0.1c-0.1,0-0.3-0.1-0.3-0.2
		c0-0.5,0-1,0.1-1.2c0-0.1,0-0.1,0-0.2c0-0.3,0-0.7,0-1c0-0.3,0.1-0.6,0.1-0.8c0-0.1,0-0.2,0-0.3c0,0,0-0.1,0-0.2
		c0-0.3,0.1-0.6,0.1-0.8c0,0,0-0.1,0-0.1c0-0.2,0-0.3,0-0.5c0-0.1,0-0.3,0-0.4c0-0.3-0.1-1.1-0.1-1.5c0-1,0.1-1.4,0.1-1.8
		c0-0.1,0-0.2,0-0.4c0-0.3,0-0.4,0-0.6c0-0.2,0-0.3,0-0.5c0-0.4,0.1-0.4,0.3-0.4C109.7,59.9,109.8,60.1,109.8,60.3z M114.4,70.7
		c-0.1,0-0.4,0-0.7,0c-0.3,0-0.6,0-0.9,0c-0.4,0-0.5,0-0.7,0c-0.1,0-0.2,0-0.5,0c-0.4,0-0.6,0.1-0.9,0.1c-0.3,0-0.4-0.1-0.4-0.4
		c0-0.3,0-0.4,0-0.4c0-0.2,0-0.7,0-1.3c0-0.4,0-0.6,0-1c0-0.5,0.1-1.3,0.1-1.7c0-0.4,0-0.7,0-1.1c0-0.3,0-0.8,0-1.3
		c0-0.3,0-0.5,0-0.9v-0.2c0-0.4-0.1-0.9-0.1-1.2v-0.8c0-0.3,0.2-0.4,0.4-0.4c0.1,0,0.3,0,0.4,0c0.1,0,0.2,0,0.6,0
		c0.2,0,0.4-0.1,0.6-0.1c0.2,0,0.4,0.1,0.4,0.6c0,0.1-0.1,0.5-0.1,0.8c0,0.7-0.2,1.1-0.2,1.8s0.1,0.8,0.1,1.4c0,0.6-0.1,0.9-0.1,1.7
		c0,0.3,0,0.6,0,1c0,0.7,0,1.5-0.1,1.7c0,0.1,0,0.1,0,0.2c0,0.3,0,0.5,0.1,0.6c0,0.2,0.3,0.4,0.6,0.5c0.1,0,0.2,0,0.3,0
		c0.2,0,0.5-0.1,0.8-0.1c0.3,0,0.6,0,0.9,0s0.5-0.1,0.9-0.4c0,0,0.1,0,0.2,0c0.1,0,0.2,0,0.3,0.1c0,0,0,0.1,0,0.1
		c0,0.2-0.3,0.3-0.4,0.5c-0.2,0.3-0.4,0.4-0.7,0.4C114.9,70.8,114.6,70.8,114.4,70.7z"/>
	<path class="st1" d="M117.6,59.9c0.1,0,0.3,0.1,0.3,0.4c0,0.1,0,0.1,0,0.2c0,0.1,0,0.2,0,0.4c0,0.4,0.1,0.9,0.1,1.2
		c0,0.1,0,0.1,0,0.2c0,0.2,0,0.4,0,0.5c0,0.2,0,0.4,0,0.7c0,0.4,0,0.6,0,1.1c0,0.3,0,0.7,0,1.1c0,0.2,0,0.4,0,0.6c0,0.1,0,0.3,0,0.4
		c0,0.2,0,0.4,0,0.6c0,0.1,0,0.1,0,0.2c0,0.1,0,0.3,0,0.4c0,0.3,0,0.5,0,0.9c0,0.5,0,0.7,0,1v0.2c0,0.5,0,0.7-0.1,0.8
		c-0.1,0.1-0.2,0.1-0.4,0.1c-0.1,0-0.3-0.1-0.3-0.2v-0.2c0-0.4,0-0.9,0.1-1.1c0-0.1,0-0.1,0-0.2c0-0.3,0-0.7,0-1
		c0-0.3,0.1-0.6,0.1-0.8c0-0.1,0-0.2,0-0.3c0,0,0-0.1,0-0.2c0-0.3,0.1-0.6,0.1-0.8c0,0,0-0.1,0-0.1c0-0.2,0-0.3,0-0.5
		c0-0.1,0-0.3,0-0.4c0-0.3-0.1-1.1-0.1-1.5c0-1,0.1-1.4,0.1-1.8c0-0.1,0-0.2,0-0.4c0-0.3,0-0.4,0-0.6c0-0.2,0-0.3,0-0.5
		C117.3,60,117.3,59.9,117.6,59.9z M129.5,60.6c0-0.1,0.1-0.2,0.1-0.3c0-0.3-0.2-0.3-0.5-0.3c-0.4,0-0.8-0.1-1.1-0.1
		c-0.1,0-0.2,0-0.3,0c-0.4,0-0.6,0.2-0.8,0.8c-0.1,0.5-0.3,1.2-0.4,1.4c-0.2,0.3-0.3,0.7-0.4,1.1c-0.1,0.4-0.3,0.9-0.6,1.5
		c-0.3,0.5-0.2,0.5-0.6,1.4c-0.4,0.8-0.4,1-0.6,1.4c-0.1,0.2-0.2,0.2-0.2,0.2c-0.1,0-0.2-0.1-0.2-0.2c0-0.4-0.4-0.6-0.4-1
		c0-0.4-0.4-0.9-0.5-1.2c-0.2-0.3-0.3-0.7-0.5-0.9c-0.3-0.4-0.4-0.9-0.6-1.3c-0.2-0.3-0.4-0.6-0.6-1c-0.2-0.4-0.7-1.1-0.9-1.4
		c-0.1-0.4-0.1-0.7-0.3-0.7c0,0-0.1,0-0.2,0c-0.2,0-0.3,0-0.5,0c-0.3,0-0.5,0-0.8,0c-0.2,0-0.2,0-0.2,0.1v0.5c0,0.2,0,0.4,0,0.8
		c0,0.1,0.1,0.8,0.1,1c0,0.4,0.1,1.1,0.1,1.4c0,0.4-0.1,0.7-0.1,1.1v0.9c0,0.3,0,0.7,0,1.2c0,0.7,0,1.2,0,1.6c0,0.3-0.1,0.9-0.1,1.2
		c0,0.1,0,0.5,0,0.6c0,0.2-0.1,0.2-0.1,0.3c0,0.1,0.1,0.1,0.4,0.2c0.1,0,0.5,0,0.6,0c0.2,0,0.2-0.1,0.2-0.2c0-0.1,0-0.2,0-0.2
		c0-0.1-0.2-0.3-0.2-0.6c0-0.3-0.1-0.9-0.1-1.5c0-0.4,0.1-1.2,0.1-1.8c0-0.2,0-0.4,0-0.4c0,0,0-0.1,0-0.1c0-0.1,0-0.1,0-0.2
		c0-0.3,0.1-0.7,0.1-1c0-0.4,0-0.5,0-0.9c0-0.2,0-0.4,0-0.5c0-0.1,0-0.2,0.1-0.2c0.1,0,0.3,0.5,0.5,0.9c0.2,0.6,0.4,1.1,0.6,1.5
		c0.3,0.4,0.3,0.7,0.6,1.1c0.3,0.4,0.3,0.8,0.5,1.1c0.2,0.4,0.4,0.8,0.5,1.1c0.1,0.3,0.3,0.6,0.4,0.9c0.1,0.3,0.4,1,0.5,1.1
		c0,0,0.1,0,0.2,0c0.3,0,0.7-0.1,0.8-0.2c0.2-0.2,0.4-0.7,0.4-1c0-0.1,0.3-1,0.4-1.3c0.1-0.3,0.4-1.1,0.5-1.4
		c0.1-0.4,0.3-0.9,0.5-1.3c0.2-0.4,0.3-0.6,0.4-1c0.1-0.3,0.3-0.8,0.5-1.3c0.2-0.5,0.1-0.6,0.4-0.9c0.1-0.2,0.1-0.3,0.2-0.3
		c0.1,0,0.1,0.1,0.1,0.2c0,0.2-0.1,0.6-0.1,0.9c0,0.3,0,0.4,0,0.8c0,0.2,0,0.4,0,0.6c0.1,0.6,0.1,0.8,0.1,1.1c0,0.4,0,0.5,0,0.9
		c0,0.1,0,0.3,0,0.5c0,0.2-0.1,0.3-0.1,0.4c0,0.3,0.1,0.7,0.1,1c0,0.2-0.1,0.7-0.1,0.8c0,0.4-0.1,0.8-0.1,0.9c0,0,0,0,0,0.1
		c0,0.3,0.3,0.3,0.7,0.3c0.2,0,0.4,0,0.5,0c0.4,0,0.7,0,0.9,0c0.2,0,0.4,0,0.5-0.2c0-0.3-0.3-1.5-0.3-2.1c0-0.6-0.2-1.8-0.2-2.5
		c0-0.1,0-0.3,0-0.3c0-0.2,0-0.4,0-0.7c0-0.5,0-0.9,0-1.4c0-0.4,0-1,0-1.5c0-0.3,0-0.4,0-0.5c0-0.2,0-0.4,0-0.5
		C129.4,60.9,129.5,60.7,129.5,60.6z"/>
	<path class="st1" d="M136.4,60.4c0,0,0,0.1,0,0.1c0,0.1,0,0.3,0,0.4c0,0.4,0.1,1,0.1,1.3c0,0.1,0,0.1,0,0.2c0,0.2,0,0.4,0,0.5
		c0,0.2,0,0.4,0,0.7c0,0.4,0,0.6,0,1.1c0,0.3,0,0.7,0,1.1c0,0.2,0,0.4,0,0.6c0,0.1,0,0.3,0,0.4c0,0.2,0,0.4,0,0.6c0,0.1,0,0.1,0,0.2
		c0,0.1,0,0.3,0,0.4c0,0.3,0,0.5,0,0.9c0,0.5,0,0.7,0,1v0.2c0,0.5,0,0.7-0.1,0.8c-0.1,0.1-0.2,0.1-0.4,0.1c-0.1,0-0.3-0.1-0.3-0.2
		c0-0.5,0-1,0.1-1.2c0-0.1,0-0.1,0-0.2c0-0.3,0-0.7,0-1c0-0.3,0.1-0.6,0.1-0.8c0-0.2,0-0.3,0-0.4c0-0.3,0.1-0.6,0.1-0.8
		c0,0,0-0.1,0-0.1c0-0.2,0-0.3,0-0.5c0-0.1,0-0.3,0-0.4c0-0.3-0.1-1.1-0.1-1.5c0-1,0.1-1.4,0.1-1.8c0-0.1,0-0.2,0-0.4
		c0-0.3,0-0.4,0-0.6c0-0.2,0-0.3,0-0.5c0-0.4,0.1-0.4,0.3-0.4C136.3,59.9,136.4,60.1,136.4,60.4z M139.1,60.4
		c-0.2,0-0.2,0.2-0.3,0.4c0,0.1,0,0.3,0,0.5c0,0.1,0,0.4,0,0.6c0,0.2,0,0.4,0,0.6c0,0.3,0,0.7,0,1c0,0.1,0,0.2,0,0.4
		c0,0.4,0,0.6,0.2,0.7c0,0,0.1,0,0.2,0c0.1,0,0.4,0,0.6,0c0.3,0,0.5-0.1,0.8-0.1c0.2,0,0.3,0,0.4,0c0.1,0,0.2,0,0.4,0
		c0,0,0.1,0,0.1,0c0.1,0,0.2,0.1,0.2,0.2c0,0,0,0.1,0,0.1c-0.1,0.3-0.1,0.4-0.2,0.6c0,0-0.1,0-0.1,0c-0.2,0-0.5-0.1-0.7-0.1
		c-0.3,0-0.6-0.1-0.9-0.1h-0.1c-0.2,0-0.5,0-0.6,0c0,0-0.1,0.1-0.1,0.3c0,0.1,0,0.3,0,0.5c0,0.4,0,0.8,0,1.4c0,0.6,0,0.7,0,1.2
		s0.2,1.2,0.2,1.5c0,0.1,0,0.2,0,0.3c0,0.2,0,0.3-0.2,0.3c-0.2,0-0.3,0-0.5,0c-0.3,0-0.3,0.1-0.6,0.1c-0.2,0-0.4,0.1-0.7,0.1
		c-0.2,0-0.3-0.1-0.3-0.3c0-0.3,0-0.5,0-0.9c0-0.4,0-1.2,0.1-1.7c0-0.3,0-0.5,0-0.7c0-0.9,0-1.2,0-1.6c0-0.5-0.1-0.8-0.1-1.2
		c0-0.2,0-0.4,0-0.6c0-0.1,0-0.2,0-0.2c0-0.1,0-0.2,0-0.4c0-0.3-0.1-0.7-0.1-0.9c0-0.2,0-0.3,0-0.4c0-0.4,0-0.9,0-1
		c0-0.3-0.1-0.5-0.1-0.7c0,0,0-0.1,0-0.1c0-0.1,0.3-0.1,0.4-0.1c0.2,0,0.3,0,0.4,0c0.2,0,0.2,0,0.5,0c0.1,0,0.2,0,0.3,0
		c0.4,0,1,0.1,1.4,0.1c0.4,0,1.2,0,1.6,0c0.1,0,0.2,0,0.3,0c0.1,0,0.2,0,0.3,0c0,0,0.2,0,0.6,0c0.2,0,0.5,0,0.5,0.1c0,0,0,0,0,0.1
		c0,0,0,0.1-0.1,0.3c-0.1,0.3,0,0.4-0.1,0.5c-0.1,0.1-0.2,0.1-0.3,0.1c-0.1,0-0.1,0-0.2,0c-0.3-0.1-0.4-0.2-0.6-0.2
		c-0.4-0.1-0.7-0.2-0.9-0.2c-0.2,0-0.4,0-0.4,0C140.2,60.6,139.4,60.6,139.1,60.4z"/>
	<path class="st1" d="M144.3,59.9c0.1,0,0.3,0.1,0.3,0.4c0,0.1,0,0.1,0,0.2c0,0.1,0,0.3,0,0.4c0,0.4,0,0.9,0,1.2c0,0.1,0,0.2,0,0.2
		c0,0.2,0,0.4,0,0.6c0,0.2,0,0.4,0,0.6c0,0.4,0,0.6,0,1.1c0,0.3,0,0.7,0,1.1c0,0.2,0,0.4,0,0.6c0,0.2,0,0.3,0,0.4c0,0.3,0,0.4,0,0.6
		c0,0.3,0,0.4,0,0.5c0,0.3,0,0.5,0,0.9c0,0.5,0,0.7,0,1c0,0.1,0,0.1,0,0.3c0,0.2,0,0.3,0,0.4c0,0.2,0,0.4-0.1,0.4
		c0,0.1-0.2,0.1-0.4,0.1c-0.1,0-0.2,0-0.3-0.2c0-0.1,0-0.1,0-0.2c0-0.3,0-0.8,0.1-1c0-0.1,0-0.1,0-0.2c0-0.3,0-0.7,0-1
		c0-0.3,0-0.6,0-0.8c0-0.2,0-0.3,0-0.4c0-0.3,0.1-0.6,0.1-0.8c0-0.2,0-0.4,0-0.6c0-0.1,0-0.3,0-0.4c0-0.3-0.1-1.1-0.1-1.5
		c0-1,0.1-1.4,0.1-1.8c0-0.1,0-0.3,0-0.4c0-0.3-0.1-0.4-0.1-0.5c0-0.1,0-0.3,0.1-0.4C144,60,144,59.9,144.3,59.9L144.3,59.9z
		 M147.5,65.2c-0.1,0-0.2,0-0.2,0c0,0.1,0,0.1,0,0.2c0,0.2,0.1,0.4,0.1,0.6c0,0.3,0,0.5,0,0.8c0,0.2-0.1,0.5-0.1,0.8v1
		c0,0.2,0,0.4,0,0.6c0,0.7,0.1,0.8,0.2,0.8c0.1,0,0.1,0,0.3,0h0.8c0.2,0,0.4,0,0.5,0c0.7-0.1,1.2-0.2,1.3-0.2c0.3,0,0.6-0.2,0.9-0.2
		c0.1,0,0.2-0.1,0.2-0.1c0.1,0,0.1,0,0.1,0.3c0,0.2-0.3,0.8-0.6,0.9c-0.1,0-0.2,0-0.3,0c-0.2,0-0.4,0-0.5,0c-0.1,0-0.5-0.1-0.7-0.1
		h-0.8c-0.1,0-0.4-0.1-0.5-0.1c-0.5,0-1.2,0.1-1.6,0.1c-0.4,0-0.7,0.1-1,0.1c-0.4,0-0.7-0.1-0.7-0.4c0-0.3,0-0.6,0-0.9
		c0-0.1,0.1-0.2,0.1-0.4v-0.6c0-0.3,0-0.6,0.1-0.9c0-0.1,0-0.2,0-0.4c0-0.1,0-0.2-0.1-0.3c0,0,0-0.1,0-0.3c0-0.2,0-0.6,0-0.9
		c0-0.3-0.1-0.5-0.1-0.7c0-0.3,0.1-0.7,0.1-0.7c0-0.1,0-0.2,0-0.3c0-0.2,0-0.3,0-0.4c0-0.1,0-0.2,0-0.3c0-0.4,0-1.1,0-1.5
		c0-0.4-0.1-1.1-0.1-1.5c0-0.2,0-0.3,0-0.3c0.1-0.1,0.2-0.1,0.4-0.1c0.3,0,0.4,0,0.5,0c0.4,0,0.3,0,0.5,0c0.1,0,0.3,0,0.5,0
		c0.3,0,0.6,0,1.6,0c0.4,0,0.8,0,1.1,0c0.4,0,1.1-0.1,1.3-0.1c0.2,0,0.6,0,0.6,0.2c0,0.3-0.3,0.6-0.4,0.7c-0.1,0,0,0.1-0.2,0.1
		c0,0-0.1,0-0.1,0c-0.3,0-0.5-0.2-0.7-0.2c-0.3,0-0.4-0.1-0.6-0.1c-1,0-1.6,0-2.1-0.1c-0.2,0-0.2,0.1-0.2,0.2c0,0.2-0.1,0.4-0.1,0.5
		c0,0.3,0,0.6,0.1,1c0,0.3,0,0.4,0,0.6l0,0.6c0,0.1,0,0.2,0,0.4c0,0.4,0,0.6,0.1,0.7c0,0.1,0.1,0.1,0.2,0.1c0.1,0,0.2,0,0.4,0
		c0.3,0,0.5,0,0.7-0.1c0.1,0,0.2,0,0.3,0c0.1,0,0.2,0,0.3,0c0.2,0,0.4-0.1,0.5-0.1c0.1,0,0.2,0.1,0.2,0.2c0,0.1,0,0.2-0.1,0.3
		c-0.1,0.2-0.3,0.4-0.5,0.4c0,0-0.1,0-0.1,0c-0.2,0-0.5-0.1-0.6-0.1s-0.3,0-0.4,0C147.8,65.2,147.7,65.2,147.5,65.2z"/>
	<path class="st1" d="M152.9,61.3C152.9,61.3,153,61.3,152.9,61.3c0.1,0.1,0.1,0.1,0.1,0.1c0,0.1,0,0.3-0.1,0.6c0,0.2,0,0.3,0,0.5
		c0,0.2,0,0.4,0,0.4c0,0.1,0,0.1,0.3,0.5c0.3,0.4,0.6,0.6,1.2,1c0.5,0.3,0.7,0.6,1,0.8c0.3,0.3,0.6,0.5,0.7,0.5c0,0,0.1,0.2,0.4,0.4
		c0.3,0.2,0.6,0.4,0.8,0.8c0.3,0.4,0.3,0.5,0.3,1c0,0.3,0,0.4,0,0.5c0,0.3,0,0.4-0.2,0.7c-0.2,0.4-0.3,0.6-0.5,0.8
		c-0.4,0.4-0.7,0.6-0.8,0.6c-0.2,0-0.5,0.2-0.8,0.2c-0.3,0-0.6,0-0.7,0c-0.2,0-1.2-0.3-1.6-0.7c-0.3-0.2-0.8-0.6-0.8-1
		c0-0.3,0.5-0.8,0.7-0.8c0.3,0,0.3,0.1,0.4,0.5c0,0.1,0.3,0.5,0.4,0.7c0.3,0.4,0.7,0.6,1.5,0.6c0.1,0,0.3,0,0.4,0
		c0.5,0,1-0.3,1.2-0.8c0.1-0.3,0.2-0.4,0.2-0.6c0-0.1,0.1-0.4,0.1-0.6c-0.1-0.5-0.3-0.6-0.6-1.1c-0.3-0.5-0.6-0.7-1-0.9
		c-0.5-0.3-0.7-0.5-0.9-0.8c-0.2-0.3-0.7-0.4-1.1-0.8c-0.4-0.2-0.8-0.7-0.9-1c-0.1-0.3-0.2-0.7-0.2-1c0,0,0-0.1,0-0.1
		C152.5,61.8,152.7,61.3,152.9,61.3z M158,68.6v-0.4c0-0.5-0.2-0.8-0.4-1.2c-0.1-0.5-0.5-0.8-0.7-0.9c-0.2-0.1-0.4-0.4-0.7-0.7
		c-0.3-0.3-0.4-0.5-0.7-0.7c-0.3-0.2-0.5-0.3-0.8-0.5s-0.3-0.1-0.7-0.6c-0.4-0.4-0.7-0.7-0.7-1.2c0-0.5,0-0.8,0.3-1.3
		c0.2-0.3,0.4-0.6,0.8-0.8c0.4-0.2,1-0.4,1.7-0.4c0.3,0,1.6,0,1.9,0.2c0.2,0.2,0.9,0.3,1,0.6c0.1,0.2,0.3,0.3,0.3,0.4
		c0,0,0,0.1,0,0.1c0,0.2-0.5,0.5-0.7,0.5c-0.2,0-0.3-0.1-0.4-0.2c0-0.1-0.5-0.8-0.9-0.9c-0.2-0.1-0.5-0.2-0.7-0.2
		c-0.1,0-0.6,0.2-0.7,0.2c-0.3,0.2-0.6,0.2-0.6,0.8c0,0.6,0,1.1,0.4,1.4c0.2,0.3,0.8,0.8,1.1,0.9c0.4,0.2,0.9,0.8,1.2,0.9
		c0.2,0.1,0.4,0.4,0.7,0.7c0.4,0.4,0.8,1,0.8,1.6c0,0.5-0.1,0.5-0.1,1c0,0.3-0.5,1.4-0.8,1.6c-0.4,0.3-0.4,0.5-0.7,0.7
		c-0.2,0.2-0.7,0.4-1.1,0.5c0,0-0.1,0-0.1,0c-0.1,0-0.2,0-0.2-0.1c0-0.1,0.1-0.1,0.2-0.2c0.3-0.2,0.6-0.5,0.9-1
		C157.9,69,158,68.8,158,68.6z"/>
	<path class="st1" d="M162.9,60c0.2,0,0.3,0.1,0.3,0.4c0,0.3,0,0.6,0,1c0,0.3-0.1,0.6-0.1,1c0,0.1,0,0.2,0,0.3c0,0.3,0,0.5,0,0.7
		c0,0.3,0,0.5,0,0.7c0,0.1,0,0.3,0,0.4c0,0.3,0,0.6,0,1.1c0,0.3,0,0.5,0,0.7c0,0.1,0,0.3,0.1,0.4c0,0.1,0,0.2,0,0.3
		c0,0.3-0.1,0.7-0.1,1c0,0.4,0,1.2,0,1.7c0,0.1,0,0.2,0,0.3c0,0.1,0,0.2,0,0.3c0,0.2,0,0.3,0,0.4c0,0.1-0.3,0.2-0.5,0.2
		c-0.2,0-0.3,0-0.3-0.2c0-0.3,0-1.3,0.1-1.8c0-0.2,0-0.4,0-1.4c0-0.5,0-1.2,0-1.8c0-0.2,0-0.4,0-0.8c0-0.4,0-0.7,0-1.3
		c0-0.2,0-0.4,0-0.6c0-0.1,0-0.2,0-0.3c0-0.2,0-0.5,0-0.7c0-0.3,0-0.5,0-0.6c-0.1-0.2,0-0.5-0.4-0.5c-0.2,0-0.5,0.1-0.9,0.1
		s-0.6,0.1-0.7,0.1c0,0-0.1,0-0.2,0h-0.3c-0.1,0-0.2,0-0.2-0.2c0-0.1,0-0.3,0.2-0.5c0.1-0.2,0.2-0.4,0.4-0.4c0,0,0,0,0.1,0
		c0.1,0,0.6,0.2,0.9,0.2c0.2,0,0.4,0,0.6,0c0.1,0,0.1,0,0.2,0C162.5,60,162.7,60,162.9,60z M163.7,68.7v-1.8c0-0.4,0-0.8,0-1.2
		c0-0.1,0-0.2,0-0.3c0-0.4,0-0.6,0.1-1c0,0,0-0.1,0-0.1c0-0.3-0.2-0.6-0.2-0.8c0-0.1,0-0.1,0-0.2c0-0.2,0-0.5,0-0.8
		c0-0.4,0.1-0.7,0.1-1.2c0-0.1,0-0.2,0-0.3c0-0.1,0-0.1,0-0.4c0-0.5,0-0.5,0.3-0.5c0.4,0,1.1-0.1,1.7-0.1c0.6,0,0.8,0,1.1,0.1
		c0,0,0.1,0,0.2,0c0.3,0,0.4-0.2,0.9-0.2c0.4,0,0.4,0,0.5,0.3c0,0.3-0.2,0.8-0.4,0.8c-0.3,0-0.5-0.2-1-0.3c-0.3,0-0.6-0.1-0.8-0.1
		c-0.1,0-0.2,0-0.3,0c-0.2,0-0.3,0.2-0.3,0.6c0,0.1,0,0.2,0,0.2V63c0,0.2,0,0.4,0,0.6c0,0.6,0,1.6,0,2.3s0.1,1.4,0.2,2
		c0,0.2,0,0.4,0,0.5c0,0.3-0.1,0.5-0.1,0.8c0,0.6,0.2,0.7,0.3,1c0,0,0,0.1,0,0.1c0,0.2-0.1,0.3-0.3,0.3c-0.1,0-0.2,0-0.2,0h-0.1
		c-0.2,0-0.4,0-0.6,0c-0.1,0-0.3,0.1-0.4,0.1c-0.2,0-0.4,0.1-0.5,0.1c-0.1,0-0.3-0.1-0.3-0.3C163.7,70,163.7,68.7,163.7,68.7z"/>
	<path class="st1" d="M169.7,59.9c0.3,0,0.4,0.2,0.4,0.4c0,0,0,0.1,0,0.1c0,0.1,0,0.3,0,0.4c0,0.4,0.1,1,0.1,1.3c0,0.1,0,0.1,0,0.2
		c0,0.2,0,0.4,0,0.5c0,0.2,0,0.4,0,0.7c0,0.4,0,0.6,0,1.1c0,0.3,0,0.7,0,1.1c0,0.2,0,0.4,0,0.6c0,0.1,0,0.3,0,0.4c0,0.2,0,0.4,0,0.6
		c0,0.2,0,0.4,0,0.6c0,0.3,0,0.5,0,0.9c0,0.5,0,0.7,0,1v0.2c0,0.5,0,0.7-0.1,0.8c-0.1,0.1-0.2,0.1-0.4,0.1c-0.1,0-0.3-0.1-0.3-0.4
		c0-0.4,0-0.9,0.1-1.1c0-0.1,0-0.1,0-0.2c0-0.3,0-0.7,0-1c0-0.3,0.1-0.6,0.1-0.8c0-0.2,0-0.3,0-0.4c0-0.3,0.1-0.6,0.1-0.8
		c0,0,0-0.1,0-0.1c0-0.2,0-0.3,0-0.5c0-0.1,0-0.3,0-0.4c0-0.3-0.1-1.1-0.1-1.5c0-1,0.1-1.4,0.1-1.8c0-0.1,0-0.2,0-0.4
		c0-0.3,0-0.4,0-0.6c0-0.2,0-0.3,0-0.5C169.4,60,169.5,59.9,169.7,59.9z M172.9,70.1c0-0.1-0.1-0.5-0.1-0.7c0-0.4,0-0.6,0-1
		c0-0.2,0-0.4,0-0.6c0-0.6-0.2-1.3-0.2-2c0-0.5,0.1-0.6,0.1-0.9c0,0,0-0.1,0-0.1c0-0.3-0.2-1-0.2-1.4c0-0.3,0.1-0.8,0.1-1.2
		c0-0.2,0-0.4,0-0.6c0-0.5,0.1-0.9,0.1-1.1c0-0.3-0.1-0.4-0.4-0.4c-0.5,0-0.9-0.1-1.3-0.1c-0.6,0-0.7,0.2-0.7,0.5c0,0.1,0,0.3,0,0.5
		c0,0.3,0.2,1.6,0.2,2.1c0,0.4,0,1.1,0,2.4c0,0.4,0,0.8,0,1.2c0,0.1,0,0.2,0,0.4c0,0.3,0,0.6,0,0.8v0.8c0,0.2,0,0.4,0,0.6
		c0,0.2-0.1,0.5-0.1,0.7c0,0.2,0,0.3,0,0.4c0,0.3,0.1,0.5,0.4,0.5c0.4,0,0.7-0.1,1-0.1c0.1,0,0.4,0,0.6,0.1
		C172.5,70.7,172.9,70.7,172.9,70.1z"/>
</g>
<g class="st2">
	<path class="st1" d="M175,61.4c0.1,0.5,0.5,0.9,0.5,1.2c0.1,0.4,0.3,0.8,0.4,1.1c0.2,0.4,0.2,0.6,0.4,1s0.5,0.9,0.7,1.5
		c0.2,0.6,0.3,0.6,0.5,1.1c0.1,0.4,0.3,0.6,0.5,1.2c0.2,0.5,0.4,0.6,0.5,1.1c0.1,0.4,0.5,0.8,0.5,1.1c0,0,0,0,0,0.1
		c0,0.1-0.1,0.1-0.2,0.1c-0.2,0-0.4-0.1-0.5-0.3c-0.2-0.3-0.5-0.9-0.5-1.2c-0.1-0.3-0.4-0.7-0.5-1.1c-0.1-0.4-0.2-0.8-0.4-1.1
		c-0.2-0.3-0.3-0.8-0.5-1.1c-0.2-0.3-0.3-0.6-0.4-0.8c-0.1-0.2-0.4-1-0.5-1.4c-0.5-1.2-0.6-1.5-0.8-2c-0.3-0.5-0.7-1.2-0.8-1.6
		c0-0.1,0-0.2,0-0.2c0-0.2,0.1-0.3,0.3-0.3C174.2,59.9,174.9,60.9,175,61.4z M178,62.1c0.2,0.4,0.5,1,0.7,1.6
		c0.2,0.5,0.5,0.9,0.6,1.3c0.2,0.5,0.4,0.6,0.6,0.9c0.2,0.4,0.6,1.1,0.7,1.1c0.1,0,0.1-0.7,0.4-1.2c0.2-0.5,0.3-0.9,0.4-1.5
		c0.1-0.6,0.2-0.8,0.5-1.4c0.2-0.6,0.3-1.2,0.4-1.6c0-0.1,0-0.2,0-0.4c0-0.4-0.2-0.6-0.2-0.8c0-0.1,0-0.3,0.3-0.3c0.2,0,0.4,0,0.5,0
		c0.2,0,0.4,0,0.6,0c0.2,0,0.3,0.1,0.3,0.2c0,0.3-0.5,0.8-0.6,1.1c-0.2,0.5-0.3,1-0.5,1.5c-0.1,0.5-0.4,0.7-0.5,1.2
		c-0.1,0.5-0.1,0.8-0.4,1.6c-0.3,0.8-0.7,1.6-0.8,2.2c-0.2,0.6-0.4,1.1-0.5,1.6c-0.1,0.5-0.4,0.9-0.4,1.2c0,0.1-0.2,0.3-0.3,0.3
		c0,0-0.1,0-0.1-0.1c-0.2-0.3-0.6-0.8-0.6-1c0-0.2-0.2-0.6-0.4-0.9c-0.2-0.4-0.4-0.8-0.5-1.1c0-0.4-0.4-0.8-0.5-1.2
		c-0.1-0.4-0.4-0.8-0.6-1.2c-0.2-0.4-0.7-1.6-0.8-2.1c-0.1-0.5-0.6-1.3-0.8-1.5c-0.1-0.2,0-0.5-0.2-0.6c0-0.1-0.4-0.6-0.4-0.8
		c0-0.2,0.3-0.2,0.5-0.2h0.2c0.3,0,0.4,0,0.4,0c0,0,0.1,0,0.4,0c0.7,0,0.6,0,0.9,0C177.8,60,177.5,61.1,178,62.1z"/>
</g>
<g class="st2">
	<path class="st1" d="M189.8,70.8c-0.3,0-0.4,0-0.5,0c-0.1,0-0.1,0-0.2,0c0,0-0.2-0.1-0.2-0.1c-0.2-0.1-0.2-0.5-0.2-0.5
		c0-0.1-0.1-0.3-0.1-0.4c0,0,0-0.1,0-0.1c0-0.1,0-0.1-0.1-0.2c-0.2-0.2-0.2-0.6-0.4-0.8c-0.1-0.2-0.4-0.9-0.5-0.9c-0.1,0-0.6,0-1,0
		c-0.3,0-0.5-0.1-0.7-0.1c-0.1,0-0.2,0-0.3,0c-0.1,0-0.4,0.1-0.5,0.1c-0.4,0-0.7-0.1-0.8-0.1c-0.1,0-0.2,0.1-0.3,0.4
		c-0.1,0.3-0.2,0.6-0.3,0.8c-0.1,0.2-0.2,0.5-0.3,0.8c-0.1,0.1-0.1,0.4-0.1,0.5c0,0,0,0.4-0.1,0.6c0,0.1-0.2,0.1-0.5,0.1
		c-0.1,0-0.1,0-0.2,0h-0.4c-0.1,0-0.1,0-0.1-0.1c0-0.1,0-0.2,0.1-0.3c0-0.2,0.4-0.7,0.4-0.8c0.1-0.2,0.2-0.4,0.4-0.6
		c0.2-0.3,0.4-1,0.4-1.1c0-0.1-0.1-0.3-0.1-0.6c0.1-0.2,0.1-0.2,0.4-0.3c0.3-0.1,0.2-0.6,0.4-0.9c0.2-0.3,0.3-0.9,0.5-1.2
		c0.2-0.3,0.4-0.8,0.5-1.2c0.1-0.3,0.3-0.8,0.5-1.1c0.2-0.4,0.3-0.8,0.4-0.8c0.1,0,0.2,0.3,0.4,0.8c0.1,0.5,0.4,1.1,0.5,1.4
		c0.1,0.3,0.4,0.9,0.5,1.2c0.1,0.3,0.4,1,0.8,1.7c0.4,0.7,0.4,1,0.6,1.3c0.1,0.4,0.3,0.6,0.4,1c0.1,0.4,0.4,0.7,0.5,0.9
		c0.1,0.2,0.3,0.4,0.3,0.6C190,70.8,189.9,70.8,189.8,70.8z M185.5,64.5c0,0.2-0.3,0.8-0.4,1.1c-0.2,0.2-0.2,0.5-0.3,0.7
		c0,0.1-0.2,0.6-0.2,0.7c0,0,0,0,0.1,0c0.1,0,0.2,0,0.4,0c0.2,0,0.4,0,0.6,0c0,0,0.1,0,0.1,0c0,0,0.2,0.1,0.4,0.1c0.1,0,1.3,0,1.3,0
		c0,0-0.1-0.3-0.2-0.6c-0.1-0.3-0.3-0.6-0.4-0.9c-0.1-0.4-0.3-0.6-0.4-1c-0.1-0.4-0.2-0.6-0.3-0.8c0-0.1-0.2-0.5-0.2-0.5
		c0,0-0.1,0.4-0.1,0.4C185.8,63.8,185.6,64.2,185.5,64.5z M191.6,70.7c-0.2,0-0.6,0.1-0.8,0.1c-0.3,0-0.3-0.1-0.4-0.2
		c-0.2-0.3-0.3-0.3-0.4-0.8c-0.1-0.5-0.3-0.5-0.5-1c-0.2-0.5-0.5-1-0.7-1.3c-0.1-0.3-0.2-0.4-0.4-0.9c-0.1-0.5-0.3-0.4-0.4-0.9
		c-0.1-0.4-0.3-0.6-0.4-1c-0.2-0.4-0.4-1-0.5-1.4c-0.2-0.3-0.2-0.5-0.4-1c-0.2-0.6-0.4-0.8-0.4-1c0-0.1,0.1-0.4,0.3-0.8
		c0.2-0.4,0.4-0.8,0.6-0.8c0.2,0,0.4,0.2,0.5,0.5c0.1,0.2,0.8,1.2,0.8,1.6c0.1,0.3,0.4,1,0.6,1.4c0.2,0.4,0.6,1.3,0.7,1.7
		c0.1,0.4,0.5,0.8,0.6,1.2c0.1,0.4,0.4,0.8,0.6,1.4c0.2,0.6,0.2,0.4,0.3,0.7c0.1,0.3,0.3,0.6,0.5,0.9c0.1,0.3,0.3,0.7,0.4,0.8
		c0,0.2,0.4,0.5,0.4,0.8c0,0.1-0.1,0.2-0.3,0.2c-0.1,0-0.2,0-0.3,0C192,70.7,191.6,70.7,191.6,70.7z"/>
	<path class="st1" d="M194.1,60.3c0,0.1,0,0.1,0,0.2c0,0.1,0,0.2,0,0.4c0,0.4,0.1,0.9,0.1,1.2c0,0.1,0,0.1,0,0.2c0,0.2,0,0.4,0,0.5
		c0,0.2,0,0.4,0,0.7c0,0.4,0,0.6,0,1.1c0,0.3,0,0.7,0,1.1c0,0.2,0,0.4,0,0.6c0,0.1,0,0.3,0,0.4c0,0.2,0,0.4,0,0.6c0,0.1,0,0.1,0,0.2
		c0,0.1,0,0.3,0,0.4c0,0.3,0,0.5,0,0.9c0,0.5,0,0.7,0,1v0.2c0,0.5,0,0.7-0.1,0.8c-0.1,0.1-0.2,0.1-0.4,0.1c-0.1,0-0.3-0.1-0.3-0.2
		c0-0.5,0-1,0.1-1.2c0-0.1,0-0.1,0-0.2c0-0.3,0-0.7,0-1c0-0.3,0.1-0.6,0.1-0.8c0-0.1,0-0.2,0-0.3c0,0,0-0.1,0-0.2
		c0-0.3,0.1-0.6,0.1-0.8c0,0,0-0.1,0-0.1c0-0.2,0-0.3,0-0.5c0-0.1,0-0.3,0-0.4c0-0.3-0.1-1.1-0.1-1.5c0-1,0.1-1.4,0.1-1.8
		c0-0.1,0-0.2,0-0.4c0-0.3,0-0.4,0-0.6c0-0.2,0-0.3,0-0.5c0-0.4,0.1-0.4,0.3-0.4C194,59.9,194.1,60.1,194.1,60.3z M198.7,70.7
		c-0.1,0-0.4,0-0.7,0c-0.3,0-0.6,0-0.9,0c-0.4,0-0.5,0-0.7,0c-0.1,0-0.2,0-0.5,0c-0.4,0-0.6,0.1-0.9,0.1c-0.3,0-0.4-0.1-0.4-0.4
		c0-0.3,0-0.4,0-0.4c0-0.2,0-0.7,0-1.3c0-0.4,0-0.6,0-1c0-0.5,0.1-1.3,0.1-1.7c0-0.4,0-0.7,0-1.1c0-0.3,0-0.8,0-1.3
		c0-0.3,0-0.5,0-0.9v-0.2c0-0.4-0.1-0.9-0.1-1.2v-0.8c0-0.3,0.2-0.4,0.4-0.4c0.1,0,0.3,0,0.4,0c0.1,0,0.2,0,0.6,0
		c0.2,0,0.4-0.1,0.6-0.1c0.2,0,0.4,0.1,0.4,0.6c0,0.1-0.1,0.5-0.1,0.8c0,0.7-0.2,1.1-0.2,1.8s0.1,0.8,0.1,1.4c0,0.6-0.1,0.9-0.1,1.7
		c0,0.3,0,0.6,0,1c0,0.7,0,1.5-0.1,1.7c0,0.1,0,0.1,0,0.2c0,0.3,0,0.5,0.1,0.6c0,0.2,0.3,0.4,0.6,0.5c0.1,0,0.2,0,0.3,0
		c0.2,0,0.5-0.1,0.8-0.1c0.3,0,0.6,0,0.9,0c0.3,0,0.5-0.1,0.9-0.4c0,0,0.1,0,0.2,0c0.1,0,0.2,0,0.3,0.1c0,0,0,0.1,0,0.1
		c0,0.2-0.3,0.3-0.4,0.5c-0.2,0.3-0.4,0.4-0.7,0.4C199.2,70.8,198.9,70.8,198.7,70.7z"/>
</g>
<polygon class="st1" points="148.4,19.4 144.9,24.9 150.7,24.9 154.2,19.4 "/>
<polygon class="st1" points="126.1,19.4 126.1,24.9 127.5,24.9 131.1,19.4 "/>
<polygon class="st1" points="136.9,19.4 133.3,24.9 139.1,24.9 142.7,19.4 "/>
<polygon class="st1" points="173.2,19.4 171.6,19.4 168.1,24.9 173.8,24.9 173.2,24.9 "/>
<polygon class="st1" points="160,19.4 156.5,24.9 162.3,24.9 165.8,19.4 "/>
<polygon class="st1" points="147.6,13.7 142.2,9.3 147.8,8 153.1,12.4 "/>
<polygon class="st1" points="170,3 170,2.9 170,2.9 "/>
<polygon class="st1" points="126,18.6 124.1,13.4 125.5,13.1 130.9,17.5 "/>
<polygon class="st1" points="136.4,16.2 131.1,11.8 136.6,10.5 142,15 "/>
<polygon class="st1" points="172,8.2 169.8,8.7 164.4,4.2 170,2.9 170,3 "/>
<polygon class="st1" points="158.7,11.2 153.3,6.7 158.9,5.5 164.2,9.9 "/>
<path class="st1" d="M278.9,80.1l8.8-2.6v0.9l-1.9,0.6c0,0-0.1,0-0.1,0.1v2.7c0,0,0,0.1,0.1,0.1c0,0,0,0,0,0l1.9,0.6v0.9l-8.8-2.6
	V80.1z M284.5,81.5L284.5,81.5C284.5,81.5,284.6,81.5,284.5,81.5l0.1-2.1c0,0,0-0.1-0.1-0.1l0,0l-3.7,1.1l0,0l0,0L284.5,81.5z"/>
<path class="st1" d="M284.9,73.5h-3.2c-1.4,0.1-2.7-1-2.8-2.4c0.1-1.4,1.4-2.5,2.8-2.4h3.2c1.3-0.2,2.6,0.6,2.8,2
	c0.2,1.3-0.6,2.6-2,2.8C285.5,73.6,285.2,73.6,284.9,73.5z M281.7,72.6h3.2c0.9,0,1.7-0.6,1.8-1.5c-0.1-0.9-0.9-1.6-1.8-1.5h-3.2
	c-0.9-0.1-1.7,0.6-1.8,1.5C280,72,280.8,72.7,281.7,72.6z"/>
<path class="st1" d="M287.6,64.9H280c-0.1,0-0.1,0-0.1,0.1v1h-0.9v-2h8.8L287.6,64.9z"/>
<path class="st1" d="M287.6,56.6V61l-0.9,0.1l-2.9-2.4c-0.7-0.7-1.6-1.2-2.6-1.2c-0.7-0.1-1.4,0.5-1.4,1.2c0,0,0,0,0,0
	c0,0.6,0.4,1.2,1,1.5l-0.8,0.5c-0.7-0.4-1.2-1.1-1.3-1.9c0.1-1.2,1.1-2.2,2.3-2.1c0,0,0.1,0,0.1,0c1,0,2,0.3,3.9,2l1.2,1
	c0,0,0.1,0.1,0.2,0.1c0,0,0-0.1,0-0.2v-3L287.6,56.6z"/>
<path class="st1" d="M284.9,55.1h-3.2c-1.4,0.1-2.7-1-2.8-2.4c0.1-1.4,1.4-2.5,2.8-2.4h3.2c1.4-0.1,2.7,1,2.9,2.4
	C287.6,54.2,286.3,55.2,284.9,55.1z M281.7,54.3h3.2c0.9,0,1.7-0.6,1.8-1.5c-0.1-0.9-0.9-1.6-1.8-1.5h-3.2c-0.9-0.1-1.7,0.6-1.8,1.5
	C280,53.6,280.8,54.3,281.7,54.3z"/>
<path class="st1" d="M279.7,48.4c-0.6-0.4-0.9-1.1-0.9-1.8c0-1.1,0.9-2,2-2c0.1,0,0.1,0,0.2,0c0.6,0,1.3,0.3,1.7,0.8c0,0,0,0,0.1,0
	s0,0,0,0c0.5-0.8,1.3-1.2,2.2-1.2c1.4-0.1,2.6,0.9,2.7,2.2c0,0,0,0.1,0,0.1c0,0.8-0.4,1.5-1,2l-0.9-0.4c0.5-0.3,0.8-0.9,0.8-1.5
	c0-0.9-0.8-1.6-1.7-1.5c-0.9,0-1.7,0.7-1.7,1.6c0,0,0,0,0,0v0.6h-0.9v-0.5c0-0.7-0.6-1.3-1.3-1.3c0,0-0.1,0-0.1,0
	c-0.6,0-1.1,0.4-1.1,1c0,0,0,0.1,0,0.1c0.1,0.6,0.4,1.1,0.9,1.4L279.7,48.4z"/>
<path class="st1" d="M281.8,43c-1.5,0.1-2.9-1-3-2.5c0.1-1.5,1.4-2.6,2.9-2.5c0,0,0.1,0,0.1,0c0.5,0,1,0.1,1.5,0.3l4.4,2.3l-0.5,0.8
	l-2.4-1.3c0,0.1,0,0.2,0,0.3C284.7,42,283.4,43.1,281.8,43C281.9,43,281.9,43,281.8,43z M281.8,38.8c-0.9-0.2-1.8,0.4-1.9,1.3
	s0.4,1.8,1.3,1.9c0.2,0,0.4,0,0.6,0c1,0.1,1.9-0.6,2-1.6c0,0,0,0,0,0c-0.1-1-0.9-1.7-1.9-1.7C281.9,38.8,281.9,38.8,281.8,38.8
	L281.8,38.8z"/>
<polygon class="st1" points="278.5,25.9 281.1,25.2 281,23 282.6,24.8 285.1,24.1 283.5,25.9 285.1,27.7 282.6,27 281,28.8 
	281.1,26.5 "/>
<polygon class="st1" points="278.5,97 281.1,96.3 281,94.1 282.6,95.9 285.1,95.2 283.5,97 285.1,98.8 282.6,98.1 281,99.9 
	281.1,97.7 "/>
<path class="st1" d="M19.8,42.8L11,45.4v-0.9l1.9-0.5c0,0,0.1,0,0.1-0.1c0,0,0,0,0,0v-2.7c0-0.1,0-0.1-0.1-0.1L11,40.5v-0.9l8.8,2.6
	L19.8,42.8z M14.1,41.4L14.1,41.4L14.1,41.4l-0.1,2.1c0,0,0,0.1,0.1,0.1l0,0l3.7-1.1l0,0l0,0L14.1,41.4z"/>
<path class="st1" d="M13.8,49.4H17c1.4-0.1,2.7,1,2.8,2.4c-0.1,1.4-1.4,2.5-2.8,2.4h-3.2c-1.4,0.1-2.7-1-2.8-2.4
	C11.1,50.3,12.4,49.3,13.8,49.4z M17,50.2h-3.2c-0.9,0-1.7,0.6-1.8,1.5c0.1,0.9,0.9,1.6,1.8,1.5H17c0.9,0.1,1.7-0.6,1.8-1.5
	C18.7,50.9,17.9,50.2,17,50.2z"/>
<path class="st1" d="M11,58h7.7c0.1,0,0.2,0,0.2-0.1v-1h0.9v2H11V58z"/>
<path class="st1" d="M11,66.3v-4.4l0.9-0.1l2.9,2.4c0.7,0.7,1.6,1.2,2.6,1.2c0.7,0.1,1.4-0.5,1.4-1.2c0-0.6-0.4-1.2-1-1.5l0.8-0.5
	c0.8,0.4,1.3,1.1,1.3,2c-0.1,1.2-1.1,2.2-2.3,2.1c0,0-0.1,0-0.1,0c-1,0-2-0.3-3.9-2l-1.2-1c-0.1,0-0.1-0.1-0.2-0.1s0,0.1,0,0.2v3
	L11,66.3z"/>
<path class="st1" d="M13.8,67.8H17c1.3-0.2,2.6,0.7,2.8,2c0.2,1.3-0.7,2.6-2,2.8c-0.3,0-0.5,0-0.8,0h-3.2c-1.3,0.2-2.6-0.7-2.8-2
	c-0.2-1.3,0.7-2.6,2-2.8C13.2,67.7,13.5,67.7,13.8,67.8z M17,68.6h-3.2c-0.9-0.1-1.7,0.6-1.8,1.5c0.1,0.9,0.9,1.6,1.8,1.5H17
	c0.9,0.1,1.7-0.6,1.8-1.5C18.7,69.3,17.9,68.6,17,68.6z"/>
<path class="st1" d="M19,74.5c0.6,0.4,0.9,1.1,0.9,1.8c0,1.1-0.9,2-2,2c-0.1,0-0.1,0-0.2,0c-0.7,0-1.3-0.3-1.7-0.8l0,0
	c0,0,0,0-0.1,0.1c-0.5,0.8-1.3,1.2-2.2,1.2c-1.4,0.2-2.6-0.8-2.8-2.2c0-0.1,0-0.2,0-0.2c0-0.8,0.4-1.5,1-2l0.9,0.4
	c-0.5,0.3-0.8,0.9-0.8,1.5c0.1,0.9,0.8,1.5,1.7,1.5c0,0,0,0,0,0c0.9,0,1.7-0.7,1.7-1.6c0,0,0,0,0,0v-0.6h0.9v0.5
	c0,0.7,0.6,1.3,1.3,1.3c0,0,0.1,0,0.1,0c0.6,0,1.1-0.4,1.1-1c0,0,0-0.1,0-0.1c-0.1-0.6-0.4-1-0.9-1.4L19,74.5z"/>
<path class="st1" d="M16.9,79.9c1.4-0.3,2.7,0.6,3,2c0.3,1.4-0.6,2.7-2,3c-0.3,0.1-0.7,0.1-1,0c-0.5,0-1-0.1-1.5-0.3l-4.4-2.3
	l0.6-0.8l2.4,1.3c0-0.1,0-0.2,0-0.3C13.9,81.1,15,79.9,16.9,79.9z M16.9,84.1c0.9,0.1,1.7-0.5,1.9-1.4c0.1-0.9-0.5-1.7-1.4-1.9
	c-0.2,0-0.3,0-0.5,0c-1-0.1-1.9,0.6-2,1.6c0,0,0,0,0,0c0.1,1,0.9,1.7,1.9,1.6C16.8,84.1,16.8,84.1,16.9,84.1z"/>
<polygon class="st1" points="20.2,97 17.6,97.7 17.7,99.9 16.1,98.1 13.6,98.8 15.2,97 13.6,95.2 16.1,95.9 17.7,94.1 17.6,96.3 "/>
<polygon class="st1" points="20.2,25.9 17.6,26.5 17.7,28.8 16.1,27 13.6,27.7 15.2,25.9 13.6,24.1 16.1,24.8 17.7,23 17.6,25.2 "/>
<path class="st3" d="M260.7,101.7H45.2V82.5h215.4V101.7z M47,100.8h211.9V83.4H47V100.8z"/>
<text transform="matrix(1 0 0 1 67.77 97.05)" class="st1 st4 st5">20th-26th August 2020</text>
</svg>
