<?xml version="1.0" encoding="utf-8"?>
<!-- Generator: Adobe Illustrator 24.3.0, SVG Export Plug-In . SVG Version: 6.00 Build 0)  -->
<svg version="1.1" id="Layer_1" xmlns="http://www.w3.org/2000/svg" xmlns:xlink="http://www.w3.org/1999/xlink" x="0px" y="0px"
	 viewBox="0 0 300 121.6" style="enable-background:new 0 0 300 121.6;" xml:space="preserve">
<style type="text/css">
	.st0{fill:#FFEDC2;}
	.st1{fill:#42210B;}
	.st2{enable-background:new    ;}
	.st3{fill:#6A222A;}
	.st4{font-family:'LucidaConsole';}
	.st5{font-size:13px;}
</style>
<path class="st0" d="M300,104.2v-4.6c-2.1,0-3.8-1.4-3.8-3.2s1.7-3.2,3.8-3.2v-3.8c-2.1,0-3.8-1.4-3.8-3.2s1.7-3.2,3.8-3.2v-3.8
	c-2.1,0-3.8-1.4-3.8-3.2s1.7-3.2,3.8-3.2v-3.8c-2.1,0-3.8-1.4-3.8-3.2s1.7-3.2,3.8-3.2v-3.9c-2.1,0-3.8-1.4-3.8-3.2s1.7-3.2,3.8-3.2
	v-3.8c-2.1,0-3.8-1.4-3.8-3.2s1.7-3.2,3.8-3.2v-3.8c-2.1,0-3.8-1.4-3.8-3.2s1.7-3.2,3.8-3.2v-3.9c-2.1,0-3.8-1.4-3.8-3.2
	s1.7-3.1,3.8-3.1v-4.6h-2.3c-10.4-1-18.5-8.4-18.5-17.4H20.9c0,9-8.1,16.5-18.5,17.4H0V22c2.1,0,3.8,1.4,3.8,3.2S2.1,28.3,0,28.3
	v3.9c2.1,0,3.8,1.4,3.8,3.2S2.1,38.5,0,38.5v3.8c2.1,0,3.8,1.4,3.8,3.2S2.1,48.7,0,48.7v3.8c2.1,0,3.8,1.4,3.8,3.2S2.1,58.9,0,58.9
	v3.8c2.1,0,3.8,1.4,3.8,3.2S2.1,69.1,0,69.1v3.8c2.1,0,3.8,1.4,3.8,3.2S2.1,79.2,0,79.2v3.8c2.1,0,3.8,1.4,3.8,3.2S2.1,89.4,0,89.4
	v3.8c2.1,0,3.8,1.4,3.8,3.2S2.1,99.6,0,99.6v4.6h2.3c10.4,1,18.5,8.4,18.5,17.4h258.3c0-9,8.1-16.4,18.5-17.4H300z"/>
<polygon class="st1" points="235.3,45.5 236.9,50 242.5,50 238,52.7 239.7,57.1 235.3,54.3 230.8,57.1 232.6,52.7 228,50 233.6,50 
	"/>
<polygon class="st1" points="58.8,45.5 60.5,50 66,50 61.5,52.7 63.2,57.1 58.8,54.3 54.3,57.1 56.1,52.7 51.6,50 57.1,50 "/>
<g class="st2">
	<path class="st1" d="M75.6,42.4c-0.1,0-0.4-0.2-0.4-0.5c0-0.1,0-0.3,0.2-0.4c0.1-0.1,0.2-0.1,0.4-0.1c0.2,0,0.4,0.1,0.5,0.2
		c0.1,0.1,0.2,0.3,0.2,0.5c0,0.7-0.5,1.2-1.5,1.2c-0.4,0-0.6-0.1-0.8-0.2c-0.2-0.1-0.4-0.3-0.5-0.5c-0.2-0.3-0.3-0.6-0.3-1.1
		c0-0.5,0.2-0.9,0.4-1.2c0.2-0.2,0.4-0.4,0.7-0.5c0.3-0.2,0.7-0.3,1.1-0.3c0.5,0,1.1,0,0.9,0c0.1,0,0.4,0.1,0.5,0
		c0.2-0.1,0.4,0,0.7,0c0.2,0,0.4,0.1,0.4,0.4c0,0.4,0,0.7,0,1.1c0,0.3-0.1,0.7-0.1,1.1c0,0.1,0,0.2,0,0.3c0,0.3,0,0.5,0,0.8
		s0,0.5,0,0.8c0,0.1,0,0.3,0,0.4c0,0.4-0.1,0.7-0.1,1.2c0,0.3,0,0.6,0,0.8c0,0.1,0,0.3,0.1,0.4c0,0.1,0.1,0.2,0.1,0.4
		c0,0.3-0.1,0.7-0.1,1.1c0,0.5,0,1.3,0,1.8c0,0.1,0,0.2,0,0.3c0,0.1,0,0.2,0,0.3c0,0.2,0,0.3,0,0.4c0,0.1-0.3,0.2-0.5,0.2
		c-0.2,0-0.3,0-0.3-0.2c0-0.3,0.1-1.5,0.1-2c0-0.2,0-0.4,0-1.6c0-0.5,0-1.4,0-2c0-0.2,0-0.4,0-0.9c0-0.5,0-0.8,0-1.5
		c0-0.2,0-0.4,0-0.7c0-0.1,0-0.2,0-0.4c0-0.2,0-0.5,0-0.8c0-0.3,0-0.5,0-0.6c-0.1-0.3,0-0.5-0.4-0.5c-0.2,0-0.4-0.2-1.1-0.2
		c-0.4,0-0.7,0.1-1,0.3c0,0-0.2,0-0.2,0s0,0.2-0.1,0.2c-0.2,0.2-0.3,0.5-0.3,0.8c0,0.7,0.3,1.1,1,1.1C75.5,42.7,75.6,42.6,75.6,42.4
		z M78.7,49.3v-2c0-0.4,0-0.9,0-1.3c0-0.1,0-0.2,0-0.3c0-0.4,0-0.7,0.1-1.1c0,0,0-0.1,0-0.2c0-0.3-0.2-0.7-0.2-0.9
		c0-0.1,0-0.2,0-0.3c0-0.2,0-0.5,0-0.8c0-0.4,0.1-0.8,0.1-1.3c0-0.1,0-0.2,0-0.3c0-0.2-0.1-0.1-0.1-0.5c0-0.5,0-0.6,0.4-0.6
		c0.5,0,1.2-0.1,1.9-0.1c0.6,0,0.9,0,1.2,0.1c0,0,0.1,0,0.2,0c0.3,0,0.5-0.2,1-0.2c0.4,0,0.5,0,0.5,0.3c0,0.3-0.2,0.9-0.5,0.9
		c-0.3,0-0.6-0.3-1.1-0.3c-0.4,0-0.6-0.1-0.8-0.1c-0.1,0-0.2,0-0.3,0c-0.2,0-0.3,0.3-0.3,0.6c0,0.1,0,0.2,0,0.3v1.6
		c0,0.3,0,0.5,0,0.7c0,0.7,0,1.7,0,2.6c0,0.9,0.1,1.6,0.2,2.2c0,0.2,0.1,0.4,0.1,0.6c0,0.3-0.1,0.6-0.1,0.9c0,0.6,0.3,0.8,0.3,1.1
		c0,0,0,0.1,0,0.1c0,0.3-0.2,0.3-0.4,0.3c-0.1,0-0.2,0-0.3,0h-0.1c-0.3,0-0.4,0-0.7,0c-0.1,0-0.3,0.1-0.4,0.1
		c-0.2,0-0.4,0.1-0.6,0.1c-0.2,0-0.3-0.1-0.3-0.4C78.7,50.7,78.7,49.3,78.7,49.3z"/>
</g>
<g class="st2">
	<path class="st1" d="M84.9,40.7c0.2,0,0.4,0.4,0.4,0.8c0,0.1,0,0.2,0,0.2c0,0.1,0,0.3,0,0.4c0,0.3,0.1,0.6,0.1,0.8
		c0,0.1,0,0.1,0,0.2c0,0.2,0,0.4,0,0.5c0,0.2,0,0.4,0,0.7c0,0.4,0,0.6,0,1.1c0,0.3,0,0.7,0,1.1c0,0.2,0,0.4,0,0.6c0,0.1,0,0.3,0,0.4
		c0,0.2,0,0.4,0,0.6c0,0.1,0,0.1,0,0.2c0,0.1,0,0.3,0,0.4c0,0.3,0,0.5,0,0.9c0,0.5,0,0.7,0,1v0.2c0,0.5,0,0.7-0.1,0.8
		c-0.1,0.1-0.2,0.1-0.4,0.1c-0.1,0-0.3-0.1-0.3-0.2v-0.2c0-0.4,0-0.9,0.1-1.1c0-0.1,0-0.1,0-0.2c0-0.3,0-0.7,0-1
		c0-0.3,0.1-0.6,0.1-0.8c0-0.1,0-0.2,0-0.3c0,0,0-0.1,0-0.2c0-0.3,0.1-0.6,0.1-0.8c0-0.2,0-0.4,0-0.6c0-0.1,0-0.3,0-0.4
		c0-0.3-0.1-1.1-0.1-1.5c0-1,0.1-1.4,0.1-1.8c0-0.1,0-0.2,0-0.4c0-0.3,0-0.4,0-0.6c0-0.2,0-0.3,0-0.5C84.7,40.8,84.8,40.7,84.9,40.7
		z M94.5,41.1c0-0.3,0-0.4-0.6-0.4s-0.7,0.1-0.7,0.4s0.1,0.4,0.1,0.6c0,0.2,0.1,0.5,0.1,0.9c0,0.2,0,0.4,0,0.5c0,0.1,0,0.3,0,0.4
		c0,0.2,0,0.4,0,0.7c0,0.4,0,0.6,0,0.9c0,0.1,0,0.2,0,0.2c0,0.4,0,0.5-0.1,0.6c-0.2,0-0.7,0-1,0c-0.3,0-0.9,0.1-1.3,0.1
		c-0.1,0-0.2,0-0.3,0c-0.2,0-1-0.1-1.4-0.1c-0.3,0-0.3,0-0.4,0c0,0-0.2,0-0.2,0c-0.2,0.1-0.4,0.1-0.6,0.1c-0.1,0-0.2,0-0.2-0.1
		c0-0.1-0.1-0.2-0.1-0.4c0-0.2,0-0.4,0-0.7c0-0.4-0.1-0.5-0.1-1.2c0-0.8,0.1-1.1,0.2-1.4c0-0.4,0.3-0.8,0.3-1.2
		c0-0.2-0.3-0.2-0.5-0.2h-0.3c-0.3,0-0.5,0-0.8,0c-0.3,0-0.6-0.1-0.9-0.1c-0.2,0-0.2,0.1-0.2,0.2c0,0.2,0.1,0.5,0.1,0.9
		c0,0.4,0.1,0.7,0.1,1c0,0.1,0.1,0.2,0.1,0.2c0,0,0,0,0,0.1c0,0.1,0,0.2,0,0.2c0,0.4,0,0.8,0,1.1c0,0.2,0,0.6,0,1
		c0,0.5-0.1,0.5-0.1,0.9c0,0.2,0,0.5,0,0.7c0,0.3,0,1.3,0,2.1c0,0.4,0,0.6,0,0.8s0.1,0.4,0.1,0.6c0,0.1,0,0.1,0,0.2c0,0,0,0.1,0,0.3
		v0.3c0,0.1,0,0.2,0,0.3c0,0.1,0,0.2,0.2,0.2c0.6,0,0.6,0,0.7,0c0.3,0,0.4,0,0.7,0c0,0,0.1,0,0.1,0c0.2,0,0.4,0.1,0.5,0.1
		s0.2-0.1,0.2-0.3c0-0.3,0-0.5,0-0.7c0-0.2-0.1-0.5-0.1-0.8c0-0.4-0.1-0.6-0.1-1c0-0.7,0-0.8,0-1.7c0-0.2,0-0.3,0.1-0.4
		c0.2-0.2,0.5-0.1,0.9-0.1c0.4,0,1.3,0,1.7-0.1c0,0,0.1,0,0.2,0c0.2,0,0.5,0,0.8,0c0.1,0,0.4,0,0.5,0c0,0,0,0,0.1,0
		c0.2,0,0.4,0,0.4,0c0.4,0,0.5,0,0.7,0.1c0.1,0.1,0,1.1,0.1,1.4c0,0,0.1,0.2,0.1,0.3c0,0.2-0.1,0.4-0.1,0.5c0,0.4,0,0.8,0,1
		c0,0.1,0,0.2,0,0.3c0,0.3-0.1,0.6-0.2,1c0,0.1,0,0.2,0,0.3c0,0.1,0,0.2,0.1,0.2c0.1,0,0.2,0,0.4,0c0.3,0,0.7,0,0.8-0.2
		c0,0,0,0,0-0.1c0-0.1-0.1-0.4-0.2-0.7c0-0.2,0-1.6-0.1-2.3c-0.1-0.4-0.1-0.6-0.1-1v-0.7c0-0.6,0-0.8,0-1c0-0.1,0-0.3,0-0.5
		c0-0.1,0-0.2,0-0.4c0-0.4,0.1-0.6,0.1-1c0-0.4,0-0.8,0-1.1c0-0.2,0-0.6,0-0.7C94.3,41.8,94.5,41.4,94.5,41.1z"/>
	<path class="st1" d="M96.4,40.7c0.1,0,0.3,0.1,0.3,0.4c0,0.1,0,0.1,0,0.2c0,0.1,0,0.3,0,0.4c0,0.4,0,0.9,0,1.2c0,0.1,0,0.2,0,0.2
		c0,0.2,0,0.4,0,0.6c0,0.2,0,0.4,0,0.6c0,0.4,0,0.6,0,1.1c0,0.3,0,0.7,0,1.1c0,0.2,0,0.4,0,0.6c0,0.2,0,0.3,0,0.4c0,0.3,0,0.4,0,0.6
		c0,0.3,0,0.4,0,0.5c0,0.3,0,0.5,0,0.9c0,0.5,0,0.7,0,1c0,0.1,0,0.1,0,0.3c0,0.2,0,0.3,0,0.4c0,0.2,0,0.4-0.1,0.4
		c0,0.1-0.2,0.1-0.4,0.1c-0.1,0-0.2,0-0.3-0.2c0-0.1,0-0.1,0-0.2c0-0.3,0-0.8,0.1-1c0-0.1,0-0.1,0-0.2c0-0.3,0-0.7,0-1
		c0-0.3,0-0.6,0-0.8c0-0.2,0-0.3,0-0.4c0-0.3,0.1-0.6,0.1-0.8c0-0.2,0-0.4,0-0.6c0-0.1,0-0.3,0-0.4c0-0.3-0.1-1.1-0.1-1.5
		c0-1,0.1-1.4,0.1-1.8c0-0.1,0-0.3,0-0.4c0-0.3-0.1-0.4-0.1-0.5c0-0.1,0-0.3,0.1-0.4C96.1,40.8,96.2,40.7,96.4,40.7L96.4,40.7z
		 M99.7,46c-0.1,0-0.2,0-0.2,0c0,0.1,0,0.1,0,0.2c0,0.2,0.1,0.4,0.1,0.6c0,0.3,0,0.5,0,0.8c0,0.2-0.1,0.5-0.1,0.8v1
		c0,0.2,0,0.4,0,0.6c0,0.7,0.1,0.8,0.2,0.8c0.1,0,0.1,0,0.3,0h0.8c0.2,0,0.4,0,0.5,0c0.7-0.1,1.2-0.2,1.3-0.2c0.3,0,0.6-0.2,0.9-0.2
		c0.1,0,0.2-0.1,0.2-0.1c0.1,0,0.1,0,0.1,0.3c0,0.2-0.3,0.8-0.6,0.9c-0.1,0-0.2,0-0.3,0c-0.2,0-0.4,0-0.5,0c-0.1,0-0.5-0.1-0.7-0.1
		h-0.8c-0.1,0-0.4-0.1-0.5-0.1c-0.5,0-1.2,0.1-1.6,0.1c-0.4,0-0.7,0.1-1,0.1c-0.4,0-0.7-0.1-0.7-0.4c0-0.3,0-0.6,0-0.9
		c0-0.1,0.1-0.2,0.1-0.4v-0.6c0-0.3,0-0.6,0.1-0.9c0-0.1,0-0.2,0-0.4c0-0.1,0-0.2-0.1-0.3c0,0,0-0.1,0-0.3c0-0.2,0-0.6,0-0.9
		c0-0.3-0.1-0.5-0.1-0.7c0-0.3,0.1-0.7,0.1-0.7c0-0.1,0-0.2,0-0.3c0-0.2,0-0.3,0-0.4c0-0.1,0-0.2,0-0.3c0-0.4,0-1.1,0-1.5
		c0-0.4-0.1-1.1-0.1-1.5c0-0.2,0-0.3,0-0.3c0.1-0.1,0.2-0.1,0.4-0.1c0.3,0,0.4,0,0.5,0c0.4,0,0.3,0,0.5,0c0.1,0,0.3,0,0.5,0
		c0.3,0,0.6,0,1.6,0c0.4,0,0.8,0,1.1,0c0.4,0,1.1-0.1,1.3-0.1c0.2,0,0.6,0,0.6,0.2c0,0.3-0.3,0.6-0.4,0.7c-0.1,0,0,0.1-0.2,0.1
		c0,0-0.1,0-0.1,0c-0.3,0-0.5-0.2-0.7-0.2c-0.3,0-0.4-0.1-0.6-0.1c-1,0-1.6,0-2.1-0.1c-0.2,0-0.2,0.1-0.2,0.2c0,0.2-0.1,0.4-0.1,0.5
		c0,0.3,0,0.6,0.1,1c0,0.3,0,0.4,0,0.6l0,0.6c0,0.1,0,0.2,0,0.4c0,0.4,0,0.6,0.1,0.7c0,0.1,0.1,0.1,0.2,0.1c0.1,0,0.2,0,0.4,0
		c0.3,0,0.5,0,0.7-0.1c0.1,0,0.2,0,0.3,0c0.1,0,0.2,0,0.3,0c0.2,0,0.4-0.1,0.5-0.1c0.1,0,0.2,0.1,0.2,0.2c0,0.1,0,0.2-0.1,0.3
		c-0.1,0.2-0.3,0.4-0.5,0.4c0,0-0.1,0-0.1,0c-0.2,0-0.5-0.1-0.6-0.1s-0.3,0-0.4,0C100,46,99.8,46,99.7,46z"/>
	<path class="st1" d="M109.5,47.4c-0.1-0.4-0.1-0.8-0.1-1.1c0-0.2,0-0.4,0-0.6c0-0.2,0-0.3,0-0.4c0-0.3,0-0.6,0.2-1
		c0.2-0.6,0.4-1.5,0.5-1.5c0.1,0,0.1,0,0.1,0.1c0,0.2-0.1,0.5-0.1,0.9c0,0.5,0.1,0.8,0.1,1.2c0,0.1,0,0.2,0,0.3c0,0.2,0,0.3,0,0.4
		c0,0.2,0,0.4,0,0.8c0,0.5,0,0.6,0,1.2c0,0.5,0.1,0.5,0.1,0.8c0,0.5,0,0.7,0,0.7C110,49,109.7,48,109.5,47.4z M117.4,39.4
		c0.4,0,1.2,0.5,1.6,0.8c0.4,0.4,0.6,0.8,0.6,1.3c0,0.5-0.2,1.1-0.7,1.3c-0.3,0.1-0.5,0.3-0.8,0.3c-0.4,0-0.7-0.1-0.9-0.4
		c-0.2-0.2-0.2-0.4-0.2-0.6V42c0-0.2,0.1-0.4,0.2-0.4c0.1-0.1,0.2-0.1,0.4-0.1c0.1,0,0.3,0.1,0.4,0.2c0,0.1,0.1,0.1,0.1,0.2
		c0,0.2-0.1,0.4-0.1,0.4s0.1,0,0.2,0c0.1,0,0.2,0,0.3-0.1c0.2-0.1,0.3-0.6,0.3-0.8c0-0.7-0.8-1.1-1.5-1.3c-0.2,0-0.4,0-0.5,0h-0.4
		c-0.4,0-1.2,0.1-1.6,0.3c-0.5,0.3-0.8,0.4-1.1,0.9c-0.3,0.6-0.4,0.3-0.5,1c-0.1,0.5-0.1,1.4-0.1,2v0.6c0,1.2-0.1,1.3-0.1,1.8
		c0,0.2,0.2,0.3,0.2,0.6c0.1,0.7,0,1.5,0.1,2c0.2,0.9,0.2,1,0.6,1.3c0.2,0.2,0.4,0.2,0.5,0.2c0.2,0,0.2,0,0.3,0.1
		c0.2,0.2,1.1,0.3,1.6,0.3c0.5,0,1,0,1.2-0.2c0.5-0.3,1.9-0.5,1.9-1.6c0-0.3,0-0.7,0-1.7c0-0.2-0.1-0.5-0.1-0.6
		c0-0.2,0.1-0.5,0.1-0.6c0-0.4-0.1-0.6-0.1-0.6c-0.2,0-0.6,0-0.9,0c-0.1,0-0.2,0-0.4,0c-0.4,0-0.9,0.1-1,0.2
		c-0.1,0.1-0.3,0.1-0.3,0.1c-0.1,0-0.1,0-0.2-0.1c0-0.3,0.1-0.8,0.2-0.9c0.1-0.1,0.4-0.1,0.7-0.1c0.1,0,0.2,0,0.3,0
		c0.1,0,0.1,0,0.2,0c0.2,0,0.4,0,0.6,0c0.1,0,0.1,0,0.2,0c0.1,0,0.1,0,0.2,0c0.2,0,0.3,0,0.7,0c0.5,0,0.9,0,0.9,0.4c0,0,0,0.1,0,0.1
		c-0.1,0.3-0.1,0.7-0.1,1.8c0,0.5-0.1,1-0.1,1.4c0,0.1,0,0.9,0,0.9c0.1,0.3,0.2,0.3,0.2,0.6c0,0.2-0.6,0.4-1.1,0.8
		c-0.1,0.1-0.3,0.1-0.4,0.1c-0.4,0.1-1,0.4-1.5,0.5c-0.4,0.1-1.2,0.2-1.8,0.2c-0.1,0-0.2,0-0.3,0c-0.6-0.1-2-0.5-2.3-0.6
		c-0.3-0.1-0.6-0.5-1.1-0.6c-0.4-0.1-0.8-0.5-1.1-1.2c-0.2-0.4-0.2-0.9-0.2-1.3c0-0.4,0-0.8,0-1.1c0-0.3,0-0.4,0-0.5
		c0-0.3,0-0.4,0-0.7c0-0.1,0-0.2,0-0.3c0-0.6-0.1-1.1-0.1-1.9c0-1,0.2-1.6,0.5-1.9c0.3-0.3,0.4-0.7,1-1.1c0.6-0.4,0.9-0.6,1.4-0.8
		c0.5-0.3,1.4-0.3,1.8-0.5c0.2,0,0.6-0.1,0.9-0.1C116.6,39.3,117.2,39.4,117.4,39.4z"/>
	<path class="st1" d="M122.1,40.7c0.2,0,0.4,0.4,0.4,0.8c0,0.1,0,0.2,0,0.2c0,0.1,0,0.3,0,0.4c0,0.3,0.1,0.6,0.1,0.8
		c0,0.1,0,0.1,0,0.2c0,0.2,0,0.4,0,0.5c0,0.2,0,0.4,0,0.7c0,0.4,0,0.6,0,1.1c0,0.3,0,0.7,0,1.1c0,0.2,0,0.4,0,0.6c0,0.1,0,0.3,0,0.4
		c0,0.2,0,0.4,0,0.6c0,0.1,0,0.1,0,0.2c0,0.1,0,0.3,0,0.4c0,0.3,0,0.5,0,0.9c0,0.5,0,0.7,0,1v0.2c0,0.5,0,0.7-0.1,0.8
		c-0.1,0.1-0.2,0.1-0.4,0.1c-0.1,0-0.3-0.1-0.3-0.2c0-0.5,0-1,0.1-1.2c0-0.1,0-0.1,0-0.2c0-0.3,0-0.7,0-1c0-0.3,0.1-0.6,0.1-0.8
		c0-0.1,0-0.2,0-0.3c0,0,0-0.1,0-0.2c0-0.3,0.1-0.6,0.1-0.8c0,0,0-0.1,0-0.1c0-0.2,0-0.3,0-0.5c0-0.1,0-0.3,0-0.4
		c0-0.3-0.1-1.1-0.1-1.5c0-1,0.1-1.4,0.1-1.8c0-0.1,0-0.2,0-0.4c0-0.3,0-0.4,0-0.6c0-0.2,0-0.3,0-0.5
		C121.9,40.8,122,40.7,122.1,40.7z M131.4,51.3c0-0.3-0.3-0.4-0.4-0.6c-0.3-0.3-0.5-0.4-0.6-0.8c0-0.3-0.3-1.2-0.4-1.6
		c-0.1-0.4-0.1-0.6-0.3-0.8c-0.1-0.2-0.5-0.5-0.6-0.7c-0.5-0.6-0.5-0.6-0.7-0.6c0,0,0.4-0.3,0.7-0.4c0.3-0.1,0.6-0.6,0.9-0.9
		c0.2-0.4,0.4-1,0.4-1.3c0-0.4,0-1.2-0.2-1.5c-0.2-0.3-0.5-0.8-0.9-1c-0.4-0.1-1-0.4-1.7-0.4h-1.5c-0.1,0-0.2,0-0.4,0
		c-0.5,0-1.1,0.1-1.5,0.1c-0.1,0-0.3,0-0.4,0c-0.2,0-0.3,0-0.4,0c-0.1,0-0.2,0-0.4,0.1c-0.1,0.1-0.1,0.4-0.1,0.7
		c0,0.6,0.1,1.4,0.1,1.7c0,0.1,0,0.2,0,0.3c0,0.3,0,0.6,0,0.9c0,0.2,0,0.4,0,0.6c0,0.4,0,0.6,0,0.9c0,0.4,0,0.9,0,1.5
		c0,0.3,0,0.6,0,1c0,0.7,0,1.5,0,1.7c0,0.2,0,0.2,0,0.3c0,0.2-0.1,0.4-0.1,0.9c0,0.2,0.4,0.3,0.9,0.3c0.1,0,0.2,0,0.3,0
		c0.3,0,0.7,0,0.9-0.1c0.2,0,0.3-0.2,0.3-0.4c0-0.2,0-0.3-0.1-0.5c0-0.1,0-0.3,0-0.5v-0.6c0-0.5,0-0.7,0-1.2c0-0.4-0.1-0.6-0.1-0.8
		c0-0.1,0-0.2,0-0.2c0.2-0.3,0.4-0.4,0.6-0.4c0.3,0,0.3,0,0.5,0c0.1,0,0.5,0,0.6,0.1c0.4,0.2,0.5,0.3,0.7,0.8
		c0.2,0.4,0.5,0.6,0.7,1.5c0,0.2,0.3,1.2,0.4,1.4c0,0.3,0.3,0.8,0.5,0.9c0.1,0,0.2,0,0.3,0c0.3,0,0.7-0.1,0.9-0.1c0.3,0,0.4,0,0.7,0
		c0.1,0,0.2,0,0.3,0C131.3,51.6,131.4,51.5,131.4,51.3z M125.1,41.5c0-0.2,0.6-0.1,1.1-0.2c0.6,0,2,0,2.4,0.2
		c0.4,0.2,0.6,0.4,0.8,0.9c0,0.2,0.1,0.5,0.1,0.8c0,0.1,0,0.3,0,0.4c0,0.3-0.2,0.9-0.5,1.3c-0.3,0.4-1,0.6-1.4,0.9
		c-0.3,0.2-1,0.2-1.3,0.3c-0.1,0-0.2,0-0.4,0c-0.2,0-0.4,0-0.5,0c-0.1,0-0.2,0-0.2,0v-0.3c0-0.3,0-0.9,0-1.2c0,0,0-0.1,0-0.2
		c0-0.5-0.1-1.3-0.1-1.9c0-0.2,0-0.3,0-0.4C125,41.8,125.1,41.6,125.1,41.5z"/>
	<path class="st1" d="M132.7,40.7c0.1,0,0.3,0.1,0.3,0.4c0,0.1,0,0.1,0,0.2c0,0.1,0,0.3,0,0.4c0,0.4,0,0.9,0,1.2c0,0.1,0,0.2,0,0.2
		c0,0.2,0,0.4,0,0.6c0,0.2,0,0.4,0,0.6c0,0.4,0,0.6,0,1.1c0,0.3,0,0.7,0,1.1c0,0.2,0,0.4,0,0.6c0,0.2,0,0.3,0,0.4c0,0.3,0,0.4,0,0.6
		c0,0.3,0,0.4,0,0.5c0,0.3,0,0.5,0,0.9c0,0.5,0,0.7,0,1c0,0.1,0,0.1,0,0.3c0,0.2,0,0.3,0,0.4c0,0.2,0,0.4-0.1,0.4
		c0,0.1-0.2,0.1-0.4,0.1c-0.1,0-0.2,0-0.3-0.2c0-0.1,0-0.1,0-0.2c0-0.3,0-0.8,0.1-1c0-0.1,0-0.1,0-0.2c0-0.3,0-0.7,0-1
		c0-0.3,0-0.6,0-0.8c0-0.2,0-0.3,0-0.4c0-0.3,0.1-0.6,0.1-0.8c0-0.2,0-0.4,0-0.6c0-0.1,0-0.3,0-0.4c0-0.3-0.1-1.1-0.1-1.5
		c0-1,0.1-1.4,0.1-1.8c0-0.1,0-0.3,0-0.4c0-0.3-0.1-0.4-0.1-0.5c0-0.1,0-0.3,0.1-0.4C132.4,40.8,132.4,40.7,132.7,40.7L132.7,40.7z
		 M135.9,46c-0.1,0-0.2,0-0.2,0c0,0.1,0,0.1,0,0.2c0,0.2,0.1,0.4,0.1,0.6c0,0.3,0,0.5,0,0.8c0,0.2-0.1,0.5-0.1,0.8v1
		c0,0.2,0,0.4,0,0.6c0,0.7,0.1,0.8,0.2,0.8c0.1,0,0.1,0,0.3,0h0.8c0.2,0,0.4,0,0.5,0c0.7-0.1,1.2-0.2,1.3-0.2c0.3,0,0.6-0.2,0.9-0.2
		c0.1,0,0.2-0.1,0.2-0.1c0.1,0,0.1,0,0.1,0.3c0,0.2-0.3,0.8-0.6,0.9c-0.1,0-0.2,0-0.3,0c-0.2,0-0.4,0-0.5,0c-0.1,0-0.5-0.1-0.7-0.1
		h-0.8c-0.1,0-0.4-0.1-0.5-0.1c-0.5,0-1.2,0.1-1.6,0.1c-0.4,0-0.7,0.1-1,0.1c-0.4,0-0.7-0.1-0.7-0.4c0-0.3,0-0.6,0-0.9
		c0-0.1,0.1-0.2,0.1-0.4v-0.6c0-0.3,0-0.6,0.1-0.9c0-0.1,0-0.2,0-0.4c0-0.1,0-0.2-0.1-0.3c0,0,0-0.1,0-0.3c0-0.2,0-0.6,0-0.9
		c0-0.3-0.1-0.5-0.1-0.7c0-0.3,0.1-0.7,0.1-0.7c0-0.1,0-0.2,0-0.3c0-0.2,0-0.3,0-0.4c0-0.1,0-0.2,0-0.3c0-0.4,0-1.1,0-1.5
		c0-0.4-0.1-1.1-0.1-1.5c0-0.2,0-0.3,0-0.3c0.1-0.1,0.2-0.1,0.4-0.1c0.3,0,0.4,0,0.5,0c0.4,0,0.3,0,0.5,0c0.1,0,0.3,0,0.5,0
		c0.3,0,0.6,0,1.6,0c0.4,0,0.8,0,1.1,0c0.4,0,1.1-0.1,1.3-0.1c0.2,0,0.6,0,0.6,0.2c0,0.3-0.3,0.6-0.4,0.7c-0.1,0,0,0.1-0.2,0.1
		c0,0-0.1,0-0.1,0c-0.3,0-0.5-0.2-0.7-0.2c-0.3,0-0.4-0.1-0.6-0.1c-1,0-1.6,0-2.1-0.1c-0.2,0-0.2,0.1-0.2,0.2c0,0.2-0.1,0.4-0.1,0.5
		c0,0.3,0,0.6,0.1,1c0,0.3,0,0.4,0,0.6l0,0.6c0,0.1,0,0.2,0,0.4c0,0.4,0,0.6,0.1,0.7c0,0.1,0.1,0.1,0.2,0.1c0.1,0,0.2,0,0.4,0
		c0.3,0,0.5,0,0.7-0.1c0.1,0,0.2,0,0.3,0c0.1,0,0.2,0,0.3,0c0.2,0,0.4-0.1,0.5-0.1c0.1,0,0.2,0.1,0.2,0.2c0,0.1,0,0.2-0.1,0.3
		c-0.1,0.2-0.3,0.4-0.5,0.4c0,0-0.1,0-0.1,0c-0.2,0-0.5-0.1-0.6-0.1s-0.3,0-0.4,0C136.3,46,136.1,46,135.9,46z"/>
</g>
<g class="st2">
	<path class="st1" d="M148.1,51.6c-0.3,0-0.4,0-0.5,0c-0.1,0-0.1,0-0.2,0c0,0-0.2-0.1-0.2-0.1C147,51.4,147,51,147,51
		c0-0.1-0.1-0.3-0.1-0.4c0,0,0-0.1,0-0.1c0-0.1,0-0.1-0.1-0.2c-0.2-0.2-0.2-0.6-0.4-0.8c-0.1-0.2-0.4-0.9-0.5-0.9c-0.1,0-0.6,0-1,0
		c-0.3,0-0.5-0.1-0.7-0.1c-0.1,0-0.2,0-0.3,0c-0.1,0-0.4,0.1-0.5,0.1c-0.4,0-0.7-0.1-0.8-0.1c-0.1,0-0.2,0.1-0.3,0.4
		c-0.1,0.3-0.2,0.6-0.3,0.8c-0.1,0.2-0.2,0.5-0.3,0.8c-0.1,0.1-0.1,0.4-0.1,0.5c0,0,0,0.4-0.1,0.6c0,0.1-0.2,0.1-0.5,0.1
		c-0.1,0-0.1,0-0.2,0h-0.4c-0.1,0-0.1,0-0.1-0.1c0-0.1,0-0.2,0.1-0.3c0-0.2,0.4-0.7,0.4-0.8c0.1-0.2,0.2-0.4,0.4-0.6
		c0.2-0.3,0.4-1,0.4-1.1c0-0.1-0.1-0.3-0.1-0.6c0.1-0.2,0.1-0.2,0.4-0.3c0.3-0.1,0.2-0.6,0.4-0.9c0.2-0.3,0.3-0.9,0.5-1.2
		c0.2-0.3,0.4-0.8,0.5-1.2c0.1-0.3,0.3-0.8,0.5-1.1c0.2-0.4,0.3-0.8,0.4-0.8c0.1,0,0.2,0.3,0.4,0.8c0.1,0.5,0.4,1.1,0.5,1.4
		c0.1,0.3,0.4,0.9,0.5,1.2c0.1,0.3,0.4,1,0.8,1.7c0.4,0.7,0.4,1,0.6,1.3c0.1,0.4,0.3,0.6,0.4,1c0.1,0.4,0.4,0.7,0.5,0.9
		s0.3,0.4,0.3,0.6C148.2,51.6,148.2,51.6,148.1,51.6z M143.7,45.3c0,0.2-0.3,0.8-0.4,1.1c-0.2,0.2-0.2,0.5-0.3,0.7
		c0,0.1-0.2,0.6-0.2,0.7c0,0,0,0,0.1,0c0.1,0,0.2,0,0.4,0c0.2,0,0.4,0,0.6,0c0,0,0.1,0,0.1,0c0,0,0.2,0.1,0.4,0.1c0.1,0,1.3,0,1.3,0
		c0,0-0.1-0.3-0.2-0.6c-0.1-0.3-0.3-0.6-0.4-0.9c-0.1-0.4-0.3-0.6-0.4-1c-0.1-0.4-0.2-0.6-0.3-0.8c0-0.1-0.2-0.5-0.2-0.5
		c0,0-0.1,0.4-0.1,0.4C144,44.6,143.8,45,143.7,45.3z M149.8,51.5c-0.2,0-0.6,0.1-0.8,0.1c-0.3,0-0.3-0.1-0.4-0.2
		c-0.2-0.3-0.3-0.3-0.4-0.8c-0.1-0.5-0.3-0.5-0.5-1c-0.2-0.5-0.5-1-0.7-1.3c-0.1-0.3-0.2-0.4-0.4-0.9c-0.1-0.5-0.3-0.4-0.4-0.9
		c-0.1-0.4-0.3-0.6-0.4-1c-0.2-0.4-0.4-1-0.5-1.4c-0.2-0.3-0.2-0.5-0.4-1c-0.2-0.6-0.4-0.8-0.4-1c0-0.1,0.1-0.4,0.3-0.8
		c0.2-0.4,0.4-0.8,0.6-0.8c0.2,0,0.4,0.2,0.5,0.5c0.1,0.2,0.8,1.2,0.8,1.6c0.1,0.3,0.4,1,0.6,1.4c0.2,0.4,0.6,1.3,0.7,1.7
		c0.1,0.4,0.5,0.8,0.6,1.2c0.1,0.4,0.4,0.8,0.6,1.4c0.2,0.6,0.2,0.4,0.3,0.7c0.1,0.3,0.3,0.6,0.5,0.9c0.1,0.3,0.3,0.7,0.4,0.8
		c0,0.2,0.4,0.5,0.4,0.8c0,0.1-0.1,0.2-0.3,0.2c-0.1,0-0.2,0-0.3,0C150.2,51.5,149.9,51.5,149.8,51.5z"/>
</g>
<g class="st2">
	<path class="st1" d="M152.7,40.8c0.2,0,0.3,0.1,0.3,0.4c0,0.3,0,0.6,0,1c0,0.3-0.1,0.6-0.1,1c0,0.1,0,0.2,0,0.3c0,0.3,0,0.5,0,0.7
		c0,0.3,0,0.5,0,0.7c0,0.1,0,0.3,0,0.4c0,0.3,0,0.6,0,1.1c0,0.3,0,0.5,0,0.7c0,0.1,0,0.3,0.1,0.4c0,0.1,0,0.2,0,0.3
		c0,0.3-0.1,0.7-0.1,1c0,0.4,0,1.2,0,1.7c0,0.1,0,0.2,0,0.3c0,0.1,0,0.2,0,0.3c0,0.2,0,0.3,0,0.4c0,0.1-0.3,0.2-0.5,0.2
		c-0.2,0-0.3,0-0.3-0.2c0-0.3,0-1.3,0.1-1.8c0-0.2,0-0.4,0-1.4c0-0.5,0-1.2,0-1.8c0-0.2,0-0.4,0-0.8c0-0.4,0-0.7,0-1.3
		c0-0.2,0-0.4,0-0.6c0-0.1,0-0.2,0-0.3c0-0.2,0-0.5,0-0.7c0-0.3,0-0.5,0-0.6c-0.1-0.2,0-0.5-0.4-0.5c-0.2,0-0.5,0.1-0.9,0.1
		c-0.3,0-0.6,0.1-0.7,0.1c0,0-0.1,0-0.2,0h-0.3c-0.1,0-0.2,0-0.2-0.2c0-0.1,0-0.3,0.2-0.5c0.1-0.2,0.2-0.4,0.4-0.4c0,0,0,0,0.1,0
		c0.1,0,0.6,0.2,0.9,0.2c0.2,0,0.4,0,0.6,0c0.1,0,0.1,0,0.2,0C152.2,40.8,152.4,40.8,152.7,40.8z M153.4,49.5v-1.8
		c0-0.4,0-0.8,0-1.2c0-0.1,0-0.2,0-0.3c0-0.4,0-0.6,0.1-1c0,0,0-0.1,0-0.1c0-0.3-0.2-0.6-0.2-0.8c0-0.1,0-0.1,0-0.2
		c0-0.2,0-0.5,0-0.8c0-0.4,0.1-0.7,0.1-1.2c0-0.1,0-0.2,0-0.3c0-0.1,0-0.1,0-0.4c0-0.5,0-0.5,0.3-0.5c0.4,0,1.1-0.1,1.7-0.1
		c0.6,0,0.8,0,1.1,0.1c0,0,0.1,0,0.2,0c0.3,0,0.4-0.2,0.9-0.2c0.4,0,0.4,0,0.5,0.3c0,0.3-0.2,0.8-0.4,0.8c-0.3,0-0.5-0.2-1-0.3
		c-0.3,0-0.6-0.1-0.8-0.1c-0.1,0-0.2,0-0.3,0c-0.2,0-0.3,0.2-0.3,0.6c0,0.1,0,0.2,0,0.2v1.5c0,0.2,0,0.4,0,0.6c0,0.6,0,1.6,0,2.3
		s0.1,1.4,0.2,2c0,0.2,0,0.4,0,0.5c0,0.3-0.1,0.5-0.1,0.8c0,0.6,0.2,0.7,0.3,1c0,0,0,0.1,0,0.1c0,0.2-0.1,0.3-0.3,0.3
		c-0.1,0-0.2,0-0.2,0h-0.1c-0.2,0-0.4,0-0.6,0c-0.1,0-0.3,0.1-0.4,0.1c-0.2,0-0.4,0.1-0.5,0.1c-0.1,0-0.3-0.1-0.3-0.3
		C153.4,50.8,153.4,49.5,153.4,49.5z"/>
	<path class="st1" d="M164.7,40.5c0,0.1,0,0.2,0,0.2c0,0.1,0,0.3,0,0.4c0,0.3,0,0.6,0,0.9c0,0.1,0,0.2,0,0.2c0,0.2,0,0.4,0,0.7
		c0,0.2,0,0.4,0,0.7c0,0.4,0,0.7,0,1.2c0,0.3,0,0.8,0,1.2c0,0.2,0,0.4,0,0.6c0,0.2,0,0.3,0,0.4c0,0.3,0,0.4,0,0.7c0,0.4,0,0.5,0,0.6
		c0,0.3,0,0.5,0,1c0,0.5,0.1,0.7,0.1,1.1c0,0.1,0,0.2,0,0.3c0,0.2,0,0.3,0,0.4c0,0.2,0,0.4-0.1,0.5c-0.1,0.1-0.3,0.2-0.4,0.2
		c-0.1,0-0.3,0-0.3-0.2c0-0.1,0-0.1,0-0.3c0-0.4,0.1-0.9,0.1-1.1c0-0.1,0-0.1,0-0.2c0-0.3,0-0.7,0-1.1c0-0.3,0-0.6,0-0.9
		c0-0.1,0-0.2,0-0.3c0,0,0-0.1,0-0.2c0-0.3,0.1-0.7,0.1-0.9c0-0.3,0-0.4,0-0.6c0-0.2,0-0.3,0-0.4c0-0.3-0.1-1.2-0.1-1.7
		c0-1.1,0.1-1.6,0.1-2c0-0.1,0-0.3,0-0.4c0-0.3-0.1-0.5-0.1-0.6c0-0.2,0-0.3,0.1-0.6c0-0.4,0.1-0.4,0.3-0.4
		C164.5,39.5,164.7,40,164.7,40.5z M165.6,39.5c0.1,0,0.4,0.1,0.5,0.1c0.2,0,0.5,0,0.6,0c0.1,0,0.2,0,0.4,0c0.4,0,0.7,0,1.1,0h0.4
		c0.6,0,0.5,0,1.1-0.1c0.6,0,1.3,0.4,1.6,0.4c0.6,0.4,1.5,1,1.5,1.9c0,0.4,0,1-0.2,1.5c-0.2,0.6-0.6,0.9-1,1.2
		c-0.1,0.1-0.3,0.2-0.3,0.3c0,0.1,0.1,0.2,0.3,0.2c1.1,0.5,1.3,0.6,1.8,1.7c0.1,0.3,0.2,0.6,0.2,0.9c0,0.2,0,0.3,0,0.6
		c-0.1,0.7-0.2,0.9-0.4,1.4c-0.2,0.5-0.5,0.8-1,1.2c-0.4,0.3-0.9,0.5-1.3,0.6c-0.1,0-0.2,0-0.4,0c-0.3,0-0.4,0-0.7,0
		c-0.3,0-1.1,0-1.6,0c-0.4,0-1,0.1-1.6,0.1c-0.3,0-0.5,0-0.9,0c-0.2,0-0.1,0-0.2,0c-0.1-0.1-0.2-0.1-0.3-0.1c-0.2,0-0.2-0.1-0.2-0.3
		v-0.4c0-0.1,0.1-0.3,0.1-0.8c0-0.3,0-0.5,0-0.7c0-0.1,0-0.3,0.1-0.5c0-0.5-0.1-0.8-0.1-1.1c0-0.2,0-0.4,0-0.7c0-0.2,0-0.5,0-0.8
		c0-0.1,0-0.3,0-0.4c0-0.1,0-0.2,0-0.3c0-0.2,0-0.5,0-0.6c0-0.2,0.1-0.4,0.1-0.9c0-0.3,0-0.5,0-1c0-0.6,0.1-1.4,0.1-1.7
		c0-0.3-0.1-0.8-0.1-1.2c0-0.1,0-0.2,0-0.3C165.2,39.5,165.2,39.5,165.6,39.5z M169.7,45.5c-0.1,0-0.3,0-0.4,0
		c-0.7,0-0.8,0.3-0.8,0.7c0,0.2,0.2,0.4,0.2,0.4s0.2-0.4,0.4-0.4c0.3,0,0.5,0.2,0.5,0.5c0,0.3-0.3,0.6-0.8,0.6
		c-0.5,0-1.1-0.4-1.1-1.1c0-0.4,0.1-0.7,0.4-0.9c0.1-0.1,0.3-0.3,0.5-0.3c0.3,0,0.5-0.1,0.7-0.1c0.1,0,0.1,0,0.2,0c0,0,0.1,0,0.2,0
		c0.5,0,0.8-0.4,1-0.4c0.3-0.1,0.8-0.7,0.9-0.9c0.1-0.3,0.3-0.3,0.3-0.9c0-0.8,0-1.1-0.1-1.3c-0.1-0.3-0.4-0.7-0.8-0.8
		c-0.3-0.1-1-0.3-1.8-0.3c-0.3,0-0.5,0-0.8,0c0,0-0.1,0-0.2,0c-0.2,0-0.4,0-0.5,0s-0.3,0-0.4,0.1c-0.1,0.1-0.1,0.3-0.1,0.4
		c0,0.1,0,0.3,0,0.6V44c0,0.2-0.1,1.8-0.1,2c0.1,0.4,0.1,0.9,0.1,1.5c0,0.6,0,1,0,1.4c0,0.4,0.1,0.8,0.1,1.3c0,0.3,0,0.5,0,0.6
		c0,0.1,0,0.2,0.1,0.2c0,0,0.1,0,0.1,0c0.3,0,0.8-0.1,1.2-0.1c1,0,1,0,1.1,0c0.4,0,0.9,0,1.6-0.4c0.4-0.2,0.8-0.6,0.9-0.9
		c0.1-0.3,0.4-0.6,0.4-0.9c0,0,0-0.7,0-0.8c-0.1-0.5,0-0.6-0.2-1.1c-0.2-0.5-0.6-0.5-0.8-0.8c-0.2-0.3-1.2-0.4-1.6-0.4L169.7,45.5z"
		/>
	<path class="st1" d="M175.1,40.7c0.2,0,0.4,0.4,0.4,0.8c0,0.1,0,0.2,0,0.2c0,0.1,0,0.3,0,0.4c0,0.3,0.1,0.6,0.1,0.8
		c0,0.1,0,0.1,0,0.2c0,0.2,0,0.4,0,0.5c0,0.2,0,0.4,0,0.7c0,0.4,0,0.6,0,1.1c0,0.3,0,0.7,0,1.1c0,0.2,0,0.4,0,0.6c0,0.1,0,0.3,0,0.4
		c0,0.2,0,0.4,0,0.6c0,0.1,0,0.1,0,0.2c0,0.1,0,0.3,0,0.4c0,0.3,0,0.5,0,0.9c0,0.5,0,0.7,0,1v0.2c0,0.5,0,0.7-0.1,0.8
		c-0.1,0.1-0.2,0.1-0.4,0.1c-0.1,0-0.3-0.1-0.3-0.2c0-0.5,0-1,0.1-1.2c0-0.1,0-0.1,0-0.2c0-0.3,0-0.7,0-1c0-0.3,0.1-0.6,0.1-0.8
		c0-0.1,0-0.2,0-0.3c0,0,0-0.1,0-0.2c0-0.3,0.1-0.6,0.1-0.8c0,0,0-0.1,0-0.1c0-0.2,0-0.3,0-0.5c0-0.1,0-0.3,0-0.4
		c0-0.3-0.1-1.1-0.1-1.5c0-1,0.1-1.4,0.1-1.8c0-0.1,0-0.2,0-0.4c0-0.3,0-0.4,0-0.6c0-0.2,0-0.3,0-0.5
		C174.9,40.8,175,40.7,175.1,40.7z M184.4,51.3c0-0.3-0.3-0.4-0.4-0.6c-0.3-0.3-0.5-0.4-0.6-0.8c0-0.3-0.3-1.2-0.4-1.6
		c-0.1-0.4-0.1-0.6-0.3-0.8c-0.1-0.2-0.5-0.5-0.6-0.7c-0.5-0.6-0.5-0.6-0.7-0.6c0,0,0.4-0.3,0.7-0.4c0.3-0.1,0.6-0.6,0.9-0.9
		c0.2-0.4,0.4-1,0.4-1.3c0-0.4,0-1.2-0.2-1.5c-0.2-0.3-0.5-0.8-0.9-1c-0.4-0.1-1-0.4-1.7-0.4h-1.5c-0.1,0-0.2,0-0.4,0
		c-0.5,0-1.1,0.1-1.5,0.1c-0.1,0-0.3,0-0.4,0c-0.2,0-0.3,0-0.4,0c-0.1,0-0.2,0-0.4,0.1c-0.1,0.1-0.1,0.4-0.1,0.7
		c0,0.6,0.1,1.4,0.1,1.7c0,0.1,0,0.2,0,0.3c0,0.3,0,0.6,0,0.9c0,0.2,0,0.4,0,0.6c0,0.4,0,0.6,0,0.9c0,0.4,0,0.9,0,1.5
		c0,0.3,0,0.6,0,1c0,0.7,0,1.5,0,1.7c0,0.2,0,0.2,0,0.3c0,0.2-0.1,0.4-0.1,0.9c0,0.2,0.4,0.3,0.9,0.3c0.1,0,0.2,0,0.3,0
		c0.3,0,0.7,0,0.9-0.1c0.2,0,0.3-0.2,0.3-0.4c0-0.2,0-0.3-0.1-0.5c0-0.1,0-0.3,0-0.5v-0.6c0-0.5,0-0.7,0-1.2c0-0.4-0.1-0.6-0.1-0.8
		c0-0.1,0-0.2,0-0.2c0.2-0.3,0.4-0.4,0.6-0.4c0.3,0,0.3,0,0.5,0c0.1,0,0.5,0,0.6,0.1c0.4,0.2,0.5,0.3,0.7,0.8
		c0.2,0.4,0.5,0.6,0.7,1.5c0,0.2,0.3,1.2,0.4,1.4c0,0.3,0.3,0.8,0.5,0.9c0.1,0,0.2,0,0.3,0c0.3,0,0.7-0.1,0.9-0.1c0.3,0,0.4,0,0.7,0
		c0.1,0,0.2,0,0.3,0C184.4,51.6,184.4,51.5,184.4,51.3z M178.1,41.5c0-0.2,0.6-0.1,1.1-0.2c0.6,0,2,0,2.4,0.2
		c0.4,0.2,0.6,0.4,0.8,0.9c0,0.2,0.1,0.5,0.1,0.8c0,0.1,0,0.3,0,0.4c0,0.3-0.2,0.9-0.5,1.3c-0.3,0.4-1,0.6-1.4,0.9
		c-0.3,0.2-1,0.2-1.3,0.3c-0.1,0-0.2,0-0.4,0c-0.2,0-0.4,0-0.5,0c-0.1,0-0.2,0-0.2,0v-0.3c0-0.3,0-0.9,0-1.2c0,0,0-0.1,0-0.2
		c0-0.5-0.1-1.3-0.1-1.9c0-0.2,0-0.3,0-0.4C178.1,41.8,178.1,41.6,178.1,41.5z"/>
	<path class="st1" d="M185.7,40.7c0.3,0,0.4,0.2,0.4,0.4c0,0,0,0.1,0,0.1c0,0.1,0,0.3,0,0.4c0,0.4,0.1,1,0.1,1.3c0,0.1,0,0.1,0,0.2
		c0,0.2,0,0.4,0,0.5c0,0.2,0,0.4,0,0.7c0,0.4,0,0.6,0,1.1c0,0.3,0,0.7,0,1.1c0,0.2,0,0.4,0,0.6c0,0.1,0,0.3,0,0.4c0,0.2,0,0.4,0,0.6
		c0,0.2,0,0.4,0,0.6c0,0.3,0,0.5,0,0.9c0,0.5,0,0.7,0,1v0.2c0,0.5,0,0.7-0.1,0.8c-0.1,0.1-0.2,0.1-0.4,0.1c-0.1,0-0.3-0.1-0.3-0.4
		c0-0.4,0-0.9,0.1-1.1c0-0.1,0-0.1,0-0.2c0-0.3,0-0.7,0-1c0-0.3,0.1-0.6,0.1-0.8c0-0.2,0-0.3,0-0.4c0-0.3,0.1-0.6,0.1-0.8
		c0,0,0-0.1,0-0.1c0-0.2,0-0.3,0-0.5c0-0.1,0-0.3,0-0.4c0-0.3-0.1-1.1-0.1-1.5c0-1,0.1-1.4,0.1-1.8c0-0.1,0-0.2,0-0.4
		c0-0.3,0-0.4,0-0.6c0-0.2,0-0.3,0-0.5C185.5,40.8,185.5,40.7,185.7,40.7z M188.9,50.9c0-0.1-0.1-0.5-0.1-0.7c0-0.4,0-0.6,0-1
		c0-0.2,0-0.4,0-0.6c0-0.6-0.2-1.3-0.2-2c0-0.5,0.1-0.6,0.1-0.9c0,0,0-0.1,0-0.1c0-0.3-0.2-1-0.2-1.4c0-0.3,0.1-0.8,0.1-1.2
		c0-0.2,0-0.4,0-0.6c0-0.5,0.1-0.9,0.1-1.1c0-0.3-0.1-0.4-0.4-0.4c-0.5,0-0.9-0.1-1.3-0.1c-0.6,0-0.7,0.2-0.7,0.5c0,0.1,0,0.3,0,0.5
		c0,0.3,0.2,1.6,0.2,2.1c0,0.4,0,1.1,0,2.4c0,0.4,0,0.8,0,1.2c0,0.1,0,0.2,0,0.4c0,0.3,0,0.6,0,0.8v0.8c0,0.2,0,0.4,0,0.6
		c0,0.2-0.1,0.5-0.1,0.7c0,0.2,0,0.3,0,0.4c0,0.3,0.1,0.5,0.4,0.5c0.4,0,0.7-0.1,1-0.1c0.1,0,0.4,0,0.6,0.1
		C188.5,51.5,188.9,51.5,188.9,50.9z"/>
	<path class="st1" d="M192.8,40.8c0.2,0,0.3,0.1,0.3,0.4c0,0.3,0,0.6,0,1c0,0.3-0.1,0.6-0.1,1c0,0.1,0,0.2,0,0.3c0,0.3,0,0.5,0,0.7
		c0,0.3,0,0.5,0,0.7c0,0.1,0,0.3,0,0.4c0,0.3,0,0.6,0,1.1c0,0.3,0,0.5,0,0.7c0,0.1,0,0.3,0.1,0.4c0,0.1,0,0.2,0,0.3
		c0,0.3-0.1,0.7-0.1,1c0,0.4,0,1.2,0,1.7c0,0.1,0,0.2,0,0.3c0,0.1,0,0.2,0,0.3c0,0.2,0,0.3,0,0.4c0,0.1-0.3,0.2-0.5,0.2
		c-0.2,0-0.3,0-0.3-0.2c0-0.3,0-1.3,0.1-1.8c0-0.2,0-0.4,0-1.4c0-0.5,0-1.2,0-1.8c0-0.2,0-0.4,0-0.8c0-0.4,0-0.7,0-1.3
		c0-0.2,0-0.4,0-0.6c0-0.1,0-0.2,0-0.3c0-0.2,0-0.5,0-0.7c0-0.3,0-0.5,0-0.6c-0.1-0.2,0-0.5-0.4-0.5c-0.2,0-0.5,0.1-0.9,0.1
		s-0.6,0.1-0.7,0.1c0,0-0.1,0-0.2,0H190c-0.1,0-0.2,0-0.2-0.2c0-0.1,0-0.3,0.2-0.5c0.1-0.2,0.2-0.4,0.4-0.4c0,0,0,0,0.1,0
		c0.1,0,0.6,0.2,0.9,0.2c0.2,0,0.4,0,0.6,0c0.1,0,0.1,0,0.2,0C192.3,40.8,192.6,40.8,192.8,40.8z M193.6,49.5v-1.8
		c0-0.4,0-0.8,0-1.2c0-0.1,0-0.2,0-0.3c0-0.4,0-0.6,0.1-1c0,0,0-0.1,0-0.1c0-0.3-0.2-0.6-0.2-0.8c0-0.1,0-0.1,0-0.2
		c0-0.2,0-0.5,0-0.8c0-0.4,0.1-0.7,0.1-1.2c0-0.1,0-0.2,0-0.3c0-0.1,0-0.1,0-0.4c0-0.5,0-0.5,0.3-0.5c0.4,0,1.1-0.1,1.7-0.1
		c0.6,0,0.8,0,1.1,0.1c0,0,0.1,0,0.2,0c0.3,0,0.4-0.2,0.9-0.2c0.4,0,0.4,0,0.5,0.3c0,0.3-0.2,0.8-0.4,0.8c-0.3,0-0.5-0.2-1-0.3
		c-0.3,0-0.6-0.1-0.8-0.1c-0.1,0-0.2,0-0.3,0c-0.2,0-0.3,0.2-0.3,0.6c0,0.1,0,0.2,0,0.2v1.5c0,0.2,0,0.4,0,0.6c0,0.6,0,1.6,0,2.3
		s0.1,1.4,0.2,2c0,0.2,0,0.4,0,0.5c0,0.3-0.1,0.5-0.1,0.8c0,0.6,0.2,0.7,0.3,1c0,0,0,0.1,0,0.1c0,0.2-0.1,0.3-0.3,0.3
		c-0.1,0-0.2,0-0.2,0h-0.1c-0.2,0-0.4,0-0.6,0c-0.1,0-0.3,0.1-0.4,0.1c-0.2,0-0.4,0.1-0.5,0.1c-0.1,0-0.3-0.1-0.3-0.3
		C193.6,50.8,193.6,49.5,193.6,49.5z"/>
	<path class="st1" d="M199.5,40.7c0.3,0,0.4,0.2,0.4,0.4c0,0,0,0.1,0,0.1c0,0.1,0,0.3,0,0.4c0,0.4,0.1,1,0.1,1.3c0,0.1,0,0.1,0,0.2
		c0,0.2,0,0.4,0,0.5c0,0.2,0,0.4,0,0.7c0,0.4,0,0.6,0,1.1c0,0.3,0,0.7,0,1.1c0,0.2,0,0.4,0,0.6c0,0.1,0,0.3,0,0.4c0,0.2,0,0.4,0,0.6
		c0,0.2,0,0.4,0,0.6c0,0.3,0,0.5,0,0.9c0,0.5,0,0.7,0,1v0.2c0,0.5,0,0.7-0.1,0.8c-0.1,0.1-0.2,0.1-0.4,0.1c-0.1,0-0.3-0.1-0.3-0.4
		c0-0.4,0-0.9,0.1-1.1c0-0.1,0-0.1,0-0.2c0-0.3,0-0.7,0-1c0-0.3,0.1-0.6,0.1-0.8c0-0.2,0-0.3,0-0.4c0-0.3,0.1-0.6,0.1-0.8
		c0,0,0-0.1,0-0.1c0-0.2,0-0.3,0-0.5c0-0.1,0-0.3,0-0.4c0-0.3-0.1-1.1-0.1-1.5c0-1,0.1-1.4,0.1-1.8c0-0.1,0-0.2,0-0.4
		c0-0.3,0-0.4,0-0.6c0-0.2,0-0.3,0-0.5C199.3,40.8,199.4,40.7,199.5,40.7z M202.7,50.9c0-0.1-0.1-0.5-0.1-0.7c0-0.4,0-0.6,0-1
		c0-0.2,0-0.4,0-0.6c0-0.6-0.2-1.3-0.2-2c0-0.5,0.1-0.6,0.1-0.9c0,0,0-0.1,0-0.1c0-0.3-0.2-1-0.2-1.4c0-0.3,0.1-0.8,0.1-1.2
		c0-0.2,0-0.4,0-0.6c0-0.5,0.1-0.9,0.1-1.1c0-0.3-0.1-0.4-0.4-0.4c-0.5,0-0.9-0.1-1.3-0.1c-0.6,0-0.7,0.2-0.7,0.5c0,0.1,0,0.3,0,0.5
		c0,0.3,0.2,1.6,0.2,2.1c0,0.4,0,1.1,0,2.4c0,0.4,0,0.8,0,1.2c0,0.1,0,0.2,0,0.4c0,0.3,0,0.6,0,0.8v0.8c0,0.2,0,0.4,0,0.6
		c0,0.2-0.1,0.5-0.1,0.7c0,0.2,0,0.3,0,0.4c0,0.3,0.1,0.5,0.4,0.5c0.4,0,0.7-0.1,1-0.1c0.1,0,0.4,0,0.6,0.1
		C202.3,51.5,202.7,51.5,202.7,50.9z"/>
	<path class="st1" d="M204.6,42.1C204.6,42.1,204.6,42.1,204.6,42.1c0.1,0.1,0.1,0.1,0.1,0.1c0,0.1,0,0.3-0.1,0.6c0,0.2,0,0.3,0,0.5
		c0,0.2,0,0.4,0,0.4c0,0.1,0,0.1,0.3,0.5c0.3,0.4,0.6,0.6,1.2,1c0.5,0.3,0.7,0.6,1,0.8c0.3,0.3,0.6,0.5,0.7,0.5c0,0,0.1,0.2,0.4,0.4
		c0.3,0.2,0.6,0.4,0.8,0.8c0.3,0.4,0.3,0.5,0.3,1c0,0.3,0,0.4,0,0.5c0,0.3,0,0.4-0.2,0.7c-0.2,0.4-0.3,0.6-0.5,0.8
		c-0.4,0.4-0.7,0.6-0.8,0.6c-0.2,0-0.5,0.2-0.8,0.2c-0.3,0-0.6,0-0.7,0c-0.2,0-1.2-0.3-1.6-0.7c-0.3-0.2-0.8-0.6-0.8-1
		c0-0.3,0.5-0.8,0.7-0.8c0.3,0,0.3,0.1,0.4,0.5c0,0.1,0.3,0.5,0.4,0.7c0.3,0.4,0.7,0.6,1.5,0.6c0.1,0,0.3,0,0.4,0
		c0.5,0,1-0.3,1.2-0.8c0.1-0.3,0.2-0.4,0.2-0.6c0-0.1,0.1-0.4,0.1-0.6c-0.1-0.5-0.3-0.6-0.6-1.1c-0.3-0.5-0.6-0.7-1-0.9
		c-0.5-0.3-0.7-0.5-0.9-0.8c-0.2-0.3-0.7-0.4-1.1-0.8c-0.4-0.2-0.8-0.7-0.9-1c-0.1-0.3-0.2-0.7-0.2-1c0,0,0-0.1,0-0.1
		C204.1,42.6,204.4,42.1,204.6,42.1z M209.6,49.4V49c0-0.5-0.2-0.8-0.4-1.2c-0.1-0.5-0.5-0.8-0.7-0.9c-0.2-0.1-0.4-0.4-0.7-0.7
		c-0.3-0.3-0.4-0.5-0.7-0.7c-0.3-0.2-0.5-0.3-0.8-0.5s-0.3-0.1-0.7-0.6c-0.4-0.4-0.7-0.7-0.7-1.2c0-0.5,0-0.8,0.3-1.3
		c0.2-0.3,0.4-0.6,0.8-0.8c0.4-0.2,1-0.4,1.7-0.4c0.3,0,1.6,0,1.9,0.2c0.2,0.2,0.9,0.3,1,0.6c0.1,0.2,0.3,0.3,0.3,0.4
		c0,0,0,0.1,0,0.1c0,0.2-0.5,0.5-0.7,0.5c-0.2,0-0.3-0.1-0.4-0.2c0-0.1-0.5-0.8-0.9-0.9c-0.2-0.1-0.5-0.2-0.7-0.2
		c-0.1,0-0.6,0.2-0.7,0.2c-0.3,0.2-0.6,0.2-0.6,0.8c0,0.6,0,1.1,0.4,1.4c0.2,0.3,0.8,0.8,1.1,0.9c0.4,0.2,0.9,0.8,1.2,0.9
		c0.2,0.1,0.4,0.4,0.7,0.7c0.4,0.4,0.8,1,0.8,1.6c0,0.5-0.1,0.5-0.1,1c0,0.3-0.5,1.4-0.8,1.6c-0.4,0.3-0.4,0.5-0.7,0.7
		c-0.2,0.2-0.7,0.4-1.1,0.5c0,0-0.1,0-0.1,0c-0.1,0-0.2,0-0.2-0.1c0-0.1,0.1-0.1,0.2-0.2c0.3-0.2,0.6-0.5,0.9-1
		C209.6,49.8,209.6,49.6,209.6,49.4z"/>
	<path class="st1" d="M212.5,40.7c0.2,0,0.4,0.4,0.4,0.8c0,0.1,0,0.2,0,0.2c0,0.1,0,0.3,0,0.4c0,0.3,0.1,0.6,0.1,0.8
		c0,0.1,0,0.1,0,0.2c0,0.2,0,0.4,0,0.5c0,0.2,0,0.4,0,0.7c0,0.4,0,0.6,0,1.1c0,0.3,0,0.7,0,1.1c0,0.2,0,0.4,0,0.6c0,0.1,0,0.3,0,0.4
		c0,0.2,0,0.4,0,0.6c0,0.1,0,0.1,0,0.2c0,0.1,0,0.3,0,0.4c0,0.3,0,0.5,0,0.9c0,0.5,0,0.7,0,1v0.2c0,0.5,0,0.7-0.1,0.8
		c-0.1,0.1-0.2,0.1-0.4,0.1c-0.1,0-0.3-0.1-0.3-0.2v-0.2c0-0.4,0-0.9,0.1-1.1c0-0.1,0-0.1,0-0.2c0-0.3,0-0.7,0-1
		c0-0.3,0.1-0.6,0.1-0.8c0-0.1,0-0.2,0-0.3c0,0,0-0.1,0-0.2c0-0.3,0.1-0.6,0.1-0.8c0-0.2,0-0.4,0-0.6c0-0.1,0-0.3,0-0.4
		c0-0.3-0.1-1.1-0.1-1.5c0-1,0.1-1.4,0.1-1.8c0-0.1,0-0.2,0-0.4c0-0.3,0-0.4,0-0.6c0-0.2,0-0.3,0-0.5
		C212.3,40.8,212.3,40.7,212.5,40.7z M222.1,41.1c0-0.3,0-0.4-0.6-0.4s-0.7,0.1-0.7,0.4s0.1,0.4,0.1,0.6c0,0.2,0.1,0.5,0.1,0.9
		c0,0.2,0,0.4,0,0.5c0,0.1,0,0.3,0,0.4c0,0.2,0,0.4,0,0.7c0,0.4,0,0.6,0,0.9c0,0.1,0,0.2,0,0.2c0,0.4,0,0.5-0.1,0.6
		c-0.2,0-0.7,0-1,0c-0.3,0-0.9,0.1-1.3,0.1c-0.1,0-0.2,0-0.3,0c-0.2,0-1-0.1-1.4-0.1c-0.3,0-0.3,0-0.4,0c0,0-0.2,0-0.2,0
		c-0.2,0.1-0.4,0.1-0.6,0.1c-0.1,0-0.2,0-0.2-0.1c0-0.1-0.1-0.2-0.1-0.4c0-0.2,0-0.4,0-0.7c0-0.4-0.1-0.5-0.1-1.2
		c0-0.8,0.1-1.1,0.2-1.4c0-0.4,0.3-0.8,0.3-1.2c0-0.2-0.3-0.2-0.5-0.2h-0.3c-0.3,0-0.5,0-0.8,0c-0.3,0-0.6-0.1-0.9-0.1
		c-0.2,0-0.2,0.1-0.2,0.2c0,0.2,0.1,0.5,0.1,0.9c0,0.4,0.1,0.7,0.1,1c0,0.1,0.1,0.2,0.1,0.2c0,0,0,0,0,0.1c0,0.1,0,0.2,0,0.2
		c0,0.4,0,0.8,0,1.1c0,0.2,0,0.6,0,1c0,0.5-0.1,0.5-0.1,0.9c0,0.2,0,0.5,0,0.7c0,0.3,0,1.3,0,2.1c0,0.4,0,0.6,0,0.8s0.1,0.4,0.1,0.6
		c0,0.1,0,0.1,0,0.2c0,0,0,0.1,0,0.3v0.3c0,0.1,0,0.2,0,0.3c0,0.1,0,0.2,0.2,0.2c0.6,0,0.6,0,0.7,0c0.3,0,0.4,0,0.7,0
		c0,0,0.1,0,0.1,0c0.2,0,0.4,0.1,0.5,0.1s0.2-0.1,0.2-0.3c0-0.3,0-0.5,0-0.7c0-0.2-0.1-0.5-0.1-0.8c0-0.4-0.1-0.6-0.1-1
		c0-0.7,0-0.8,0-1.7c0-0.2,0-0.3,0.1-0.4c0.2-0.2,0.5-0.1,0.9-0.1c0.4,0,1.3,0,1.7-0.1c0,0,0.1,0,0.2,0c0.2,0,0.5,0,0.8,0
		c0.1,0,0.4,0,0.5,0c0,0,0,0,0.1,0c0.2,0,0.4,0,0.4,0c0.4,0,0.5,0,0.7,0.1c0.1,0.1,0,1.1,0.1,1.4c0,0,0.1,0.2,0.1,0.3
		c0,0.2-0.1,0.4-0.1,0.5c0,0.4,0,0.8,0,1c0,0.1,0,0.2,0,0.3c0,0.3-0.1,0.6-0.2,1c0,0.1,0,0.2,0,0.3c0,0.1,0,0.2,0.1,0.2
		c0.1,0,0.2,0,0.4,0c0.3,0,0.7,0,0.8-0.2c0,0,0,0,0-0.1c0-0.1-0.1-0.4-0.2-0.7c0-0.2,0-1.6-0.1-2.3c-0.1-0.4-0.1-0.6-0.1-1v-0.7
		c0-0.6,0-0.8,0-1c0-0.1,0-0.3,0-0.5c0-0.1,0-0.2,0-0.4c0-0.4,0.1-0.6,0.1-1c0-0.4,0-0.8,0-1.1c0-0.2,0-0.6,0-0.7
		C221.9,41.8,222,41.4,222.1,41.1z"/>
</g>
<g class="st2">
	<path class="st1" d="M116,59.9c0.2,0,0.4,0.4,0.4,0.8c0,0.1,0,0.1,0,0.2c0,0.1,0,0.2,0,0.4c0,0.3,0,0.5,0,0.8c0,0,0,0.1,0,0.2
		c0,0.2,0,0.4,0,0.6c0,0.2,0,0.4,0,0.6c0,0.4,0,0.6,0,1.1c0,0.3,0,0.7,0,1.1c0,0.2,0,0.4,0,0.6c0,0.2,0,0.3,0,0.4c0,0.3,0,0.4,0,0.8
		c0,0.1,0,0.3,0,0.4c0,0.3,0,0.5,0,0.9c0,0.5,0,0.7,0,1c0,0.1,0,0.1,0,0.3c0,0.2,0,0.3,0,0.4c0,0.2,0,0.4-0.1,0.4
		c0,0.1-0.2,0.1-0.4,0.1c-0.1,0-0.2,0-0.3-0.2c0-0.1,0-0.1,0-0.2c0-0.3,0-0.8,0.1-1c0-0.1,0-0.1,0-0.2c0-0.3,0-0.7,0-1
		c0-0.3,0-0.6,0-0.8c0-0.2,0-0.3,0-0.4c0-0.3,0.1-0.6,0.1-0.8c0-0.2,0-0.4,0-0.6c0-0.1,0-0.3,0-0.4c0-0.3-0.1-1.1-0.1-1.5
		c0-1,0.1-1.4,0.1-1.8c0-0.1,0-0.3,0-0.4c0-0.3-0.1-0.4-0.1-0.5c0-0.1,0-0.3,0.1-0.4C115.7,60,115.8,59.9,116,59.9z M116.7,60
		c0,0.1,0,0.1,0,0.3c0,0.3,0,0.8,0,1c0.1,0.6,0.1,1.2,0.1,2.3c0,0.3,0,0.7,0,1c0,0.3-0.1,0.5-0.1,0.8c0,0.3,0.1,0.7,0.1,1.4
		c0,0.3,0,0.5,0,0.7c0,0.1,0,0.3-0.1,0.4c0,0.2,0,0.5,0,0.8c0,0.4,0,0.7,0,1c0,0.3,0,0.6,0,0.8c0,0.5,0.2,0.4,0.6,0.5
		c0.1,0,0.2,0,0.4,0c0.4,0,0.8-0.1,1.1-0.1c0.4,0,1-0.1,1.4-0.1c0.7,0,1.1,0,1.4,0c0.4-0.1,1.1-0.3,1.5-0.5c0.3-0.2,0.8-0.5,1.1-0.8
		c0.3-0.3,0.8-1.2,1-1.9c0.1-0.4,0.3-1.1,0.3-1.6c0-0.1,0-0.2,0-0.4c0-0.2,0.1-0.4,0.1-0.6c0-0.6-0.1-1-0.3-1.5
		c-0.2-0.5-0.5-1-0.7-1.3c-0.3-0.8-1.4-1.5-2.1-1.7c-0.8-0.3-1.6-0.5-2.2-0.5c-0.4,0-1.4,0-1.9,0.1c-0.3,0-0.4,0-0.6,0
		c-0.1,0-0.1,0-0.3,0c-0.2,0-0.3,0-0.4,0C116.9,59.9,116.8,59.9,116.7,60C116.8,59.9,116.7,59.9,116.7,60z M119,60.7
		c0-0.1,0-0.2,0.1-0.2c0.1,0,0.3,0,0.5,0c0.1,0,0.1,0,0.2,0c0.1,0,0.2,0,0.3,0c0.4,0,0.6,0.1,1,0.2c0.2,0.1,1.1,0,1.2,0.2
		c0.2,0.2,0.6,0.3,0.7,0.6c0.1,0.2,0.4,0.4,0.6,0.7c0.2,0.4,0.7,0.6,0.7,1.6c0,0.2,0.2,0.5,0.2,1v0.6c0,0.2-0.1,0.2-0.1,0.4
		c0,0.3,0.1,0.4,0.1,0.6V67c0,0.2-0.4,1.1-0.6,1.5c-0.2,0.3-0.9,0.8-1.1,0.9c-0.4,0.3-0.8,0.5-1.2,0.6c-0.1,0-0.2,0-0.3,0
		c-0.1,0-0.2,0-0.4,0c0,0-0.1,0-0.2,0c-0.1,0-0.5,0-0.6,0c-0.2,0-0.5,0.1-0.7,0.1c-0.2,0-0.3,0-0.4-0.1c-0.1-0.1-0.1-0.2-0.1-0.4
		c0-0.1,0-0.3,0-0.5c0-0.4,0-0.7-0.1-1.2c0-0.2,0-0.4,0-0.5c0-0.3,0-0.6,0-1.1c0-0.5,0-1.1,0-1.6c0-0.2,0-0.3,0-0.4
		c0-0.2,0-0.4,0-0.6c0-0.1,0.1-0.3,0.1-2C118.9,61.3,119,61,119,60.7z"/>
	<path class="st1" d="M126.9,59.9c0.2,0,0.4,0.4,0.4,0.8c0,0.1,0,0.2,0,0.2c0,0.1,0,0.3,0,0.4c0,0.3,0.1,0.6,0.1,0.8
		c0,0.1,0,0.1,0,0.2c0,0.2,0,0.4,0,0.5c0,0.2,0,0.4,0,0.7c0,0.4,0,0.6,0,1.1c0,0.3,0,0.7,0,1.1c0,0.2,0,0.4,0,0.6c0,0.1,0,0.3,0,0.4
		c0,0.2,0,0.4,0,0.6c0,0.1,0,0.1,0,0.2c0,0.1,0,0.3,0,0.4c0,0.3,0,0.5,0,0.9c0,0.5,0,0.7,0,1v0.2c0,0.5,0,0.7-0.1,0.8
		c-0.1,0.1-0.2,0.1-0.4,0.1c-0.1,0-0.3-0.1-0.3-0.2c0-0.5,0-1,0.1-1.2c0-0.1,0-0.1,0-0.2c0-0.3,0-0.7,0-1c0-0.3,0.1-0.6,0.1-0.8
		c0-0.1,0-0.2,0-0.3c0,0,0-0.1,0-0.2c0-0.3,0.1-0.6,0.1-0.8c0,0,0-0.1,0-0.1c0-0.2,0-0.3,0-0.5c0-0.1,0-0.3,0-0.4
		c0-0.3-0.1-1.1-0.1-1.5c0-1,0.1-1.4,0.1-1.8c0-0.1,0-0.2,0-0.4c0-0.3,0-0.4,0-0.6c0-0.2,0-0.3,0-0.5
		C126.7,60,126.8,59.9,126.9,59.9z M136.2,70.5c0-0.3-0.3-0.4-0.4-0.6c-0.3-0.3-0.5-0.4-0.6-0.8c0-0.3-0.3-1.2-0.4-1.6
		c-0.1-0.4-0.1-0.6-0.3-0.8c-0.1-0.2-0.5-0.5-0.6-0.7c-0.5-0.6-0.5-0.6-0.7-0.6c0,0,0.4-0.3,0.7-0.4c0.3-0.1,0.6-0.6,0.9-0.9
		c0.2-0.4,0.4-1,0.4-1.3c0-0.4,0-1.2-0.2-1.5c-0.2-0.3-0.5-0.8-0.9-1c-0.4-0.1-1-0.4-1.7-0.4h-1.5c-0.1,0-0.2,0-0.4,0
		c-0.5,0-1.1,0.1-1.5,0.1c-0.1,0-0.3,0-0.4,0c-0.2,0-0.3,0-0.4,0c-0.1,0-0.2,0-0.4,0.1c-0.1,0.1-0.1,0.4-0.1,0.7
		c0,0.6,0.1,1.4,0.1,1.7c0,0.1,0,0.2,0,0.3c0,0.3,0,0.6,0,0.9c0,0.2,0,0.4,0,0.6c0,0.4,0,0.6,0,0.9c0,0.4,0,0.9,0,1.5
		c0,0.3,0,0.6,0,1c0,0.7,0,1.5,0,1.7c0,0.2,0,0.2,0,0.3c0,0.2-0.1,0.4-0.1,0.9c0,0.2,0.4,0.3,0.9,0.3c0.1,0,0.2,0,0.3,0
		c0.3,0,0.7,0,0.9-0.1c0.2,0,0.3-0.2,0.3-0.4c0-0.2,0-0.3-0.1-0.5c0-0.1,0-0.3,0-0.5v-0.6c0-0.5,0-0.7,0-1.2c0-0.4-0.1-0.6-0.1-0.8
		c0-0.1,0-0.2,0-0.2c0.2-0.3,0.4-0.4,0.6-0.4c0.3,0,0.3,0,0.5,0c0.1,0,0.5,0,0.6,0.1c0.4,0.2,0.5,0.3,0.7,0.8
		c0.2,0.4,0.5,0.6,0.7,1.5c0,0.2,0.3,1.2,0.4,1.4c0,0.3,0.3,0.8,0.5,0.9c0.1,0,0.2,0,0.3,0c0.3,0,0.7-0.1,0.9-0.1c0.3,0,0.4,0,0.7,0
		c0.1,0,0.2,0,0.3,0C136.2,70.8,136.2,70.7,136.2,70.5z M129.9,60.7c0-0.2,0.6-0.1,1.1-0.2c0.6,0,2,0,2.4,0.2
		c0.4,0.2,0.6,0.4,0.8,0.9c0,0.2,0.1,0.5,0.1,0.8c0,0.1,0,0.3,0,0.4c0,0.3-0.2,0.9-0.5,1.3c-0.3,0.4-1,0.6-1.4,0.9
		c-0.3,0.2-1,0.2-1.3,0.3c-0.1,0-0.2,0-0.4,0c-0.2,0-0.4,0-0.5,0c-0.1,0-0.2,0-0.2,0V65c0-0.3,0-0.9,0-1.2c0,0,0-0.1,0-0.2
		c0-0.5-0.1-1.3-0.1-1.9c0-0.2,0-0.3,0-0.4C129.9,61,129.9,60.8,129.9,60.7z"/>
	<path class="st1" d="M137.5,59.9c0.3,0,0.4,0.2,0.4,0.4c0,0,0,0.1,0,0.1c0,0.1,0,0.3,0,0.4c0,0.4,0.1,1,0.1,1.3c0,0.1,0,0.1,0,0.2
		c0,0.2,0,0.4,0,0.5c0,0.2,0,0.4,0,0.7c0,0.4,0,0.6,0,1.1c0,0.3,0,0.7,0,1.1c0,0.2,0,0.4,0,0.6c0,0.1,0,0.3,0,0.4c0,0.2,0,0.4,0,0.6
		c0,0.2,0,0.4,0,0.6c0,0.3,0,0.5,0,0.9c0,0.5,0,0.7,0,1v0.2c0,0.5,0,0.7-0.1,0.8c-0.1,0.1-0.2,0.1-0.4,0.1c-0.1,0-0.3-0.1-0.3-0.4
		c0-0.4,0-0.9,0.1-1.1c0-0.1,0-0.1,0-0.2c0-0.3,0-0.7,0-1c0-0.3,0.1-0.6,0.1-0.8c0-0.2,0-0.3,0-0.4c0-0.3,0.1-0.6,0.1-0.8
		c0,0,0-0.1,0-0.1c0-0.2,0-0.3,0-0.5c0-0.1,0-0.3,0-0.4c0-0.3-0.1-1.1-0.1-1.5c0-1,0.1-1.4,0.1-1.8c0-0.1,0-0.2,0-0.4
		c0-0.3,0-0.4,0-0.6c0-0.2,0-0.3,0-0.5C137.3,60,137.3,59.9,137.5,59.9z M140.7,70.1c0-0.1-0.1-0.5-0.1-0.7c0-0.4,0-0.6,0-1
		c0-0.2,0-0.4,0-0.6c0-0.6-0.2-1.3-0.2-2c0-0.5,0.1-0.6,0.1-0.9c0,0,0-0.1,0-0.1c0-0.3-0.2-1-0.2-1.4c0-0.3,0.1-0.8,0.1-1.2
		c0-0.2,0-0.4,0-0.6c0-0.5,0.1-0.9,0.1-1.1c0-0.3-0.1-0.4-0.4-0.4c-0.5,0-0.9-0.1-1.3-0.1c-0.6,0-0.7,0.2-0.7,0.5c0,0.1,0,0.3,0,0.5
		c0,0.3,0.2,1.6,0.2,2.1c0,0.4,0,1.1,0,2.4c0,0.4,0,0.8,0,1.2c0,0.1,0,0.2,0,0.4c0,0.3,0,0.6,0,0.8v0.8c0,0.2,0,0.4,0,0.6
		c0,0.2-0.1,0.5-0.1,0.7c0,0.2,0,0.3,0,0.4c0,0.3,0.1,0.5,0.4,0.5c0.4,0,0.7-0.1,1-0.1c0.1,0,0.4,0,0.6,0.1
		C140.3,70.7,140.7,70.7,140.7,70.1z"/>
	<path class="st1" d="M142.8,61.4c0.1,0.5,0.5,0.9,0.5,1.2c0.1,0.4,0.3,0.8,0.4,1.1c0.2,0.4,0.2,0.6,0.4,1c0.2,0.4,0.5,0.9,0.7,1.5
		c0.2,0.6,0.3,0.6,0.5,1.1c0.1,0.4,0.3,0.6,0.5,1.2c0.2,0.5,0.4,0.6,0.5,1.1c0.1,0.4,0.5,0.8,0.5,1.1c0,0,0,0,0,0.1
		c0,0.1-0.1,0.1-0.2,0.1c-0.2,0-0.4-0.1-0.5-0.3c-0.2-0.3-0.5-0.9-0.5-1.2c-0.1-0.3-0.4-0.7-0.5-1.1c-0.1-0.4-0.2-0.8-0.4-1.1
		c-0.2-0.3-0.3-0.8-0.5-1.1c-0.2-0.3-0.3-0.6-0.4-0.8c-0.1-0.2-0.4-1-0.5-1.4c-0.5-1.2-0.6-1.5-0.8-2c-0.3-0.5-0.7-1.2-0.8-1.6
		c0-0.1,0-0.2,0-0.2c0-0.2,0.1-0.3,0.3-0.3C142.1,59.9,142.7,60.9,142.8,61.4z M145.8,62.1c0.2,0.4,0.5,1,0.7,1.6
		c0.2,0.5,0.5,0.9,0.6,1.3c0.2,0.5,0.4,0.6,0.6,0.9c0.2,0.4,0.6,1.1,0.7,1.1c0.1,0,0.1-0.7,0.4-1.2c0.2-0.5,0.3-0.9,0.4-1.5
		c0.1-0.6,0.2-0.8,0.5-1.4c0.2-0.6,0.3-1.2,0.4-1.6c0-0.1,0-0.2,0-0.4c0-0.4-0.2-0.6-0.2-0.8c0-0.1,0-0.3,0.3-0.3c0.2,0,0.4,0,0.5,0
		c0.2,0,0.4,0,0.6,0c0.2,0,0.3,0.1,0.3,0.2c0,0.3-0.5,0.8-0.6,1.1c-0.2,0.5-0.3,1-0.5,1.5c-0.1,0.5-0.4,0.7-0.5,1.2
		c-0.1,0.5-0.1,0.8-0.4,1.6c-0.3,0.8-0.7,1.6-0.8,2.2c-0.2,0.6-0.4,1.1-0.5,1.6c-0.1,0.5-0.4,0.9-0.4,1.2c0,0.1-0.2,0.3-0.3,0.3
		c0,0-0.1,0-0.1-0.1c-0.2-0.3-0.6-0.8-0.6-1c0-0.2-0.2-0.6-0.4-0.9c-0.2-0.4-0.4-0.8-0.5-1.1c0-0.4-0.4-0.8-0.5-1.2
		c-0.1-0.4-0.4-0.8-0.6-1.2c-0.2-0.4-0.7-1.6-0.8-2.1c-0.1-0.5-0.6-1.3-0.8-1.5c-0.1-0.2,0-0.5-0.2-0.6c0-0.1-0.4-0.6-0.4-0.8
		c0-0.2,0.3-0.2,0.5-0.2h0.2c0.3,0,0.4,0,0.4,0c0,0,0.1,0,0.4,0c0.7,0,0.6,0,0.9,0C145.6,60,145.3,61.1,145.8,62.1z"/>
	<path class="st1" d="M152.9,59.9c0.1,0,0.3,0.1,0.3,0.4c0,0.1,0,0.1,0,0.2c0,0.1,0,0.3,0,0.4c0,0.4,0,0.9,0,1.2c0,0.1,0,0.2,0,0.2
		c0,0.2,0,0.4,0,0.6c0,0.2,0,0.4,0,0.6c0,0.4,0,0.6,0,1.1c0,0.3,0,0.7,0,1.1c0,0.2,0,0.4,0,0.6c0,0.2,0,0.3,0,0.4c0,0.3,0,0.4,0,0.6
		c0,0.3,0,0.4,0,0.5c0,0.3,0,0.5,0,0.9c0,0.5,0,0.7,0,1c0,0.1,0,0.1,0,0.3c0,0.2,0,0.3,0,0.4c0,0.2,0,0.4-0.1,0.4
		c0,0.1-0.2,0.1-0.4,0.1c-0.1,0-0.2,0-0.3-0.2c0-0.1,0-0.1,0-0.2c0-0.3,0-0.8,0.1-1c0-0.1,0-0.1,0-0.2c0-0.3,0-0.7,0-1
		c0-0.3,0-0.6,0-0.8c0-0.2,0-0.3,0-0.4c0-0.3,0.1-0.6,0.1-0.8c0-0.2,0-0.4,0-0.6c0-0.1,0-0.3,0-0.4c0-0.3-0.1-1.1-0.1-1.5
		c0-1,0.1-1.4,0.1-1.8c0-0.1,0-0.3,0-0.4c0-0.3-0.1-0.4-0.1-0.5c0-0.1,0-0.3,0.1-0.4C152.6,60,152.6,59.9,152.9,59.9L152.9,59.9z
		 M156.1,65.2c-0.1,0-0.2,0-0.2,0c0,0.1,0,0.1,0,0.2c0,0.2,0.1,0.4,0.1,0.6c0,0.3,0,0.5,0,0.8c0,0.2-0.1,0.5-0.1,0.8v1
		c0,0.2,0,0.4,0,0.6c0,0.7,0.1,0.8,0.2,0.8c0.1,0,0.1,0,0.3,0h0.8c0.2,0,0.4,0,0.5,0c0.7-0.1,1.2-0.2,1.3-0.2c0.3,0,0.6-0.2,0.9-0.2
		c0.1,0,0.2-0.1,0.2-0.1c0.1,0,0.1,0,0.1,0.3c0,0.2-0.3,0.8-0.6,0.9c-0.1,0-0.2,0-0.3,0c-0.2,0-0.4,0-0.5,0c-0.1,0-0.5-0.1-0.7-0.1
		h-0.8c-0.1,0-0.4-0.1-0.5-0.1c-0.5,0-1.2,0.1-1.6,0.1c-0.4,0-0.7,0.1-1,0.1c-0.4,0-0.7-0.1-0.7-0.4c0-0.3,0-0.6,0-0.9
		c0-0.1,0.1-0.2,0.1-0.4v-0.6c0-0.3,0-0.6,0.1-0.9c0-0.1,0-0.2,0-0.4c0-0.1,0-0.2-0.1-0.3c0,0,0-0.1,0-0.3c0-0.2,0-0.6,0-0.9
		c0-0.3-0.1-0.5-0.1-0.7c0-0.3,0.1-0.7,0.1-0.7c0-0.1,0-0.2,0-0.3c0-0.2,0-0.3,0-0.4c0-0.1,0-0.2,0-0.3c0-0.4,0-1.1,0-1.5
		c0-0.4-0.1-1.1-0.1-1.5c0-0.2,0-0.3,0-0.3c0.1-0.1,0.2-0.1,0.4-0.1c0.3,0,0.4,0,0.5,0c0.4,0,0.3,0,0.5,0c0.1,0,0.3,0,0.5,0
		c0.3,0,0.6,0,1.6,0c0.4,0,0.8,0,1.1,0c0.4,0,1.1-0.1,1.3-0.1c0.2,0,0.6,0,0.6,0.2c0,0.3-0.3,0.6-0.4,0.7c-0.1,0,0,0.1-0.2,0.1
		c0,0-0.1,0-0.1,0c-0.3,0-0.5-0.2-0.7-0.2c-0.3,0-0.4-0.1-0.6-0.1c-1,0-1.6,0-2.1-0.1c-0.2,0-0.2,0.1-0.2,0.2c0,0.2-0.1,0.4-0.1,0.5
		c0,0.3,0,0.6,0.1,1c0,0.3,0,0.4,0,0.6l0,0.6c0,0.1,0,0.2,0,0.4c0,0.4,0,0.6,0.1,0.7c0,0.1,0.1,0.1,0.2,0.1c0.1,0,0.2,0,0.4,0
		c0.3,0,0.5,0,0.7-0.1c0.1,0,0.2,0,0.3,0s0.2,0,0.3,0c0.2,0,0.4-0.1,0.5-0.1c0.1,0,0.2,0.1,0.2,0.2c0,0.1,0,0.2-0.1,0.3
		c-0.1,0.2-0.3,0.4-0.5,0.4c0,0-0.1,0-0.1,0c-0.2,0-0.5-0.1-0.6-0.1c-0.1,0-0.3,0-0.4,0C156.5,65.2,156.3,65.2,156.1,65.2z"/>
	<path class="st1" d="M166.3,59.9c0.3,0,0.4,0.2,0.4,0.4c0,0,0,0.1,0,0.1c0,0.1,0,0.3,0,0.4c0,0.4,0.1,1,0.1,1.3c0,0.1,0,0.1,0,0.2
		c0,0.2,0,0.4,0,0.5c0,0.2,0,0.4,0,0.7c0,0.4,0,0.6,0,1.1c0,0.3,0,0.7,0,1.1c0,0.2,0,0.4,0,0.6c0,0.1,0,0.3,0,0.4c0,0.2,0,0.4,0,0.6
		c0,0.2,0,0.4,0,0.6c0,0.3,0,0.5,0,0.9c0,0.5,0,0.7,0,1v0.2c0,0.5,0,0.7-0.1,0.8c-0.1,0.1-0.2,0.1-0.4,0.1c-0.1,0-0.3-0.1-0.3-0.4
		c0-0.4,0-0.9,0.1-1.1c0-0.1,0-0.1,0-0.2c0-0.3,0-0.7,0-1c0-0.3,0.1-0.6,0.1-0.8c0-0.2,0-0.3,0-0.4c0-0.3,0.1-0.6,0.1-0.8
		c0,0,0-0.1,0-0.1c0-0.2,0-0.3,0-0.5c0-0.1,0-0.3,0-0.4c0-0.3-0.1-1.1-0.1-1.5c0-1,0.1-1.4,0.1-1.8c0-0.1,0-0.2,0-0.4
		c0-0.3,0-0.4,0-0.6c0-0.2,0-0.3,0-0.5C166.1,60,166.1,59.9,166.3,59.9z M169.5,70.1c0-0.1-0.1-0.5-0.1-0.7c0-0.4,0-0.6,0-1
		c0-0.2,0-0.4,0-0.6c0-0.6-0.2-1.3-0.2-2c0-0.5,0.1-0.6,0.1-0.9c0,0,0-0.1,0-0.1c0-0.3-0.2-1-0.2-1.4c0-0.3,0.1-0.8,0.1-1.2
		c0-0.2,0-0.4,0-0.6c0-0.5,0.1-0.9,0.1-1.1c0-0.3-0.1-0.4-0.4-0.4c-0.5,0-0.9-0.1-1.3-0.1c-0.6,0-0.7,0.2-0.7,0.5c0,0.1,0,0.3,0,0.5
		c0,0.3,0.2,1.6,0.2,2.1c0,0.4,0,1.1,0,2.4c0,0.4,0,0.8,0,1.2c0,0.1,0,0.2,0,0.4c0,0.3,0,0.6,0,0.8v0.8c0,0.2,0,0.4,0,0.6
		c0,0.2-0.1,0.5-0.1,0.7c0,0.2,0,0.3,0,0.4c0,0.3,0.1,0.5,0.4,0.5c0.4,0,0.7-0.1,1-0.1c0.1,0,0.4,0,0.6,0.1
		C169.1,70.7,169.5,70.7,169.5,70.1z"/>
	<path class="st1" d="M171.7,60.3c0,0.1,0,0.1,0,0.2c0,0.1,0,0.2,0,0.4c0,0.4,0.1,0.9,0.1,1.2c0,0.1,0,0.1,0,0.2c0,0.2,0,0.4,0,0.5
		c0,0.2,0,0.4,0,0.7c0,0.4,0,0.6,0,1.1c0,0.3,0,0.7,0,1.1c0,0.2,0,0.4,0,0.6c0,0.1,0,0.3,0,0.4c0,0.2,0,0.4,0,0.6c0,0.1,0,0.1,0,0.2
		c0,0.1,0,0.3,0,0.4c0,0.3,0,0.5,0,0.9c0,0.5,0,0.7,0,1.2c0,0.5,0,0.7-0.1,0.8c-0.1,0.1-0.2,0.1-0.4,0.1c-0.1,0-0.3-0.1-0.3-0.2
		c0-0.5,0-1,0.1-1.2c0-0.1,0-0.1,0-0.2c0-0.3,0-0.7,0-1c0-0.3,0.1-0.6,0.1-0.8c0-0.1,0-0.2,0-0.3c0,0,0-0.1,0-0.2
		c0-0.3,0.1-0.6,0.1-0.8c0,0,0-0.1,0-0.1c0-0.2,0-0.3,0-0.5c0-0.1,0-0.3,0-0.4c0-0.3-0.1-1.1-0.1-1.5c0-1,0.1-1.4,0.1-1.8
		c0-0.1,0-0.2,0-0.4c0-0.3,0-0.4,0-0.6c0-0.2,0-0.3,0-0.5c0-0.4,0.1-0.4,0.3-0.4C171.5,59.9,171.7,60,171.7,60.3z M180.5,60.4
		c0,0.3-0.1,1-0.1,1.7c0,0.4-0.1,0.9-0.1,1.4c0,0.3,0,0.6,0,1c0,0.4,0,0.8,0,1.1c0,0.7,0,1.3,0,2c0,0.3,0.1,0.9,0.1,1.2
		c0,0.3,0,0.6,0,0.9c0,0.1,0,0.3,0,0.5c0,0.3,0,0.5-0.1,0.6c-0.1,0.1-0.3,0.2-0.6,0.2c-0.1,0-0.1,0-0.2,0c-0.3-0.1-0.6-0.9-0.9-1.1
		c-0.3-0.2-0.6-0.6-0.9-0.9c-0.3-0.3-0.7-0.9-1.1-1.3c-0.5-0.4-0.7-0.5-1-0.9c-0.4-0.4-0.4-0.7-0.8-1c-0.3-0.4-0.8-0.8-1-1.1
		c-0.2-0.2-0.3-0.6-0.6-0.9c-0.2-0.2-0.4-0.5-0.5-0.5c0,0,0,0.1,0,0.2v0.1c0,0,0,0.1,0,0.1c0,0.1,0,0.2,0,0.3c0,0.3,0.1,0.6,0.1,0.9
		c0,0.5,0,0.7,0,1c0,0.1,0,0.2,0,0.5s0.1,0.6,0.1,1.1c0,0.4,0.1,0.8,0.1,1.2c0,0.1,0,0.5,0,0.7c0.1,0.5,0.2,0.8,0.2,1.1
		c0,0.4-0.1,0.4-0.3,0.4h-0.4c-0.1,0-0.3,0-0.3-0.2c0-0.2,0-0.3,0-0.5v-2.2c0-0.3,0-0.5,0-0.6c0-0.5,0-1,0-1.3c0-0.4,0-0.6,0-1.1
		v-0.2c0-0.4,0-1,0-1.4v-0.9c0-0.4,0-0.7,0-0.8c0-0.2,0-0.8,0-1.1c0-0.3,0-0.4,0.2-0.4h0.1c0,0,0.1,0,0.2,0c0.3,0,0.5,0,0.7,0.1
		c0,0,0,0,0,0c0.3,0,0.4,0.3,0.6,0.7c0.3,0.4,0.6,0.6,0.9,1.1c0.4,0.5,0.7,1.1,1,1.3s0.7,0.7,0.9,1c0.3,0.3,0.9,1,1.2,1.4
		c0.4,0.4,0.6,0.7,0.9,1c0.3,0.3,0.7,0.9,0.7,0.9s0-0.3,0.1-0.8c0-0.1,0-0.2,0-0.3c0-0.3,0-0.5,0-0.8c0-0.6-0.1-0.7-0.1-1.2
		c0-0.4,0-0.8,0-1.3c0-0.9-0.1-1.5-0.1-1.8c0-0.4-0.3-0.8-0.3-1.1c0-0.2,0.1-0.3,0.3-0.3c0.1,0,0.4,0,0.6,0
		C180.5,59.9,180.4,60.1,180.5,60.4C180.4,60.3,180.5,60.3,180.5,60.4z"/>
</g>
<polygon class="st1" points="148.4,19.4 144.9,24.9 150.7,24.9 154.2,19.4 "/>
<polygon class="st1" points="126.1,19.4 126.1,24.9 127.5,24.9 131.1,19.4 "/>
<polygon class="st1" points="136.9,19.4 133.3,24.9 139.1,24.9 142.7,19.4 "/>
<polygon class="st1" points="173.2,19.4 171.6,19.4 168.1,24.9 173.8,24.9 173.2,24.9 "/>
<polygon class="st1" points="160,19.4 156.5,24.9 162.3,24.9 165.8,19.4 "/>
<polygon class="st1" points="147.6,13.7 142.2,9.3 147.8,8 153.1,12.4 "/>
<polygon class="st1" points="170,3 170,2.9 170,2.9 "/>
<polygon class="st1" points="126,18.6 124.1,13.4 125.5,13.1 130.9,17.5 "/>
<polygon class="st1" points="136.4,16.2 131.1,11.8 136.6,10.5 142,15 "/>
<polygon class="st1" points="172,8.2 169.8,8.7 164.4,4.2 170,2.9 170,3 "/>
<polygon class="st1" points="158.7,11.2 153.3,6.7 158.9,5.5 164.2,9.9 "/>
<path class="st1" d="M278.9,80.1l8.8-2.6v0.9l-1.9,0.6c0,0-0.1,0-0.1,0.1v2.7c0,0,0,0.1,0.1,0.1c0,0,0,0,0,0l1.9,0.6v0.9l-8.8-2.6
	V80.1z M284.5,81.5L284.5,81.5C284.5,81.5,284.6,81.5,284.5,81.5l0.1-2.1c0,0,0-0.1-0.1-0.1l0,0l-3.7,1.1l0,0l0,0L284.5,81.5z"/>
<path class="st1" d="M284.9,73.5h-3.2c-1.4,0.1-2.7-1-2.8-2.4c0.1-1.4,1.4-2.5,2.8-2.4h3.2c1.3-0.2,2.6,0.6,2.8,2
	c0.2,1.3-0.6,2.6-2,2.8C285.5,73.6,285.2,73.6,284.9,73.5z M281.7,72.6h3.2c0.9,0,1.7-0.6,1.8-1.5c-0.1-0.9-0.9-1.6-1.8-1.5h-3.2
	c-0.9-0.1-1.7,0.6-1.8,1.5C280,72,280.8,72.7,281.7,72.6z"/>
<path class="st1" d="M287.6,64.9H280c-0.1,0-0.1,0-0.1,0.1v1h-0.9v-2h8.8L287.6,64.9z"/>
<path class="st1" d="M287.6,56.6V61l-0.9,0.1l-2.9-2.4c-0.7-0.7-1.6-1.2-2.6-1.2c-0.7-0.1-1.4,0.5-1.4,1.2c0,0,0,0,0,0
	c0,0.6,0.4,1.2,1,1.5l-0.8,0.5c-0.7-0.4-1.2-1.1-1.3-1.9c0.1-1.2,1.1-2.2,2.3-2.1c0,0,0.1,0,0.1,0c1,0,2,0.3,3.9,2l1.2,1
	c0,0,0.1,0.1,0.2,0.1c0,0,0-0.1,0-0.2v-3L287.6,56.6z"/>
<path class="st1" d="M284.9,55.1h-3.2c-1.4,0.1-2.7-1-2.8-2.4c0.1-1.4,1.4-2.5,2.8-2.4h3.2c1.4-0.1,2.7,1,2.9,2.4
	C287.6,54.2,286.3,55.2,284.9,55.1z M281.7,54.3h3.2c0.9,0,1.7-0.6,1.8-1.5c-0.1-0.9-0.9-1.6-1.8-1.5h-3.2c-0.9-0.1-1.7,0.6-1.8,1.5
	C280,53.6,280.8,54.3,281.7,54.3z"/>
<path class="st1" d="M279.7,48.4c-0.6-0.4-0.9-1.1-0.9-1.8c0-1.1,0.9-2,2-2c0.1,0,0.1,0,0.2,0c0.6,0,1.3,0.3,1.7,0.8c0,0,0,0,0.1,0
	s0,0,0,0c0.5-0.8,1.3-1.2,2.2-1.2c1.4-0.1,2.6,0.9,2.7,2.2c0,0,0,0.1,0,0.1c0,0.8-0.4,1.5-1,2l-0.9-0.4c0.5-0.3,0.8-0.9,0.8-1.5
	c0-0.9-0.8-1.6-1.7-1.5c-0.9,0-1.7,0.7-1.7,1.6c0,0,0,0,0,0v0.6h-0.9v-0.5c0-0.7-0.6-1.3-1.3-1.3c0,0-0.1,0-0.1,0
	c-0.6,0-1.1,0.4-1.1,1c0,0,0,0.1,0,0.1c0.1,0.6,0.4,1.1,0.9,1.4L279.7,48.4z"/>
<path class="st1" d="M281.8,43c-1.5,0.1-2.9-1-3-2.5c0.1-1.5,1.4-2.6,2.9-2.5c0,0,0.1,0,0.1,0c0.5,0,1,0.1,1.5,0.3l4.4,2.3l-0.5,0.8
	l-2.4-1.3c0,0.1,0,0.2,0,0.3C284.7,42,283.4,43.1,281.8,43C281.9,43,281.9,43,281.8,43z M281.8,38.8c-0.9-0.2-1.8,0.4-1.9,1.3
	s0.4,1.8,1.3,1.9c0.2,0,0.4,0,0.6,0c1,0.1,1.9-0.6,2-1.6c0,0,0,0,0,0c-0.1-1-0.9-1.7-1.9-1.7C281.9,38.8,281.9,38.8,281.8,38.8
	L281.8,38.8z"/>
<polygon class="st1" points="278.5,25.9 281.1,25.2 281,23 282.6,24.8 285.1,24.1 283.5,25.9 285.1,27.7 282.6,27 281,28.8 
	281.1,26.5 "/>
<polygon class="st1" points="278.5,97 281.1,96.3 281,94.1 282.6,95.9 285.1,95.2 283.5,97 285.1,98.8 282.6,98.1 281,99.9 
	281.1,97.7 "/>
<path class="st1" d="M19.8,42.8L11,45.4v-0.9l1.9-0.5c0,0,0.1,0,0.1-0.1c0,0,0,0,0,0v-2.7c0-0.1,0-0.1-0.1-0.1L11,40.5v-0.9l8.8,2.6
	L19.8,42.8z M14.1,41.4L14.1,41.4L14.1,41.4l-0.1,2.1c0,0,0,0.1,0.1,0.1l0,0l3.7-1.1l0,0l0,0L14.1,41.4z"/>
<path class="st1" d="M13.8,49.4H17c1.4-0.1,2.7,1,2.8,2.4c-0.1,1.4-1.4,2.5-2.8,2.4h-3.2c-1.4,0.1-2.7-1-2.8-2.4
	C11.1,50.3,12.4,49.3,13.8,49.4z M17,50.2h-3.2c-0.9,0-1.7,0.6-1.8,1.5c0.1,0.9,0.9,1.6,1.8,1.5H17c0.9,0.1,1.7-0.6,1.8-1.5
	C18.7,50.9,17.9,50.2,17,50.2z"/>
<path class="st1" d="M11,58h7.7c0.1,0,0.2,0,0.2-0.1v-1h0.9v2H11V58z"/>
<path class="st1" d="M11,66.3v-4.4l0.9-0.1l2.9,2.4c0.7,0.7,1.6,1.2,2.6,1.2c0.7,0.1,1.4-0.5,1.4-1.2c0-0.6-0.4-1.2-1-1.5l0.8-0.5
	c0.8,0.4,1.3,1.1,1.3,2c-0.1,1.2-1.1,2.2-2.3,2.1c0,0-0.1,0-0.1,0c-1,0-2-0.3-3.9-2l-1.2-1c-0.1,0-0.1-0.1-0.2-0.1s0,0.1,0,0.2v3
	L11,66.3z"/>
<path class="st1" d="M13.8,67.8H17c1.3-0.2,2.6,0.7,2.8,2c0.2,1.3-0.7,2.6-2,2.8c-0.3,0-0.5,0-0.8,0h-3.2c-1.3,0.2-2.6-0.7-2.8-2
	c-0.2-1.3,0.7-2.6,2-2.8C13.2,67.7,13.5,67.7,13.8,67.8z M17,68.6h-3.2c-0.9-0.1-1.7,0.6-1.8,1.5c0.1,0.9,0.9,1.6,1.8,1.5H17
	c0.9,0.1,1.7-0.6,1.8-1.5C18.7,69.3,17.9,68.6,17,68.6z"/>
<path class="st1" d="M19,74.5c0.6,0.4,0.9,1.1,0.9,1.8c0,1.1-0.9,2-2,2c-0.1,0-0.1,0-0.2,0c-0.7,0-1.3-0.3-1.7-0.8l0,0
	c0,0,0,0-0.1,0.1c-0.5,0.8-1.3,1.2-2.2,1.2c-1.4,0.2-2.6-0.8-2.8-2.2c0-0.1,0-0.2,0-0.2c0-0.8,0.4-1.5,1-2l0.9,0.4
	c-0.5,0.3-0.8,0.9-0.8,1.5c0.1,0.9,0.8,1.5,1.7,1.5c0,0,0,0,0,0c0.9,0,1.7-0.7,1.7-1.6c0,0,0,0,0,0v-0.6h0.9v0.5
	c0,0.7,0.6,1.3,1.3,1.3c0,0,0.1,0,0.1,0c0.6,0,1.1-0.4,1.1-1c0,0,0-0.1,0-0.1c-0.1-0.6-0.4-1-0.9-1.4L19,74.5z"/>
<path class="st1" d="M16.9,79.9c1.4-0.3,2.7,0.6,3,2c0.3,1.4-0.6,2.7-2,3c-0.3,0.1-0.7,0.1-1,0c-0.5,0-1-0.1-1.5-0.3l-4.4-2.3
	l0.6-0.8l2.4,1.3c0-0.1,0-0.2,0-0.3C13.9,81.1,15,79.9,16.9,79.9z M16.9,84.1c0.9,0.1,1.7-0.5,1.9-1.4c0.1-0.9-0.5-1.7-1.4-1.9
	c-0.2,0-0.3,0-0.5,0c-1-0.1-1.9,0.6-2,1.6c0,0,0,0,0,0c0.1,1,0.9,1.7,1.9,1.6C16.8,84.1,16.8,84.1,16.9,84.1z"/>
<polygon class="st1" points="20.2,97 17.6,97.7 17.7,99.9 16.1,98.1 13.6,98.8 15.2,97 13.6,95.2 16.1,95.9 17.7,94.1 17.6,96.3 "/>
<polygon class="st1" points="20.2,25.9 17.6,26.5 17.7,28.8 16.1,27 13.6,27.7 15.2,25.9 13.6,24.1 16.1,24.8 17.7,23 17.6,25.2 "/>
<path class="st3" d="M260.7,101.7H45.2V82.5h215.4V101.7z M47,100.8h211.9V83.4H47V100.8z"/>
<text transform="matrix(1 0 0 1 52.1 97.05)" class="st1 st4 st5">Until 13th September 2020</text>
</svg>
